%TF.GenerationSoftware,KiCad,Pcbnew,9.0.7*%
%TF.CreationDate,2026-03-30T19:21:22+02:00*%
%TF.ProjectId,Macropad_PCB,4d616372-6f70-4616-945f-5043422e6b69,rev?*%
%TF.SameCoordinates,Original*%
%TF.FileFunction,Legend,Top*%
%TF.FilePolarity,Positive*%
%FSLAX46Y46*%
G04 Gerber Fmt 4.6, Leading zero omitted, Abs format (unit mm)*
G04 Created by KiCad (PCBNEW 9.0.7) date 2026-03-30 19:21:22*
%MOMM*%
%LPD*%
G01*
G04 APERTURE LIST*
%ADD10C,0.150000*%
%ADD11C,0.101600*%
%ADD12C,0.120000*%
%ADD13C,0.127000*%
%ADD14C,0.100000*%
%ADD15C,0.504000*%
G04 APERTURE END LIST*
D10*
X66818095Y-60432200D02*
X66960952Y-60479819D01*
X66960952Y-60479819D02*
X67199047Y-60479819D01*
X67199047Y-60479819D02*
X67294285Y-60432200D01*
X67294285Y-60432200D02*
X67341904Y-60384580D01*
X67341904Y-60384580D02*
X67389523Y-60289342D01*
X67389523Y-60289342D02*
X67389523Y-60194104D01*
X67389523Y-60194104D02*
X67341904Y-60098866D01*
X67341904Y-60098866D02*
X67294285Y-60051247D01*
X67294285Y-60051247D02*
X67199047Y-60003628D01*
X67199047Y-60003628D02*
X67008571Y-59956009D01*
X67008571Y-59956009D02*
X66913333Y-59908390D01*
X66913333Y-59908390D02*
X66865714Y-59860771D01*
X66865714Y-59860771D02*
X66818095Y-59765533D01*
X66818095Y-59765533D02*
X66818095Y-59670295D01*
X66818095Y-59670295D02*
X66865714Y-59575057D01*
X66865714Y-59575057D02*
X66913333Y-59527438D01*
X66913333Y-59527438D02*
X67008571Y-59479819D01*
X67008571Y-59479819D02*
X67246666Y-59479819D01*
X67246666Y-59479819D02*
X67389523Y-59527438D01*
X67722857Y-59479819D02*
X68389523Y-59479819D01*
X68389523Y-59479819D02*
X67960952Y-60479819D01*
X66341905Y-79482200D02*
X66484762Y-79529819D01*
X66484762Y-79529819D02*
X66722857Y-79529819D01*
X66722857Y-79529819D02*
X66818095Y-79482200D01*
X66818095Y-79482200D02*
X66865714Y-79434580D01*
X66865714Y-79434580D02*
X66913333Y-79339342D01*
X66913333Y-79339342D02*
X66913333Y-79244104D01*
X66913333Y-79244104D02*
X66865714Y-79148866D01*
X66865714Y-79148866D02*
X66818095Y-79101247D01*
X66818095Y-79101247D02*
X66722857Y-79053628D01*
X66722857Y-79053628D02*
X66532381Y-79006009D01*
X66532381Y-79006009D02*
X66437143Y-78958390D01*
X66437143Y-78958390D02*
X66389524Y-78910771D01*
X66389524Y-78910771D02*
X66341905Y-78815533D01*
X66341905Y-78815533D02*
X66341905Y-78720295D01*
X66341905Y-78720295D02*
X66389524Y-78625057D01*
X66389524Y-78625057D02*
X66437143Y-78577438D01*
X66437143Y-78577438D02*
X66532381Y-78529819D01*
X66532381Y-78529819D02*
X66770476Y-78529819D01*
X66770476Y-78529819D02*
X66913333Y-78577438D01*
X67865714Y-79529819D02*
X67294286Y-79529819D01*
X67580000Y-79529819D02*
X67580000Y-78529819D01*
X67580000Y-78529819D02*
X67484762Y-78672676D01*
X67484762Y-78672676D02*
X67389524Y-78767914D01*
X67389524Y-78767914D02*
X67294286Y-78815533D01*
X68818095Y-79529819D02*
X68246667Y-79529819D01*
X68532381Y-79529819D02*
X68532381Y-78529819D01*
X68532381Y-78529819D02*
X68437143Y-78672676D01*
X68437143Y-78672676D02*
X68341905Y-78767914D01*
X68341905Y-78767914D02*
X68246667Y-78815533D01*
X85868095Y-41382200D02*
X86010952Y-41429819D01*
X86010952Y-41429819D02*
X86249047Y-41429819D01*
X86249047Y-41429819D02*
X86344285Y-41382200D01*
X86344285Y-41382200D02*
X86391904Y-41334580D01*
X86391904Y-41334580D02*
X86439523Y-41239342D01*
X86439523Y-41239342D02*
X86439523Y-41144104D01*
X86439523Y-41144104D02*
X86391904Y-41048866D01*
X86391904Y-41048866D02*
X86344285Y-41001247D01*
X86344285Y-41001247D02*
X86249047Y-40953628D01*
X86249047Y-40953628D02*
X86058571Y-40906009D01*
X86058571Y-40906009D02*
X85963333Y-40858390D01*
X85963333Y-40858390D02*
X85915714Y-40810771D01*
X85915714Y-40810771D02*
X85868095Y-40715533D01*
X85868095Y-40715533D02*
X85868095Y-40620295D01*
X85868095Y-40620295D02*
X85915714Y-40525057D01*
X85915714Y-40525057D02*
X85963333Y-40477438D01*
X85963333Y-40477438D02*
X86058571Y-40429819D01*
X86058571Y-40429819D02*
X86296666Y-40429819D01*
X86296666Y-40429819D02*
X86439523Y-40477438D01*
X87296666Y-40763152D02*
X87296666Y-41429819D01*
X87058571Y-40382200D02*
X86820476Y-41096485D01*
X86820476Y-41096485D02*
X87439523Y-41096485D01*
X47768095Y-60432200D02*
X47910952Y-60479819D01*
X47910952Y-60479819D02*
X48149047Y-60479819D01*
X48149047Y-60479819D02*
X48244285Y-60432200D01*
X48244285Y-60432200D02*
X48291904Y-60384580D01*
X48291904Y-60384580D02*
X48339523Y-60289342D01*
X48339523Y-60289342D02*
X48339523Y-60194104D01*
X48339523Y-60194104D02*
X48291904Y-60098866D01*
X48291904Y-60098866D02*
X48244285Y-60051247D01*
X48244285Y-60051247D02*
X48149047Y-60003628D01*
X48149047Y-60003628D02*
X47958571Y-59956009D01*
X47958571Y-59956009D02*
X47863333Y-59908390D01*
X47863333Y-59908390D02*
X47815714Y-59860771D01*
X47815714Y-59860771D02*
X47768095Y-59765533D01*
X47768095Y-59765533D02*
X47768095Y-59670295D01*
X47768095Y-59670295D02*
X47815714Y-59575057D01*
X47815714Y-59575057D02*
X47863333Y-59527438D01*
X47863333Y-59527438D02*
X47958571Y-59479819D01*
X47958571Y-59479819D02*
X48196666Y-59479819D01*
X48196666Y-59479819D02*
X48339523Y-59527438D01*
X49196666Y-59479819D02*
X49006190Y-59479819D01*
X49006190Y-59479819D02*
X48910952Y-59527438D01*
X48910952Y-59527438D02*
X48863333Y-59575057D01*
X48863333Y-59575057D02*
X48768095Y-59717914D01*
X48768095Y-59717914D02*
X48720476Y-59908390D01*
X48720476Y-59908390D02*
X48720476Y-60289342D01*
X48720476Y-60289342D02*
X48768095Y-60384580D01*
X48768095Y-60384580D02*
X48815714Y-60432200D01*
X48815714Y-60432200D02*
X48910952Y-60479819D01*
X48910952Y-60479819D02*
X49101428Y-60479819D01*
X49101428Y-60479819D02*
X49196666Y-60432200D01*
X49196666Y-60432200D02*
X49244285Y-60384580D01*
X49244285Y-60384580D02*
X49291904Y-60289342D01*
X49291904Y-60289342D02*
X49291904Y-60051247D01*
X49291904Y-60051247D02*
X49244285Y-59956009D01*
X49244285Y-59956009D02*
X49196666Y-59908390D01*
X49196666Y-59908390D02*
X49101428Y-59860771D01*
X49101428Y-59860771D02*
X48910952Y-59860771D01*
X48910952Y-59860771D02*
X48815714Y-59908390D01*
X48815714Y-59908390D02*
X48768095Y-59956009D01*
X48768095Y-59956009D02*
X48720476Y-60051247D01*
X28718095Y-60432200D02*
X28860952Y-60479819D01*
X28860952Y-60479819D02*
X29099047Y-60479819D01*
X29099047Y-60479819D02*
X29194285Y-60432200D01*
X29194285Y-60432200D02*
X29241904Y-60384580D01*
X29241904Y-60384580D02*
X29289523Y-60289342D01*
X29289523Y-60289342D02*
X29289523Y-60194104D01*
X29289523Y-60194104D02*
X29241904Y-60098866D01*
X29241904Y-60098866D02*
X29194285Y-60051247D01*
X29194285Y-60051247D02*
X29099047Y-60003628D01*
X29099047Y-60003628D02*
X28908571Y-59956009D01*
X28908571Y-59956009D02*
X28813333Y-59908390D01*
X28813333Y-59908390D02*
X28765714Y-59860771D01*
X28765714Y-59860771D02*
X28718095Y-59765533D01*
X28718095Y-59765533D02*
X28718095Y-59670295D01*
X28718095Y-59670295D02*
X28765714Y-59575057D01*
X28765714Y-59575057D02*
X28813333Y-59527438D01*
X28813333Y-59527438D02*
X28908571Y-59479819D01*
X28908571Y-59479819D02*
X29146666Y-59479819D01*
X29146666Y-59479819D02*
X29289523Y-59527438D01*
X30194285Y-59479819D02*
X29718095Y-59479819D01*
X29718095Y-59479819D02*
X29670476Y-59956009D01*
X29670476Y-59956009D02*
X29718095Y-59908390D01*
X29718095Y-59908390D02*
X29813333Y-59860771D01*
X29813333Y-59860771D02*
X30051428Y-59860771D01*
X30051428Y-59860771D02*
X30146666Y-59908390D01*
X30146666Y-59908390D02*
X30194285Y-59956009D01*
X30194285Y-59956009D02*
X30241904Y-60051247D01*
X30241904Y-60051247D02*
X30241904Y-60289342D01*
X30241904Y-60289342D02*
X30194285Y-60384580D01*
X30194285Y-60384580D02*
X30146666Y-60432200D01*
X30146666Y-60432200D02*
X30051428Y-60479819D01*
X30051428Y-60479819D02*
X29813333Y-60479819D01*
X29813333Y-60479819D02*
X29718095Y-60432200D01*
X29718095Y-60432200D02*
X29670476Y-60384580D01*
X66818095Y-41382200D02*
X66960952Y-41429819D01*
X66960952Y-41429819D02*
X67199047Y-41429819D01*
X67199047Y-41429819D02*
X67294285Y-41382200D01*
X67294285Y-41382200D02*
X67341904Y-41334580D01*
X67341904Y-41334580D02*
X67389523Y-41239342D01*
X67389523Y-41239342D02*
X67389523Y-41144104D01*
X67389523Y-41144104D02*
X67341904Y-41048866D01*
X67341904Y-41048866D02*
X67294285Y-41001247D01*
X67294285Y-41001247D02*
X67199047Y-40953628D01*
X67199047Y-40953628D02*
X67008571Y-40906009D01*
X67008571Y-40906009D02*
X66913333Y-40858390D01*
X66913333Y-40858390D02*
X66865714Y-40810771D01*
X66865714Y-40810771D02*
X66818095Y-40715533D01*
X66818095Y-40715533D02*
X66818095Y-40620295D01*
X66818095Y-40620295D02*
X66865714Y-40525057D01*
X66865714Y-40525057D02*
X66913333Y-40477438D01*
X66913333Y-40477438D02*
X67008571Y-40429819D01*
X67008571Y-40429819D02*
X67246666Y-40429819D01*
X67246666Y-40429819D02*
X67389523Y-40477438D01*
X67722857Y-40429819D02*
X68341904Y-40429819D01*
X68341904Y-40429819D02*
X68008571Y-40810771D01*
X68008571Y-40810771D02*
X68151428Y-40810771D01*
X68151428Y-40810771D02*
X68246666Y-40858390D01*
X68246666Y-40858390D02*
X68294285Y-40906009D01*
X68294285Y-40906009D02*
X68341904Y-41001247D01*
X68341904Y-41001247D02*
X68341904Y-41239342D01*
X68341904Y-41239342D02*
X68294285Y-41334580D01*
X68294285Y-41334580D02*
X68246666Y-41382200D01*
X68246666Y-41382200D02*
X68151428Y-41429819D01*
X68151428Y-41429819D02*
X67865714Y-41429819D01*
X67865714Y-41429819D02*
X67770476Y-41382200D01*
X67770476Y-41382200D02*
X67722857Y-41334580D01*
X47291905Y-79482200D02*
X47434762Y-79529819D01*
X47434762Y-79529819D02*
X47672857Y-79529819D01*
X47672857Y-79529819D02*
X47768095Y-79482200D01*
X47768095Y-79482200D02*
X47815714Y-79434580D01*
X47815714Y-79434580D02*
X47863333Y-79339342D01*
X47863333Y-79339342D02*
X47863333Y-79244104D01*
X47863333Y-79244104D02*
X47815714Y-79148866D01*
X47815714Y-79148866D02*
X47768095Y-79101247D01*
X47768095Y-79101247D02*
X47672857Y-79053628D01*
X47672857Y-79053628D02*
X47482381Y-79006009D01*
X47482381Y-79006009D02*
X47387143Y-78958390D01*
X47387143Y-78958390D02*
X47339524Y-78910771D01*
X47339524Y-78910771D02*
X47291905Y-78815533D01*
X47291905Y-78815533D02*
X47291905Y-78720295D01*
X47291905Y-78720295D02*
X47339524Y-78625057D01*
X47339524Y-78625057D02*
X47387143Y-78577438D01*
X47387143Y-78577438D02*
X47482381Y-78529819D01*
X47482381Y-78529819D02*
X47720476Y-78529819D01*
X47720476Y-78529819D02*
X47863333Y-78577438D01*
X48815714Y-79529819D02*
X48244286Y-79529819D01*
X48530000Y-79529819D02*
X48530000Y-78529819D01*
X48530000Y-78529819D02*
X48434762Y-78672676D01*
X48434762Y-78672676D02*
X48339524Y-78767914D01*
X48339524Y-78767914D02*
X48244286Y-78815533D01*
X49434762Y-78529819D02*
X49530000Y-78529819D01*
X49530000Y-78529819D02*
X49625238Y-78577438D01*
X49625238Y-78577438D02*
X49672857Y-78625057D01*
X49672857Y-78625057D02*
X49720476Y-78720295D01*
X49720476Y-78720295D02*
X49768095Y-78910771D01*
X49768095Y-78910771D02*
X49768095Y-79148866D01*
X49768095Y-79148866D02*
X49720476Y-79339342D01*
X49720476Y-79339342D02*
X49672857Y-79434580D01*
X49672857Y-79434580D02*
X49625238Y-79482200D01*
X49625238Y-79482200D02*
X49530000Y-79529819D01*
X49530000Y-79529819D02*
X49434762Y-79529819D01*
X49434762Y-79529819D02*
X49339524Y-79482200D01*
X49339524Y-79482200D02*
X49291905Y-79434580D01*
X49291905Y-79434580D02*
X49244286Y-79339342D01*
X49244286Y-79339342D02*
X49196667Y-79148866D01*
X49196667Y-79148866D02*
X49196667Y-78910771D01*
X49196667Y-78910771D02*
X49244286Y-78720295D01*
X49244286Y-78720295D02*
X49291905Y-78625057D01*
X49291905Y-78625057D02*
X49339524Y-78577438D01*
X49339524Y-78577438D02*
X49434762Y-78529819D01*
X28718095Y-79482200D02*
X28860952Y-79529819D01*
X28860952Y-79529819D02*
X29099047Y-79529819D01*
X29099047Y-79529819D02*
X29194285Y-79482200D01*
X29194285Y-79482200D02*
X29241904Y-79434580D01*
X29241904Y-79434580D02*
X29289523Y-79339342D01*
X29289523Y-79339342D02*
X29289523Y-79244104D01*
X29289523Y-79244104D02*
X29241904Y-79148866D01*
X29241904Y-79148866D02*
X29194285Y-79101247D01*
X29194285Y-79101247D02*
X29099047Y-79053628D01*
X29099047Y-79053628D02*
X28908571Y-79006009D01*
X28908571Y-79006009D02*
X28813333Y-78958390D01*
X28813333Y-78958390D02*
X28765714Y-78910771D01*
X28765714Y-78910771D02*
X28718095Y-78815533D01*
X28718095Y-78815533D02*
X28718095Y-78720295D01*
X28718095Y-78720295D02*
X28765714Y-78625057D01*
X28765714Y-78625057D02*
X28813333Y-78577438D01*
X28813333Y-78577438D02*
X28908571Y-78529819D01*
X28908571Y-78529819D02*
X29146666Y-78529819D01*
X29146666Y-78529819D02*
X29289523Y-78577438D01*
X29765714Y-79529819D02*
X29956190Y-79529819D01*
X29956190Y-79529819D02*
X30051428Y-79482200D01*
X30051428Y-79482200D02*
X30099047Y-79434580D01*
X30099047Y-79434580D02*
X30194285Y-79291723D01*
X30194285Y-79291723D02*
X30241904Y-79101247D01*
X30241904Y-79101247D02*
X30241904Y-78720295D01*
X30241904Y-78720295D02*
X30194285Y-78625057D01*
X30194285Y-78625057D02*
X30146666Y-78577438D01*
X30146666Y-78577438D02*
X30051428Y-78529819D01*
X30051428Y-78529819D02*
X29860952Y-78529819D01*
X29860952Y-78529819D02*
X29765714Y-78577438D01*
X29765714Y-78577438D02*
X29718095Y-78625057D01*
X29718095Y-78625057D02*
X29670476Y-78720295D01*
X29670476Y-78720295D02*
X29670476Y-78958390D01*
X29670476Y-78958390D02*
X29718095Y-79053628D01*
X29718095Y-79053628D02*
X29765714Y-79101247D01*
X29765714Y-79101247D02*
X29860952Y-79148866D01*
X29860952Y-79148866D02*
X30051428Y-79148866D01*
X30051428Y-79148866D02*
X30146666Y-79101247D01*
X30146666Y-79101247D02*
X30194285Y-79053628D01*
X30194285Y-79053628D02*
X30241904Y-78958390D01*
X47768095Y-41382200D02*
X47910952Y-41429819D01*
X47910952Y-41429819D02*
X48149047Y-41429819D01*
X48149047Y-41429819D02*
X48244285Y-41382200D01*
X48244285Y-41382200D02*
X48291904Y-41334580D01*
X48291904Y-41334580D02*
X48339523Y-41239342D01*
X48339523Y-41239342D02*
X48339523Y-41144104D01*
X48339523Y-41144104D02*
X48291904Y-41048866D01*
X48291904Y-41048866D02*
X48244285Y-41001247D01*
X48244285Y-41001247D02*
X48149047Y-40953628D01*
X48149047Y-40953628D02*
X47958571Y-40906009D01*
X47958571Y-40906009D02*
X47863333Y-40858390D01*
X47863333Y-40858390D02*
X47815714Y-40810771D01*
X47815714Y-40810771D02*
X47768095Y-40715533D01*
X47768095Y-40715533D02*
X47768095Y-40620295D01*
X47768095Y-40620295D02*
X47815714Y-40525057D01*
X47815714Y-40525057D02*
X47863333Y-40477438D01*
X47863333Y-40477438D02*
X47958571Y-40429819D01*
X47958571Y-40429819D02*
X48196666Y-40429819D01*
X48196666Y-40429819D02*
X48339523Y-40477438D01*
X48720476Y-40525057D02*
X48768095Y-40477438D01*
X48768095Y-40477438D02*
X48863333Y-40429819D01*
X48863333Y-40429819D02*
X49101428Y-40429819D01*
X49101428Y-40429819D02*
X49196666Y-40477438D01*
X49196666Y-40477438D02*
X49244285Y-40525057D01*
X49244285Y-40525057D02*
X49291904Y-40620295D01*
X49291904Y-40620295D02*
X49291904Y-40715533D01*
X49291904Y-40715533D02*
X49244285Y-40858390D01*
X49244285Y-40858390D02*
X48672857Y-41429819D01*
X48672857Y-41429819D02*
X49291904Y-41429819D01*
X85391905Y-79482200D02*
X85534762Y-79529819D01*
X85534762Y-79529819D02*
X85772857Y-79529819D01*
X85772857Y-79529819D02*
X85868095Y-79482200D01*
X85868095Y-79482200D02*
X85915714Y-79434580D01*
X85915714Y-79434580D02*
X85963333Y-79339342D01*
X85963333Y-79339342D02*
X85963333Y-79244104D01*
X85963333Y-79244104D02*
X85915714Y-79148866D01*
X85915714Y-79148866D02*
X85868095Y-79101247D01*
X85868095Y-79101247D02*
X85772857Y-79053628D01*
X85772857Y-79053628D02*
X85582381Y-79006009D01*
X85582381Y-79006009D02*
X85487143Y-78958390D01*
X85487143Y-78958390D02*
X85439524Y-78910771D01*
X85439524Y-78910771D02*
X85391905Y-78815533D01*
X85391905Y-78815533D02*
X85391905Y-78720295D01*
X85391905Y-78720295D02*
X85439524Y-78625057D01*
X85439524Y-78625057D02*
X85487143Y-78577438D01*
X85487143Y-78577438D02*
X85582381Y-78529819D01*
X85582381Y-78529819D02*
X85820476Y-78529819D01*
X85820476Y-78529819D02*
X85963333Y-78577438D01*
X86915714Y-79529819D02*
X86344286Y-79529819D01*
X86630000Y-79529819D02*
X86630000Y-78529819D01*
X86630000Y-78529819D02*
X86534762Y-78672676D01*
X86534762Y-78672676D02*
X86439524Y-78767914D01*
X86439524Y-78767914D02*
X86344286Y-78815533D01*
X87296667Y-78625057D02*
X87344286Y-78577438D01*
X87344286Y-78577438D02*
X87439524Y-78529819D01*
X87439524Y-78529819D02*
X87677619Y-78529819D01*
X87677619Y-78529819D02*
X87772857Y-78577438D01*
X87772857Y-78577438D02*
X87820476Y-78625057D01*
X87820476Y-78625057D02*
X87868095Y-78720295D01*
X87868095Y-78720295D02*
X87868095Y-78815533D01*
X87868095Y-78815533D02*
X87820476Y-78958390D01*
X87820476Y-78958390D02*
X87249048Y-79529819D01*
X87249048Y-79529819D02*
X87868095Y-79529819D01*
X88171667Y-19657200D02*
X88314524Y-19704819D01*
X88314524Y-19704819D02*
X88552619Y-19704819D01*
X88552619Y-19704819D02*
X88647857Y-19657200D01*
X88647857Y-19657200D02*
X88695476Y-19609580D01*
X88695476Y-19609580D02*
X88743095Y-19514342D01*
X88743095Y-19514342D02*
X88743095Y-19419104D01*
X88743095Y-19419104D02*
X88695476Y-19323866D01*
X88695476Y-19323866D02*
X88647857Y-19276247D01*
X88647857Y-19276247D02*
X88552619Y-19228628D01*
X88552619Y-19228628D02*
X88362143Y-19181009D01*
X88362143Y-19181009D02*
X88266905Y-19133390D01*
X88266905Y-19133390D02*
X88219286Y-19085771D01*
X88219286Y-19085771D02*
X88171667Y-18990533D01*
X88171667Y-18990533D02*
X88171667Y-18895295D01*
X88171667Y-18895295D02*
X88219286Y-18800057D01*
X88219286Y-18800057D02*
X88266905Y-18752438D01*
X88266905Y-18752438D02*
X88362143Y-18704819D01*
X88362143Y-18704819D02*
X88600238Y-18704819D01*
X88600238Y-18704819D02*
X88743095Y-18752438D01*
X89076429Y-18704819D02*
X89314524Y-19704819D01*
X89314524Y-19704819D02*
X89505000Y-18990533D01*
X89505000Y-18990533D02*
X89695476Y-19704819D01*
X89695476Y-19704819D02*
X89933572Y-18704819D01*
X90505000Y-18704819D02*
X90600238Y-18704819D01*
X90600238Y-18704819D02*
X90695476Y-18752438D01*
X90695476Y-18752438D02*
X90743095Y-18800057D01*
X90743095Y-18800057D02*
X90790714Y-18895295D01*
X90790714Y-18895295D02*
X90838333Y-19085771D01*
X90838333Y-19085771D02*
X90838333Y-19323866D01*
X90838333Y-19323866D02*
X90790714Y-19514342D01*
X90790714Y-19514342D02*
X90743095Y-19609580D01*
X90743095Y-19609580D02*
X90695476Y-19657200D01*
X90695476Y-19657200D02*
X90600238Y-19704819D01*
X90600238Y-19704819D02*
X90505000Y-19704819D01*
X90505000Y-19704819D02*
X90409762Y-19657200D01*
X90409762Y-19657200D02*
X90362143Y-19609580D01*
X90362143Y-19609580D02*
X90314524Y-19514342D01*
X90314524Y-19514342D02*
X90266905Y-19323866D01*
X90266905Y-19323866D02*
X90266905Y-19085771D01*
X90266905Y-19085771D02*
X90314524Y-18895295D01*
X90314524Y-18895295D02*
X90362143Y-18800057D01*
X90362143Y-18800057D02*
X90409762Y-18752438D01*
X90409762Y-18752438D02*
X90505000Y-18704819D01*
X28718095Y-41382200D02*
X28860952Y-41429819D01*
X28860952Y-41429819D02*
X29099047Y-41429819D01*
X29099047Y-41429819D02*
X29194285Y-41382200D01*
X29194285Y-41382200D02*
X29241904Y-41334580D01*
X29241904Y-41334580D02*
X29289523Y-41239342D01*
X29289523Y-41239342D02*
X29289523Y-41144104D01*
X29289523Y-41144104D02*
X29241904Y-41048866D01*
X29241904Y-41048866D02*
X29194285Y-41001247D01*
X29194285Y-41001247D02*
X29099047Y-40953628D01*
X29099047Y-40953628D02*
X28908571Y-40906009D01*
X28908571Y-40906009D02*
X28813333Y-40858390D01*
X28813333Y-40858390D02*
X28765714Y-40810771D01*
X28765714Y-40810771D02*
X28718095Y-40715533D01*
X28718095Y-40715533D02*
X28718095Y-40620295D01*
X28718095Y-40620295D02*
X28765714Y-40525057D01*
X28765714Y-40525057D02*
X28813333Y-40477438D01*
X28813333Y-40477438D02*
X28908571Y-40429819D01*
X28908571Y-40429819D02*
X29146666Y-40429819D01*
X29146666Y-40429819D02*
X29289523Y-40477438D01*
X30241904Y-41429819D02*
X29670476Y-41429819D01*
X29956190Y-41429819D02*
X29956190Y-40429819D01*
X29956190Y-40429819D02*
X29860952Y-40572676D01*
X29860952Y-40572676D02*
X29765714Y-40667914D01*
X29765714Y-40667914D02*
X29670476Y-40715533D01*
X85868095Y-60432200D02*
X86010952Y-60479819D01*
X86010952Y-60479819D02*
X86249047Y-60479819D01*
X86249047Y-60479819D02*
X86344285Y-60432200D01*
X86344285Y-60432200D02*
X86391904Y-60384580D01*
X86391904Y-60384580D02*
X86439523Y-60289342D01*
X86439523Y-60289342D02*
X86439523Y-60194104D01*
X86439523Y-60194104D02*
X86391904Y-60098866D01*
X86391904Y-60098866D02*
X86344285Y-60051247D01*
X86344285Y-60051247D02*
X86249047Y-60003628D01*
X86249047Y-60003628D02*
X86058571Y-59956009D01*
X86058571Y-59956009D02*
X85963333Y-59908390D01*
X85963333Y-59908390D02*
X85915714Y-59860771D01*
X85915714Y-59860771D02*
X85868095Y-59765533D01*
X85868095Y-59765533D02*
X85868095Y-59670295D01*
X85868095Y-59670295D02*
X85915714Y-59575057D01*
X85915714Y-59575057D02*
X85963333Y-59527438D01*
X85963333Y-59527438D02*
X86058571Y-59479819D01*
X86058571Y-59479819D02*
X86296666Y-59479819D01*
X86296666Y-59479819D02*
X86439523Y-59527438D01*
X87010952Y-59908390D02*
X86915714Y-59860771D01*
X86915714Y-59860771D02*
X86868095Y-59813152D01*
X86868095Y-59813152D02*
X86820476Y-59717914D01*
X86820476Y-59717914D02*
X86820476Y-59670295D01*
X86820476Y-59670295D02*
X86868095Y-59575057D01*
X86868095Y-59575057D02*
X86915714Y-59527438D01*
X86915714Y-59527438D02*
X87010952Y-59479819D01*
X87010952Y-59479819D02*
X87201428Y-59479819D01*
X87201428Y-59479819D02*
X87296666Y-59527438D01*
X87296666Y-59527438D02*
X87344285Y-59575057D01*
X87344285Y-59575057D02*
X87391904Y-59670295D01*
X87391904Y-59670295D02*
X87391904Y-59717914D01*
X87391904Y-59717914D02*
X87344285Y-59813152D01*
X87344285Y-59813152D02*
X87296666Y-59860771D01*
X87296666Y-59860771D02*
X87201428Y-59908390D01*
X87201428Y-59908390D02*
X87010952Y-59908390D01*
X87010952Y-59908390D02*
X86915714Y-59956009D01*
X86915714Y-59956009D02*
X86868095Y-60003628D01*
X86868095Y-60003628D02*
X86820476Y-60098866D01*
X86820476Y-60098866D02*
X86820476Y-60289342D01*
X86820476Y-60289342D02*
X86868095Y-60384580D01*
X86868095Y-60384580D02*
X86915714Y-60432200D01*
X86915714Y-60432200D02*
X87010952Y-60479819D01*
X87010952Y-60479819D02*
X87201428Y-60479819D01*
X87201428Y-60479819D02*
X87296666Y-60432200D01*
X87296666Y-60432200D02*
X87344285Y-60384580D01*
X87344285Y-60384580D02*
X87391904Y-60289342D01*
X87391904Y-60289342D02*
X87391904Y-60098866D01*
X87391904Y-60098866D02*
X87344285Y-60003628D01*
X87344285Y-60003628D02*
X87296666Y-59956009D01*
X87296666Y-59956009D02*
X87201428Y-59908390D01*
D11*
X60966190Y-12628479D02*
X60966190Y-13142526D01*
X60966190Y-13142526D02*
X60996428Y-13203002D01*
X60996428Y-13203002D02*
X61026666Y-13233241D01*
X61026666Y-13233241D02*
X61087142Y-13263479D01*
X61087142Y-13263479D02*
X61208095Y-13263479D01*
X61208095Y-13263479D02*
X61268571Y-13233241D01*
X61268571Y-13233241D02*
X61298809Y-13203002D01*
X61298809Y-13203002D02*
X61329047Y-13142526D01*
X61329047Y-13142526D02*
X61329047Y-12628479D01*
X61964047Y-13263479D02*
X61601190Y-13263479D01*
X61782618Y-13263479D02*
X61782618Y-12628479D01*
X61782618Y-12628479D02*
X61722142Y-12719193D01*
X61722142Y-12719193D02*
X61661666Y-12779669D01*
X61661666Y-12779669D02*
X61601190Y-12809907D01*
D12*
%TO.C,S7*%
X60480000Y-60925000D02*
X60480000Y-75125000D01*
X60480000Y-75125000D02*
X74680000Y-75125000D01*
X74680000Y-60925000D02*
X60480000Y-60925000D01*
X74680000Y-75125000D02*
X74680000Y-60925000D01*
%TO.C,S11*%
X60480000Y-79975000D02*
X60480000Y-94175000D01*
X60480000Y-94175000D02*
X74680000Y-94175000D01*
X74680000Y-79975000D02*
X60480000Y-79975000D01*
X74680000Y-94175000D02*
X74680000Y-79975000D01*
%TO.C,S4*%
X79530000Y-41875000D02*
X79530000Y-56075000D01*
X79530000Y-56075000D02*
X93730000Y-56075000D01*
X93730000Y-41875000D02*
X79530000Y-41875000D01*
X93730000Y-56075000D02*
X93730000Y-41875000D01*
%TO.C,S6*%
X41430000Y-60925000D02*
X41430000Y-75125000D01*
X41430000Y-75125000D02*
X55630000Y-75125000D01*
X55630000Y-60925000D02*
X41430000Y-60925000D01*
X55630000Y-75125000D02*
X55630000Y-60925000D01*
%TO.C,S5*%
X22380000Y-60925000D02*
X22380000Y-75125000D01*
X22380000Y-75125000D02*
X36580000Y-75125000D01*
X36580000Y-60925000D02*
X22380000Y-60925000D01*
X36580000Y-75125000D02*
X36580000Y-60925000D01*
%TO.C,S3*%
X60480000Y-41875000D02*
X60480000Y-56075000D01*
X60480000Y-56075000D02*
X74680000Y-56075000D01*
X74680000Y-41875000D02*
X60480000Y-41875000D01*
X74680000Y-56075000D02*
X74680000Y-41875000D01*
%TO.C,S10*%
X41430000Y-79975000D02*
X41430000Y-94175000D01*
X41430000Y-94175000D02*
X55630000Y-94175000D01*
X55630000Y-79975000D02*
X41430000Y-79975000D01*
X55630000Y-94175000D02*
X55630000Y-79975000D01*
%TO.C,S9*%
X22380000Y-79975000D02*
X22380000Y-94175000D01*
X22380000Y-94175000D02*
X36580000Y-94175000D01*
X36580000Y-79975000D02*
X22380000Y-79975000D01*
X36580000Y-94175000D02*
X36580000Y-79975000D01*
%TO.C,S2*%
X41430000Y-41875000D02*
X41430000Y-56075000D01*
X41430000Y-56075000D02*
X55630000Y-56075000D01*
X55630000Y-41875000D02*
X41430000Y-41875000D01*
X55630000Y-56075000D02*
X55630000Y-41875000D01*
%TO.C,S12*%
X79530000Y-79975000D02*
X79530000Y-94175000D01*
X79530000Y-94175000D02*
X93730000Y-94175000D01*
X93730000Y-79975000D02*
X79530000Y-79975000D01*
X93730000Y-94175000D02*
X93730000Y-79975000D01*
%TO.C,SW0*%
X86405000Y-22350000D02*
X87005000Y-22350000D01*
X86705000Y-22650000D02*
X86405000Y-22350000D01*
X87005000Y-22350000D02*
X86705000Y-22650000D01*
X88105000Y-20550000D02*
X88105000Y-32350000D01*
X92205000Y-20550000D02*
X88105000Y-20550000D01*
X92205000Y-32350000D02*
X88105000Y-32350000D01*
X93705000Y-26450000D02*
X94705000Y-26450000D01*
X94205000Y-25950000D02*
X94205000Y-26950000D01*
X96205000Y-20550000D02*
X100305000Y-20550000D01*
X100305000Y-20550000D02*
X100305000Y-22950000D01*
X100305000Y-25150000D02*
X100305000Y-27750000D01*
X100305000Y-29950000D02*
X100305000Y-32350000D01*
X100305000Y-32350000D02*
X96205000Y-32350000D01*
X97205000Y-26450000D02*
G75*
G02*
X91205000Y-26450000I-3000000J0D01*
G01*
X91205000Y-26450000D02*
G75*
G02*
X97205000Y-26450000I3000000J0D01*
G01*
%TO.C,S1*%
X22380000Y-41875000D02*
X22380000Y-56075000D01*
X22380000Y-56075000D02*
X36580000Y-56075000D01*
X36580000Y-41875000D02*
X22380000Y-41875000D01*
X36580000Y-56075000D02*
X36580000Y-41875000D01*
%TO.C,S8*%
X79530000Y-60925000D02*
X79530000Y-75125000D01*
X79530000Y-75125000D02*
X93730000Y-75125000D01*
X93730000Y-60925000D02*
X79530000Y-60925000D01*
X93730000Y-75125000D02*
X93730000Y-60925000D01*
D13*
%TO.C,U1*%
X61060000Y-33484000D02*
X61060000Y-16339000D01*
X62965000Y-35389000D02*
X76935000Y-35389000D01*
X65455000Y-14434000D02*
X65458728Y-13523728D01*
X65958728Y-13024000D02*
X73954000Y-13024000D01*
X74454000Y-13524000D02*
X74454000Y-14434000D01*
D14*
X76935000Y-14434000D02*
X62965000Y-14434000D01*
D13*
X76935000Y-14434000D02*
X62965000Y-14434000D01*
X78840000Y-33484000D02*
X78840000Y-16339000D01*
X61060000Y-16339000D02*
G75*
G02*
X62965000Y-14434000I1905001J-1D01*
G01*
X62965000Y-35389000D02*
G75*
G02*
X61060000Y-33484000I1J1905001D01*
G01*
X65458728Y-13523728D02*
G75*
G02*
X65958728Y-13024001I500018J-291D01*
G01*
X73954000Y-13024000D02*
G75*
G02*
X74454000Y-13524000I0J-500000D01*
G01*
X76935000Y-14434000D02*
G75*
G02*
X78840000Y-16339000I0J-1905000D01*
G01*
X78840000Y-33484000D02*
G75*
G02*
X76935000Y-35389000I-1905000J0D01*
G01*
D15*
X61252000Y-14675000D02*
G75*
G02*
X60748000Y-14675000I-252000J0D01*
G01*
X60748000Y-14675000D02*
G75*
G02*
X61252000Y-14675000I252000J0D01*
G01*
X62395000Y-15555000D02*
G75*
G02*
X61891000Y-15555000I-252000J0D01*
G01*
X61891000Y-15555000D02*
G75*
G02*
X62395000Y-15555000I252000J0D01*
G01*
%TD*%
M02*
