%TF.GenerationSoftware,KiCad,Pcbnew,9.0.7*%
%TF.CreationDate,2026-03-31T23:41:48+02:00*%
%TF.ProjectId,Macropad_PCB,4d616372-6f70-4616-945f-5043422e6b69,rev?*%
%TF.SameCoordinates,Original*%
%TF.FileFunction,Copper,L2,Bot*%
%TF.FilePolarity,Positive*%
%FSLAX46Y46*%
G04 Gerber Fmt 4.6, Leading zero omitted, Abs format (unit mm)*
G04 Created by KiCad (PCBNEW 9.0.7) date 2026-03-31 23:41:48*
%MOMM*%
%LPD*%
G01*
G04 APERTURE LIST*
G04 Aperture macros list*
%AMRoundRect*
0 Rectangle with rounded corners*
0 $1 Rounding radius*
0 $2 $3 $4 $5 $6 $7 $8 $9 X,Y pos of 4 corners*
0 Add a 4 corners polygon primitive as box body*
4,1,4,$2,$3,$4,$5,$6,$7,$8,$9,$2,$3,0*
0 Add four circle primitives for the rounded corners*
1,1,$1+$1,$2,$3*
1,1,$1+$1,$4,$5*
1,1,$1+$1,$6,$7*
1,1,$1+$1,$8,$9*
0 Add four rect primitives between the rounded corners*
20,1,$1+$1,$2,$3,$4,$5,0*
20,1,$1+$1,$4,$5,$6,$7,0*
20,1,$1+$1,$6,$7,$8,$9,0*
20,1,$1+$1,$8,$9,$2,$3,0*%
G04 Aperture macros list end*
%TA.AperFunction,ComponentPad*%
%ADD10C,2.500000*%
%TD*%
%TA.AperFunction,ComponentPad*%
%ADD11R,1.700000X1.700000*%
%TD*%
%TA.AperFunction,ComponentPad*%
%ADD12O,1.700000X1.700000*%
%TD*%
%TA.AperFunction,ComponentPad*%
%ADD13R,2.000000X2.000000*%
%TD*%
%TA.AperFunction,ComponentPad*%
%ADD14C,2.000000*%
%TD*%
%TA.AperFunction,ComponentPad*%
%ADD15R,3.200000X2.000000*%
%TD*%
%TA.AperFunction,ComponentPad*%
%ADD16R,3.500000X1.700000*%
%TD*%
%TA.AperFunction,ComponentPad*%
%ADD17O,3.600000X1.700000*%
%TD*%
%TA.AperFunction,ComponentPad*%
%ADD18O,3.700000X1.700000*%
%TD*%
%TA.AperFunction,ComponentPad*%
%ADD19RoundRect,0.250000X0.550000X-0.550000X0.550000X0.550000X-0.550000X0.550000X-0.550000X-0.550000X0*%
%TD*%
%TA.AperFunction,ComponentPad*%
%ADD20C,1.600000*%
%TD*%
%TA.AperFunction,Conductor*%
%ADD21C,0.250000*%
%TD*%
%TA.AperFunction,Conductor*%
%ADD22C,0.200000*%
%TD*%
G04 APERTURE END LIST*
D10*
%TO.P,S7,1,1*%
%TO.N,Col2*%
X63770000Y-65485000D03*
%TO.P,S7,2,2*%
%TO.N,Net-(D7-A)*%
X70120000Y-62945000D03*
%TD*%
%TO.P,S11,1,1*%
%TO.N,Col2*%
X63770000Y-84535000D03*
%TO.P,S11,2,2*%
%TO.N,Net-(D11-A)*%
X70120000Y-81995000D03*
%TD*%
%TO.P,S4,1,1*%
%TO.N,Col3*%
X82820000Y-46435000D03*
%TO.P,S4,2,2*%
%TO.N,Net-(D4-A)*%
X89170000Y-43895000D03*
%TD*%
%TO.P,S6,1,1*%
%TO.N,Col1*%
X44720000Y-65485000D03*
%TO.P,S6,2,2*%
%TO.N,Net-(D6-A)*%
X51070000Y-62945000D03*
%TD*%
%TO.P,S5,1,1*%
%TO.N,Col0*%
X25670000Y-65485000D03*
%TO.P,S5,2,2*%
%TO.N,Net-(D5-A)*%
X32020000Y-62945000D03*
%TD*%
%TO.P,S3,1,1*%
%TO.N,Col2*%
X63770000Y-46435000D03*
%TO.P,S3,2,2*%
%TO.N,Net-(D3-A)*%
X70120000Y-43895000D03*
%TD*%
D11*
%TO.P,J1,1,GND*%
%TO.N,GND*%
X54455000Y-19850000D03*
D12*
%TO.P,J1,2,VCC*%
%TO.N,+3.3V*%
X54455000Y-22390000D03*
%TO.P,J1,3,SCL*%
%TO.N,SCL*%
X54455000Y-24930000D03*
%TO.P,J1,4,SDA*%
%TO.N,SDA*%
X54455000Y-27470000D03*
%TD*%
D10*
%TO.P,S10,1,1*%
%TO.N,Col1*%
X44720000Y-84535000D03*
%TO.P,S10,2,2*%
%TO.N,Net-(D10-A)*%
X51070000Y-81995000D03*
%TD*%
%TO.P,S9,1,1*%
%TO.N,Col0*%
X25670000Y-84535000D03*
%TO.P,S9,2,2*%
%TO.N,Net-(D9-A)*%
X32020000Y-81995000D03*
%TD*%
%TO.P,S2,1,1*%
%TO.N,Col1*%
X44720000Y-46435000D03*
%TO.P,S2,2,2*%
%TO.N,Net-(D2-A)*%
X51070000Y-43895000D03*
%TD*%
%TO.P,S12,1,1*%
%TO.N,Col3*%
X82820000Y-84535000D03*
%TO.P,S12,2,2*%
%TO.N,Net-(D12-A)*%
X89170000Y-81995000D03*
%TD*%
D13*
%TO.P,SW0,A,A*%
%TO.N,RodeaA*%
X86705000Y-21450000D03*
D14*
%TO.P,SW0,B,B*%
%TO.N,RodeaB*%
X86705000Y-26450000D03*
%TO.P,SW0,C,C*%
%TO.N,GND*%
X86705000Y-23950000D03*
D15*
%TO.P,SW0,MP*%
%TO.N,N/C*%
X94205000Y-18350000D03*
X94205000Y-29550000D03*
D14*
%TO.P,SW0,S1*%
X101205000Y-26450000D03*
%TO.P,SW0,S2*%
X101205000Y-21450000D03*
%TD*%
D10*
%TO.P,S1,1,1*%
%TO.N,Col0*%
X25670000Y-46435000D03*
%TO.P,S1,2,2*%
%TO.N,Net-(D1-A)*%
X32020000Y-43895000D03*
%TD*%
%TO.P,S8,1,1*%
%TO.N,Col3*%
X82820000Y-65485000D03*
%TO.P,S8,2,2*%
%TO.N,Net-(D8-A)*%
X89170000Y-62945000D03*
%TD*%
D16*
%TO.P,U1,1,PA02_A0_D0*%
%TO.N,Col3*%
X61325000Y-17355000D03*
D17*
%TO.P,U1,2,PA4_A1_D1*%
%TO.N,Col2*%
X61325000Y-19895000D03*
%TO.P,U1,3,PA10_A2_D2*%
%TO.N,Col1*%
X61325000Y-22435000D03*
%TO.P,U1,4,PA11_A3_D3*%
%TO.N,Col0*%
X61325000Y-24975000D03*
%TO.P,U1,5,PA8_A4_D4_SDA*%
%TO.N,SDA*%
X61325000Y-27515000D03*
%TO.P,U1,6,PA9_A5_D5_SCL*%
%TO.N,SCL*%
X61325000Y-30055000D03*
%TO.P,U1,7,PB08_A6_D6_TX*%
%TO.N,Row2*%
X61325000Y-32595000D03*
%TO.P,U1,8,PB09_A7_D7_RX*%
%TO.N,Row0*%
X78575000Y-32595000D03*
%TO.P,U1,9,PA7_A8_D8_SCK*%
%TO.N,Row1*%
X78575000Y-30055000D03*
%TO.P,U1,10,PA5_A9_D9_MISO*%
%TO.N,RodeaB*%
X78575000Y-27515000D03*
D18*
%TO.P,U1,11,PA6_A10_D10_MOSI*%
%TO.N,RodeaA*%
X78575000Y-24975000D03*
%TO.P,U1,12,3V3*%
%TO.N,+3.3V*%
X78575000Y-22435000D03*
%TO.P,U1,13,GND*%
%TO.N,GND*%
X78575000Y-19895000D03*
%TO.P,U1,14,5V*%
%TO.N,+5V*%
X78575000Y-17355000D03*
%TD*%
D19*
%TO.P,D10,1,K*%
%TO.N,Row2*%
X58055000Y-90885000D03*
D20*
%TO.P,D10,2,A*%
%TO.N,Net-(D10-A)*%
X58055000Y-83265000D03*
%TD*%
D19*
%TO.P,D4,1,K*%
%TO.N,Row0*%
X96155000Y-52785000D03*
D20*
%TO.P,D4,2,A*%
%TO.N,Net-(D4-A)*%
X96155000Y-45165000D03*
%TD*%
D19*
%TO.P,D6,1,K*%
%TO.N,Row1*%
X58098750Y-71835000D03*
D20*
%TO.P,D6,2,A*%
%TO.N,Net-(D6-A)*%
X58098750Y-64215000D03*
%TD*%
D19*
%TO.P,D11,1,K*%
%TO.N,Row2*%
X77105000Y-90885000D03*
D20*
%TO.P,D11,2,A*%
%TO.N,Net-(D11-A)*%
X77105000Y-83265000D03*
%TD*%
D19*
%TO.P,D12,1,K*%
%TO.N,Row2*%
X96155000Y-90885000D03*
D20*
%TO.P,D12,2,A*%
%TO.N,Net-(D12-A)*%
X96155000Y-83265000D03*
%TD*%
D19*
%TO.P,D1,1,K*%
%TO.N,Row0*%
X39005000Y-52785000D03*
D20*
%TO.P,D1,2,A*%
%TO.N,Net-(D1-A)*%
X39005000Y-45165000D03*
%TD*%
D19*
%TO.P,D8,1,K*%
%TO.N,Row1*%
X96155000Y-71835000D03*
D20*
%TO.P,D8,2,A*%
%TO.N,Net-(D8-A)*%
X96155000Y-64215000D03*
%TD*%
D19*
%TO.P,D2,1,K*%
%TO.N,Row0*%
X58055000Y-52785000D03*
D20*
%TO.P,D2,2,A*%
%TO.N,Net-(D2-A)*%
X58055000Y-45165000D03*
%TD*%
D19*
%TO.P,D7,1,K*%
%TO.N,Row1*%
X77148750Y-71835000D03*
D20*
%TO.P,D7,2,A*%
%TO.N,Net-(D7-A)*%
X77148750Y-64215000D03*
%TD*%
D19*
%TO.P,D5,1,K*%
%TO.N,Row1*%
X39005000Y-71835000D03*
D20*
%TO.P,D5,2,A*%
%TO.N,Net-(D5-A)*%
X39005000Y-64215000D03*
%TD*%
D19*
%TO.P,D3,1,K*%
%TO.N,Row0*%
X77105000Y-52785000D03*
D20*
%TO.P,D3,2,A*%
%TO.N,Net-(D3-A)*%
X77105000Y-45165000D03*
%TD*%
D19*
%TO.P,D9,1,K*%
%TO.N,Row2*%
X39005000Y-90885000D03*
D20*
%TO.P,D9,2,A*%
%TO.N,Net-(D9-A)*%
X39005000Y-83265000D03*
%TD*%
D21*
%TO.N,Col0*%
X66980000Y-24975000D02*
X62325000Y-24975000D01*
X28455000Y-36950000D02*
X65955000Y-36950000D01*
X65955000Y-36950000D02*
X68455000Y-34450000D01*
X25670000Y-46435000D02*
X25670000Y-39735000D01*
X25670000Y-65485000D02*
X25670000Y-84535000D01*
X68455000Y-34450000D02*
X68455000Y-26450000D01*
X25670000Y-39735000D02*
X28455000Y-36950000D01*
X68455000Y-26450000D02*
X66980000Y-24975000D01*
X25670000Y-46435000D02*
X25670000Y-65485000D01*
%TO.N,Col1*%
X62325000Y-22435000D02*
X67440000Y-22435000D01*
X44720000Y-84535000D02*
X44720000Y-65485000D01*
X47455000Y-38450000D02*
X44720000Y-41185000D01*
X44720000Y-41185000D02*
X44720000Y-46435000D01*
X44720000Y-65485000D02*
X44720000Y-46435000D01*
X69955000Y-24950000D02*
X69955000Y-35450000D01*
X67440000Y-22435000D02*
X69955000Y-24950000D01*
X66955000Y-38450000D02*
X47455000Y-38450000D01*
X69955000Y-35450000D02*
X66955000Y-38450000D01*
%TO.N,Col2*%
X62380000Y-19950000D02*
X66955000Y-19950000D01*
X66955000Y-19950000D02*
X71455000Y-24450000D01*
X71455000Y-24450000D02*
X71455000Y-36017100D01*
X71455000Y-36017100D02*
X63770000Y-43702100D01*
X63770000Y-65485000D02*
X63770000Y-84535000D01*
X63770000Y-46435000D02*
X63770000Y-65485000D01*
X62325000Y-19895000D02*
X62380000Y-19950000D01*
X63770000Y-43702100D02*
X63770000Y-46435000D01*
%TO.N,Col3*%
X82820000Y-43315000D02*
X82820000Y-46435000D01*
X82820000Y-65485000D02*
X82826000Y-65491000D01*
X72955000Y-33450000D02*
X82820000Y-43315000D01*
X82826000Y-65491000D02*
X82826000Y-84529000D01*
X62325000Y-17355000D02*
X66360000Y-17355000D01*
X72955000Y-23950000D02*
X72955000Y-33450000D01*
X82820000Y-46435000D02*
X82820000Y-65485000D01*
X82826000Y-84529000D02*
X82820000Y-84535000D01*
X66360000Y-17355000D02*
X72955000Y-23950000D01*
%TO.N,SDA*%
X62330000Y-27515000D02*
X54500000Y-27515000D01*
X54313595Y-27551405D02*
X54455000Y-27410000D01*
D22*
X54500000Y-27515000D02*
X54455000Y-27470000D01*
D21*
%TO.N,GND*%
X87955000Y-23950000D02*
X86705000Y-23950000D01*
X88955000Y-22950000D02*
X87955000Y-23950000D01*
X88150000Y-19895000D02*
X88955000Y-20700000D01*
X54455000Y-19850000D02*
X54455000Y-17470000D01*
X75370000Y-19895000D02*
X88150000Y-19895000D01*
X69950000Y-14475000D02*
X75370000Y-19895000D01*
X54455000Y-17470000D02*
X57450000Y-14475000D01*
X57450000Y-14475000D02*
X69950000Y-14475000D01*
X88955000Y-20700000D02*
X88955000Y-22950000D01*
%TO.N,SCL*%
X51955000Y-28950000D02*
X53060000Y-30055000D01*
X54455000Y-24930000D02*
X52975000Y-24930000D01*
X52975000Y-24930000D02*
X51955000Y-25950000D01*
X51955000Y-25950000D02*
X51955000Y-28950000D01*
X53060000Y-30055000D02*
X62330000Y-30055000D01*
%TO.N,+3.3V*%
X75910000Y-22435000D02*
X77575000Y-22435000D01*
X58940000Y-15475000D02*
X68950000Y-15475000D01*
X68950000Y-15475000D02*
X75910000Y-22435000D01*
X58940000Y-15475000D02*
X57455000Y-16960000D01*
X56575000Y-22390000D02*
X54455000Y-22390000D01*
X57455000Y-16960000D02*
X57455000Y-21510000D01*
X57455000Y-21510000D02*
X56575000Y-22390000D01*
D22*
%TO.N,RodeaA*%
X80430000Y-24975000D02*
X83955000Y-21450000D01*
X83955000Y-21450000D02*
X86705000Y-21450000D01*
X77570000Y-24975000D02*
X80430000Y-24975000D01*
%TO.N,RodeaB*%
X77570000Y-27515000D02*
X83390000Y-27515000D01*
X84455000Y-26450000D02*
X86705000Y-26450000D01*
X83390000Y-27515000D02*
X84455000Y-26450000D01*
%TD*%
%TA.AperFunction,Conductor*%
%TO.N,GND*%
G36*
X85147540Y-22070185D02*
G01*
X85193295Y-22122989D01*
X85204501Y-22174500D01*
X85204501Y-22497876D01*
X85210908Y-22557483D01*
X85261202Y-22692328D01*
X85261206Y-22692335D01*
X85347452Y-22807544D01*
X85347453Y-22807544D01*
X85347454Y-22807546D01*
X85391563Y-22840566D01*
X85465599Y-22895990D01*
X85507469Y-22951924D01*
X85512453Y-23021615D01*
X85491605Y-23068141D01*
X85422087Y-23163824D01*
X85314897Y-23374197D01*
X85241934Y-23598752D01*
X85205000Y-23831947D01*
X85205000Y-24068052D01*
X85241934Y-24301247D01*
X85314897Y-24525802D01*
X85422087Y-24736174D01*
X85482338Y-24819104D01*
X85482340Y-24819105D01*
X86222037Y-24079408D01*
X86239075Y-24142993D01*
X86304901Y-24257007D01*
X86397993Y-24350099D01*
X86512007Y-24415925D01*
X86575590Y-24432962D01*
X85829280Y-25179271D01*
X85820105Y-25222947D01*
X85783739Y-25264615D01*
X85727490Y-25305482D01*
X85560485Y-25472487D01*
X85560485Y-25472488D01*
X85560483Y-25472490D01*
X85545282Y-25493413D01*
X85421657Y-25663566D01*
X85361417Y-25781795D01*
X85313442Y-25832591D01*
X85250932Y-25849500D01*
X84375940Y-25849500D01*
X84335019Y-25860464D01*
X84335019Y-25860465D01*
X84297751Y-25870451D01*
X84223214Y-25890423D01*
X84223209Y-25890426D01*
X84086290Y-25969475D01*
X84086282Y-25969481D01*
X84004500Y-26051264D01*
X83974480Y-26081284D01*
X83974478Y-26081286D01*
X83570869Y-26484896D01*
X83177584Y-26878181D01*
X83116261Y-26911666D01*
X83089903Y-26914500D01*
X80810719Y-26914500D01*
X80743680Y-26894815D01*
X80700235Y-26846795D01*
X80680052Y-26807185D01*
X80680051Y-26807184D01*
X80555109Y-26635213D01*
X80404790Y-26484894D01*
X80404785Y-26484890D01*
X80231140Y-26358730D01*
X80188474Y-26303400D01*
X80182495Y-26233787D01*
X80215100Y-26171992D01*
X80247732Y-26147927D01*
X80282816Y-26130051D01*
X80282815Y-26130051D01*
X80282818Y-26130050D01*
X80454786Y-26005109D01*
X80454788Y-26005106D01*
X80454792Y-26005104D01*
X80605104Y-25854792D01*
X80605106Y-25854788D01*
X80605109Y-25854786D01*
X80730048Y-25682820D01*
X80730049Y-25682819D01*
X80730051Y-25682816D01*
X80826557Y-25493412D01*
X80848995Y-25424352D01*
X80855979Y-25412954D01*
X80858091Y-25403248D01*
X80879237Y-25375000D01*
X80879242Y-25374993D01*
X80910520Y-25343716D01*
X80910521Y-25343713D01*
X84167416Y-22086819D01*
X84228739Y-22053334D01*
X84255097Y-22050500D01*
X85080501Y-22050500D01*
X85147540Y-22070185D01*
G37*
%TD.AperFunction*%
%TA.AperFunction,Conductor*%
G36*
X103959043Y-13950765D02*
G01*
X104207895Y-13967075D01*
X104223953Y-13969190D01*
X104431105Y-14010395D01*
X104464535Y-14017045D01*
X104480202Y-14021243D01*
X104649947Y-14078863D01*
X104712481Y-14100091D01*
X104727458Y-14106294D01*
X104936799Y-14209529D01*
X104947460Y-14214787D01*
X104961508Y-14222897D01*
X105165464Y-14359177D01*
X105178328Y-14369048D01*
X105362749Y-14530781D01*
X105374218Y-14542250D01*
X105535951Y-14726671D01*
X105545825Y-14739539D01*
X105682102Y-14943492D01*
X105690212Y-14957539D01*
X105798702Y-15177534D01*
X105804909Y-15192520D01*
X105883756Y-15424797D01*
X105887954Y-15440464D01*
X105935807Y-15681035D01*
X105937925Y-15697116D01*
X105954235Y-15945956D01*
X105954500Y-15954066D01*
X105954500Y-96445933D01*
X105954235Y-96454043D01*
X105937925Y-96702883D01*
X105935807Y-96718964D01*
X105887954Y-96959535D01*
X105883756Y-96975202D01*
X105804909Y-97207479D01*
X105798702Y-97222465D01*
X105690212Y-97442460D01*
X105682102Y-97456507D01*
X105545825Y-97660460D01*
X105535951Y-97673328D01*
X105374218Y-97857749D01*
X105362749Y-97869218D01*
X105178328Y-98030951D01*
X105165460Y-98040825D01*
X104961507Y-98177102D01*
X104947460Y-98185212D01*
X104727465Y-98293702D01*
X104712479Y-98299909D01*
X104480202Y-98378756D01*
X104464535Y-98382954D01*
X104223964Y-98430807D01*
X104207883Y-98432925D01*
X103959043Y-98449235D01*
X103950933Y-98449500D01*
X17959067Y-98449500D01*
X17950957Y-98449235D01*
X17702116Y-98432925D01*
X17686035Y-98430807D01*
X17445464Y-98382954D01*
X17429797Y-98378756D01*
X17197520Y-98299909D01*
X17182534Y-98293702D01*
X16962539Y-98185212D01*
X16948492Y-98177102D01*
X16744539Y-98040825D01*
X16731671Y-98030951D01*
X16547250Y-97869218D01*
X16535781Y-97857749D01*
X16374048Y-97673328D01*
X16364174Y-97660460D01*
X16227897Y-97456507D01*
X16219787Y-97442460D01*
X16113855Y-97227652D01*
X16111294Y-97222458D01*
X16105090Y-97207479D01*
X16026243Y-96975202D01*
X16022045Y-96959535D01*
X15984113Y-96768838D01*
X15974190Y-96718953D01*
X15972075Y-96702895D01*
X15955765Y-96454043D01*
X15955500Y-96445933D01*
X15955500Y-94828711D01*
X100604500Y-94828711D01*
X100604500Y-95071288D01*
X100636161Y-95311785D01*
X100698947Y-95546104D01*
X100791773Y-95770205D01*
X100791776Y-95770212D01*
X100913064Y-95980289D01*
X100913066Y-95980292D01*
X100913067Y-95980293D01*
X101060733Y-96172736D01*
X101060739Y-96172743D01*
X101232256Y-96344260D01*
X101232263Y-96344266D01*
X101345321Y-96431018D01*
X101424711Y-96491936D01*
X101634788Y-96613224D01*
X101830269Y-96694195D01*
X101851244Y-96702883D01*
X101858900Y-96706054D01*
X102093211Y-96768838D01*
X102273586Y-96792584D01*
X102333711Y-96800500D01*
X102333712Y-96800500D01*
X102576289Y-96800500D01*
X102624388Y-96794167D01*
X102816789Y-96768838D01*
X103051100Y-96706054D01*
X103275212Y-96613224D01*
X103485289Y-96491936D01*
X103677738Y-96344265D01*
X103849265Y-96172738D01*
X103996936Y-95980289D01*
X104118224Y-95770212D01*
X104211054Y-95546100D01*
X104273838Y-95311789D01*
X104305500Y-95071288D01*
X104305500Y-94828712D01*
X104273838Y-94588211D01*
X104211054Y-94353900D01*
X104118224Y-94129788D01*
X103996936Y-93919711D01*
X103849265Y-93727262D01*
X103849260Y-93727256D01*
X103677743Y-93555739D01*
X103677736Y-93555733D01*
X103485293Y-93408067D01*
X103485292Y-93408066D01*
X103485289Y-93408064D01*
X103275212Y-93286776D01*
X103275205Y-93286773D01*
X103051104Y-93193947D01*
X102816785Y-93131161D01*
X102576289Y-93099500D01*
X102576288Y-93099500D01*
X102333712Y-93099500D01*
X102333711Y-93099500D01*
X102093214Y-93131161D01*
X101858895Y-93193947D01*
X101634794Y-93286773D01*
X101634785Y-93286777D01*
X101424706Y-93408067D01*
X101232263Y-93555733D01*
X101232256Y-93555739D01*
X101060739Y-93727256D01*
X101060733Y-93727263D01*
X100913067Y-93919706D01*
X100791777Y-94129785D01*
X100791773Y-94129794D01*
X100698947Y-94353895D01*
X100636161Y-94588214D01*
X100604500Y-94828711D01*
X15955500Y-94828711D01*
X15955500Y-90284983D01*
X37704500Y-90284983D01*
X37704500Y-91485001D01*
X37704501Y-91485018D01*
X37715000Y-91587796D01*
X37715001Y-91587799D01*
X37770185Y-91754331D01*
X37770186Y-91754334D01*
X37862288Y-91903656D01*
X37986344Y-92027712D01*
X38135666Y-92119814D01*
X38302203Y-92174999D01*
X38404991Y-92185500D01*
X39605008Y-92185499D01*
X39707797Y-92174999D01*
X39874334Y-92119814D01*
X40023656Y-92027712D01*
X40147712Y-91903656D01*
X40239814Y-91754334D01*
X40294999Y-91587797D01*
X40305500Y-91485009D01*
X40305499Y-90284992D01*
X40305498Y-90284983D01*
X56754500Y-90284983D01*
X56754500Y-91485001D01*
X56754501Y-91485018D01*
X56765000Y-91587796D01*
X56765001Y-91587799D01*
X56820185Y-91754331D01*
X56820186Y-91754334D01*
X56912288Y-91903656D01*
X57036344Y-92027712D01*
X57185666Y-92119814D01*
X57352203Y-92174999D01*
X57454991Y-92185500D01*
X58655008Y-92185499D01*
X58757797Y-92174999D01*
X58924334Y-92119814D01*
X59073656Y-92027712D01*
X59197712Y-91903656D01*
X59289814Y-91754334D01*
X59344999Y-91587797D01*
X59355500Y-91485009D01*
X59355499Y-90284992D01*
X59355498Y-90284983D01*
X75804500Y-90284983D01*
X75804500Y-91485001D01*
X75804501Y-91485018D01*
X75815000Y-91587796D01*
X75815001Y-91587799D01*
X75870185Y-91754331D01*
X75870186Y-91754334D01*
X75962288Y-91903656D01*
X76086344Y-92027712D01*
X76235666Y-92119814D01*
X76402203Y-92174999D01*
X76504991Y-92185500D01*
X77705008Y-92185499D01*
X77807797Y-92174999D01*
X77974334Y-92119814D01*
X78123656Y-92027712D01*
X78247712Y-91903656D01*
X78339814Y-91754334D01*
X78394999Y-91587797D01*
X78405500Y-91485009D01*
X78405499Y-90284992D01*
X78405498Y-90284983D01*
X94854500Y-90284983D01*
X94854500Y-91485001D01*
X94854501Y-91485018D01*
X94865000Y-91587796D01*
X94865001Y-91587799D01*
X94920185Y-91754331D01*
X94920186Y-91754334D01*
X95012288Y-91903656D01*
X95136344Y-92027712D01*
X95285666Y-92119814D01*
X95452203Y-92174999D01*
X95554991Y-92185500D01*
X96755008Y-92185499D01*
X96857797Y-92174999D01*
X97024334Y-92119814D01*
X97173656Y-92027712D01*
X97297712Y-91903656D01*
X97389814Y-91754334D01*
X97444999Y-91587797D01*
X97455500Y-91485009D01*
X97455499Y-90284992D01*
X97444999Y-90182203D01*
X97389814Y-90015666D01*
X97297712Y-89866344D01*
X97173656Y-89742288D01*
X97024334Y-89650186D01*
X96857797Y-89595001D01*
X96857795Y-89595000D01*
X96755010Y-89584500D01*
X95554998Y-89584500D01*
X95554981Y-89584501D01*
X95452203Y-89595000D01*
X95452200Y-89595001D01*
X95285668Y-89650185D01*
X95285663Y-89650187D01*
X95136342Y-89742289D01*
X95012289Y-89866342D01*
X94920187Y-90015663D01*
X94920186Y-90015666D01*
X94865001Y-90182203D01*
X94865001Y-90182204D01*
X94865000Y-90182204D01*
X94854500Y-90284983D01*
X78405498Y-90284983D01*
X78394999Y-90182203D01*
X78339814Y-90015666D01*
X78247712Y-89866344D01*
X78123656Y-89742288D01*
X77974334Y-89650186D01*
X77807797Y-89595001D01*
X77807795Y-89595000D01*
X77705010Y-89584500D01*
X76504998Y-89584500D01*
X76504981Y-89584501D01*
X76402203Y-89595000D01*
X76402200Y-89595001D01*
X76235668Y-89650185D01*
X76235663Y-89650187D01*
X76086342Y-89742289D01*
X75962289Y-89866342D01*
X75870187Y-90015663D01*
X75870186Y-90015666D01*
X75815001Y-90182203D01*
X75815001Y-90182204D01*
X75815000Y-90182204D01*
X75804500Y-90284983D01*
X59355498Y-90284983D01*
X59344999Y-90182203D01*
X59289814Y-90015666D01*
X59197712Y-89866344D01*
X59073656Y-89742288D01*
X58924334Y-89650186D01*
X58757797Y-89595001D01*
X58757795Y-89595000D01*
X58655010Y-89584500D01*
X57454998Y-89584500D01*
X57454981Y-89584501D01*
X57352203Y-89595000D01*
X57352200Y-89595001D01*
X57185668Y-89650185D01*
X57185663Y-89650187D01*
X57036342Y-89742289D01*
X56912289Y-89866342D01*
X56820187Y-90015663D01*
X56820186Y-90015666D01*
X56765001Y-90182203D01*
X56765001Y-90182204D01*
X56765000Y-90182204D01*
X56754500Y-90284983D01*
X40305498Y-90284983D01*
X40294999Y-90182203D01*
X40239814Y-90015666D01*
X40147712Y-89866344D01*
X40023656Y-89742288D01*
X39874334Y-89650186D01*
X39707797Y-89595001D01*
X39707795Y-89595000D01*
X39605010Y-89584500D01*
X38404998Y-89584500D01*
X38404981Y-89584501D01*
X38302203Y-89595000D01*
X38302200Y-89595001D01*
X38135668Y-89650185D01*
X38135663Y-89650187D01*
X37986342Y-89742289D01*
X37862289Y-89866342D01*
X37770187Y-90015663D01*
X37770186Y-90015666D01*
X37715001Y-90182203D01*
X37715001Y-90182204D01*
X37715000Y-90182204D01*
X37704500Y-90284983D01*
X15955500Y-90284983D01*
X15955500Y-48886421D01*
X23274500Y-48886421D01*
X23274500Y-49063578D01*
X23302214Y-49238556D01*
X23356956Y-49407039D01*
X23356957Y-49407042D01*
X23437386Y-49564890D01*
X23541517Y-49708214D01*
X23666786Y-49833483D01*
X23810110Y-49937614D01*
X23878577Y-49972500D01*
X23967957Y-50018042D01*
X23967960Y-50018043D01*
X24052201Y-50045414D01*
X24136445Y-50072786D01*
X24311421Y-50100500D01*
X24311422Y-50100500D01*
X24488578Y-50100500D01*
X24488579Y-50100500D01*
X24663555Y-50072786D01*
X24832042Y-50018042D01*
X24832042Y-50018041D01*
X24832047Y-50018040D01*
X24864204Y-50001655D01*
X24932874Y-49988758D01*
X24997614Y-50015034D01*
X25037872Y-50072140D01*
X25044500Y-50112139D01*
X25044500Y-63766508D01*
X25024815Y-63833547D01*
X24972011Y-63879302D01*
X24967954Y-63881069D01*
X24894113Y-63911655D01*
X24894109Y-63911657D01*
X24695382Y-64026392D01*
X24513338Y-64166081D01*
X24351081Y-64328338D01*
X24211392Y-64510382D01*
X24096657Y-64709109D01*
X24096650Y-64709123D01*
X24008842Y-64921112D01*
X23949453Y-65142759D01*
X23949451Y-65142770D01*
X23919500Y-65370258D01*
X23919500Y-65599741D01*
X23942509Y-65774500D01*
X23949452Y-65827238D01*
X23996347Y-66002254D01*
X24008842Y-66048887D01*
X24096650Y-66260876D01*
X24096657Y-66260890D01*
X24211392Y-66459617D01*
X24351081Y-66641661D01*
X24351089Y-66641670D01*
X24397238Y-66687819D01*
X24430723Y-66749142D01*
X24425739Y-66818834D01*
X24383867Y-66874767D01*
X24318403Y-66899184D01*
X24312967Y-66899378D01*
X24311423Y-66899499D01*
X24136443Y-66927214D01*
X23967960Y-66981956D01*
X23967957Y-66981957D01*
X23810109Y-67062386D01*
X23733356Y-67118151D01*
X23666786Y-67166517D01*
X23666784Y-67166519D01*
X23666783Y-67166519D01*
X23541519Y-67291783D01*
X23541519Y-67291784D01*
X23541517Y-67291786D01*
X23496796Y-67353338D01*
X23437386Y-67435109D01*
X23356957Y-67592957D01*
X23356956Y-67592960D01*
X23302214Y-67761443D01*
X23274500Y-67936421D01*
X23274500Y-68113578D01*
X23302214Y-68288556D01*
X23356956Y-68457039D01*
X23356957Y-68457042D01*
X23437386Y-68614890D01*
X23541517Y-68758214D01*
X23666786Y-68883483D01*
X23810110Y-68987614D01*
X23878577Y-69022500D01*
X23967957Y-69068042D01*
X23967960Y-69068043D01*
X24052201Y-69095414D01*
X24136445Y-69122786D01*
X24311421Y-69150500D01*
X24311422Y-69150500D01*
X24488578Y-69150500D01*
X24488579Y-69150500D01*
X24663555Y-69122786D01*
X24832042Y-69068042D01*
X24832042Y-69068041D01*
X24832047Y-69068040D01*
X24864204Y-69051655D01*
X24932874Y-69038758D01*
X24997614Y-69065034D01*
X25037872Y-69122140D01*
X25044500Y-69162139D01*
X25044500Y-82816508D01*
X25024815Y-82883547D01*
X24972011Y-82929302D01*
X24967954Y-82931069D01*
X24894113Y-82961655D01*
X24894109Y-82961657D01*
X24695382Y-83076392D01*
X24513338Y-83216081D01*
X24351081Y-83378338D01*
X24211392Y-83560382D01*
X24096657Y-83759109D01*
X24096650Y-83759123D01*
X24008842Y-83971112D01*
X23949453Y-84192759D01*
X23949451Y-84192770D01*
X23919500Y-84420258D01*
X23919500Y-84649741D01*
X23942509Y-84824500D01*
X23949452Y-84877238D01*
X23996347Y-85052254D01*
X24008842Y-85098887D01*
X24096650Y-85310876D01*
X24096657Y-85310890D01*
X24211392Y-85509617D01*
X24351081Y-85691661D01*
X24351089Y-85691670D01*
X24397238Y-85737819D01*
X24430723Y-85799142D01*
X24425739Y-85868834D01*
X24383867Y-85924767D01*
X24318403Y-85949184D01*
X24312967Y-85949378D01*
X24311423Y-85949499D01*
X24136443Y-85977214D01*
X23967960Y-86031956D01*
X23967957Y-86031957D01*
X23810109Y-86112386D01*
X23728338Y-86171796D01*
X23666786Y-86216517D01*
X23666784Y-86216519D01*
X23666783Y-86216519D01*
X23541519Y-86341783D01*
X23541519Y-86341784D01*
X23541517Y-86341786D01*
X23496796Y-86403338D01*
X23437386Y-86485109D01*
X23356957Y-86642957D01*
X23356956Y-86642960D01*
X23302214Y-86811443D01*
X23274500Y-86986421D01*
X23274500Y-87163578D01*
X23302214Y-87338556D01*
X23356956Y-87507039D01*
X23356957Y-87507042D01*
X23437386Y-87664890D01*
X23541517Y-87808214D01*
X23666786Y-87933483D01*
X23810110Y-88037614D01*
X23878577Y-88072500D01*
X23967957Y-88118042D01*
X23967960Y-88118043D01*
X24052201Y-88145414D01*
X24136445Y-88172786D01*
X24311421Y-88200500D01*
X24311422Y-88200500D01*
X24488578Y-88200500D01*
X24488579Y-88200500D01*
X24663555Y-88172786D01*
X24832042Y-88118042D01*
X24989890Y-88037614D01*
X25133214Y-87933483D01*
X25258483Y-87808214D01*
X25362614Y-87664890D01*
X25443042Y-87507042D01*
X25497786Y-87338555D01*
X25525500Y-87163579D01*
X25525500Y-86986421D01*
X25516165Y-86927486D01*
X27229500Y-86927486D01*
X27229500Y-87222513D01*
X27244778Y-87338555D01*
X27268007Y-87514993D01*
X27344361Y-87799951D01*
X27344364Y-87799961D01*
X27457254Y-88072500D01*
X27457258Y-88072510D01*
X27604761Y-88327993D01*
X27784352Y-88562040D01*
X27784358Y-88562047D01*
X27992952Y-88770641D01*
X27992959Y-88770647D01*
X28227006Y-88950238D01*
X28482489Y-89097741D01*
X28482490Y-89097741D01*
X28482493Y-89097743D01*
X28755048Y-89210639D01*
X29040007Y-89286993D01*
X29332494Y-89325500D01*
X29332501Y-89325500D01*
X29627499Y-89325500D01*
X29627506Y-89325500D01*
X29919993Y-89286993D01*
X30204952Y-89210639D01*
X30477507Y-89097743D01*
X30732994Y-88950238D01*
X30967042Y-88770646D01*
X31175646Y-88562042D01*
X31355238Y-88327994D01*
X31502743Y-88072507D01*
X31615639Y-87799952D01*
X31691993Y-87514993D01*
X31730500Y-87222506D01*
X31730500Y-86986421D01*
X33434500Y-86986421D01*
X33434500Y-87163578D01*
X33462214Y-87338556D01*
X33516956Y-87507039D01*
X33516957Y-87507042D01*
X33597386Y-87664890D01*
X33701517Y-87808214D01*
X33826786Y-87933483D01*
X33970110Y-88037614D01*
X34038577Y-88072500D01*
X34127957Y-88118042D01*
X34127960Y-88118043D01*
X34212201Y-88145414D01*
X34296445Y-88172786D01*
X34471421Y-88200500D01*
X34471422Y-88200500D01*
X34648578Y-88200500D01*
X34648579Y-88200500D01*
X34823555Y-88172786D01*
X34992042Y-88118042D01*
X35149890Y-88037614D01*
X35293214Y-87933483D01*
X35418483Y-87808214D01*
X35522614Y-87664890D01*
X35603042Y-87507042D01*
X35657786Y-87338555D01*
X35685500Y-87163579D01*
X35685500Y-86986421D01*
X35657786Y-86811445D01*
X35603042Y-86642958D01*
X35603042Y-86642957D01*
X35522613Y-86485109D01*
X35511518Y-86469838D01*
X35418483Y-86341786D01*
X35293214Y-86216517D01*
X35149890Y-86112386D01*
X35141953Y-86108342D01*
X34992042Y-86031957D01*
X34992039Y-86031956D01*
X34823556Y-85977214D01*
X34736067Y-85963357D01*
X34648579Y-85949500D01*
X34471421Y-85949500D01*
X34413095Y-85958738D01*
X34296443Y-85977214D01*
X34127960Y-86031956D01*
X34127957Y-86031957D01*
X33970109Y-86112386D01*
X33888338Y-86171796D01*
X33826786Y-86216517D01*
X33826784Y-86216519D01*
X33826783Y-86216519D01*
X33701519Y-86341783D01*
X33701519Y-86341784D01*
X33701517Y-86341786D01*
X33656796Y-86403338D01*
X33597386Y-86485109D01*
X33516957Y-86642957D01*
X33516956Y-86642960D01*
X33462214Y-86811443D01*
X33434500Y-86986421D01*
X31730500Y-86986421D01*
X31730500Y-86927494D01*
X31691993Y-86635007D01*
X31615639Y-86350048D01*
X31502743Y-86077493D01*
X31476453Y-86031958D01*
X31355238Y-85822006D01*
X31175647Y-85587959D01*
X31175641Y-85587952D01*
X30967047Y-85379358D01*
X30967040Y-85379352D01*
X30732993Y-85199761D01*
X30477510Y-85052258D01*
X30477500Y-85052254D01*
X30204961Y-84939364D01*
X30204954Y-84939362D01*
X30204952Y-84939361D01*
X29919993Y-84863007D01*
X29871113Y-84856571D01*
X29627513Y-84824500D01*
X29627506Y-84824500D01*
X29332494Y-84824500D01*
X29332486Y-84824500D01*
X29054085Y-84861153D01*
X29040007Y-84863007D01*
X28755048Y-84939361D01*
X28755038Y-84939364D01*
X28482499Y-85052254D01*
X28482489Y-85052258D01*
X28227006Y-85199761D01*
X27992959Y-85379352D01*
X27992952Y-85379358D01*
X27784358Y-85587952D01*
X27784352Y-85587959D01*
X27604761Y-85822006D01*
X27457258Y-86077489D01*
X27457254Y-86077499D01*
X27344364Y-86350038D01*
X27344361Y-86350048D01*
X27308172Y-86485110D01*
X27268008Y-86635004D01*
X27268006Y-86635015D01*
X27229500Y-86927486D01*
X25516165Y-86927486D01*
X25497786Y-86811445D01*
X25443042Y-86642958D01*
X25443042Y-86642957D01*
X25362613Y-86485109D01*
X25351518Y-86469838D01*
X25328038Y-86404032D01*
X25343863Y-86335978D01*
X25393968Y-86287283D01*
X25462446Y-86273407D01*
X25467977Y-86274008D01*
X25555266Y-86285500D01*
X25555273Y-86285500D01*
X25784727Y-86285500D01*
X25784734Y-86285500D01*
X26012238Y-86255548D01*
X26233887Y-86196158D01*
X26445888Y-86108344D01*
X26644612Y-85993611D01*
X26826661Y-85853919D01*
X26826665Y-85853914D01*
X26826670Y-85853911D01*
X26988911Y-85691670D01*
X26988914Y-85691665D01*
X26988919Y-85691661D01*
X27128611Y-85509612D01*
X27243344Y-85310888D01*
X27331158Y-85098887D01*
X27390548Y-84877238D01*
X27420500Y-84649734D01*
X27420500Y-84420266D01*
X27390548Y-84192762D01*
X27331158Y-83971113D01*
X27245461Y-83764223D01*
X27243349Y-83759123D01*
X27243346Y-83759117D01*
X27243344Y-83759112D01*
X27128611Y-83560388D01*
X27128608Y-83560385D01*
X27128607Y-83560382D01*
X26988918Y-83378338D01*
X26988911Y-83378330D01*
X26826670Y-83216089D01*
X26826661Y-83216081D01*
X26644617Y-83076392D01*
X26445890Y-82961657D01*
X26445886Y-82961655D01*
X26372046Y-82931069D01*
X26317643Y-82887227D01*
X26295579Y-82820933D01*
X26295500Y-82816508D01*
X26295500Y-81880258D01*
X30269500Y-81880258D01*
X30269500Y-82109741D01*
X30290998Y-82273028D01*
X30299452Y-82337238D01*
X30299453Y-82337240D01*
X30358842Y-82558887D01*
X30446650Y-82770876D01*
X30446657Y-82770890D01*
X30561392Y-82969617D01*
X30701081Y-83151661D01*
X30701089Y-83151670D01*
X30863330Y-83313911D01*
X30863338Y-83313918D01*
X31045382Y-83453607D01*
X31045385Y-83453608D01*
X31045388Y-83453611D01*
X31244112Y-83568344D01*
X31244117Y-83568346D01*
X31244123Y-83568349D01*
X31335480Y-83606190D01*
X31456113Y-83656158D01*
X31677762Y-83715548D01*
X31905266Y-83745500D01*
X31905273Y-83745500D01*
X32134727Y-83745500D01*
X32134734Y-83745500D01*
X32362238Y-83715548D01*
X32583887Y-83656158D01*
X32795888Y-83568344D01*
X32994612Y-83453611D01*
X33176661Y-83313919D01*
X33176665Y-83313914D01*
X33176670Y-83313911D01*
X33327932Y-83162648D01*
X37704500Y-83162648D01*
X37704500Y-83367351D01*
X37736522Y-83569534D01*
X37799781Y-83764223D01*
X37892715Y-83946613D01*
X38013028Y-84112213D01*
X38157786Y-84256971D01*
X38312749Y-84369556D01*
X38323390Y-84377287D01*
X38407741Y-84420266D01*
X38505776Y-84470218D01*
X38505778Y-84470218D01*
X38505781Y-84470220D01*
X38610137Y-84504127D01*
X38700465Y-84533477D01*
X38801557Y-84549488D01*
X38902648Y-84565500D01*
X38902649Y-84565500D01*
X39107351Y-84565500D01*
X39107352Y-84565500D01*
X39309534Y-84533477D01*
X39504219Y-84470220D01*
X39686610Y-84377287D01*
X39779590Y-84309732D01*
X39852213Y-84256971D01*
X39852215Y-84256968D01*
X39852219Y-84256966D01*
X39996966Y-84112219D01*
X39996968Y-84112215D01*
X39996971Y-84112213D01*
X40049732Y-84039590D01*
X40117287Y-83946610D01*
X40210220Y-83764219D01*
X40273477Y-83569534D01*
X40305500Y-83367352D01*
X40305500Y-83162648D01*
X40291838Y-83076389D01*
X40273477Y-82960465D01*
X40228140Y-82820933D01*
X40210220Y-82765781D01*
X40210218Y-82765778D01*
X40210218Y-82765776D01*
X40176503Y-82699607D01*
X40117287Y-82583390D01*
X40099485Y-82558887D01*
X39996971Y-82417786D01*
X39852213Y-82273028D01*
X39686613Y-82152715D01*
X39686612Y-82152714D01*
X39686610Y-82152713D01*
X39602273Y-82109741D01*
X39504223Y-82059781D01*
X39309534Y-81996522D01*
X39134995Y-81968878D01*
X39107352Y-81964500D01*
X38902648Y-81964500D01*
X38878329Y-81968351D01*
X38700465Y-81996522D01*
X38505776Y-82059781D01*
X38323386Y-82152715D01*
X38157786Y-82273028D01*
X38013028Y-82417786D01*
X37892715Y-82583386D01*
X37799781Y-82765776D01*
X37736522Y-82960465D01*
X37704500Y-83162648D01*
X33327932Y-83162648D01*
X33338910Y-83151670D01*
X33338919Y-83151661D01*
X33478611Y-82969612D01*
X33593344Y-82770888D01*
X33681158Y-82558887D01*
X33740548Y-82337238D01*
X33770500Y-82109734D01*
X33770500Y-81880266D01*
X33740548Y-81652762D01*
X33681158Y-81431113D01*
X33593344Y-81219112D01*
X33478611Y-81020388D01*
X33478608Y-81020385D01*
X33478607Y-81020382D01*
X33338918Y-80838338D01*
X33338911Y-80838330D01*
X33176670Y-80676089D01*
X33176661Y-80676081D01*
X32994617Y-80536392D01*
X32795890Y-80421657D01*
X32795876Y-80421650D01*
X32583887Y-80333842D01*
X32362238Y-80274452D01*
X32324215Y-80269446D01*
X32134741Y-80244500D01*
X32134734Y-80244500D01*
X31905266Y-80244500D01*
X31905258Y-80244500D01*
X31688715Y-80273009D01*
X31677762Y-80274452D01*
X31584076Y-80299554D01*
X31456112Y-80333842D01*
X31244123Y-80421650D01*
X31244109Y-80421657D01*
X31045382Y-80536392D01*
X30863338Y-80676081D01*
X30701081Y-80838338D01*
X30561392Y-81020382D01*
X30446657Y-81219109D01*
X30446650Y-81219123D01*
X30358842Y-81431112D01*
X30299453Y-81652759D01*
X30299451Y-81652770D01*
X30269500Y-81880258D01*
X26295500Y-81880258D01*
X26295500Y-71234983D01*
X37704500Y-71234983D01*
X37704500Y-72435001D01*
X37704501Y-72435018D01*
X37715000Y-72537796D01*
X37715001Y-72537799D01*
X37770185Y-72704331D01*
X37770186Y-72704334D01*
X37862288Y-72853656D01*
X37986344Y-72977712D01*
X38135666Y-73069814D01*
X38302203Y-73124999D01*
X38404991Y-73135500D01*
X39605008Y-73135499D01*
X39707797Y-73124999D01*
X39874334Y-73069814D01*
X40023656Y-72977712D01*
X40147712Y-72853656D01*
X40239814Y-72704334D01*
X40294999Y-72537797D01*
X40305500Y-72435009D01*
X40305499Y-71234992D01*
X40294999Y-71132203D01*
X40239814Y-70965666D01*
X40147712Y-70816344D01*
X40023656Y-70692288D01*
X39874334Y-70600186D01*
X39707797Y-70545001D01*
X39707795Y-70545000D01*
X39605010Y-70534500D01*
X38404998Y-70534500D01*
X38404981Y-70534501D01*
X38302203Y-70545000D01*
X38302200Y-70545001D01*
X38135668Y-70600185D01*
X38135663Y-70600187D01*
X37986342Y-70692289D01*
X37862289Y-70816342D01*
X37770187Y-70965663D01*
X37770186Y-70965666D01*
X37715001Y-71132203D01*
X37715001Y-71132204D01*
X37715000Y-71132204D01*
X37704500Y-71234983D01*
X26295500Y-71234983D01*
X26295500Y-67877486D01*
X27229500Y-67877486D01*
X27229500Y-68172513D01*
X27244778Y-68288555D01*
X27268007Y-68464993D01*
X27344361Y-68749951D01*
X27344364Y-68749961D01*
X27457254Y-69022500D01*
X27457258Y-69022510D01*
X27604761Y-69277993D01*
X27784352Y-69512040D01*
X27784358Y-69512047D01*
X27992952Y-69720641D01*
X27992959Y-69720647D01*
X28227006Y-69900238D01*
X28482489Y-70047741D01*
X28482490Y-70047741D01*
X28482493Y-70047743D01*
X28755048Y-70160639D01*
X29040007Y-70236993D01*
X29332494Y-70275500D01*
X29332501Y-70275500D01*
X29627499Y-70275500D01*
X29627506Y-70275500D01*
X29919993Y-70236993D01*
X30204952Y-70160639D01*
X30477507Y-70047743D01*
X30732994Y-69900238D01*
X30967042Y-69720646D01*
X31175646Y-69512042D01*
X31355238Y-69277994D01*
X31502743Y-69022507D01*
X31615639Y-68749952D01*
X31691993Y-68464993D01*
X31730500Y-68172506D01*
X31730500Y-67936421D01*
X33434500Y-67936421D01*
X33434500Y-68113578D01*
X33462214Y-68288556D01*
X33516956Y-68457039D01*
X33516957Y-68457042D01*
X33597386Y-68614890D01*
X33701517Y-68758214D01*
X33826786Y-68883483D01*
X33970110Y-68987614D01*
X34038577Y-69022500D01*
X34127957Y-69068042D01*
X34127960Y-69068043D01*
X34212201Y-69095414D01*
X34296445Y-69122786D01*
X34471421Y-69150500D01*
X34471422Y-69150500D01*
X34648578Y-69150500D01*
X34648579Y-69150500D01*
X34823555Y-69122786D01*
X34992042Y-69068042D01*
X35149890Y-68987614D01*
X35293214Y-68883483D01*
X35418483Y-68758214D01*
X35522614Y-68614890D01*
X35603042Y-68457042D01*
X35657786Y-68288555D01*
X35685500Y-68113579D01*
X35685500Y-67936421D01*
X35657786Y-67761445D01*
X35603042Y-67592958D01*
X35603042Y-67592957D01*
X35522613Y-67435109D01*
X35418483Y-67291786D01*
X35293214Y-67166517D01*
X35149890Y-67062386D01*
X35141953Y-67058342D01*
X34992042Y-66981957D01*
X34992039Y-66981956D01*
X34823556Y-66927214D01*
X34736067Y-66913357D01*
X34648579Y-66899500D01*
X34471421Y-66899500D01*
X34413095Y-66908738D01*
X34296443Y-66927214D01*
X34127960Y-66981956D01*
X34127957Y-66981957D01*
X33970109Y-67062386D01*
X33893356Y-67118151D01*
X33826786Y-67166517D01*
X33826784Y-67166519D01*
X33826783Y-67166519D01*
X33701519Y-67291783D01*
X33701519Y-67291784D01*
X33701517Y-67291786D01*
X33656796Y-67353338D01*
X33597386Y-67435109D01*
X33516957Y-67592957D01*
X33516956Y-67592960D01*
X33462214Y-67761443D01*
X33434500Y-67936421D01*
X31730500Y-67936421D01*
X31730500Y-67877494D01*
X31691993Y-67585007D01*
X31615639Y-67300048D01*
X31502743Y-67027493D01*
X31476453Y-66981958D01*
X31355238Y-66772006D01*
X31175647Y-66537959D01*
X31175641Y-66537952D01*
X30967047Y-66329358D01*
X30967040Y-66329352D01*
X30732993Y-66149761D01*
X30477510Y-66002258D01*
X30477500Y-66002254D01*
X30204961Y-65889364D01*
X30204954Y-65889362D01*
X30204952Y-65889361D01*
X29919993Y-65813007D01*
X29871113Y-65806571D01*
X29627513Y-65774500D01*
X29627506Y-65774500D01*
X29332494Y-65774500D01*
X29332486Y-65774500D01*
X29054085Y-65811153D01*
X29040007Y-65813007D01*
X28755048Y-65889361D01*
X28755038Y-65889364D01*
X28482499Y-66002254D01*
X28482489Y-66002258D01*
X28227006Y-66149761D01*
X27992959Y-66329352D01*
X27992952Y-66329358D01*
X27784358Y-66537952D01*
X27784352Y-66537959D01*
X27604761Y-66772006D01*
X27457258Y-67027489D01*
X27457254Y-67027499D01*
X27344364Y-67300038D01*
X27344361Y-67300048D01*
X27308172Y-67435110D01*
X27268008Y-67585004D01*
X27268006Y-67585015D01*
X27229500Y-67877486D01*
X26295500Y-67877486D01*
X26295500Y-67203490D01*
X26315185Y-67136451D01*
X26367989Y-67090696D01*
X26372013Y-67088943D01*
X26445888Y-67058344D01*
X26644612Y-66943611D01*
X26826661Y-66803919D01*
X26826665Y-66803914D01*
X26826670Y-66803911D01*
X26988911Y-66641670D01*
X26988914Y-66641665D01*
X26988919Y-66641661D01*
X27128611Y-66459612D01*
X27243344Y-66260888D01*
X27331158Y-66048887D01*
X27390548Y-65827238D01*
X27420500Y-65599734D01*
X27420500Y-65370266D01*
X27390548Y-65142762D01*
X27331158Y-64921113D01*
X27245461Y-64714223D01*
X27243349Y-64709123D01*
X27243346Y-64709117D01*
X27243344Y-64709112D01*
X27128611Y-64510388D01*
X27128608Y-64510385D01*
X27128607Y-64510382D01*
X26988918Y-64328338D01*
X26988911Y-64328330D01*
X26826670Y-64166089D01*
X26826661Y-64166081D01*
X26644617Y-64026392D01*
X26445890Y-63911657D01*
X26445886Y-63911655D01*
X26372046Y-63881069D01*
X26317643Y-63837227D01*
X26295579Y-63770933D01*
X26295500Y-63766508D01*
X26295500Y-62830258D01*
X30269500Y-62830258D01*
X30269500Y-63059741D01*
X30290998Y-63223028D01*
X30299452Y-63287238D01*
X30299453Y-63287240D01*
X30358842Y-63508887D01*
X30446650Y-63720876D01*
X30446657Y-63720890D01*
X30561392Y-63919617D01*
X30701081Y-64101661D01*
X30701089Y-64101670D01*
X30863330Y-64263911D01*
X30863338Y-64263918D01*
X31045382Y-64403607D01*
X31045385Y-64403608D01*
X31045388Y-64403611D01*
X31244112Y-64518344D01*
X31244117Y-64518346D01*
X31244123Y-64518349D01*
X31335480Y-64556190D01*
X31456113Y-64606158D01*
X31677762Y-64665548D01*
X31905266Y-64695500D01*
X31905273Y-64695500D01*
X32134727Y-64695500D01*
X32134734Y-64695500D01*
X32362238Y-64665548D01*
X32583887Y-64606158D01*
X32795888Y-64518344D01*
X32994612Y-64403611D01*
X33176661Y-64263919D01*
X33176665Y-64263914D01*
X33176670Y-64263911D01*
X33327932Y-64112648D01*
X37704500Y-64112648D01*
X37704500Y-64317351D01*
X37736522Y-64519534D01*
X37799781Y-64714223D01*
X37892715Y-64896613D01*
X38013028Y-65062213D01*
X38157786Y-65206971D01*
X38312749Y-65319556D01*
X38323390Y-65327287D01*
X38407741Y-65370266D01*
X38505776Y-65420218D01*
X38505778Y-65420218D01*
X38505781Y-65420220D01*
X38610137Y-65454127D01*
X38700465Y-65483477D01*
X38801557Y-65499488D01*
X38902648Y-65515500D01*
X38902649Y-65515500D01*
X39107351Y-65515500D01*
X39107352Y-65515500D01*
X39309534Y-65483477D01*
X39504219Y-65420220D01*
X39686610Y-65327287D01*
X39779590Y-65259732D01*
X39852213Y-65206971D01*
X39852215Y-65206968D01*
X39852219Y-65206966D01*
X39996966Y-65062219D01*
X39996968Y-65062215D01*
X39996971Y-65062213D01*
X40049732Y-64989590D01*
X40117287Y-64896610D01*
X40210220Y-64714219D01*
X40273477Y-64519534D01*
X40305500Y-64317352D01*
X40305500Y-64112648D01*
X40291838Y-64026389D01*
X40273477Y-63910465D01*
X40210218Y-63715776D01*
X40176503Y-63649607D01*
X40117287Y-63533390D01*
X40099485Y-63508887D01*
X39996971Y-63367786D01*
X39852213Y-63223028D01*
X39686613Y-63102715D01*
X39686612Y-63102714D01*
X39686610Y-63102713D01*
X39602273Y-63059741D01*
X39504223Y-63009781D01*
X39309534Y-62946522D01*
X39134995Y-62918878D01*
X39107352Y-62914500D01*
X38902648Y-62914500D01*
X38878329Y-62918351D01*
X38700465Y-62946522D01*
X38505776Y-63009781D01*
X38323386Y-63102715D01*
X38157786Y-63223028D01*
X38013028Y-63367786D01*
X37892715Y-63533386D01*
X37799781Y-63715776D01*
X37736522Y-63910465D01*
X37704500Y-64112648D01*
X33327932Y-64112648D01*
X33338910Y-64101670D01*
X33338919Y-64101661D01*
X33478611Y-63919612D01*
X33593344Y-63720888D01*
X33681158Y-63508887D01*
X33740548Y-63287238D01*
X33770500Y-63059734D01*
X33770500Y-62830266D01*
X33740548Y-62602762D01*
X33681158Y-62381113D01*
X33593344Y-62169112D01*
X33478611Y-61970388D01*
X33478608Y-61970385D01*
X33478607Y-61970382D01*
X33338918Y-61788338D01*
X33338911Y-61788330D01*
X33176670Y-61626089D01*
X33176661Y-61626081D01*
X32994617Y-61486392D01*
X32795890Y-61371657D01*
X32795876Y-61371650D01*
X32583887Y-61283842D01*
X32362238Y-61224452D01*
X32324215Y-61219446D01*
X32134741Y-61194500D01*
X32134734Y-61194500D01*
X31905266Y-61194500D01*
X31905258Y-61194500D01*
X31688715Y-61223009D01*
X31677762Y-61224452D01*
X31584076Y-61249554D01*
X31456112Y-61283842D01*
X31244123Y-61371650D01*
X31244109Y-61371657D01*
X31045382Y-61486392D01*
X30863338Y-61626081D01*
X30701081Y-61788338D01*
X30561392Y-61970382D01*
X30446657Y-62169109D01*
X30446650Y-62169123D01*
X30358842Y-62381112D01*
X30299453Y-62602759D01*
X30299451Y-62602770D01*
X30269500Y-62830258D01*
X26295500Y-62830258D01*
X26295500Y-52184983D01*
X37704500Y-52184983D01*
X37704500Y-53385001D01*
X37704501Y-53385018D01*
X37715000Y-53487796D01*
X37715001Y-53487799D01*
X37770185Y-53654331D01*
X37770186Y-53654334D01*
X37862288Y-53803656D01*
X37986344Y-53927712D01*
X38135666Y-54019814D01*
X38302203Y-54074999D01*
X38404991Y-54085500D01*
X39605008Y-54085499D01*
X39707797Y-54074999D01*
X39874334Y-54019814D01*
X40023656Y-53927712D01*
X40147712Y-53803656D01*
X40239814Y-53654334D01*
X40294999Y-53487797D01*
X40305500Y-53385009D01*
X40305499Y-52184992D01*
X40294999Y-52082203D01*
X40239814Y-51915666D01*
X40147712Y-51766344D01*
X40023656Y-51642288D01*
X39874334Y-51550186D01*
X39707797Y-51495001D01*
X39707795Y-51495000D01*
X39605010Y-51484500D01*
X38404998Y-51484500D01*
X38404981Y-51484501D01*
X38302203Y-51495000D01*
X38302200Y-51495001D01*
X38135668Y-51550185D01*
X38135663Y-51550187D01*
X37986342Y-51642289D01*
X37862289Y-51766342D01*
X37770187Y-51915663D01*
X37770186Y-51915666D01*
X37715001Y-52082203D01*
X37715001Y-52082204D01*
X37715000Y-52082204D01*
X37704500Y-52184983D01*
X26295500Y-52184983D01*
X26295500Y-48827486D01*
X27229500Y-48827486D01*
X27229500Y-49122513D01*
X27244778Y-49238555D01*
X27268007Y-49414993D01*
X27344361Y-49699951D01*
X27344364Y-49699961D01*
X27457254Y-49972500D01*
X27457258Y-49972510D01*
X27604761Y-50227993D01*
X27784352Y-50462040D01*
X27784358Y-50462047D01*
X27992952Y-50670641D01*
X27992959Y-50670647D01*
X28227006Y-50850238D01*
X28482489Y-50997741D01*
X28482490Y-50997741D01*
X28482493Y-50997743D01*
X28755048Y-51110639D01*
X29040007Y-51186993D01*
X29332494Y-51225500D01*
X29332501Y-51225500D01*
X29627499Y-51225500D01*
X29627506Y-51225500D01*
X29919993Y-51186993D01*
X30204952Y-51110639D01*
X30477507Y-50997743D01*
X30732994Y-50850238D01*
X30967042Y-50670646D01*
X31175646Y-50462042D01*
X31355238Y-50227994D01*
X31502743Y-49972507D01*
X31615639Y-49699952D01*
X31691993Y-49414993D01*
X31730500Y-49122506D01*
X31730500Y-48886421D01*
X33434500Y-48886421D01*
X33434500Y-49063578D01*
X33462214Y-49238556D01*
X33516956Y-49407039D01*
X33516957Y-49407042D01*
X33597386Y-49564890D01*
X33701517Y-49708214D01*
X33826786Y-49833483D01*
X33970110Y-49937614D01*
X34038577Y-49972500D01*
X34127957Y-50018042D01*
X34127960Y-50018043D01*
X34212201Y-50045414D01*
X34296445Y-50072786D01*
X34471421Y-50100500D01*
X34471422Y-50100500D01*
X34648578Y-50100500D01*
X34648579Y-50100500D01*
X34823555Y-50072786D01*
X34992042Y-50018042D01*
X35149890Y-49937614D01*
X35293214Y-49833483D01*
X35418483Y-49708214D01*
X35522614Y-49564890D01*
X35603042Y-49407042D01*
X35657786Y-49238555D01*
X35685500Y-49063579D01*
X35685500Y-48886421D01*
X35657786Y-48711445D01*
X35603042Y-48542958D01*
X35603042Y-48542957D01*
X35522613Y-48385109D01*
X35418483Y-48241786D01*
X35293214Y-48116517D01*
X35149890Y-48012386D01*
X35141953Y-48008342D01*
X34992042Y-47931957D01*
X34992039Y-47931956D01*
X34823556Y-47877214D01*
X34736067Y-47863357D01*
X34648579Y-47849500D01*
X34471421Y-47849500D01*
X34413095Y-47858738D01*
X34296443Y-47877214D01*
X34127960Y-47931956D01*
X34127957Y-47931957D01*
X33970109Y-48012386D01*
X33889936Y-48070636D01*
X33826786Y-48116517D01*
X33826784Y-48116519D01*
X33826783Y-48116519D01*
X33701519Y-48241783D01*
X33701519Y-48241784D01*
X33701517Y-48241786D01*
X33656796Y-48303338D01*
X33597386Y-48385109D01*
X33516957Y-48542957D01*
X33516956Y-48542960D01*
X33462214Y-48711443D01*
X33434500Y-48886421D01*
X31730500Y-48886421D01*
X31730500Y-48827494D01*
X31691993Y-48535007D01*
X31615639Y-48250048D01*
X31502743Y-47977493D01*
X31476453Y-47931958D01*
X31355238Y-47722006D01*
X31175647Y-47487959D01*
X31175641Y-47487952D01*
X30967047Y-47279358D01*
X30967040Y-47279352D01*
X30732993Y-47099761D01*
X30477510Y-46952258D01*
X30477500Y-46952254D01*
X30204961Y-46839364D01*
X30204954Y-46839362D01*
X30204952Y-46839361D01*
X29919993Y-46763007D01*
X29871113Y-46756571D01*
X29627513Y-46724500D01*
X29627506Y-46724500D01*
X29332494Y-46724500D01*
X29332486Y-46724500D01*
X29054085Y-46761153D01*
X29040007Y-46763007D01*
X28755048Y-46839361D01*
X28755038Y-46839364D01*
X28482499Y-46952254D01*
X28482489Y-46952258D01*
X28227006Y-47099761D01*
X27992959Y-47279352D01*
X27992952Y-47279358D01*
X27784358Y-47487952D01*
X27784352Y-47487959D01*
X27604761Y-47722006D01*
X27457258Y-47977489D01*
X27457254Y-47977499D01*
X27344364Y-48250038D01*
X27344361Y-48250048D01*
X27308172Y-48385110D01*
X27268008Y-48535004D01*
X27268006Y-48535015D01*
X27229500Y-48827486D01*
X26295500Y-48827486D01*
X26295500Y-48153490D01*
X26315185Y-48086451D01*
X26367989Y-48040696D01*
X26372013Y-48038943D01*
X26445888Y-48008344D01*
X26644612Y-47893611D01*
X26826661Y-47753919D01*
X26826665Y-47753914D01*
X26826670Y-47753911D01*
X26988911Y-47591670D01*
X26988914Y-47591665D01*
X26988919Y-47591661D01*
X27128611Y-47409612D01*
X27243344Y-47210888D01*
X27331158Y-46998887D01*
X27390548Y-46777238D01*
X27420500Y-46549734D01*
X27420500Y-46320266D01*
X27390548Y-46092762D01*
X27331158Y-45871113D01*
X27245461Y-45664223D01*
X27243349Y-45659123D01*
X27243346Y-45659117D01*
X27243344Y-45659112D01*
X27128611Y-45460388D01*
X27128608Y-45460385D01*
X27128607Y-45460382D01*
X26988918Y-45278338D01*
X26988911Y-45278330D01*
X26826670Y-45116089D01*
X26826661Y-45116081D01*
X26644617Y-44976392D01*
X26445890Y-44861657D01*
X26445886Y-44861655D01*
X26372046Y-44831069D01*
X26317643Y-44787227D01*
X26295579Y-44720933D01*
X26295500Y-44716508D01*
X26295500Y-43780258D01*
X30269500Y-43780258D01*
X30269500Y-44009741D01*
X30290998Y-44173028D01*
X30299452Y-44237238D01*
X30299453Y-44237240D01*
X30358842Y-44458887D01*
X30446650Y-44670876D01*
X30446657Y-44670890D01*
X30561392Y-44869617D01*
X30701081Y-45051661D01*
X30701089Y-45051670D01*
X30863330Y-45213911D01*
X30863338Y-45213918D01*
X31045382Y-45353607D01*
X31045385Y-45353608D01*
X31045388Y-45353611D01*
X31244112Y-45468344D01*
X31244117Y-45468346D01*
X31244123Y-45468349D01*
X31335480Y-45506190D01*
X31456113Y-45556158D01*
X31677762Y-45615548D01*
X31905266Y-45645500D01*
X31905273Y-45645500D01*
X32134727Y-45645500D01*
X32134734Y-45645500D01*
X32362238Y-45615548D01*
X32583887Y-45556158D01*
X32795888Y-45468344D01*
X32994612Y-45353611D01*
X33176661Y-45213919D01*
X33176665Y-45213914D01*
X33176670Y-45213911D01*
X33327932Y-45062648D01*
X37704500Y-45062648D01*
X37704500Y-45267351D01*
X37736522Y-45469534D01*
X37799781Y-45664223D01*
X37892715Y-45846613D01*
X38013028Y-46012213D01*
X38157786Y-46156971D01*
X38312749Y-46269556D01*
X38323390Y-46277287D01*
X38407741Y-46320266D01*
X38505776Y-46370218D01*
X38505778Y-46370218D01*
X38505781Y-46370220D01*
X38610137Y-46404127D01*
X38700465Y-46433477D01*
X38801557Y-46449488D01*
X38902648Y-46465500D01*
X38902649Y-46465500D01*
X39107351Y-46465500D01*
X39107352Y-46465500D01*
X39309534Y-46433477D01*
X39504219Y-46370220D01*
X39686610Y-46277287D01*
X39779590Y-46209732D01*
X39852213Y-46156971D01*
X39852215Y-46156968D01*
X39852219Y-46156966D01*
X39996966Y-46012219D01*
X39996968Y-46012215D01*
X39996971Y-46012213D01*
X40049732Y-45939590D01*
X40117287Y-45846610D01*
X40210220Y-45664219D01*
X40273477Y-45469534D01*
X40305500Y-45267352D01*
X40305500Y-45062648D01*
X40291838Y-44976389D01*
X40273477Y-44860465D01*
X40210218Y-44665776D01*
X40176503Y-44599607D01*
X40117287Y-44483390D01*
X40099485Y-44458887D01*
X39996971Y-44317786D01*
X39852213Y-44173028D01*
X39686613Y-44052715D01*
X39686612Y-44052714D01*
X39686610Y-44052713D01*
X39602273Y-44009741D01*
X39504223Y-43959781D01*
X39309534Y-43896522D01*
X39134995Y-43868878D01*
X39107352Y-43864500D01*
X38902648Y-43864500D01*
X38878329Y-43868351D01*
X38700465Y-43896522D01*
X38505776Y-43959781D01*
X38323386Y-44052715D01*
X38157786Y-44173028D01*
X38013028Y-44317786D01*
X37892715Y-44483386D01*
X37799781Y-44665776D01*
X37736522Y-44860465D01*
X37704500Y-45062648D01*
X33327932Y-45062648D01*
X33338910Y-45051670D01*
X33338919Y-45051661D01*
X33478611Y-44869612D01*
X33593344Y-44670888D01*
X33681158Y-44458887D01*
X33740548Y-44237238D01*
X33770500Y-44009734D01*
X33770500Y-43780266D01*
X33740548Y-43552762D01*
X33681158Y-43331113D01*
X33631190Y-43210480D01*
X33593349Y-43119123D01*
X33593346Y-43119117D01*
X33593344Y-43119112D01*
X33478611Y-42920388D01*
X33478608Y-42920385D01*
X33478607Y-42920382D01*
X33338918Y-42738338D01*
X33338911Y-42738330D01*
X33176670Y-42576089D01*
X33176661Y-42576081D01*
X32994617Y-42436392D01*
X32795890Y-42321657D01*
X32795876Y-42321650D01*
X32583887Y-42233842D01*
X32362238Y-42174452D01*
X32324215Y-42169446D01*
X32134741Y-42144500D01*
X32134734Y-42144500D01*
X31905266Y-42144500D01*
X31905258Y-42144500D01*
X31688715Y-42173009D01*
X31677762Y-42174452D01*
X31584076Y-42199554D01*
X31456112Y-42233842D01*
X31244123Y-42321650D01*
X31244109Y-42321657D01*
X31045382Y-42436392D01*
X30863338Y-42576081D01*
X30701081Y-42738338D01*
X30561392Y-42920382D01*
X30446657Y-43119109D01*
X30446650Y-43119123D01*
X30358842Y-43331112D01*
X30358842Y-43331113D01*
X30308324Y-43519653D01*
X30299453Y-43552759D01*
X30299451Y-43552770D01*
X30269500Y-43780258D01*
X26295500Y-43780258D01*
X26295500Y-40045452D01*
X26315185Y-39978413D01*
X26331819Y-39957771D01*
X28677771Y-37611819D01*
X28739094Y-37578334D01*
X28765452Y-37575500D01*
X66016607Y-37575500D01*
X66077029Y-37563481D01*
X66137452Y-37551463D01*
X66170792Y-37537652D01*
X66251286Y-37504312D01*
X66302509Y-37470084D01*
X66353733Y-37435858D01*
X66440858Y-37348733D01*
X66440859Y-37348731D01*
X66447925Y-37341665D01*
X66447928Y-37341661D01*
X68853729Y-34935860D01*
X68853733Y-34935858D01*
X68940858Y-34848733D01*
X68973086Y-34800500D01*
X69004639Y-34753279D01*
X69004642Y-34753274D01*
X69005867Y-34751439D01*
X69009311Y-34746286D01*
X69009312Y-34746285D01*
X69056463Y-34632451D01*
X69060288Y-34613224D01*
X69080500Y-34511606D01*
X69080500Y-26388394D01*
X69056463Y-26267548D01*
X69036029Y-26218216D01*
X69009312Y-26153714D01*
X68972506Y-26098632D01*
X68940858Y-26051267D01*
X68940856Y-26051264D01*
X68850637Y-25961045D01*
X68850606Y-25961016D01*
X67473150Y-24583560D01*
X67465860Y-24576270D01*
X67465858Y-24576267D01*
X67378733Y-24489142D01*
X67327509Y-24454915D01*
X67276286Y-24420688D01*
X67276283Y-24420686D01*
X67276280Y-24420685D01*
X67202603Y-24390168D01*
X67202601Y-24390167D01*
X67195792Y-24387347D01*
X67162452Y-24373537D01*
X67102029Y-24361518D01*
X67097306Y-24360578D01*
X67097304Y-24360578D01*
X67041610Y-24349500D01*
X67041607Y-24349500D01*
X67041606Y-24349500D01*
X63547981Y-24349500D01*
X63480942Y-24329815D01*
X63437497Y-24281797D01*
X63430049Y-24267180D01*
X63305109Y-24095213D01*
X63154786Y-23944890D01*
X62982820Y-23819951D01*
X62982115Y-23819591D01*
X62974054Y-23815485D01*
X62923259Y-23767512D01*
X62906463Y-23699692D01*
X62928999Y-23633556D01*
X62974054Y-23594515D01*
X62982816Y-23590051D01*
X63044758Y-23545048D01*
X63154786Y-23465109D01*
X63154788Y-23465106D01*
X63154792Y-23465104D01*
X63305104Y-23314792D01*
X63305106Y-23314788D01*
X63305109Y-23314786D01*
X63430049Y-23142819D01*
X63437497Y-23128203D01*
X63485473Y-23077408D01*
X63547981Y-23060500D01*
X67129548Y-23060500D01*
X67196587Y-23080185D01*
X67217229Y-23096819D01*
X69293181Y-25172771D01*
X69326666Y-25234094D01*
X69329500Y-25260452D01*
X69329500Y-35139547D01*
X69309815Y-35206586D01*
X69293181Y-35227228D01*
X66732229Y-37788181D01*
X66670906Y-37821666D01*
X66644548Y-37824500D01*
X47393389Y-37824500D01*
X47332971Y-37836518D01*
X47295259Y-37844019D01*
X47272550Y-37848536D01*
X47272548Y-37848537D01*
X47239207Y-37862347D01*
X47158719Y-37895684D01*
X47158705Y-37895692D01*
X47056272Y-37964138D01*
X47056264Y-37964144D01*
X44234144Y-40786264D01*
X44234138Y-40786272D01*
X44165692Y-40888705D01*
X44165684Y-40888719D01*
X44132347Y-40969207D01*
X44126823Y-40982543D01*
X44118537Y-41002545D01*
X44118535Y-41002553D01*
X44094500Y-41123389D01*
X44094500Y-44716508D01*
X44074815Y-44783547D01*
X44022011Y-44829302D01*
X44017954Y-44831069D01*
X43944113Y-44861655D01*
X43944109Y-44861657D01*
X43745382Y-44976392D01*
X43563338Y-45116081D01*
X43401081Y-45278338D01*
X43261392Y-45460382D01*
X43146657Y-45659109D01*
X43146650Y-45659123D01*
X43058842Y-45871112D01*
X42999453Y-46092759D01*
X42999451Y-46092770D01*
X42969500Y-46320258D01*
X42969500Y-46549741D01*
X42992509Y-46724500D01*
X42999452Y-46777238D01*
X43046347Y-46952254D01*
X43058842Y-46998887D01*
X43146650Y-47210876D01*
X43146657Y-47210890D01*
X43261392Y-47409617D01*
X43401081Y-47591661D01*
X43401089Y-47591670D01*
X43447238Y-47637819D01*
X43480723Y-47699142D01*
X43475739Y-47768834D01*
X43433867Y-47824767D01*
X43368403Y-47849184D01*
X43362967Y-47849378D01*
X43361423Y-47849499D01*
X43186443Y-47877214D01*
X43017960Y-47931956D01*
X43017957Y-47931957D01*
X42860109Y-48012386D01*
X42779936Y-48070636D01*
X42716786Y-48116517D01*
X42716784Y-48116519D01*
X42716783Y-48116519D01*
X42591519Y-48241783D01*
X42591519Y-48241784D01*
X42591517Y-48241786D01*
X42546796Y-48303338D01*
X42487386Y-48385109D01*
X42406957Y-48542957D01*
X42406956Y-48542960D01*
X42352214Y-48711443D01*
X42324500Y-48886421D01*
X42324500Y-49063578D01*
X42352214Y-49238556D01*
X42406956Y-49407039D01*
X42406957Y-49407042D01*
X42487386Y-49564890D01*
X42591517Y-49708214D01*
X42716786Y-49833483D01*
X42860110Y-49937614D01*
X42928577Y-49972500D01*
X43017957Y-50018042D01*
X43017960Y-50018043D01*
X43102201Y-50045414D01*
X43186445Y-50072786D01*
X43361421Y-50100500D01*
X43361422Y-50100500D01*
X43538578Y-50100500D01*
X43538579Y-50100500D01*
X43713555Y-50072786D01*
X43882042Y-50018042D01*
X43882042Y-50018041D01*
X43882047Y-50018040D01*
X43914204Y-50001655D01*
X43982874Y-49988758D01*
X44047614Y-50015034D01*
X44087872Y-50072140D01*
X44094500Y-50112139D01*
X44094500Y-63766508D01*
X44074815Y-63833547D01*
X44022011Y-63879302D01*
X44017954Y-63881069D01*
X43944113Y-63911655D01*
X43944109Y-63911657D01*
X43745382Y-64026392D01*
X43563338Y-64166081D01*
X43401081Y-64328338D01*
X43261392Y-64510382D01*
X43146657Y-64709109D01*
X43146650Y-64709123D01*
X43058842Y-64921112D01*
X42999453Y-65142759D01*
X42999451Y-65142770D01*
X42969500Y-65370258D01*
X42969500Y-65599741D01*
X42992509Y-65774500D01*
X42999452Y-65827238D01*
X43046347Y-66002254D01*
X43058842Y-66048887D01*
X43146650Y-66260876D01*
X43146657Y-66260890D01*
X43261392Y-66459617D01*
X43401081Y-66641661D01*
X43401089Y-66641670D01*
X43447238Y-66687819D01*
X43480723Y-66749142D01*
X43475739Y-66818834D01*
X43433867Y-66874767D01*
X43368403Y-66899184D01*
X43362967Y-66899378D01*
X43361423Y-66899499D01*
X43186443Y-66927214D01*
X43017960Y-66981956D01*
X43017957Y-66981957D01*
X42860109Y-67062386D01*
X42783356Y-67118151D01*
X42716786Y-67166517D01*
X42716784Y-67166519D01*
X42716783Y-67166519D01*
X42591519Y-67291783D01*
X42591519Y-67291784D01*
X42591517Y-67291786D01*
X42546796Y-67353338D01*
X42487386Y-67435109D01*
X42406957Y-67592957D01*
X42406956Y-67592960D01*
X42352214Y-67761443D01*
X42324500Y-67936421D01*
X42324500Y-68113578D01*
X42352214Y-68288556D01*
X42406956Y-68457039D01*
X42406957Y-68457042D01*
X42487386Y-68614890D01*
X42591517Y-68758214D01*
X42716786Y-68883483D01*
X42860110Y-68987614D01*
X42928577Y-69022500D01*
X43017957Y-69068042D01*
X43017960Y-69068043D01*
X43102201Y-69095414D01*
X43186445Y-69122786D01*
X43361421Y-69150500D01*
X43361422Y-69150500D01*
X43538578Y-69150500D01*
X43538579Y-69150500D01*
X43713555Y-69122786D01*
X43882042Y-69068042D01*
X43882042Y-69068041D01*
X43882047Y-69068040D01*
X43914204Y-69051655D01*
X43982874Y-69038758D01*
X44047614Y-69065034D01*
X44087872Y-69122140D01*
X44094500Y-69162139D01*
X44094500Y-82816508D01*
X44074815Y-82883547D01*
X44022011Y-82929302D01*
X44017954Y-82931069D01*
X43944113Y-82961655D01*
X43944109Y-82961657D01*
X43745382Y-83076392D01*
X43563338Y-83216081D01*
X43401081Y-83378338D01*
X43261392Y-83560382D01*
X43146657Y-83759109D01*
X43146650Y-83759123D01*
X43058842Y-83971112D01*
X42999453Y-84192759D01*
X42999451Y-84192770D01*
X42969500Y-84420258D01*
X42969500Y-84649741D01*
X42992509Y-84824500D01*
X42999452Y-84877238D01*
X43046347Y-85052254D01*
X43058842Y-85098887D01*
X43146650Y-85310876D01*
X43146657Y-85310890D01*
X43261392Y-85509617D01*
X43401081Y-85691661D01*
X43401089Y-85691670D01*
X43447238Y-85737819D01*
X43480723Y-85799142D01*
X43475739Y-85868834D01*
X43433867Y-85924767D01*
X43368403Y-85949184D01*
X43362967Y-85949378D01*
X43361423Y-85949499D01*
X43186443Y-85977214D01*
X43017960Y-86031956D01*
X43017957Y-86031957D01*
X42860109Y-86112386D01*
X42778338Y-86171796D01*
X42716786Y-86216517D01*
X42716784Y-86216519D01*
X42716783Y-86216519D01*
X42591519Y-86341783D01*
X42591519Y-86341784D01*
X42591517Y-86341786D01*
X42546796Y-86403338D01*
X42487386Y-86485109D01*
X42406957Y-86642957D01*
X42406956Y-86642960D01*
X42352214Y-86811443D01*
X42324500Y-86986421D01*
X42324500Y-87163578D01*
X42352214Y-87338556D01*
X42406956Y-87507039D01*
X42406957Y-87507042D01*
X42487386Y-87664890D01*
X42591517Y-87808214D01*
X42716786Y-87933483D01*
X42860110Y-88037614D01*
X42928577Y-88072500D01*
X43017957Y-88118042D01*
X43017960Y-88118043D01*
X43102201Y-88145414D01*
X43186445Y-88172786D01*
X43361421Y-88200500D01*
X43361422Y-88200500D01*
X43538578Y-88200500D01*
X43538579Y-88200500D01*
X43713555Y-88172786D01*
X43882042Y-88118042D01*
X44039890Y-88037614D01*
X44183214Y-87933483D01*
X44308483Y-87808214D01*
X44412614Y-87664890D01*
X44493042Y-87507042D01*
X44547786Y-87338555D01*
X44575500Y-87163579D01*
X44575500Y-86986421D01*
X44566165Y-86927486D01*
X46279500Y-86927486D01*
X46279500Y-87222513D01*
X46294778Y-87338555D01*
X46318007Y-87514993D01*
X46394361Y-87799951D01*
X46394364Y-87799961D01*
X46507254Y-88072500D01*
X46507258Y-88072510D01*
X46654761Y-88327993D01*
X46834352Y-88562040D01*
X46834358Y-88562047D01*
X47042952Y-88770641D01*
X47042959Y-88770647D01*
X47277006Y-88950238D01*
X47532489Y-89097741D01*
X47532490Y-89097741D01*
X47532493Y-89097743D01*
X47805048Y-89210639D01*
X48090007Y-89286993D01*
X48382494Y-89325500D01*
X48382501Y-89325500D01*
X48677499Y-89325500D01*
X48677506Y-89325500D01*
X48969993Y-89286993D01*
X49254952Y-89210639D01*
X49527507Y-89097743D01*
X49782994Y-88950238D01*
X50017042Y-88770646D01*
X50225646Y-88562042D01*
X50405238Y-88327994D01*
X50552743Y-88072507D01*
X50665639Y-87799952D01*
X50741993Y-87514993D01*
X50780500Y-87222506D01*
X50780500Y-86986421D01*
X52484500Y-86986421D01*
X52484500Y-87163578D01*
X52512214Y-87338556D01*
X52566956Y-87507039D01*
X52566957Y-87507042D01*
X52647386Y-87664890D01*
X52751517Y-87808214D01*
X52876786Y-87933483D01*
X53020110Y-88037614D01*
X53088577Y-88072500D01*
X53177957Y-88118042D01*
X53177960Y-88118043D01*
X53262201Y-88145414D01*
X53346445Y-88172786D01*
X53521421Y-88200500D01*
X53521422Y-88200500D01*
X53698578Y-88200500D01*
X53698579Y-88200500D01*
X53873555Y-88172786D01*
X54042042Y-88118042D01*
X54199890Y-88037614D01*
X54343214Y-87933483D01*
X54468483Y-87808214D01*
X54572614Y-87664890D01*
X54653042Y-87507042D01*
X54707786Y-87338555D01*
X54735500Y-87163579D01*
X54735500Y-86986421D01*
X54707786Y-86811445D01*
X54653042Y-86642958D01*
X54653042Y-86642957D01*
X54572613Y-86485109D01*
X54561518Y-86469838D01*
X54468483Y-86341786D01*
X54343214Y-86216517D01*
X54199890Y-86112386D01*
X54191953Y-86108342D01*
X54042042Y-86031957D01*
X54042039Y-86031956D01*
X53873556Y-85977214D01*
X53786067Y-85963357D01*
X53698579Y-85949500D01*
X53521421Y-85949500D01*
X53463095Y-85958738D01*
X53346443Y-85977214D01*
X53177960Y-86031956D01*
X53177957Y-86031957D01*
X53020109Y-86112386D01*
X52938338Y-86171796D01*
X52876786Y-86216517D01*
X52876784Y-86216519D01*
X52876783Y-86216519D01*
X52751519Y-86341783D01*
X52751519Y-86341784D01*
X52751517Y-86341786D01*
X52706796Y-86403338D01*
X52647386Y-86485109D01*
X52566957Y-86642957D01*
X52566956Y-86642960D01*
X52512214Y-86811443D01*
X52484500Y-86986421D01*
X50780500Y-86986421D01*
X50780500Y-86927494D01*
X50741993Y-86635007D01*
X50665639Y-86350048D01*
X50552743Y-86077493D01*
X50526453Y-86031958D01*
X50405238Y-85822006D01*
X50225647Y-85587959D01*
X50225641Y-85587952D01*
X50017047Y-85379358D01*
X50017040Y-85379352D01*
X49782993Y-85199761D01*
X49527510Y-85052258D01*
X49527500Y-85052254D01*
X49254961Y-84939364D01*
X49254954Y-84939362D01*
X49254952Y-84939361D01*
X48969993Y-84863007D01*
X48921113Y-84856571D01*
X48677513Y-84824500D01*
X48677506Y-84824500D01*
X48382494Y-84824500D01*
X48382486Y-84824500D01*
X48104085Y-84861153D01*
X48090007Y-84863007D01*
X47805048Y-84939361D01*
X47805038Y-84939364D01*
X47532499Y-85052254D01*
X47532489Y-85052258D01*
X47277006Y-85199761D01*
X47042959Y-85379352D01*
X47042952Y-85379358D01*
X46834358Y-85587952D01*
X46834352Y-85587959D01*
X46654761Y-85822006D01*
X46507258Y-86077489D01*
X46507254Y-86077499D01*
X46394364Y-86350038D01*
X46394361Y-86350048D01*
X46358172Y-86485110D01*
X46318008Y-86635004D01*
X46318006Y-86635015D01*
X46279500Y-86927486D01*
X44566165Y-86927486D01*
X44547786Y-86811445D01*
X44493042Y-86642958D01*
X44493042Y-86642957D01*
X44412613Y-86485109D01*
X44401518Y-86469838D01*
X44378038Y-86404032D01*
X44393863Y-86335978D01*
X44443968Y-86287283D01*
X44512446Y-86273407D01*
X44517977Y-86274008D01*
X44605266Y-86285500D01*
X44605273Y-86285500D01*
X44834727Y-86285500D01*
X44834734Y-86285500D01*
X45062238Y-86255548D01*
X45283887Y-86196158D01*
X45495888Y-86108344D01*
X45694612Y-85993611D01*
X45876661Y-85853919D01*
X45876665Y-85853914D01*
X45876670Y-85853911D01*
X46038911Y-85691670D01*
X46038914Y-85691665D01*
X46038919Y-85691661D01*
X46178611Y-85509612D01*
X46293344Y-85310888D01*
X46381158Y-85098887D01*
X46440548Y-84877238D01*
X46470500Y-84649734D01*
X46470500Y-84420266D01*
X46440548Y-84192762D01*
X46381158Y-83971113D01*
X46295461Y-83764223D01*
X46293349Y-83759123D01*
X46293346Y-83759117D01*
X46293344Y-83759112D01*
X46178611Y-83560388D01*
X46178608Y-83560385D01*
X46178607Y-83560382D01*
X46038918Y-83378338D01*
X46038911Y-83378330D01*
X45876670Y-83216089D01*
X45876661Y-83216081D01*
X45694617Y-83076392D01*
X45495890Y-82961657D01*
X45495886Y-82961655D01*
X45422046Y-82931069D01*
X45367643Y-82887227D01*
X45345579Y-82820933D01*
X45345500Y-82816508D01*
X45345500Y-81880258D01*
X49319500Y-81880258D01*
X49319500Y-82109741D01*
X49340998Y-82273028D01*
X49349452Y-82337238D01*
X49349453Y-82337240D01*
X49408842Y-82558887D01*
X49496650Y-82770876D01*
X49496657Y-82770890D01*
X49611392Y-82969617D01*
X49751081Y-83151661D01*
X49751089Y-83151670D01*
X49913330Y-83313911D01*
X49913338Y-83313918D01*
X50095382Y-83453607D01*
X50095385Y-83453608D01*
X50095388Y-83453611D01*
X50294112Y-83568344D01*
X50294117Y-83568346D01*
X50294123Y-83568349D01*
X50385480Y-83606190D01*
X50506113Y-83656158D01*
X50727762Y-83715548D01*
X50955266Y-83745500D01*
X50955273Y-83745500D01*
X51184727Y-83745500D01*
X51184734Y-83745500D01*
X51412238Y-83715548D01*
X51633887Y-83656158D01*
X51845888Y-83568344D01*
X52044612Y-83453611D01*
X52226661Y-83313919D01*
X52226665Y-83313914D01*
X52226670Y-83313911D01*
X52377932Y-83162648D01*
X56754500Y-83162648D01*
X56754500Y-83367351D01*
X56786522Y-83569534D01*
X56849781Y-83764223D01*
X56942715Y-83946613D01*
X57063028Y-84112213D01*
X57207786Y-84256971D01*
X57362749Y-84369556D01*
X57373390Y-84377287D01*
X57457741Y-84420266D01*
X57555776Y-84470218D01*
X57555778Y-84470218D01*
X57555781Y-84470220D01*
X57660137Y-84504127D01*
X57750465Y-84533477D01*
X57851557Y-84549488D01*
X57952648Y-84565500D01*
X57952649Y-84565500D01*
X58157351Y-84565500D01*
X58157352Y-84565500D01*
X58359534Y-84533477D01*
X58554219Y-84470220D01*
X58736610Y-84377287D01*
X58829590Y-84309732D01*
X58902213Y-84256971D01*
X58902215Y-84256968D01*
X58902219Y-84256966D01*
X59046966Y-84112219D01*
X59046968Y-84112215D01*
X59046971Y-84112213D01*
X59099732Y-84039590D01*
X59167287Y-83946610D01*
X59260220Y-83764219D01*
X59323477Y-83569534D01*
X59355500Y-83367352D01*
X59355500Y-83162648D01*
X59341838Y-83076389D01*
X59323477Y-82960465D01*
X59278140Y-82820933D01*
X59260220Y-82765781D01*
X59260218Y-82765778D01*
X59260218Y-82765776D01*
X59226503Y-82699607D01*
X59167287Y-82583390D01*
X59149485Y-82558887D01*
X59046971Y-82417786D01*
X58902213Y-82273028D01*
X58736613Y-82152715D01*
X58736612Y-82152714D01*
X58736610Y-82152713D01*
X58652273Y-82109741D01*
X58554223Y-82059781D01*
X58359534Y-81996522D01*
X58184995Y-81968878D01*
X58157352Y-81964500D01*
X57952648Y-81964500D01*
X57928329Y-81968351D01*
X57750465Y-81996522D01*
X57555776Y-82059781D01*
X57373386Y-82152715D01*
X57207786Y-82273028D01*
X57063028Y-82417786D01*
X56942715Y-82583386D01*
X56849781Y-82765776D01*
X56786522Y-82960465D01*
X56754500Y-83162648D01*
X52377932Y-83162648D01*
X52388910Y-83151670D01*
X52388919Y-83151661D01*
X52528611Y-82969612D01*
X52643344Y-82770888D01*
X52731158Y-82558887D01*
X52790548Y-82337238D01*
X52820500Y-82109734D01*
X52820500Y-81880266D01*
X52790548Y-81652762D01*
X52731158Y-81431113D01*
X52643344Y-81219112D01*
X52528611Y-81020388D01*
X52528608Y-81020385D01*
X52528607Y-81020382D01*
X52388918Y-80838338D01*
X52388911Y-80838330D01*
X52226670Y-80676089D01*
X52226661Y-80676081D01*
X52044617Y-80536392D01*
X51845890Y-80421657D01*
X51845876Y-80421650D01*
X51633887Y-80333842D01*
X51412238Y-80274452D01*
X51374215Y-80269446D01*
X51184741Y-80244500D01*
X51184734Y-80244500D01*
X50955266Y-80244500D01*
X50955258Y-80244500D01*
X50738715Y-80273009D01*
X50727762Y-80274452D01*
X50634076Y-80299554D01*
X50506112Y-80333842D01*
X50294123Y-80421650D01*
X50294109Y-80421657D01*
X50095382Y-80536392D01*
X49913338Y-80676081D01*
X49751081Y-80838338D01*
X49611392Y-81020382D01*
X49496657Y-81219109D01*
X49496650Y-81219123D01*
X49408842Y-81431112D01*
X49349453Y-81652759D01*
X49349451Y-81652770D01*
X49319500Y-81880258D01*
X45345500Y-81880258D01*
X45345500Y-71234983D01*
X56798250Y-71234983D01*
X56798250Y-72435001D01*
X56798251Y-72435018D01*
X56808750Y-72537796D01*
X56808751Y-72537799D01*
X56863935Y-72704331D01*
X56863936Y-72704334D01*
X56956038Y-72853656D01*
X57080094Y-72977712D01*
X57229416Y-73069814D01*
X57395953Y-73124999D01*
X57498741Y-73135500D01*
X58698758Y-73135499D01*
X58801547Y-73124999D01*
X58968084Y-73069814D01*
X59117406Y-72977712D01*
X59241462Y-72853656D01*
X59333564Y-72704334D01*
X59388749Y-72537797D01*
X59399250Y-72435009D01*
X59399249Y-71234992D01*
X59388749Y-71132203D01*
X59333564Y-70965666D01*
X59241462Y-70816344D01*
X59117406Y-70692288D01*
X58968084Y-70600186D01*
X58801547Y-70545001D01*
X58801545Y-70545000D01*
X58698760Y-70534500D01*
X57498748Y-70534500D01*
X57498731Y-70534501D01*
X57395953Y-70545000D01*
X57395950Y-70545001D01*
X57229418Y-70600185D01*
X57229413Y-70600187D01*
X57080092Y-70692289D01*
X56956039Y-70816342D01*
X56863937Y-70965663D01*
X56863936Y-70965666D01*
X56808751Y-71132203D01*
X56808751Y-71132204D01*
X56808750Y-71132204D01*
X56798250Y-71234983D01*
X45345500Y-71234983D01*
X45345500Y-67877486D01*
X46279500Y-67877486D01*
X46279500Y-68172513D01*
X46294778Y-68288555D01*
X46318007Y-68464993D01*
X46394361Y-68749951D01*
X46394364Y-68749961D01*
X46507254Y-69022500D01*
X46507258Y-69022510D01*
X46654761Y-69277993D01*
X46834352Y-69512040D01*
X46834358Y-69512047D01*
X47042952Y-69720641D01*
X47042959Y-69720647D01*
X47277006Y-69900238D01*
X47532489Y-70047741D01*
X47532490Y-70047741D01*
X47532493Y-70047743D01*
X47805048Y-70160639D01*
X48090007Y-70236993D01*
X48382494Y-70275500D01*
X48382501Y-70275500D01*
X48677499Y-70275500D01*
X48677506Y-70275500D01*
X48969993Y-70236993D01*
X49254952Y-70160639D01*
X49527507Y-70047743D01*
X49782994Y-69900238D01*
X50017042Y-69720646D01*
X50225646Y-69512042D01*
X50405238Y-69277994D01*
X50552743Y-69022507D01*
X50665639Y-68749952D01*
X50741993Y-68464993D01*
X50780500Y-68172506D01*
X50780500Y-67936421D01*
X52484500Y-67936421D01*
X52484500Y-68113578D01*
X52512214Y-68288556D01*
X52566956Y-68457039D01*
X52566957Y-68457042D01*
X52647386Y-68614890D01*
X52751517Y-68758214D01*
X52876786Y-68883483D01*
X53020110Y-68987614D01*
X53088577Y-69022500D01*
X53177957Y-69068042D01*
X53177960Y-69068043D01*
X53262201Y-69095414D01*
X53346445Y-69122786D01*
X53521421Y-69150500D01*
X53521422Y-69150500D01*
X53698578Y-69150500D01*
X53698579Y-69150500D01*
X53873555Y-69122786D01*
X54042042Y-69068042D01*
X54199890Y-68987614D01*
X54343214Y-68883483D01*
X54468483Y-68758214D01*
X54572614Y-68614890D01*
X54653042Y-68457042D01*
X54707786Y-68288555D01*
X54735500Y-68113579D01*
X54735500Y-67936421D01*
X54707786Y-67761445D01*
X54653042Y-67592958D01*
X54653042Y-67592957D01*
X54572613Y-67435109D01*
X54468483Y-67291786D01*
X54343214Y-67166517D01*
X54199890Y-67062386D01*
X54191953Y-67058342D01*
X54042042Y-66981957D01*
X54042039Y-66981956D01*
X53873556Y-66927214D01*
X53786067Y-66913357D01*
X53698579Y-66899500D01*
X53521421Y-66899500D01*
X53463095Y-66908738D01*
X53346443Y-66927214D01*
X53177960Y-66981956D01*
X53177957Y-66981957D01*
X53020109Y-67062386D01*
X52943356Y-67118151D01*
X52876786Y-67166517D01*
X52876784Y-67166519D01*
X52876783Y-67166519D01*
X52751519Y-67291783D01*
X52751519Y-67291784D01*
X52751517Y-67291786D01*
X52706796Y-67353338D01*
X52647386Y-67435109D01*
X52566957Y-67592957D01*
X52566956Y-67592960D01*
X52512214Y-67761443D01*
X52484500Y-67936421D01*
X50780500Y-67936421D01*
X50780500Y-67877494D01*
X50741993Y-67585007D01*
X50665639Y-67300048D01*
X50552743Y-67027493D01*
X50526453Y-66981958D01*
X50405238Y-66772006D01*
X50225647Y-66537959D01*
X50225641Y-66537952D01*
X50017047Y-66329358D01*
X50017040Y-66329352D01*
X49782993Y-66149761D01*
X49527510Y-66002258D01*
X49527500Y-66002254D01*
X49254961Y-65889364D01*
X49254954Y-65889362D01*
X49254952Y-65889361D01*
X48969993Y-65813007D01*
X48921113Y-65806571D01*
X48677513Y-65774500D01*
X48677506Y-65774500D01*
X48382494Y-65774500D01*
X48382486Y-65774500D01*
X48104085Y-65811153D01*
X48090007Y-65813007D01*
X47805048Y-65889361D01*
X47805038Y-65889364D01*
X47532499Y-66002254D01*
X47532489Y-66002258D01*
X47277006Y-66149761D01*
X47042959Y-66329352D01*
X47042952Y-66329358D01*
X46834358Y-66537952D01*
X46834352Y-66537959D01*
X46654761Y-66772006D01*
X46507258Y-67027489D01*
X46507254Y-67027499D01*
X46394364Y-67300038D01*
X46394361Y-67300048D01*
X46358172Y-67435110D01*
X46318008Y-67585004D01*
X46318006Y-67585015D01*
X46279500Y-67877486D01*
X45345500Y-67877486D01*
X45345500Y-67203490D01*
X45365185Y-67136451D01*
X45417989Y-67090696D01*
X45422013Y-67088943D01*
X45495888Y-67058344D01*
X45694612Y-66943611D01*
X45876661Y-66803919D01*
X45876665Y-66803914D01*
X45876670Y-66803911D01*
X46038911Y-66641670D01*
X46038914Y-66641665D01*
X46038919Y-66641661D01*
X46178611Y-66459612D01*
X46293344Y-66260888D01*
X46381158Y-66048887D01*
X46440548Y-65827238D01*
X46470500Y-65599734D01*
X46470500Y-65370266D01*
X46440548Y-65142762D01*
X46381158Y-64921113D01*
X46295461Y-64714223D01*
X46293349Y-64709123D01*
X46293346Y-64709117D01*
X46293344Y-64709112D01*
X46178611Y-64510388D01*
X46178608Y-64510385D01*
X46178607Y-64510382D01*
X46038918Y-64328338D01*
X46038911Y-64328330D01*
X45876670Y-64166089D01*
X45876661Y-64166081D01*
X45694617Y-64026392D01*
X45495890Y-63911657D01*
X45495886Y-63911655D01*
X45422046Y-63881069D01*
X45367643Y-63837227D01*
X45345579Y-63770933D01*
X45345500Y-63766508D01*
X45345500Y-62830258D01*
X49319500Y-62830258D01*
X49319500Y-63059741D01*
X49340998Y-63223028D01*
X49349452Y-63287238D01*
X49349453Y-63287240D01*
X49408842Y-63508887D01*
X49496650Y-63720876D01*
X49496657Y-63720890D01*
X49611392Y-63919617D01*
X49751081Y-64101661D01*
X49751089Y-64101670D01*
X49913330Y-64263911D01*
X49913338Y-64263918D01*
X50095382Y-64403607D01*
X50095385Y-64403608D01*
X50095388Y-64403611D01*
X50294112Y-64518344D01*
X50294117Y-64518346D01*
X50294123Y-64518349D01*
X50385480Y-64556190D01*
X50506113Y-64606158D01*
X50727762Y-64665548D01*
X50955266Y-64695500D01*
X50955273Y-64695500D01*
X51184727Y-64695500D01*
X51184734Y-64695500D01*
X51412238Y-64665548D01*
X51633887Y-64606158D01*
X51845888Y-64518344D01*
X52044612Y-64403611D01*
X52226661Y-64263919D01*
X52226665Y-64263914D01*
X52226670Y-64263911D01*
X52377932Y-64112648D01*
X56798250Y-64112648D01*
X56798250Y-64317351D01*
X56830272Y-64519534D01*
X56893531Y-64714223D01*
X56986465Y-64896613D01*
X57106778Y-65062213D01*
X57251536Y-65206971D01*
X57406499Y-65319556D01*
X57417140Y-65327287D01*
X57501491Y-65370266D01*
X57599526Y-65420218D01*
X57599528Y-65420218D01*
X57599531Y-65420220D01*
X57703887Y-65454127D01*
X57794215Y-65483477D01*
X57895307Y-65499488D01*
X57996398Y-65515500D01*
X57996399Y-65515500D01*
X58201101Y-65515500D01*
X58201102Y-65515500D01*
X58403284Y-65483477D01*
X58597969Y-65420220D01*
X58780360Y-65327287D01*
X58873340Y-65259732D01*
X58945963Y-65206971D01*
X58945965Y-65206968D01*
X58945969Y-65206966D01*
X59090716Y-65062219D01*
X59090718Y-65062215D01*
X59090721Y-65062213D01*
X59143482Y-64989590D01*
X59211037Y-64896610D01*
X59303970Y-64714219D01*
X59367227Y-64519534D01*
X59399250Y-64317352D01*
X59399250Y-64112648D01*
X59385588Y-64026389D01*
X59367227Y-63910465D01*
X59303968Y-63715776D01*
X59270253Y-63649607D01*
X59211037Y-63533390D01*
X59193235Y-63508887D01*
X59090721Y-63367786D01*
X58945963Y-63223028D01*
X58780363Y-63102715D01*
X58780362Y-63102714D01*
X58780360Y-63102713D01*
X58696023Y-63059741D01*
X58597973Y-63009781D01*
X58403284Y-62946522D01*
X58228745Y-62918878D01*
X58201102Y-62914500D01*
X57996398Y-62914500D01*
X57972079Y-62918351D01*
X57794215Y-62946522D01*
X57599526Y-63009781D01*
X57417136Y-63102715D01*
X57251536Y-63223028D01*
X57106778Y-63367786D01*
X56986465Y-63533386D01*
X56893531Y-63715776D01*
X56830272Y-63910465D01*
X56798250Y-64112648D01*
X52377932Y-64112648D01*
X52388910Y-64101670D01*
X52388919Y-64101661D01*
X52528611Y-63919612D01*
X52643344Y-63720888D01*
X52731158Y-63508887D01*
X52790548Y-63287238D01*
X52820500Y-63059734D01*
X52820500Y-62830266D01*
X52790548Y-62602762D01*
X52731158Y-62381113D01*
X52643344Y-62169112D01*
X52528611Y-61970388D01*
X52528608Y-61970385D01*
X52528607Y-61970382D01*
X52388918Y-61788338D01*
X52388911Y-61788330D01*
X52226670Y-61626089D01*
X52226661Y-61626081D01*
X52044617Y-61486392D01*
X51845890Y-61371657D01*
X51845876Y-61371650D01*
X51633887Y-61283842D01*
X51412238Y-61224452D01*
X51374215Y-61219446D01*
X51184741Y-61194500D01*
X51184734Y-61194500D01*
X50955266Y-61194500D01*
X50955258Y-61194500D01*
X50738715Y-61223009D01*
X50727762Y-61224452D01*
X50634076Y-61249554D01*
X50506112Y-61283842D01*
X50294123Y-61371650D01*
X50294109Y-61371657D01*
X50095382Y-61486392D01*
X49913338Y-61626081D01*
X49751081Y-61788338D01*
X49611392Y-61970382D01*
X49496657Y-62169109D01*
X49496650Y-62169123D01*
X49408842Y-62381112D01*
X49349453Y-62602759D01*
X49349451Y-62602770D01*
X49319500Y-62830258D01*
X45345500Y-62830258D01*
X45345500Y-52184983D01*
X56754500Y-52184983D01*
X56754500Y-53385001D01*
X56754501Y-53385018D01*
X56765000Y-53487796D01*
X56765001Y-53487799D01*
X56820185Y-53654331D01*
X56820186Y-53654334D01*
X56912288Y-53803656D01*
X57036344Y-53927712D01*
X57185666Y-54019814D01*
X57352203Y-54074999D01*
X57454991Y-54085500D01*
X58655008Y-54085499D01*
X58757797Y-54074999D01*
X58924334Y-54019814D01*
X59073656Y-53927712D01*
X59197712Y-53803656D01*
X59289814Y-53654334D01*
X59344999Y-53487797D01*
X59355500Y-53385009D01*
X59355499Y-52184992D01*
X59344999Y-52082203D01*
X59289814Y-51915666D01*
X59197712Y-51766344D01*
X59073656Y-51642288D01*
X58924334Y-51550186D01*
X58757797Y-51495001D01*
X58757795Y-51495000D01*
X58655010Y-51484500D01*
X57454998Y-51484500D01*
X57454981Y-51484501D01*
X57352203Y-51495000D01*
X57352200Y-51495001D01*
X57185668Y-51550185D01*
X57185663Y-51550187D01*
X57036342Y-51642289D01*
X56912289Y-51766342D01*
X56820187Y-51915663D01*
X56820186Y-51915666D01*
X56765001Y-52082203D01*
X56765001Y-52082204D01*
X56765000Y-52082204D01*
X56754500Y-52184983D01*
X45345500Y-52184983D01*
X45345500Y-48827486D01*
X46279500Y-48827486D01*
X46279500Y-49122513D01*
X46294778Y-49238555D01*
X46318007Y-49414993D01*
X46394361Y-49699951D01*
X46394364Y-49699961D01*
X46507254Y-49972500D01*
X46507258Y-49972510D01*
X46654761Y-50227993D01*
X46834352Y-50462040D01*
X46834358Y-50462047D01*
X47042952Y-50670641D01*
X47042959Y-50670647D01*
X47277006Y-50850238D01*
X47532489Y-50997741D01*
X47532490Y-50997741D01*
X47532493Y-50997743D01*
X47805048Y-51110639D01*
X48090007Y-51186993D01*
X48382494Y-51225500D01*
X48382501Y-51225500D01*
X48677499Y-51225500D01*
X48677506Y-51225500D01*
X48969993Y-51186993D01*
X49254952Y-51110639D01*
X49527507Y-50997743D01*
X49782994Y-50850238D01*
X50017042Y-50670646D01*
X50225646Y-50462042D01*
X50405238Y-50227994D01*
X50552743Y-49972507D01*
X50665639Y-49699952D01*
X50741993Y-49414993D01*
X50780500Y-49122506D01*
X50780500Y-48886421D01*
X52484500Y-48886421D01*
X52484500Y-49063578D01*
X52512214Y-49238556D01*
X52566956Y-49407039D01*
X52566957Y-49407042D01*
X52647386Y-49564890D01*
X52751517Y-49708214D01*
X52876786Y-49833483D01*
X53020110Y-49937614D01*
X53088577Y-49972500D01*
X53177957Y-50018042D01*
X53177960Y-50018043D01*
X53262201Y-50045414D01*
X53346445Y-50072786D01*
X53521421Y-50100500D01*
X53521422Y-50100500D01*
X53698578Y-50100500D01*
X53698579Y-50100500D01*
X53873555Y-50072786D01*
X54042042Y-50018042D01*
X54199890Y-49937614D01*
X54343214Y-49833483D01*
X54468483Y-49708214D01*
X54572614Y-49564890D01*
X54653042Y-49407042D01*
X54707786Y-49238555D01*
X54735500Y-49063579D01*
X54735500Y-48886421D01*
X54707786Y-48711445D01*
X54653042Y-48542958D01*
X54653042Y-48542957D01*
X54572613Y-48385109D01*
X54468483Y-48241786D01*
X54343214Y-48116517D01*
X54199890Y-48012386D01*
X54191953Y-48008342D01*
X54042042Y-47931957D01*
X54042039Y-47931956D01*
X53873556Y-47877214D01*
X53786067Y-47863357D01*
X53698579Y-47849500D01*
X53521421Y-47849500D01*
X53463095Y-47858738D01*
X53346443Y-47877214D01*
X53177960Y-47931956D01*
X53177957Y-47931957D01*
X53020109Y-48012386D01*
X52939936Y-48070636D01*
X52876786Y-48116517D01*
X52876784Y-48116519D01*
X52876783Y-48116519D01*
X52751519Y-48241783D01*
X52751519Y-48241784D01*
X52751517Y-48241786D01*
X52706796Y-48303338D01*
X52647386Y-48385109D01*
X52566957Y-48542957D01*
X52566956Y-48542960D01*
X52512214Y-48711443D01*
X52484500Y-48886421D01*
X50780500Y-48886421D01*
X50780500Y-48827494D01*
X50741993Y-48535007D01*
X50665639Y-48250048D01*
X50552743Y-47977493D01*
X50526453Y-47931958D01*
X50405238Y-47722006D01*
X50225647Y-47487959D01*
X50225641Y-47487952D01*
X50017047Y-47279358D01*
X50017040Y-47279352D01*
X49782993Y-47099761D01*
X49527510Y-46952258D01*
X49527500Y-46952254D01*
X49254961Y-46839364D01*
X49254954Y-46839362D01*
X49254952Y-46839361D01*
X48969993Y-46763007D01*
X48921113Y-46756571D01*
X48677513Y-46724500D01*
X48677506Y-46724500D01*
X48382494Y-46724500D01*
X48382486Y-46724500D01*
X48104085Y-46761153D01*
X48090007Y-46763007D01*
X47805048Y-46839361D01*
X47805038Y-46839364D01*
X47532499Y-46952254D01*
X47532489Y-46952258D01*
X47277006Y-47099761D01*
X47042959Y-47279352D01*
X47042952Y-47279358D01*
X46834358Y-47487952D01*
X46834352Y-47487959D01*
X46654761Y-47722006D01*
X46507258Y-47977489D01*
X46507254Y-47977499D01*
X46394364Y-48250038D01*
X46394361Y-48250048D01*
X46358172Y-48385110D01*
X46318008Y-48535004D01*
X46318006Y-48535015D01*
X46279500Y-48827486D01*
X45345500Y-48827486D01*
X45345500Y-48153490D01*
X45365185Y-48086451D01*
X45417989Y-48040696D01*
X45422013Y-48038943D01*
X45495888Y-48008344D01*
X45694612Y-47893611D01*
X45876661Y-47753919D01*
X45876665Y-47753914D01*
X45876670Y-47753911D01*
X46038911Y-47591670D01*
X46038914Y-47591665D01*
X46038919Y-47591661D01*
X46178611Y-47409612D01*
X46293344Y-47210888D01*
X46381158Y-46998887D01*
X46440548Y-46777238D01*
X46470500Y-46549734D01*
X46470500Y-46320266D01*
X46440548Y-46092762D01*
X46381158Y-45871113D01*
X46295461Y-45664223D01*
X46293349Y-45659123D01*
X46293346Y-45659117D01*
X46293344Y-45659112D01*
X46178611Y-45460388D01*
X46178608Y-45460385D01*
X46178607Y-45460382D01*
X46038918Y-45278338D01*
X46038911Y-45278330D01*
X45876670Y-45116089D01*
X45876661Y-45116081D01*
X45694617Y-44976392D01*
X45495890Y-44861657D01*
X45495886Y-44861655D01*
X45422046Y-44831069D01*
X45367643Y-44787227D01*
X45345579Y-44720933D01*
X45345500Y-44716508D01*
X45345500Y-43780258D01*
X49319500Y-43780258D01*
X49319500Y-44009741D01*
X49340998Y-44173028D01*
X49349452Y-44237238D01*
X49349453Y-44237240D01*
X49408842Y-44458887D01*
X49496650Y-44670876D01*
X49496657Y-44670890D01*
X49611392Y-44869617D01*
X49751081Y-45051661D01*
X49751089Y-45051670D01*
X49913330Y-45213911D01*
X49913338Y-45213918D01*
X50095382Y-45353607D01*
X50095385Y-45353608D01*
X50095388Y-45353611D01*
X50294112Y-45468344D01*
X50294117Y-45468346D01*
X50294123Y-45468349D01*
X50385480Y-45506190D01*
X50506113Y-45556158D01*
X50727762Y-45615548D01*
X50955266Y-45645500D01*
X50955273Y-45645500D01*
X51184727Y-45645500D01*
X51184734Y-45645500D01*
X51412238Y-45615548D01*
X51633887Y-45556158D01*
X51845888Y-45468344D01*
X52044612Y-45353611D01*
X52226661Y-45213919D01*
X52226665Y-45213914D01*
X52226670Y-45213911D01*
X52377932Y-45062648D01*
X56754500Y-45062648D01*
X56754500Y-45267351D01*
X56786522Y-45469534D01*
X56849781Y-45664223D01*
X56942715Y-45846613D01*
X57063028Y-46012213D01*
X57207786Y-46156971D01*
X57362749Y-46269556D01*
X57373390Y-46277287D01*
X57457741Y-46320266D01*
X57555776Y-46370218D01*
X57555778Y-46370218D01*
X57555781Y-46370220D01*
X57660137Y-46404127D01*
X57750465Y-46433477D01*
X57851557Y-46449488D01*
X57952648Y-46465500D01*
X57952649Y-46465500D01*
X58157351Y-46465500D01*
X58157352Y-46465500D01*
X58359534Y-46433477D01*
X58554219Y-46370220D01*
X58736610Y-46277287D01*
X58829590Y-46209732D01*
X58902213Y-46156971D01*
X58902215Y-46156968D01*
X58902219Y-46156966D01*
X59046966Y-46012219D01*
X59046968Y-46012215D01*
X59046971Y-46012213D01*
X59099732Y-45939590D01*
X59167287Y-45846610D01*
X59260220Y-45664219D01*
X59323477Y-45469534D01*
X59355500Y-45267352D01*
X59355500Y-45062648D01*
X59341838Y-44976389D01*
X59323477Y-44860465D01*
X59260218Y-44665776D01*
X59226503Y-44599607D01*
X59167287Y-44483390D01*
X59149485Y-44458887D01*
X59046971Y-44317786D01*
X58902213Y-44173028D01*
X58736613Y-44052715D01*
X58736612Y-44052714D01*
X58736610Y-44052713D01*
X58652273Y-44009741D01*
X58554223Y-43959781D01*
X58359534Y-43896522D01*
X58184995Y-43868878D01*
X58157352Y-43864500D01*
X57952648Y-43864500D01*
X57928329Y-43868351D01*
X57750465Y-43896522D01*
X57555776Y-43959781D01*
X57373386Y-44052715D01*
X57207786Y-44173028D01*
X57063028Y-44317786D01*
X56942715Y-44483386D01*
X56849781Y-44665776D01*
X56786522Y-44860465D01*
X56754500Y-45062648D01*
X52377932Y-45062648D01*
X52388910Y-45051670D01*
X52388919Y-45051661D01*
X52528611Y-44869612D01*
X52643344Y-44670888D01*
X52731158Y-44458887D01*
X52790548Y-44237238D01*
X52820500Y-44009734D01*
X52820500Y-43780266D01*
X52790548Y-43552762D01*
X52731158Y-43331113D01*
X52681190Y-43210480D01*
X52643349Y-43119123D01*
X52643346Y-43119117D01*
X52643344Y-43119112D01*
X52528611Y-42920388D01*
X52528608Y-42920385D01*
X52528607Y-42920382D01*
X52388918Y-42738338D01*
X52388911Y-42738330D01*
X52226670Y-42576089D01*
X52226661Y-42576081D01*
X52044617Y-42436392D01*
X51845890Y-42321657D01*
X51845876Y-42321650D01*
X51633887Y-42233842D01*
X51412238Y-42174452D01*
X51374215Y-42169446D01*
X51184741Y-42144500D01*
X51184734Y-42144500D01*
X50955266Y-42144500D01*
X50955258Y-42144500D01*
X50738715Y-42173009D01*
X50727762Y-42174452D01*
X50634076Y-42199554D01*
X50506112Y-42233842D01*
X50294123Y-42321650D01*
X50294109Y-42321657D01*
X50095382Y-42436392D01*
X49913338Y-42576081D01*
X49751081Y-42738338D01*
X49611392Y-42920382D01*
X49496657Y-43119109D01*
X49496650Y-43119123D01*
X49408842Y-43331112D01*
X49408842Y-43331113D01*
X49358324Y-43519653D01*
X49349453Y-43552759D01*
X49349451Y-43552770D01*
X49319500Y-43780258D01*
X45345500Y-43780258D01*
X45345500Y-41495452D01*
X45365185Y-41428413D01*
X45381819Y-41407771D01*
X47677771Y-39111819D01*
X47739094Y-39078334D01*
X47765452Y-39075500D01*
X67016607Y-39075500D01*
X67077029Y-39063481D01*
X67137452Y-39051463D01*
X67170792Y-39037652D01*
X67241962Y-39008173D01*
X67311431Y-39000707D01*
X67373909Y-39031983D01*
X67409560Y-39092073D01*
X67407064Y-39161898D01*
X67377092Y-39210417D01*
X67068302Y-39519207D01*
X63371270Y-43216239D01*
X63371267Y-43216242D01*
X63334115Y-43253394D01*
X63284144Y-43303364D01*
X63265602Y-43331115D01*
X63265601Y-43331115D01*
X63215690Y-43405809D01*
X63215685Y-43405818D01*
X63182347Y-43486307D01*
X63176823Y-43499643D01*
X63168537Y-43519645D01*
X63168535Y-43519653D01*
X63144500Y-43640489D01*
X63144500Y-44716508D01*
X63124815Y-44783547D01*
X63072011Y-44829302D01*
X63067954Y-44831069D01*
X62994113Y-44861655D01*
X62994109Y-44861657D01*
X62795382Y-44976392D01*
X62613338Y-45116081D01*
X62451081Y-45278338D01*
X62311392Y-45460382D01*
X62196657Y-45659109D01*
X62196650Y-45659123D01*
X62108842Y-45871112D01*
X62049453Y-46092759D01*
X62049451Y-46092770D01*
X62019500Y-46320258D01*
X62019500Y-46549741D01*
X62042509Y-46724500D01*
X62049452Y-46777238D01*
X62096347Y-46952254D01*
X62108842Y-46998887D01*
X62196650Y-47210876D01*
X62196657Y-47210890D01*
X62311392Y-47409617D01*
X62451081Y-47591661D01*
X62451089Y-47591670D01*
X62497238Y-47637819D01*
X62530723Y-47699142D01*
X62525739Y-47768834D01*
X62483867Y-47824767D01*
X62418403Y-47849184D01*
X62412967Y-47849378D01*
X62411423Y-47849499D01*
X62236443Y-47877214D01*
X62067960Y-47931956D01*
X62067957Y-47931957D01*
X61910109Y-48012386D01*
X61829936Y-48070636D01*
X61766786Y-48116517D01*
X61766784Y-48116519D01*
X61766783Y-48116519D01*
X61641519Y-48241783D01*
X61641519Y-48241784D01*
X61641517Y-48241786D01*
X61596796Y-48303338D01*
X61537386Y-48385109D01*
X61456957Y-48542957D01*
X61456956Y-48542960D01*
X61402214Y-48711443D01*
X61374500Y-48886421D01*
X61374500Y-49063578D01*
X61402214Y-49238556D01*
X61456956Y-49407039D01*
X61456957Y-49407042D01*
X61537386Y-49564890D01*
X61641517Y-49708214D01*
X61766786Y-49833483D01*
X61910110Y-49937614D01*
X61978577Y-49972500D01*
X62067957Y-50018042D01*
X62067960Y-50018043D01*
X62152201Y-50045414D01*
X62236445Y-50072786D01*
X62411421Y-50100500D01*
X62411422Y-50100500D01*
X62588578Y-50100500D01*
X62588579Y-50100500D01*
X62763555Y-50072786D01*
X62932042Y-50018042D01*
X62932042Y-50018041D01*
X62932047Y-50018040D01*
X62964204Y-50001655D01*
X63032874Y-49988758D01*
X63097614Y-50015034D01*
X63137872Y-50072140D01*
X63144500Y-50112139D01*
X63144500Y-63766508D01*
X63124815Y-63833547D01*
X63072011Y-63879302D01*
X63067954Y-63881069D01*
X62994113Y-63911655D01*
X62994109Y-63911657D01*
X62795382Y-64026392D01*
X62613338Y-64166081D01*
X62451081Y-64328338D01*
X62311392Y-64510382D01*
X62196657Y-64709109D01*
X62196650Y-64709123D01*
X62108842Y-64921112D01*
X62049453Y-65142759D01*
X62049451Y-65142770D01*
X62019500Y-65370258D01*
X62019500Y-65599741D01*
X62042509Y-65774500D01*
X62049452Y-65827238D01*
X62096347Y-66002254D01*
X62108842Y-66048887D01*
X62196650Y-66260876D01*
X62196657Y-66260890D01*
X62311392Y-66459617D01*
X62451081Y-66641661D01*
X62451089Y-66641670D01*
X62497238Y-66687819D01*
X62530723Y-66749142D01*
X62525739Y-66818834D01*
X62483867Y-66874767D01*
X62418403Y-66899184D01*
X62412967Y-66899378D01*
X62411423Y-66899499D01*
X62236443Y-66927214D01*
X62067960Y-66981956D01*
X62067957Y-66981957D01*
X61910109Y-67062386D01*
X61833356Y-67118151D01*
X61766786Y-67166517D01*
X61766784Y-67166519D01*
X61766783Y-67166519D01*
X61641519Y-67291783D01*
X61641519Y-67291784D01*
X61641517Y-67291786D01*
X61596796Y-67353338D01*
X61537386Y-67435109D01*
X61456957Y-67592957D01*
X61456956Y-67592960D01*
X61402214Y-67761443D01*
X61374500Y-67936421D01*
X61374500Y-68113578D01*
X61402214Y-68288556D01*
X61456956Y-68457039D01*
X61456957Y-68457042D01*
X61537386Y-68614890D01*
X61641517Y-68758214D01*
X61766786Y-68883483D01*
X61910110Y-68987614D01*
X61978577Y-69022500D01*
X62067957Y-69068042D01*
X62067960Y-69068043D01*
X62152201Y-69095414D01*
X62236445Y-69122786D01*
X62411421Y-69150500D01*
X62411422Y-69150500D01*
X62588578Y-69150500D01*
X62588579Y-69150500D01*
X62763555Y-69122786D01*
X62932042Y-69068042D01*
X62932042Y-69068041D01*
X62932047Y-69068040D01*
X62964204Y-69051655D01*
X63032874Y-69038758D01*
X63097614Y-69065034D01*
X63137872Y-69122140D01*
X63144500Y-69162139D01*
X63144500Y-82816508D01*
X63124815Y-82883547D01*
X63072011Y-82929302D01*
X63067954Y-82931069D01*
X62994113Y-82961655D01*
X62994109Y-82961657D01*
X62795382Y-83076392D01*
X62613338Y-83216081D01*
X62451081Y-83378338D01*
X62311392Y-83560382D01*
X62196657Y-83759109D01*
X62196650Y-83759123D01*
X62108842Y-83971112D01*
X62049453Y-84192759D01*
X62049451Y-84192770D01*
X62019500Y-84420258D01*
X62019500Y-84649741D01*
X62042509Y-84824500D01*
X62049452Y-84877238D01*
X62096347Y-85052254D01*
X62108842Y-85098887D01*
X62196650Y-85310876D01*
X62196657Y-85310890D01*
X62311392Y-85509617D01*
X62451081Y-85691661D01*
X62451089Y-85691670D01*
X62497238Y-85737819D01*
X62530723Y-85799142D01*
X62525739Y-85868834D01*
X62483867Y-85924767D01*
X62418403Y-85949184D01*
X62412967Y-85949378D01*
X62411423Y-85949499D01*
X62236443Y-85977214D01*
X62067960Y-86031956D01*
X62067957Y-86031957D01*
X61910109Y-86112386D01*
X61828338Y-86171796D01*
X61766786Y-86216517D01*
X61766784Y-86216519D01*
X61766783Y-86216519D01*
X61641519Y-86341783D01*
X61641519Y-86341784D01*
X61641517Y-86341786D01*
X61596796Y-86403338D01*
X61537386Y-86485109D01*
X61456957Y-86642957D01*
X61456956Y-86642960D01*
X61402214Y-86811443D01*
X61374500Y-86986421D01*
X61374500Y-87163578D01*
X61402214Y-87338556D01*
X61456956Y-87507039D01*
X61456957Y-87507042D01*
X61537386Y-87664890D01*
X61641517Y-87808214D01*
X61766786Y-87933483D01*
X61910110Y-88037614D01*
X61978577Y-88072500D01*
X62067957Y-88118042D01*
X62067960Y-88118043D01*
X62152201Y-88145414D01*
X62236445Y-88172786D01*
X62411421Y-88200500D01*
X62411422Y-88200500D01*
X62588578Y-88200500D01*
X62588579Y-88200500D01*
X62763555Y-88172786D01*
X62932042Y-88118042D01*
X63089890Y-88037614D01*
X63233214Y-87933483D01*
X63358483Y-87808214D01*
X63462614Y-87664890D01*
X63543042Y-87507042D01*
X63597786Y-87338555D01*
X63625500Y-87163579D01*
X63625500Y-86986421D01*
X63616165Y-86927486D01*
X65329500Y-86927486D01*
X65329500Y-87222513D01*
X65344778Y-87338555D01*
X65368007Y-87514993D01*
X65444361Y-87799951D01*
X65444364Y-87799961D01*
X65557254Y-88072500D01*
X65557258Y-88072510D01*
X65704761Y-88327993D01*
X65884352Y-88562040D01*
X65884358Y-88562047D01*
X66092952Y-88770641D01*
X66092959Y-88770647D01*
X66327006Y-88950238D01*
X66582489Y-89097741D01*
X66582490Y-89097741D01*
X66582493Y-89097743D01*
X66855048Y-89210639D01*
X67140007Y-89286993D01*
X67432494Y-89325500D01*
X67432501Y-89325500D01*
X67727499Y-89325500D01*
X67727506Y-89325500D01*
X68019993Y-89286993D01*
X68304952Y-89210639D01*
X68577507Y-89097743D01*
X68832994Y-88950238D01*
X69067042Y-88770646D01*
X69275646Y-88562042D01*
X69455238Y-88327994D01*
X69602743Y-88072507D01*
X69715639Y-87799952D01*
X69791993Y-87514993D01*
X69830500Y-87222506D01*
X69830500Y-86986421D01*
X71534500Y-86986421D01*
X71534500Y-87163578D01*
X71562214Y-87338556D01*
X71616956Y-87507039D01*
X71616957Y-87507042D01*
X71697386Y-87664890D01*
X71801517Y-87808214D01*
X71926786Y-87933483D01*
X72070110Y-88037614D01*
X72138577Y-88072500D01*
X72227957Y-88118042D01*
X72227960Y-88118043D01*
X72312201Y-88145414D01*
X72396445Y-88172786D01*
X72571421Y-88200500D01*
X72571422Y-88200500D01*
X72748578Y-88200500D01*
X72748579Y-88200500D01*
X72923555Y-88172786D01*
X73092042Y-88118042D01*
X73249890Y-88037614D01*
X73393214Y-87933483D01*
X73518483Y-87808214D01*
X73622614Y-87664890D01*
X73703042Y-87507042D01*
X73757786Y-87338555D01*
X73785500Y-87163579D01*
X73785500Y-86986421D01*
X73757786Y-86811445D01*
X73703042Y-86642958D01*
X73703042Y-86642957D01*
X73622613Y-86485109D01*
X73611518Y-86469838D01*
X73518483Y-86341786D01*
X73393214Y-86216517D01*
X73249890Y-86112386D01*
X73241953Y-86108342D01*
X73092042Y-86031957D01*
X73092039Y-86031956D01*
X72923556Y-85977214D01*
X72836067Y-85963357D01*
X72748579Y-85949500D01*
X72571421Y-85949500D01*
X72513095Y-85958738D01*
X72396443Y-85977214D01*
X72227960Y-86031956D01*
X72227957Y-86031957D01*
X72070109Y-86112386D01*
X71988338Y-86171796D01*
X71926786Y-86216517D01*
X71926784Y-86216519D01*
X71926783Y-86216519D01*
X71801519Y-86341783D01*
X71801519Y-86341784D01*
X71801517Y-86341786D01*
X71756796Y-86403338D01*
X71697386Y-86485109D01*
X71616957Y-86642957D01*
X71616956Y-86642960D01*
X71562214Y-86811443D01*
X71534500Y-86986421D01*
X69830500Y-86986421D01*
X69830500Y-86927494D01*
X69791993Y-86635007D01*
X69715639Y-86350048D01*
X69602743Y-86077493D01*
X69576453Y-86031958D01*
X69455238Y-85822006D01*
X69275647Y-85587959D01*
X69275641Y-85587952D01*
X69067047Y-85379358D01*
X69067040Y-85379352D01*
X68832993Y-85199761D01*
X68577510Y-85052258D01*
X68577500Y-85052254D01*
X68304961Y-84939364D01*
X68304954Y-84939362D01*
X68304952Y-84939361D01*
X68019993Y-84863007D01*
X67971113Y-84856571D01*
X67727513Y-84824500D01*
X67727506Y-84824500D01*
X67432494Y-84824500D01*
X67432486Y-84824500D01*
X67154085Y-84861153D01*
X67140007Y-84863007D01*
X66855048Y-84939361D01*
X66855038Y-84939364D01*
X66582499Y-85052254D01*
X66582489Y-85052258D01*
X66327006Y-85199761D01*
X66092959Y-85379352D01*
X66092952Y-85379358D01*
X65884358Y-85587952D01*
X65884352Y-85587959D01*
X65704761Y-85822006D01*
X65557258Y-86077489D01*
X65557254Y-86077499D01*
X65444364Y-86350038D01*
X65444361Y-86350048D01*
X65408172Y-86485110D01*
X65368008Y-86635004D01*
X65368006Y-86635015D01*
X65329500Y-86927486D01*
X63616165Y-86927486D01*
X63597786Y-86811445D01*
X63543042Y-86642958D01*
X63543042Y-86642957D01*
X63462613Y-86485109D01*
X63451518Y-86469838D01*
X63428038Y-86404032D01*
X63443863Y-86335978D01*
X63493968Y-86287283D01*
X63562446Y-86273407D01*
X63567977Y-86274008D01*
X63655266Y-86285500D01*
X63655273Y-86285500D01*
X63884727Y-86285500D01*
X63884734Y-86285500D01*
X64112238Y-86255548D01*
X64333887Y-86196158D01*
X64545888Y-86108344D01*
X64744612Y-85993611D01*
X64926661Y-85853919D01*
X64926665Y-85853914D01*
X64926670Y-85853911D01*
X65088911Y-85691670D01*
X65088914Y-85691665D01*
X65088919Y-85691661D01*
X65228611Y-85509612D01*
X65343344Y-85310888D01*
X65431158Y-85098887D01*
X65490548Y-84877238D01*
X65520500Y-84649734D01*
X65520500Y-84420266D01*
X65490548Y-84192762D01*
X65431158Y-83971113D01*
X65345461Y-83764223D01*
X65343349Y-83759123D01*
X65343346Y-83759117D01*
X65343344Y-83759112D01*
X65228611Y-83560388D01*
X65228608Y-83560385D01*
X65228607Y-83560382D01*
X65088918Y-83378338D01*
X65088911Y-83378330D01*
X64926670Y-83216089D01*
X64926661Y-83216081D01*
X64744617Y-83076392D01*
X64545890Y-82961657D01*
X64545886Y-82961655D01*
X64472046Y-82931069D01*
X64417643Y-82887227D01*
X64395579Y-82820933D01*
X64395500Y-82816508D01*
X64395500Y-81880258D01*
X68369500Y-81880258D01*
X68369500Y-82109741D01*
X68390998Y-82273028D01*
X68399452Y-82337238D01*
X68399453Y-82337240D01*
X68458842Y-82558887D01*
X68546650Y-82770876D01*
X68546657Y-82770890D01*
X68661392Y-82969617D01*
X68801081Y-83151661D01*
X68801089Y-83151670D01*
X68963330Y-83313911D01*
X68963338Y-83313918D01*
X69145382Y-83453607D01*
X69145385Y-83453608D01*
X69145388Y-83453611D01*
X69344112Y-83568344D01*
X69344117Y-83568346D01*
X69344123Y-83568349D01*
X69435480Y-83606190D01*
X69556113Y-83656158D01*
X69777762Y-83715548D01*
X70005266Y-83745500D01*
X70005273Y-83745500D01*
X70234727Y-83745500D01*
X70234734Y-83745500D01*
X70462238Y-83715548D01*
X70683887Y-83656158D01*
X70895888Y-83568344D01*
X71094612Y-83453611D01*
X71276661Y-83313919D01*
X71276665Y-83313914D01*
X71276670Y-83313911D01*
X71427932Y-83162648D01*
X75804500Y-83162648D01*
X75804500Y-83367351D01*
X75836522Y-83569534D01*
X75899781Y-83764223D01*
X75992715Y-83946613D01*
X76113028Y-84112213D01*
X76257786Y-84256971D01*
X76412749Y-84369556D01*
X76423390Y-84377287D01*
X76507741Y-84420266D01*
X76605776Y-84470218D01*
X76605778Y-84470218D01*
X76605781Y-84470220D01*
X76710137Y-84504127D01*
X76800465Y-84533477D01*
X76901557Y-84549488D01*
X77002648Y-84565500D01*
X77002649Y-84565500D01*
X77207351Y-84565500D01*
X77207352Y-84565500D01*
X77409534Y-84533477D01*
X77604219Y-84470220D01*
X77786610Y-84377287D01*
X77879590Y-84309732D01*
X77952213Y-84256971D01*
X77952215Y-84256968D01*
X77952219Y-84256966D01*
X78096966Y-84112219D01*
X78096968Y-84112215D01*
X78096971Y-84112213D01*
X78149732Y-84039590D01*
X78217287Y-83946610D01*
X78310220Y-83764219D01*
X78373477Y-83569534D01*
X78405500Y-83367352D01*
X78405500Y-83162648D01*
X78391838Y-83076389D01*
X78373477Y-82960465D01*
X78328140Y-82820933D01*
X78310220Y-82765781D01*
X78310218Y-82765778D01*
X78310218Y-82765776D01*
X78276503Y-82699607D01*
X78217287Y-82583390D01*
X78199485Y-82558887D01*
X78096971Y-82417786D01*
X77952213Y-82273028D01*
X77786613Y-82152715D01*
X77786612Y-82152714D01*
X77786610Y-82152713D01*
X77702273Y-82109741D01*
X77604223Y-82059781D01*
X77409534Y-81996522D01*
X77234995Y-81968878D01*
X77207352Y-81964500D01*
X77002648Y-81964500D01*
X76978329Y-81968351D01*
X76800465Y-81996522D01*
X76605776Y-82059781D01*
X76423386Y-82152715D01*
X76257786Y-82273028D01*
X76113028Y-82417786D01*
X75992715Y-82583386D01*
X75899781Y-82765776D01*
X75836522Y-82960465D01*
X75804500Y-83162648D01*
X71427932Y-83162648D01*
X71438910Y-83151670D01*
X71438919Y-83151661D01*
X71578611Y-82969612D01*
X71693344Y-82770888D01*
X71781158Y-82558887D01*
X71840548Y-82337238D01*
X71870500Y-82109734D01*
X71870500Y-81880266D01*
X71840548Y-81652762D01*
X71781158Y-81431113D01*
X71693344Y-81219112D01*
X71578611Y-81020388D01*
X71578608Y-81020385D01*
X71578607Y-81020382D01*
X71438918Y-80838338D01*
X71438911Y-80838330D01*
X71276670Y-80676089D01*
X71276661Y-80676081D01*
X71094617Y-80536392D01*
X70895890Y-80421657D01*
X70895876Y-80421650D01*
X70683887Y-80333842D01*
X70462238Y-80274452D01*
X70424215Y-80269446D01*
X70234741Y-80244500D01*
X70234734Y-80244500D01*
X70005266Y-80244500D01*
X70005258Y-80244500D01*
X69788715Y-80273009D01*
X69777762Y-80274452D01*
X69684076Y-80299554D01*
X69556112Y-80333842D01*
X69344123Y-80421650D01*
X69344109Y-80421657D01*
X69145382Y-80536392D01*
X68963338Y-80676081D01*
X68801081Y-80838338D01*
X68661392Y-81020382D01*
X68546657Y-81219109D01*
X68546650Y-81219123D01*
X68458842Y-81431112D01*
X68399453Y-81652759D01*
X68399451Y-81652770D01*
X68369500Y-81880258D01*
X64395500Y-81880258D01*
X64395500Y-71234983D01*
X75848250Y-71234983D01*
X75848250Y-72435001D01*
X75848251Y-72435018D01*
X75858750Y-72537796D01*
X75858751Y-72537799D01*
X75913935Y-72704331D01*
X75913936Y-72704334D01*
X76006038Y-72853656D01*
X76130094Y-72977712D01*
X76279416Y-73069814D01*
X76445953Y-73124999D01*
X76548741Y-73135500D01*
X77748758Y-73135499D01*
X77851547Y-73124999D01*
X78018084Y-73069814D01*
X78167406Y-72977712D01*
X78291462Y-72853656D01*
X78383564Y-72704334D01*
X78438749Y-72537797D01*
X78449250Y-72435009D01*
X78449249Y-71234992D01*
X78438749Y-71132203D01*
X78383564Y-70965666D01*
X78291462Y-70816344D01*
X78167406Y-70692288D01*
X78018084Y-70600186D01*
X77851547Y-70545001D01*
X77851545Y-70545000D01*
X77748760Y-70534500D01*
X76548748Y-70534500D01*
X76548731Y-70534501D01*
X76445953Y-70545000D01*
X76445950Y-70545001D01*
X76279418Y-70600185D01*
X76279413Y-70600187D01*
X76130092Y-70692289D01*
X76006039Y-70816342D01*
X75913937Y-70965663D01*
X75913936Y-70965666D01*
X75858751Y-71132203D01*
X75858751Y-71132204D01*
X75858750Y-71132204D01*
X75848250Y-71234983D01*
X64395500Y-71234983D01*
X64395500Y-67877486D01*
X65329500Y-67877486D01*
X65329500Y-68172513D01*
X65344778Y-68288555D01*
X65368007Y-68464993D01*
X65444361Y-68749951D01*
X65444364Y-68749961D01*
X65557254Y-69022500D01*
X65557258Y-69022510D01*
X65704761Y-69277993D01*
X65884352Y-69512040D01*
X65884358Y-69512047D01*
X66092952Y-69720641D01*
X66092959Y-69720647D01*
X66327006Y-69900238D01*
X66582489Y-70047741D01*
X66582490Y-70047741D01*
X66582493Y-70047743D01*
X66855048Y-70160639D01*
X67140007Y-70236993D01*
X67432494Y-70275500D01*
X67432501Y-70275500D01*
X67727499Y-70275500D01*
X67727506Y-70275500D01*
X68019993Y-70236993D01*
X68304952Y-70160639D01*
X68577507Y-70047743D01*
X68832994Y-69900238D01*
X69067042Y-69720646D01*
X69275646Y-69512042D01*
X69455238Y-69277994D01*
X69602743Y-69022507D01*
X69715639Y-68749952D01*
X69791993Y-68464993D01*
X69830500Y-68172506D01*
X69830500Y-67936421D01*
X71534500Y-67936421D01*
X71534500Y-68113578D01*
X71562214Y-68288556D01*
X71616956Y-68457039D01*
X71616957Y-68457042D01*
X71697386Y-68614890D01*
X71801517Y-68758214D01*
X71926786Y-68883483D01*
X72070110Y-68987614D01*
X72138577Y-69022500D01*
X72227957Y-69068042D01*
X72227960Y-69068043D01*
X72312201Y-69095414D01*
X72396445Y-69122786D01*
X72571421Y-69150500D01*
X72571422Y-69150500D01*
X72748578Y-69150500D01*
X72748579Y-69150500D01*
X72923555Y-69122786D01*
X73092042Y-69068042D01*
X73249890Y-68987614D01*
X73393214Y-68883483D01*
X73518483Y-68758214D01*
X73622614Y-68614890D01*
X73703042Y-68457042D01*
X73757786Y-68288555D01*
X73785500Y-68113579D01*
X73785500Y-67936421D01*
X73757786Y-67761445D01*
X73703042Y-67592958D01*
X73703042Y-67592957D01*
X73622613Y-67435109D01*
X73518483Y-67291786D01*
X73393214Y-67166517D01*
X73249890Y-67062386D01*
X73241953Y-67058342D01*
X73092042Y-66981957D01*
X73092039Y-66981956D01*
X72923556Y-66927214D01*
X72836067Y-66913357D01*
X72748579Y-66899500D01*
X72571421Y-66899500D01*
X72513095Y-66908738D01*
X72396443Y-66927214D01*
X72227960Y-66981956D01*
X72227957Y-66981957D01*
X72070109Y-67062386D01*
X71993356Y-67118151D01*
X71926786Y-67166517D01*
X71926784Y-67166519D01*
X71926783Y-67166519D01*
X71801519Y-67291783D01*
X71801519Y-67291784D01*
X71801517Y-67291786D01*
X71756796Y-67353338D01*
X71697386Y-67435109D01*
X71616957Y-67592957D01*
X71616956Y-67592960D01*
X71562214Y-67761443D01*
X71534500Y-67936421D01*
X69830500Y-67936421D01*
X69830500Y-67877494D01*
X69791993Y-67585007D01*
X69715639Y-67300048D01*
X69602743Y-67027493D01*
X69576453Y-66981958D01*
X69455238Y-66772006D01*
X69275647Y-66537959D01*
X69275641Y-66537952D01*
X69067047Y-66329358D01*
X69067040Y-66329352D01*
X68832993Y-66149761D01*
X68577510Y-66002258D01*
X68577500Y-66002254D01*
X68304961Y-65889364D01*
X68304954Y-65889362D01*
X68304952Y-65889361D01*
X68019993Y-65813007D01*
X67971113Y-65806571D01*
X67727513Y-65774500D01*
X67727506Y-65774500D01*
X67432494Y-65774500D01*
X67432486Y-65774500D01*
X67154085Y-65811153D01*
X67140007Y-65813007D01*
X66855048Y-65889361D01*
X66855038Y-65889364D01*
X66582499Y-66002254D01*
X66582489Y-66002258D01*
X66327006Y-66149761D01*
X66092959Y-66329352D01*
X66092952Y-66329358D01*
X65884358Y-66537952D01*
X65884352Y-66537959D01*
X65704761Y-66772006D01*
X65557258Y-67027489D01*
X65557254Y-67027499D01*
X65444364Y-67300038D01*
X65444361Y-67300048D01*
X65408172Y-67435110D01*
X65368008Y-67585004D01*
X65368006Y-67585015D01*
X65329500Y-67877486D01*
X64395500Y-67877486D01*
X64395500Y-67203490D01*
X64415185Y-67136451D01*
X64467989Y-67090696D01*
X64472013Y-67088943D01*
X64545888Y-67058344D01*
X64744612Y-66943611D01*
X64926661Y-66803919D01*
X64926665Y-66803914D01*
X64926670Y-66803911D01*
X65088911Y-66641670D01*
X65088914Y-66641665D01*
X65088919Y-66641661D01*
X65228611Y-66459612D01*
X65343344Y-66260888D01*
X65431158Y-66048887D01*
X65490548Y-65827238D01*
X65520500Y-65599734D01*
X65520500Y-65370266D01*
X65490548Y-65142762D01*
X65431158Y-64921113D01*
X65345461Y-64714223D01*
X65343349Y-64709123D01*
X65343346Y-64709117D01*
X65343344Y-64709112D01*
X65228611Y-64510388D01*
X65228608Y-64510385D01*
X65228607Y-64510382D01*
X65088918Y-64328338D01*
X65088911Y-64328330D01*
X64926670Y-64166089D01*
X64926661Y-64166081D01*
X64744617Y-64026392D01*
X64545890Y-63911657D01*
X64545886Y-63911655D01*
X64472046Y-63881069D01*
X64417643Y-63837227D01*
X64395579Y-63770933D01*
X64395500Y-63766508D01*
X64395500Y-62830258D01*
X68369500Y-62830258D01*
X68369500Y-63059741D01*
X68390998Y-63223028D01*
X68399452Y-63287238D01*
X68399453Y-63287240D01*
X68458842Y-63508887D01*
X68546650Y-63720876D01*
X68546657Y-63720890D01*
X68661392Y-63919617D01*
X68801081Y-64101661D01*
X68801089Y-64101670D01*
X68963330Y-64263911D01*
X68963338Y-64263918D01*
X69145382Y-64403607D01*
X69145385Y-64403608D01*
X69145388Y-64403611D01*
X69344112Y-64518344D01*
X69344117Y-64518346D01*
X69344123Y-64518349D01*
X69435480Y-64556190D01*
X69556113Y-64606158D01*
X69777762Y-64665548D01*
X70005266Y-64695500D01*
X70005273Y-64695500D01*
X70234727Y-64695500D01*
X70234734Y-64695500D01*
X70462238Y-64665548D01*
X70683887Y-64606158D01*
X70895888Y-64518344D01*
X71094612Y-64403611D01*
X71276661Y-64263919D01*
X71276665Y-64263914D01*
X71276670Y-64263911D01*
X71427932Y-64112648D01*
X75848250Y-64112648D01*
X75848250Y-64317351D01*
X75880272Y-64519534D01*
X75943531Y-64714223D01*
X76036465Y-64896613D01*
X76156778Y-65062213D01*
X76301536Y-65206971D01*
X76456499Y-65319556D01*
X76467140Y-65327287D01*
X76551491Y-65370266D01*
X76649526Y-65420218D01*
X76649528Y-65420218D01*
X76649531Y-65420220D01*
X76753887Y-65454127D01*
X76844215Y-65483477D01*
X76945307Y-65499488D01*
X77046398Y-65515500D01*
X77046399Y-65515500D01*
X77251101Y-65515500D01*
X77251102Y-65515500D01*
X77453284Y-65483477D01*
X77647969Y-65420220D01*
X77830360Y-65327287D01*
X77923340Y-65259732D01*
X77995963Y-65206971D01*
X77995965Y-65206968D01*
X77995969Y-65206966D01*
X78140716Y-65062219D01*
X78140718Y-65062215D01*
X78140721Y-65062213D01*
X78193482Y-64989590D01*
X78261037Y-64896610D01*
X78353970Y-64714219D01*
X78417227Y-64519534D01*
X78449250Y-64317352D01*
X78449250Y-64112648D01*
X78435588Y-64026389D01*
X78417227Y-63910465D01*
X78353968Y-63715776D01*
X78320253Y-63649607D01*
X78261037Y-63533390D01*
X78243235Y-63508887D01*
X78140721Y-63367786D01*
X77995963Y-63223028D01*
X77830363Y-63102715D01*
X77830362Y-63102714D01*
X77830360Y-63102713D01*
X77746023Y-63059741D01*
X77647973Y-63009781D01*
X77453284Y-62946522D01*
X77278745Y-62918878D01*
X77251102Y-62914500D01*
X77046398Y-62914500D01*
X77022079Y-62918351D01*
X76844215Y-62946522D01*
X76649526Y-63009781D01*
X76467136Y-63102715D01*
X76301536Y-63223028D01*
X76156778Y-63367786D01*
X76036465Y-63533386D01*
X75943531Y-63715776D01*
X75880272Y-63910465D01*
X75848250Y-64112648D01*
X71427932Y-64112648D01*
X71438910Y-64101670D01*
X71438919Y-64101661D01*
X71578611Y-63919612D01*
X71693344Y-63720888D01*
X71781158Y-63508887D01*
X71840548Y-63287238D01*
X71870500Y-63059734D01*
X71870500Y-62830266D01*
X71840548Y-62602762D01*
X71781158Y-62381113D01*
X71693344Y-62169112D01*
X71578611Y-61970388D01*
X71578608Y-61970385D01*
X71578607Y-61970382D01*
X71438918Y-61788338D01*
X71438911Y-61788330D01*
X71276670Y-61626089D01*
X71276661Y-61626081D01*
X71094617Y-61486392D01*
X70895890Y-61371657D01*
X70895876Y-61371650D01*
X70683887Y-61283842D01*
X70462238Y-61224452D01*
X70424215Y-61219446D01*
X70234741Y-61194500D01*
X70234734Y-61194500D01*
X70005266Y-61194500D01*
X70005258Y-61194500D01*
X69788715Y-61223009D01*
X69777762Y-61224452D01*
X69684076Y-61249554D01*
X69556112Y-61283842D01*
X69344123Y-61371650D01*
X69344109Y-61371657D01*
X69145382Y-61486392D01*
X68963338Y-61626081D01*
X68801081Y-61788338D01*
X68661392Y-61970382D01*
X68546657Y-62169109D01*
X68546650Y-62169123D01*
X68458842Y-62381112D01*
X68399453Y-62602759D01*
X68399451Y-62602770D01*
X68369500Y-62830258D01*
X64395500Y-62830258D01*
X64395500Y-52184983D01*
X75804500Y-52184983D01*
X75804500Y-53385001D01*
X75804501Y-53385018D01*
X75815000Y-53487796D01*
X75815001Y-53487799D01*
X75870185Y-53654331D01*
X75870186Y-53654334D01*
X75962288Y-53803656D01*
X76086344Y-53927712D01*
X76235666Y-54019814D01*
X76402203Y-54074999D01*
X76504991Y-54085500D01*
X77705008Y-54085499D01*
X77807797Y-54074999D01*
X77974334Y-54019814D01*
X78123656Y-53927712D01*
X78247712Y-53803656D01*
X78339814Y-53654334D01*
X78394999Y-53487797D01*
X78405500Y-53385009D01*
X78405499Y-52184992D01*
X78394999Y-52082203D01*
X78339814Y-51915666D01*
X78247712Y-51766344D01*
X78123656Y-51642288D01*
X77974334Y-51550186D01*
X77807797Y-51495001D01*
X77807795Y-51495000D01*
X77705010Y-51484500D01*
X76504998Y-51484500D01*
X76504981Y-51484501D01*
X76402203Y-51495000D01*
X76402200Y-51495001D01*
X76235668Y-51550185D01*
X76235663Y-51550187D01*
X76086342Y-51642289D01*
X75962289Y-51766342D01*
X75870187Y-51915663D01*
X75870186Y-51915666D01*
X75815001Y-52082203D01*
X75815001Y-52082204D01*
X75815000Y-52082204D01*
X75804500Y-52184983D01*
X64395500Y-52184983D01*
X64395500Y-48827486D01*
X65329500Y-48827486D01*
X65329500Y-49122513D01*
X65344778Y-49238555D01*
X65368007Y-49414993D01*
X65444361Y-49699951D01*
X65444364Y-49699961D01*
X65557254Y-49972500D01*
X65557258Y-49972510D01*
X65704761Y-50227993D01*
X65884352Y-50462040D01*
X65884358Y-50462047D01*
X66092952Y-50670641D01*
X66092959Y-50670647D01*
X66327006Y-50850238D01*
X66582489Y-50997741D01*
X66582490Y-50997741D01*
X66582493Y-50997743D01*
X66855048Y-51110639D01*
X67140007Y-51186993D01*
X67432494Y-51225500D01*
X67432501Y-51225500D01*
X67727499Y-51225500D01*
X67727506Y-51225500D01*
X68019993Y-51186993D01*
X68304952Y-51110639D01*
X68577507Y-50997743D01*
X68832994Y-50850238D01*
X69067042Y-50670646D01*
X69275646Y-50462042D01*
X69455238Y-50227994D01*
X69602743Y-49972507D01*
X69715639Y-49699952D01*
X69791993Y-49414993D01*
X69830500Y-49122506D01*
X69830500Y-48886421D01*
X71534500Y-48886421D01*
X71534500Y-49063578D01*
X71562214Y-49238556D01*
X71616956Y-49407039D01*
X71616957Y-49407042D01*
X71697386Y-49564890D01*
X71801517Y-49708214D01*
X71926786Y-49833483D01*
X72070110Y-49937614D01*
X72138577Y-49972500D01*
X72227957Y-50018042D01*
X72227960Y-50018043D01*
X72312201Y-50045414D01*
X72396445Y-50072786D01*
X72571421Y-50100500D01*
X72571422Y-50100500D01*
X72748578Y-50100500D01*
X72748579Y-50100500D01*
X72923555Y-50072786D01*
X73092042Y-50018042D01*
X73249890Y-49937614D01*
X73393214Y-49833483D01*
X73518483Y-49708214D01*
X73622614Y-49564890D01*
X73703042Y-49407042D01*
X73757786Y-49238555D01*
X73785500Y-49063579D01*
X73785500Y-48886421D01*
X73757786Y-48711445D01*
X73703042Y-48542958D01*
X73703042Y-48542957D01*
X73622613Y-48385109D01*
X73518483Y-48241786D01*
X73393214Y-48116517D01*
X73249890Y-48012386D01*
X73241953Y-48008342D01*
X73092042Y-47931957D01*
X73092039Y-47931956D01*
X72923556Y-47877214D01*
X72836067Y-47863357D01*
X72748579Y-47849500D01*
X72571421Y-47849500D01*
X72513095Y-47858738D01*
X72396443Y-47877214D01*
X72227960Y-47931956D01*
X72227957Y-47931957D01*
X72070109Y-48012386D01*
X71989936Y-48070636D01*
X71926786Y-48116517D01*
X71926784Y-48116519D01*
X71926783Y-48116519D01*
X71801519Y-48241783D01*
X71801519Y-48241784D01*
X71801517Y-48241786D01*
X71756796Y-48303338D01*
X71697386Y-48385109D01*
X71616957Y-48542957D01*
X71616956Y-48542960D01*
X71562214Y-48711443D01*
X71534500Y-48886421D01*
X69830500Y-48886421D01*
X69830500Y-48827494D01*
X69791993Y-48535007D01*
X69715639Y-48250048D01*
X69602743Y-47977493D01*
X69576453Y-47931958D01*
X69455238Y-47722006D01*
X69275647Y-47487959D01*
X69275641Y-47487952D01*
X69067047Y-47279358D01*
X69067040Y-47279352D01*
X68832993Y-47099761D01*
X68577510Y-46952258D01*
X68577500Y-46952254D01*
X68304961Y-46839364D01*
X68304954Y-46839362D01*
X68304952Y-46839361D01*
X68019993Y-46763007D01*
X67971113Y-46756571D01*
X67727513Y-46724500D01*
X67727506Y-46724500D01*
X67432494Y-46724500D01*
X67432486Y-46724500D01*
X67154085Y-46761153D01*
X67140007Y-46763007D01*
X66855048Y-46839361D01*
X66855038Y-46839364D01*
X66582499Y-46952254D01*
X66582489Y-46952258D01*
X66327006Y-47099761D01*
X66092959Y-47279352D01*
X66092952Y-47279358D01*
X65884358Y-47487952D01*
X65884352Y-47487959D01*
X65704761Y-47722006D01*
X65557258Y-47977489D01*
X65557254Y-47977499D01*
X65444364Y-48250038D01*
X65444361Y-48250048D01*
X65408172Y-48385110D01*
X65368008Y-48535004D01*
X65368006Y-48535015D01*
X65329500Y-48827486D01*
X64395500Y-48827486D01*
X64395500Y-48153490D01*
X64415185Y-48086451D01*
X64467989Y-48040696D01*
X64472013Y-48038943D01*
X64545888Y-48008344D01*
X64744612Y-47893611D01*
X64926661Y-47753919D01*
X64926665Y-47753914D01*
X64926670Y-47753911D01*
X65088911Y-47591670D01*
X65088914Y-47591665D01*
X65088919Y-47591661D01*
X65228611Y-47409612D01*
X65343344Y-47210888D01*
X65431158Y-46998887D01*
X65490548Y-46777238D01*
X65520500Y-46549734D01*
X65520500Y-46320266D01*
X65490548Y-46092762D01*
X65431158Y-45871113D01*
X65345461Y-45664223D01*
X65343349Y-45659123D01*
X65343346Y-45659117D01*
X65343344Y-45659112D01*
X65228611Y-45460388D01*
X65228608Y-45460385D01*
X65228607Y-45460382D01*
X65088918Y-45278338D01*
X65088911Y-45278330D01*
X64926670Y-45116089D01*
X64926661Y-45116081D01*
X64744617Y-44976392D01*
X64545890Y-44861657D01*
X64545886Y-44861655D01*
X64472046Y-44831069D01*
X64417643Y-44787227D01*
X64395579Y-44720933D01*
X64395500Y-44716508D01*
X64395500Y-44012551D01*
X64415185Y-43945512D01*
X64431814Y-43924875D01*
X64576431Y-43780258D01*
X68369500Y-43780258D01*
X68369500Y-44009741D01*
X68390998Y-44173028D01*
X68399452Y-44237238D01*
X68399453Y-44237240D01*
X68458842Y-44458887D01*
X68546650Y-44670876D01*
X68546657Y-44670890D01*
X68661392Y-44869617D01*
X68801081Y-45051661D01*
X68801089Y-45051670D01*
X68963330Y-45213911D01*
X68963338Y-45213918D01*
X69145382Y-45353607D01*
X69145385Y-45353608D01*
X69145388Y-45353611D01*
X69344112Y-45468344D01*
X69344117Y-45468346D01*
X69344123Y-45468349D01*
X69435480Y-45506190D01*
X69556113Y-45556158D01*
X69777762Y-45615548D01*
X70005266Y-45645500D01*
X70005273Y-45645500D01*
X70234727Y-45645500D01*
X70234734Y-45645500D01*
X70462238Y-45615548D01*
X70683887Y-45556158D01*
X70895888Y-45468344D01*
X71094612Y-45353611D01*
X71276661Y-45213919D01*
X71276665Y-45213914D01*
X71276670Y-45213911D01*
X71427932Y-45062648D01*
X75804500Y-45062648D01*
X75804500Y-45267351D01*
X75836522Y-45469534D01*
X75899781Y-45664223D01*
X75992715Y-45846613D01*
X76113028Y-46012213D01*
X76257786Y-46156971D01*
X76412749Y-46269556D01*
X76423390Y-46277287D01*
X76507741Y-46320266D01*
X76605776Y-46370218D01*
X76605778Y-46370218D01*
X76605781Y-46370220D01*
X76710137Y-46404127D01*
X76800465Y-46433477D01*
X76901557Y-46449488D01*
X77002648Y-46465500D01*
X77002649Y-46465500D01*
X77207351Y-46465500D01*
X77207352Y-46465500D01*
X77409534Y-46433477D01*
X77604219Y-46370220D01*
X77786610Y-46277287D01*
X77879590Y-46209732D01*
X77952213Y-46156971D01*
X77952215Y-46156968D01*
X77952219Y-46156966D01*
X78096966Y-46012219D01*
X78096968Y-46012215D01*
X78096971Y-46012213D01*
X78149732Y-45939590D01*
X78217287Y-45846610D01*
X78310220Y-45664219D01*
X78373477Y-45469534D01*
X78405500Y-45267352D01*
X78405500Y-45062648D01*
X78391838Y-44976389D01*
X78373477Y-44860465D01*
X78310218Y-44665776D01*
X78276503Y-44599607D01*
X78217287Y-44483390D01*
X78199485Y-44458887D01*
X78096971Y-44317786D01*
X77952213Y-44173028D01*
X77786613Y-44052715D01*
X77786612Y-44052714D01*
X77786610Y-44052713D01*
X77702273Y-44009741D01*
X77604223Y-43959781D01*
X77409534Y-43896522D01*
X77234995Y-43868878D01*
X77207352Y-43864500D01*
X77002648Y-43864500D01*
X76978329Y-43868351D01*
X76800465Y-43896522D01*
X76605776Y-43959781D01*
X76423386Y-44052715D01*
X76257786Y-44173028D01*
X76113028Y-44317786D01*
X75992715Y-44483386D01*
X75899781Y-44665776D01*
X75836522Y-44860465D01*
X75804500Y-45062648D01*
X71427932Y-45062648D01*
X71438910Y-45051670D01*
X71438919Y-45051661D01*
X71578611Y-44869612D01*
X71693344Y-44670888D01*
X71781158Y-44458887D01*
X71840548Y-44237238D01*
X71870500Y-44009734D01*
X71870500Y-43780266D01*
X71840548Y-43552762D01*
X71781158Y-43331113D01*
X71731190Y-43210480D01*
X71693349Y-43119123D01*
X71693346Y-43119117D01*
X71693344Y-43119112D01*
X71578611Y-42920388D01*
X71578608Y-42920385D01*
X71578607Y-42920382D01*
X71438918Y-42738338D01*
X71438911Y-42738330D01*
X71276670Y-42576089D01*
X71276661Y-42576081D01*
X71094617Y-42436392D01*
X70895890Y-42321657D01*
X70895876Y-42321650D01*
X70683887Y-42233842D01*
X70462238Y-42174452D01*
X70424215Y-42169446D01*
X70234741Y-42144500D01*
X70234734Y-42144500D01*
X70005266Y-42144500D01*
X70005258Y-42144500D01*
X69788715Y-42173009D01*
X69777762Y-42174452D01*
X69684076Y-42199554D01*
X69556112Y-42233842D01*
X69344123Y-42321650D01*
X69344109Y-42321657D01*
X69145382Y-42436392D01*
X68963338Y-42576081D01*
X68801081Y-42738338D01*
X68661392Y-42920382D01*
X68546657Y-43119109D01*
X68546650Y-43119123D01*
X68458842Y-43331112D01*
X68458842Y-43331113D01*
X68408324Y-43519653D01*
X68399453Y-43552759D01*
X68399451Y-43552770D01*
X68369500Y-43780258D01*
X64576431Y-43780258D01*
X71853729Y-36502960D01*
X71853733Y-36502958D01*
X71940858Y-36415833D01*
X72009311Y-36313386D01*
X72056463Y-36199552D01*
X72080500Y-36078706D01*
X72080500Y-24388394D01*
X72080500Y-24388389D01*
X72077824Y-24374942D01*
X72077821Y-24374931D01*
X72077736Y-24374500D01*
X72056463Y-24267549D01*
X72054997Y-24264010D01*
X72053025Y-24254425D01*
X72055459Y-24225036D01*
X72055197Y-24195557D01*
X72058310Y-24190615D01*
X72058793Y-24184793D01*
X72076725Y-24161392D01*
X72092446Y-24136445D01*
X72097739Y-24133970D01*
X72101292Y-24129335D01*
X72129025Y-24119344D01*
X72155741Y-24106856D01*
X72161530Y-24107635D01*
X72167027Y-24105656D01*
X72195766Y-24112247D01*
X72224986Y-24116184D01*
X72231019Y-24120333D01*
X72235128Y-24121276D01*
X72240748Y-24127024D01*
X72262161Y-24141751D01*
X72293181Y-24172771D01*
X72326666Y-24234094D01*
X72329500Y-24260452D01*
X72329500Y-33511605D01*
X72338539Y-33557051D01*
X72352073Y-33625095D01*
X72353537Y-33632454D01*
X72400685Y-33746280D01*
X72400687Y-33746283D01*
X72400688Y-33746286D01*
X72434915Y-33797509D01*
X72469142Y-33848733D01*
X72556267Y-33935858D01*
X72556270Y-33935860D01*
X72563554Y-33943144D01*
X82158181Y-43537771D01*
X82191666Y-43599094D01*
X82194500Y-43625452D01*
X82194500Y-44716508D01*
X82174815Y-44783547D01*
X82122011Y-44829302D01*
X82117954Y-44831069D01*
X82044113Y-44861655D01*
X82044109Y-44861657D01*
X81845382Y-44976392D01*
X81663338Y-45116081D01*
X81501081Y-45278338D01*
X81361392Y-45460382D01*
X81246657Y-45659109D01*
X81246650Y-45659123D01*
X81158842Y-45871112D01*
X81099453Y-46092759D01*
X81099451Y-46092770D01*
X81069500Y-46320258D01*
X81069500Y-46549741D01*
X81092509Y-46724500D01*
X81099452Y-46777238D01*
X81146347Y-46952254D01*
X81158842Y-46998887D01*
X81246650Y-47210876D01*
X81246657Y-47210890D01*
X81361392Y-47409617D01*
X81501081Y-47591661D01*
X81501089Y-47591670D01*
X81547238Y-47637819D01*
X81580723Y-47699142D01*
X81575739Y-47768834D01*
X81533867Y-47824767D01*
X81468403Y-47849184D01*
X81462967Y-47849378D01*
X81461423Y-47849499D01*
X81286443Y-47877214D01*
X81117960Y-47931956D01*
X81117957Y-47931957D01*
X80960109Y-48012386D01*
X80879936Y-48070636D01*
X80816786Y-48116517D01*
X80816784Y-48116519D01*
X80816783Y-48116519D01*
X80691519Y-48241783D01*
X80691519Y-48241784D01*
X80691517Y-48241786D01*
X80646796Y-48303338D01*
X80587386Y-48385109D01*
X80506957Y-48542957D01*
X80506956Y-48542960D01*
X80452214Y-48711443D01*
X80424500Y-48886421D01*
X80424500Y-49063578D01*
X80452214Y-49238556D01*
X80506956Y-49407039D01*
X80506957Y-49407042D01*
X80587386Y-49564890D01*
X80691517Y-49708214D01*
X80816786Y-49833483D01*
X80960110Y-49937614D01*
X81028577Y-49972500D01*
X81117957Y-50018042D01*
X81117960Y-50018043D01*
X81202201Y-50045414D01*
X81286445Y-50072786D01*
X81461421Y-50100500D01*
X81461422Y-50100500D01*
X81638578Y-50100500D01*
X81638579Y-50100500D01*
X81813555Y-50072786D01*
X81982042Y-50018042D01*
X81982042Y-50018041D01*
X81982047Y-50018040D01*
X82014204Y-50001655D01*
X82082874Y-49988758D01*
X82147614Y-50015034D01*
X82187872Y-50072140D01*
X82194500Y-50112139D01*
X82194500Y-63766508D01*
X82174815Y-63833547D01*
X82122011Y-63879302D01*
X82117954Y-63881069D01*
X82044113Y-63911655D01*
X82044109Y-63911657D01*
X81845382Y-64026392D01*
X81663338Y-64166081D01*
X81501081Y-64328338D01*
X81361392Y-64510382D01*
X81246657Y-64709109D01*
X81246650Y-64709123D01*
X81158842Y-64921112D01*
X81099453Y-65142759D01*
X81099451Y-65142770D01*
X81069500Y-65370258D01*
X81069500Y-65599741D01*
X81092509Y-65774500D01*
X81099452Y-65827238D01*
X81146347Y-66002254D01*
X81158842Y-66048887D01*
X81246650Y-66260876D01*
X81246657Y-66260890D01*
X81361392Y-66459617D01*
X81501081Y-66641661D01*
X81501089Y-66641670D01*
X81547238Y-66687819D01*
X81580723Y-66749142D01*
X81575739Y-66818834D01*
X81533867Y-66874767D01*
X81468403Y-66899184D01*
X81462967Y-66899378D01*
X81461423Y-66899499D01*
X81286443Y-66927214D01*
X81117960Y-66981956D01*
X81117957Y-66981957D01*
X80960109Y-67062386D01*
X80883356Y-67118151D01*
X80816786Y-67166517D01*
X80816784Y-67166519D01*
X80816783Y-67166519D01*
X80691519Y-67291783D01*
X80691519Y-67291784D01*
X80691517Y-67291786D01*
X80646796Y-67353338D01*
X80587386Y-67435109D01*
X80506957Y-67592957D01*
X80506956Y-67592960D01*
X80452214Y-67761443D01*
X80424500Y-67936421D01*
X80424500Y-68113578D01*
X80452214Y-68288556D01*
X80506956Y-68457039D01*
X80506957Y-68457042D01*
X80587386Y-68614890D01*
X80691517Y-68758214D01*
X80816786Y-68883483D01*
X80960110Y-68987614D01*
X81028577Y-69022500D01*
X81117957Y-69068042D01*
X81117960Y-69068043D01*
X81202201Y-69095414D01*
X81286445Y-69122786D01*
X81461421Y-69150500D01*
X81461422Y-69150500D01*
X81638578Y-69150500D01*
X81638579Y-69150500D01*
X81813555Y-69122786D01*
X81982042Y-69068042D01*
X82020205Y-69048596D01*
X82088872Y-69035700D01*
X82153613Y-69061975D01*
X82193871Y-69119080D01*
X82200500Y-69159081D01*
X82200500Y-82814023D01*
X82180815Y-82881062D01*
X82128011Y-82926817D01*
X82123954Y-82928583D01*
X82044112Y-82961655D01*
X82044103Y-82961660D01*
X81845382Y-83076392D01*
X81663338Y-83216081D01*
X81501081Y-83378338D01*
X81361392Y-83560382D01*
X81246657Y-83759109D01*
X81246650Y-83759123D01*
X81158842Y-83971112D01*
X81099453Y-84192759D01*
X81099451Y-84192770D01*
X81069500Y-84420258D01*
X81069500Y-84649741D01*
X81092509Y-84824500D01*
X81099452Y-84877238D01*
X81146347Y-85052254D01*
X81158842Y-85098887D01*
X81246650Y-85310876D01*
X81246657Y-85310890D01*
X81361392Y-85509617D01*
X81501081Y-85691661D01*
X81501089Y-85691670D01*
X81547238Y-85737819D01*
X81580723Y-85799142D01*
X81575739Y-85868834D01*
X81533867Y-85924767D01*
X81468403Y-85949184D01*
X81462967Y-85949378D01*
X81461423Y-85949499D01*
X81286443Y-85977214D01*
X81117960Y-86031956D01*
X81117957Y-86031957D01*
X80960109Y-86112386D01*
X80878338Y-86171796D01*
X80816786Y-86216517D01*
X80816784Y-86216519D01*
X80816783Y-86216519D01*
X80691519Y-86341783D01*
X80691519Y-86341784D01*
X80691517Y-86341786D01*
X80646796Y-86403338D01*
X80587386Y-86485109D01*
X80506957Y-86642957D01*
X80506956Y-86642960D01*
X80452214Y-86811443D01*
X80424500Y-86986421D01*
X80424500Y-87163578D01*
X80452214Y-87338556D01*
X80506956Y-87507039D01*
X80506957Y-87507042D01*
X80587386Y-87664890D01*
X80691517Y-87808214D01*
X80816786Y-87933483D01*
X80960110Y-88037614D01*
X81028577Y-88072500D01*
X81117957Y-88118042D01*
X81117960Y-88118043D01*
X81202201Y-88145414D01*
X81286445Y-88172786D01*
X81461421Y-88200500D01*
X81461422Y-88200500D01*
X81638578Y-88200500D01*
X81638579Y-88200500D01*
X81813555Y-88172786D01*
X81982042Y-88118042D01*
X82139890Y-88037614D01*
X82283214Y-87933483D01*
X82408483Y-87808214D01*
X82512614Y-87664890D01*
X82593042Y-87507042D01*
X82647786Y-87338555D01*
X82675500Y-87163579D01*
X82675500Y-86986421D01*
X82666165Y-86927486D01*
X84379500Y-86927486D01*
X84379500Y-87222513D01*
X84394778Y-87338555D01*
X84418007Y-87514993D01*
X84494361Y-87799951D01*
X84494364Y-87799961D01*
X84607254Y-88072500D01*
X84607258Y-88072510D01*
X84754761Y-88327993D01*
X84934352Y-88562040D01*
X84934358Y-88562047D01*
X85142952Y-88770641D01*
X85142959Y-88770647D01*
X85377006Y-88950238D01*
X85632489Y-89097741D01*
X85632490Y-89097741D01*
X85632493Y-89097743D01*
X85905048Y-89210639D01*
X86190007Y-89286993D01*
X86482494Y-89325500D01*
X86482501Y-89325500D01*
X86777499Y-89325500D01*
X86777506Y-89325500D01*
X87069993Y-89286993D01*
X87354952Y-89210639D01*
X87627507Y-89097743D01*
X87882994Y-88950238D01*
X88117042Y-88770646D01*
X88325646Y-88562042D01*
X88505238Y-88327994D01*
X88652743Y-88072507D01*
X88765639Y-87799952D01*
X88841993Y-87514993D01*
X88880500Y-87222506D01*
X88880500Y-86986421D01*
X90584500Y-86986421D01*
X90584500Y-87163578D01*
X90612214Y-87338556D01*
X90666956Y-87507039D01*
X90666957Y-87507042D01*
X90747386Y-87664890D01*
X90851517Y-87808214D01*
X90976786Y-87933483D01*
X91120110Y-88037614D01*
X91188577Y-88072500D01*
X91277957Y-88118042D01*
X91277960Y-88118043D01*
X91362201Y-88145414D01*
X91446445Y-88172786D01*
X91621421Y-88200500D01*
X91621422Y-88200500D01*
X91798578Y-88200500D01*
X91798579Y-88200500D01*
X91973555Y-88172786D01*
X92142042Y-88118042D01*
X92299890Y-88037614D01*
X92443214Y-87933483D01*
X92568483Y-87808214D01*
X92672614Y-87664890D01*
X92753042Y-87507042D01*
X92807786Y-87338555D01*
X92835500Y-87163579D01*
X92835500Y-86986421D01*
X92807786Y-86811445D01*
X92753042Y-86642958D01*
X92753042Y-86642957D01*
X92672613Y-86485109D01*
X92661518Y-86469838D01*
X92568483Y-86341786D01*
X92443214Y-86216517D01*
X92299890Y-86112386D01*
X92291953Y-86108342D01*
X92142042Y-86031957D01*
X92142039Y-86031956D01*
X91973556Y-85977214D01*
X91886067Y-85963357D01*
X91798579Y-85949500D01*
X91621421Y-85949500D01*
X91563095Y-85958738D01*
X91446443Y-85977214D01*
X91277960Y-86031956D01*
X91277957Y-86031957D01*
X91120109Y-86112386D01*
X91038338Y-86171796D01*
X90976786Y-86216517D01*
X90976784Y-86216519D01*
X90976783Y-86216519D01*
X90851519Y-86341783D01*
X90851519Y-86341784D01*
X90851517Y-86341786D01*
X90806796Y-86403338D01*
X90747386Y-86485109D01*
X90666957Y-86642957D01*
X90666956Y-86642960D01*
X90612214Y-86811443D01*
X90584500Y-86986421D01*
X88880500Y-86986421D01*
X88880500Y-86927494D01*
X88841993Y-86635007D01*
X88765639Y-86350048D01*
X88652743Y-86077493D01*
X88626453Y-86031958D01*
X88505238Y-85822006D01*
X88325647Y-85587959D01*
X88325641Y-85587952D01*
X88117047Y-85379358D01*
X88117040Y-85379352D01*
X87882993Y-85199761D01*
X87627510Y-85052258D01*
X87627500Y-85052254D01*
X87354961Y-84939364D01*
X87354954Y-84939362D01*
X87354952Y-84939361D01*
X87069993Y-84863007D01*
X87021113Y-84856571D01*
X86777513Y-84824500D01*
X86777506Y-84824500D01*
X86482494Y-84824500D01*
X86482486Y-84824500D01*
X86204085Y-84861153D01*
X86190007Y-84863007D01*
X85905048Y-84939361D01*
X85905038Y-84939364D01*
X85632499Y-85052254D01*
X85632489Y-85052258D01*
X85377006Y-85199761D01*
X85142959Y-85379352D01*
X85142952Y-85379358D01*
X84934358Y-85587952D01*
X84934352Y-85587959D01*
X84754761Y-85822006D01*
X84607258Y-86077489D01*
X84607254Y-86077499D01*
X84494364Y-86350038D01*
X84494361Y-86350048D01*
X84458172Y-86485110D01*
X84418008Y-86635004D01*
X84418006Y-86635015D01*
X84379500Y-86927486D01*
X82666165Y-86927486D01*
X82647786Y-86811445D01*
X82593042Y-86642958D01*
X82593042Y-86642957D01*
X82512613Y-86485109D01*
X82501518Y-86469838D01*
X82478038Y-86404032D01*
X82493863Y-86335978D01*
X82543968Y-86287283D01*
X82612446Y-86273407D01*
X82617977Y-86274008D01*
X82705266Y-86285500D01*
X82705273Y-86285500D01*
X82934727Y-86285500D01*
X82934734Y-86285500D01*
X83162238Y-86255548D01*
X83383887Y-86196158D01*
X83595888Y-86108344D01*
X83794612Y-85993611D01*
X83976661Y-85853919D01*
X83976665Y-85853914D01*
X83976670Y-85853911D01*
X84138911Y-85691670D01*
X84138914Y-85691665D01*
X84138919Y-85691661D01*
X84278611Y-85509612D01*
X84393344Y-85310888D01*
X84481158Y-85098887D01*
X84540548Y-84877238D01*
X84570500Y-84649734D01*
X84570500Y-84420266D01*
X84540548Y-84192762D01*
X84481158Y-83971113D01*
X84395461Y-83764223D01*
X84393349Y-83759123D01*
X84393346Y-83759117D01*
X84393344Y-83759112D01*
X84278611Y-83560388D01*
X84278608Y-83560385D01*
X84278607Y-83560382D01*
X84138918Y-83378338D01*
X84138911Y-83378330D01*
X83976670Y-83216089D01*
X83976661Y-83216081D01*
X83794617Y-83076392D01*
X83595890Y-82961657D01*
X83595873Y-82961649D01*
X83528046Y-82933553D01*
X83473643Y-82889712D01*
X83451579Y-82823417D01*
X83451500Y-82818993D01*
X83451500Y-81880258D01*
X87419500Y-81880258D01*
X87419500Y-82109741D01*
X87440998Y-82273028D01*
X87449452Y-82337238D01*
X87449453Y-82337240D01*
X87508842Y-82558887D01*
X87596650Y-82770876D01*
X87596657Y-82770890D01*
X87711392Y-82969617D01*
X87851081Y-83151661D01*
X87851089Y-83151670D01*
X88013330Y-83313911D01*
X88013338Y-83313918D01*
X88195382Y-83453607D01*
X88195385Y-83453608D01*
X88195388Y-83453611D01*
X88394112Y-83568344D01*
X88394117Y-83568346D01*
X88394123Y-83568349D01*
X88485480Y-83606190D01*
X88606113Y-83656158D01*
X88827762Y-83715548D01*
X89055266Y-83745500D01*
X89055273Y-83745500D01*
X89284727Y-83745500D01*
X89284734Y-83745500D01*
X89512238Y-83715548D01*
X89733887Y-83656158D01*
X89945888Y-83568344D01*
X90144612Y-83453611D01*
X90326661Y-83313919D01*
X90326665Y-83313914D01*
X90326670Y-83313911D01*
X90477932Y-83162648D01*
X94854500Y-83162648D01*
X94854500Y-83367351D01*
X94886522Y-83569534D01*
X94949781Y-83764223D01*
X95042715Y-83946613D01*
X95163028Y-84112213D01*
X95307786Y-84256971D01*
X95462749Y-84369556D01*
X95473390Y-84377287D01*
X95557741Y-84420266D01*
X95655776Y-84470218D01*
X95655778Y-84470218D01*
X95655781Y-84470220D01*
X95760137Y-84504127D01*
X95850465Y-84533477D01*
X95951557Y-84549488D01*
X96052648Y-84565500D01*
X96052649Y-84565500D01*
X96257351Y-84565500D01*
X96257352Y-84565500D01*
X96459534Y-84533477D01*
X96654219Y-84470220D01*
X96836610Y-84377287D01*
X96929590Y-84309732D01*
X97002213Y-84256971D01*
X97002215Y-84256968D01*
X97002219Y-84256966D01*
X97146966Y-84112219D01*
X97146968Y-84112215D01*
X97146971Y-84112213D01*
X97199732Y-84039590D01*
X97267287Y-83946610D01*
X97360220Y-83764219D01*
X97423477Y-83569534D01*
X97455500Y-83367352D01*
X97455500Y-83162648D01*
X97441838Y-83076389D01*
X97423477Y-82960465D01*
X97378140Y-82820933D01*
X97360220Y-82765781D01*
X97360218Y-82765778D01*
X97360218Y-82765776D01*
X97326503Y-82699607D01*
X97267287Y-82583390D01*
X97249485Y-82558887D01*
X97146971Y-82417786D01*
X97002213Y-82273028D01*
X96836613Y-82152715D01*
X96836612Y-82152714D01*
X96836610Y-82152713D01*
X96752273Y-82109741D01*
X96654223Y-82059781D01*
X96459534Y-81996522D01*
X96284995Y-81968878D01*
X96257352Y-81964500D01*
X96052648Y-81964500D01*
X96028329Y-81968351D01*
X95850465Y-81996522D01*
X95655776Y-82059781D01*
X95473386Y-82152715D01*
X95307786Y-82273028D01*
X95163028Y-82417786D01*
X95042715Y-82583386D01*
X94949781Y-82765776D01*
X94886522Y-82960465D01*
X94854500Y-83162648D01*
X90477932Y-83162648D01*
X90488910Y-83151670D01*
X90488919Y-83151661D01*
X90628611Y-82969612D01*
X90743344Y-82770888D01*
X90831158Y-82558887D01*
X90890548Y-82337238D01*
X90920500Y-82109734D01*
X90920500Y-81880266D01*
X90890548Y-81652762D01*
X90831158Y-81431113D01*
X90743344Y-81219112D01*
X90628611Y-81020388D01*
X90628608Y-81020385D01*
X90628607Y-81020382D01*
X90488918Y-80838338D01*
X90488911Y-80838330D01*
X90326670Y-80676089D01*
X90326661Y-80676081D01*
X90144617Y-80536392D01*
X89945890Y-80421657D01*
X89945876Y-80421650D01*
X89733887Y-80333842D01*
X89512238Y-80274452D01*
X89474215Y-80269446D01*
X89284741Y-80244500D01*
X89284734Y-80244500D01*
X89055266Y-80244500D01*
X89055258Y-80244500D01*
X88838715Y-80273009D01*
X88827762Y-80274452D01*
X88734076Y-80299554D01*
X88606112Y-80333842D01*
X88394123Y-80421650D01*
X88394109Y-80421657D01*
X88195382Y-80536392D01*
X88013338Y-80676081D01*
X87851081Y-80838338D01*
X87711392Y-81020382D01*
X87596657Y-81219109D01*
X87596650Y-81219123D01*
X87508842Y-81431112D01*
X87449453Y-81652759D01*
X87449451Y-81652770D01*
X87419500Y-81880258D01*
X83451500Y-81880258D01*
X83451500Y-71234983D01*
X94854500Y-71234983D01*
X94854500Y-72435001D01*
X94854501Y-72435018D01*
X94865000Y-72537796D01*
X94865001Y-72537799D01*
X94920185Y-72704331D01*
X94920186Y-72704334D01*
X95012288Y-72853656D01*
X95136344Y-72977712D01*
X95285666Y-73069814D01*
X95452203Y-73124999D01*
X95554991Y-73135500D01*
X96755008Y-73135499D01*
X96857797Y-73124999D01*
X97024334Y-73069814D01*
X97173656Y-72977712D01*
X97297712Y-72853656D01*
X97389814Y-72704334D01*
X97444999Y-72537797D01*
X97455500Y-72435009D01*
X97455499Y-71234992D01*
X97444999Y-71132203D01*
X97389814Y-70965666D01*
X97297712Y-70816344D01*
X97173656Y-70692288D01*
X97024334Y-70600186D01*
X96857797Y-70545001D01*
X96857795Y-70545000D01*
X96755010Y-70534500D01*
X95554998Y-70534500D01*
X95554981Y-70534501D01*
X95452203Y-70545000D01*
X95452200Y-70545001D01*
X95285668Y-70600185D01*
X95285663Y-70600187D01*
X95136342Y-70692289D01*
X95012289Y-70816342D01*
X94920187Y-70965663D01*
X94920186Y-70965666D01*
X94865001Y-71132203D01*
X94865001Y-71132204D01*
X94865000Y-71132204D01*
X94854500Y-71234983D01*
X83451500Y-71234983D01*
X83451500Y-67877486D01*
X84379500Y-67877486D01*
X84379500Y-68172513D01*
X84394778Y-68288555D01*
X84418007Y-68464993D01*
X84494361Y-68749951D01*
X84494364Y-68749961D01*
X84607254Y-69022500D01*
X84607258Y-69022510D01*
X84754761Y-69277993D01*
X84934352Y-69512040D01*
X84934358Y-69512047D01*
X85142952Y-69720641D01*
X85142959Y-69720647D01*
X85377006Y-69900238D01*
X85632489Y-70047741D01*
X85632490Y-70047741D01*
X85632493Y-70047743D01*
X85905048Y-70160639D01*
X86190007Y-70236993D01*
X86482494Y-70275500D01*
X86482501Y-70275500D01*
X86777499Y-70275500D01*
X86777506Y-70275500D01*
X87069993Y-70236993D01*
X87354952Y-70160639D01*
X87627507Y-70047743D01*
X87882994Y-69900238D01*
X88117042Y-69720646D01*
X88325646Y-69512042D01*
X88505238Y-69277994D01*
X88652743Y-69022507D01*
X88765639Y-68749952D01*
X88841993Y-68464993D01*
X88880500Y-68172506D01*
X88880500Y-67936421D01*
X90584500Y-67936421D01*
X90584500Y-68113578D01*
X90612214Y-68288556D01*
X90666956Y-68457039D01*
X90666957Y-68457042D01*
X90747386Y-68614890D01*
X90851517Y-68758214D01*
X90976786Y-68883483D01*
X91120110Y-68987614D01*
X91188577Y-69022500D01*
X91277957Y-69068042D01*
X91277960Y-69068043D01*
X91362201Y-69095414D01*
X91446445Y-69122786D01*
X91621421Y-69150500D01*
X91621422Y-69150500D01*
X91798578Y-69150500D01*
X91798579Y-69150500D01*
X91973555Y-69122786D01*
X92142042Y-69068042D01*
X92299890Y-68987614D01*
X92443214Y-68883483D01*
X92568483Y-68758214D01*
X92672614Y-68614890D01*
X92753042Y-68457042D01*
X92807786Y-68288555D01*
X92835500Y-68113579D01*
X92835500Y-67936421D01*
X92807786Y-67761445D01*
X92753042Y-67592958D01*
X92753042Y-67592957D01*
X92672613Y-67435109D01*
X92568483Y-67291786D01*
X92443214Y-67166517D01*
X92299890Y-67062386D01*
X92291953Y-67058342D01*
X92142042Y-66981957D01*
X92142039Y-66981956D01*
X91973556Y-66927214D01*
X91886067Y-66913357D01*
X91798579Y-66899500D01*
X91621421Y-66899500D01*
X91563095Y-66908738D01*
X91446443Y-66927214D01*
X91277960Y-66981956D01*
X91277957Y-66981957D01*
X91120109Y-67062386D01*
X91043356Y-67118151D01*
X90976786Y-67166517D01*
X90976784Y-67166519D01*
X90976783Y-67166519D01*
X90851519Y-67291783D01*
X90851519Y-67291784D01*
X90851517Y-67291786D01*
X90806796Y-67353338D01*
X90747386Y-67435109D01*
X90666957Y-67592957D01*
X90666956Y-67592960D01*
X90612214Y-67761443D01*
X90584500Y-67936421D01*
X88880500Y-67936421D01*
X88880500Y-67877494D01*
X88841993Y-67585007D01*
X88765639Y-67300048D01*
X88652743Y-67027493D01*
X88626453Y-66981958D01*
X88505238Y-66772006D01*
X88325647Y-66537959D01*
X88325641Y-66537952D01*
X88117047Y-66329358D01*
X88117040Y-66329352D01*
X87882993Y-66149761D01*
X87627510Y-66002258D01*
X87627500Y-66002254D01*
X87354961Y-65889364D01*
X87354954Y-65889362D01*
X87354952Y-65889361D01*
X87069993Y-65813007D01*
X87021113Y-65806571D01*
X86777513Y-65774500D01*
X86777506Y-65774500D01*
X86482494Y-65774500D01*
X86482486Y-65774500D01*
X86204085Y-65811153D01*
X86190007Y-65813007D01*
X85905048Y-65889361D01*
X85905038Y-65889364D01*
X85632499Y-66002254D01*
X85632489Y-66002258D01*
X85377006Y-66149761D01*
X85142959Y-66329352D01*
X85142952Y-66329358D01*
X84934358Y-66537952D01*
X84934352Y-66537959D01*
X84754761Y-66772006D01*
X84607258Y-67027489D01*
X84607254Y-67027499D01*
X84494364Y-67300038D01*
X84494361Y-67300048D01*
X84458172Y-67435110D01*
X84418008Y-67585004D01*
X84418006Y-67585015D01*
X84379500Y-67877486D01*
X83451500Y-67877486D01*
X83451500Y-67201005D01*
X83471185Y-67133966D01*
X83523989Y-67088211D01*
X83528020Y-67086455D01*
X83595888Y-67058344D01*
X83794612Y-66943611D01*
X83976661Y-66803919D01*
X83976665Y-66803914D01*
X83976670Y-66803911D01*
X84138911Y-66641670D01*
X84138914Y-66641665D01*
X84138919Y-66641661D01*
X84278611Y-66459612D01*
X84393344Y-66260888D01*
X84481158Y-66048887D01*
X84540548Y-65827238D01*
X84570500Y-65599734D01*
X84570500Y-65370266D01*
X84540548Y-65142762D01*
X84481158Y-64921113D01*
X84395461Y-64714223D01*
X84393349Y-64709123D01*
X84393346Y-64709117D01*
X84393344Y-64709112D01*
X84278611Y-64510388D01*
X84278608Y-64510385D01*
X84278607Y-64510382D01*
X84138918Y-64328338D01*
X84138911Y-64328330D01*
X83976670Y-64166089D01*
X83976661Y-64166081D01*
X83794617Y-64026392D01*
X83595890Y-63911657D01*
X83595886Y-63911655D01*
X83522046Y-63881069D01*
X83467643Y-63837227D01*
X83445579Y-63770933D01*
X83445500Y-63766508D01*
X83445500Y-62830258D01*
X87419500Y-62830258D01*
X87419500Y-63059741D01*
X87440998Y-63223028D01*
X87449452Y-63287238D01*
X87449453Y-63287240D01*
X87508842Y-63508887D01*
X87596650Y-63720876D01*
X87596657Y-63720890D01*
X87711392Y-63919617D01*
X87851081Y-64101661D01*
X87851089Y-64101670D01*
X88013330Y-64263911D01*
X88013338Y-64263918D01*
X88195382Y-64403607D01*
X88195385Y-64403608D01*
X88195388Y-64403611D01*
X88394112Y-64518344D01*
X88394117Y-64518346D01*
X88394123Y-64518349D01*
X88485480Y-64556190D01*
X88606113Y-64606158D01*
X88827762Y-64665548D01*
X89055266Y-64695500D01*
X89055273Y-64695500D01*
X89284727Y-64695500D01*
X89284734Y-64695500D01*
X89512238Y-64665548D01*
X89733887Y-64606158D01*
X89945888Y-64518344D01*
X90144612Y-64403611D01*
X90326661Y-64263919D01*
X90326665Y-64263914D01*
X90326670Y-64263911D01*
X90477932Y-64112648D01*
X94854500Y-64112648D01*
X94854500Y-64317351D01*
X94886522Y-64519534D01*
X94949781Y-64714223D01*
X95042715Y-64896613D01*
X95163028Y-65062213D01*
X95307786Y-65206971D01*
X95462749Y-65319556D01*
X95473390Y-65327287D01*
X95557741Y-65370266D01*
X95655776Y-65420218D01*
X95655778Y-65420218D01*
X95655781Y-65420220D01*
X95760137Y-65454127D01*
X95850465Y-65483477D01*
X95951557Y-65499488D01*
X96052648Y-65515500D01*
X96052649Y-65515500D01*
X96257351Y-65515500D01*
X96257352Y-65515500D01*
X96459534Y-65483477D01*
X96654219Y-65420220D01*
X96836610Y-65327287D01*
X96929590Y-65259732D01*
X97002213Y-65206971D01*
X97002215Y-65206968D01*
X97002219Y-65206966D01*
X97146966Y-65062219D01*
X97146968Y-65062215D01*
X97146971Y-65062213D01*
X97199732Y-64989590D01*
X97267287Y-64896610D01*
X97360220Y-64714219D01*
X97423477Y-64519534D01*
X97455500Y-64317352D01*
X97455500Y-64112648D01*
X97441838Y-64026389D01*
X97423477Y-63910465D01*
X97360218Y-63715776D01*
X97326503Y-63649607D01*
X97267287Y-63533390D01*
X97249485Y-63508887D01*
X97146971Y-63367786D01*
X97002213Y-63223028D01*
X96836613Y-63102715D01*
X96836612Y-63102714D01*
X96836610Y-63102713D01*
X96752273Y-63059741D01*
X96654223Y-63009781D01*
X96459534Y-62946522D01*
X96284995Y-62918878D01*
X96257352Y-62914500D01*
X96052648Y-62914500D01*
X96028329Y-62918351D01*
X95850465Y-62946522D01*
X95655776Y-63009781D01*
X95473386Y-63102715D01*
X95307786Y-63223028D01*
X95163028Y-63367786D01*
X95042715Y-63533386D01*
X94949781Y-63715776D01*
X94886522Y-63910465D01*
X94854500Y-64112648D01*
X90477932Y-64112648D01*
X90488910Y-64101670D01*
X90488919Y-64101661D01*
X90628611Y-63919612D01*
X90743344Y-63720888D01*
X90831158Y-63508887D01*
X90890548Y-63287238D01*
X90920500Y-63059734D01*
X90920500Y-62830266D01*
X90890548Y-62602762D01*
X90831158Y-62381113D01*
X90743344Y-62169112D01*
X90628611Y-61970388D01*
X90628608Y-61970385D01*
X90628607Y-61970382D01*
X90488918Y-61788338D01*
X90488911Y-61788330D01*
X90326670Y-61626089D01*
X90326661Y-61626081D01*
X90144617Y-61486392D01*
X89945890Y-61371657D01*
X89945876Y-61371650D01*
X89733887Y-61283842D01*
X89512238Y-61224452D01*
X89474215Y-61219446D01*
X89284741Y-61194500D01*
X89284734Y-61194500D01*
X89055266Y-61194500D01*
X89055258Y-61194500D01*
X88838715Y-61223009D01*
X88827762Y-61224452D01*
X88734076Y-61249554D01*
X88606112Y-61283842D01*
X88394123Y-61371650D01*
X88394109Y-61371657D01*
X88195382Y-61486392D01*
X88013338Y-61626081D01*
X87851081Y-61788338D01*
X87711392Y-61970382D01*
X87596657Y-62169109D01*
X87596650Y-62169123D01*
X87508842Y-62381112D01*
X87449453Y-62602759D01*
X87449451Y-62602770D01*
X87419500Y-62830258D01*
X83445500Y-62830258D01*
X83445500Y-52184983D01*
X94854500Y-52184983D01*
X94854500Y-53385001D01*
X94854501Y-53385018D01*
X94865000Y-53487796D01*
X94865001Y-53487799D01*
X94920185Y-53654331D01*
X94920186Y-53654334D01*
X95012288Y-53803656D01*
X95136344Y-53927712D01*
X95285666Y-54019814D01*
X95452203Y-54074999D01*
X95554991Y-54085500D01*
X96755008Y-54085499D01*
X96857797Y-54074999D01*
X97024334Y-54019814D01*
X97173656Y-53927712D01*
X97297712Y-53803656D01*
X97389814Y-53654334D01*
X97444999Y-53487797D01*
X97455500Y-53385009D01*
X97455499Y-52184992D01*
X97444999Y-52082203D01*
X97389814Y-51915666D01*
X97297712Y-51766344D01*
X97173656Y-51642288D01*
X97024334Y-51550186D01*
X96857797Y-51495001D01*
X96857795Y-51495000D01*
X96755010Y-51484500D01*
X95554998Y-51484500D01*
X95554981Y-51484501D01*
X95452203Y-51495000D01*
X95452200Y-51495001D01*
X95285668Y-51550185D01*
X95285663Y-51550187D01*
X95136342Y-51642289D01*
X95012289Y-51766342D01*
X94920187Y-51915663D01*
X94920186Y-51915666D01*
X94865001Y-52082203D01*
X94865001Y-52082204D01*
X94865000Y-52082204D01*
X94854500Y-52184983D01*
X83445500Y-52184983D01*
X83445500Y-48827486D01*
X84379500Y-48827486D01*
X84379500Y-49122513D01*
X84394778Y-49238555D01*
X84418007Y-49414993D01*
X84494361Y-49699951D01*
X84494364Y-49699961D01*
X84607254Y-49972500D01*
X84607258Y-49972510D01*
X84754761Y-50227993D01*
X84934352Y-50462040D01*
X84934358Y-50462047D01*
X85142952Y-50670641D01*
X85142959Y-50670647D01*
X85377006Y-50850238D01*
X85632489Y-50997741D01*
X85632490Y-50997741D01*
X85632493Y-50997743D01*
X85905048Y-51110639D01*
X86190007Y-51186993D01*
X86482494Y-51225500D01*
X86482501Y-51225500D01*
X86777499Y-51225500D01*
X86777506Y-51225500D01*
X87069993Y-51186993D01*
X87354952Y-51110639D01*
X87627507Y-50997743D01*
X87882994Y-50850238D01*
X88117042Y-50670646D01*
X88325646Y-50462042D01*
X88505238Y-50227994D01*
X88652743Y-49972507D01*
X88765639Y-49699952D01*
X88841993Y-49414993D01*
X88880500Y-49122506D01*
X88880500Y-48886421D01*
X90584500Y-48886421D01*
X90584500Y-49063578D01*
X90612214Y-49238556D01*
X90666956Y-49407039D01*
X90666957Y-49407042D01*
X90747386Y-49564890D01*
X90851517Y-49708214D01*
X90976786Y-49833483D01*
X91120110Y-49937614D01*
X91188577Y-49972500D01*
X91277957Y-50018042D01*
X91277960Y-50018043D01*
X91362201Y-50045414D01*
X91446445Y-50072786D01*
X91621421Y-50100500D01*
X91621422Y-50100500D01*
X91798578Y-50100500D01*
X91798579Y-50100500D01*
X91973555Y-50072786D01*
X92142042Y-50018042D01*
X92299890Y-49937614D01*
X92443214Y-49833483D01*
X92568483Y-49708214D01*
X92672614Y-49564890D01*
X92753042Y-49407042D01*
X92807786Y-49238555D01*
X92835500Y-49063579D01*
X92835500Y-48886421D01*
X92807786Y-48711445D01*
X92753042Y-48542958D01*
X92753042Y-48542957D01*
X92672613Y-48385109D01*
X92568483Y-48241786D01*
X92443214Y-48116517D01*
X92299890Y-48012386D01*
X92291953Y-48008342D01*
X92142042Y-47931957D01*
X92142039Y-47931956D01*
X91973556Y-47877214D01*
X91886067Y-47863357D01*
X91798579Y-47849500D01*
X91621421Y-47849500D01*
X91563095Y-47858738D01*
X91446443Y-47877214D01*
X91277960Y-47931956D01*
X91277957Y-47931957D01*
X91120109Y-48012386D01*
X91039936Y-48070636D01*
X90976786Y-48116517D01*
X90976784Y-48116519D01*
X90976783Y-48116519D01*
X90851519Y-48241783D01*
X90851519Y-48241784D01*
X90851517Y-48241786D01*
X90806796Y-48303338D01*
X90747386Y-48385109D01*
X90666957Y-48542957D01*
X90666956Y-48542960D01*
X90612214Y-48711443D01*
X90584500Y-48886421D01*
X88880500Y-48886421D01*
X88880500Y-48827494D01*
X88841993Y-48535007D01*
X88765639Y-48250048D01*
X88652743Y-47977493D01*
X88626453Y-47931958D01*
X88505238Y-47722006D01*
X88325647Y-47487959D01*
X88325641Y-47487952D01*
X88117047Y-47279358D01*
X88117040Y-47279352D01*
X87882993Y-47099761D01*
X87627510Y-46952258D01*
X87627500Y-46952254D01*
X87354961Y-46839364D01*
X87354954Y-46839362D01*
X87354952Y-46839361D01*
X87069993Y-46763007D01*
X87021113Y-46756571D01*
X86777513Y-46724500D01*
X86777506Y-46724500D01*
X86482494Y-46724500D01*
X86482486Y-46724500D01*
X86204085Y-46761153D01*
X86190007Y-46763007D01*
X85905048Y-46839361D01*
X85905038Y-46839364D01*
X85632499Y-46952254D01*
X85632489Y-46952258D01*
X85377006Y-47099761D01*
X85142959Y-47279352D01*
X85142952Y-47279358D01*
X84934358Y-47487952D01*
X84934352Y-47487959D01*
X84754761Y-47722006D01*
X84607258Y-47977489D01*
X84607254Y-47977499D01*
X84494364Y-48250038D01*
X84494361Y-48250048D01*
X84458172Y-48385110D01*
X84418008Y-48535004D01*
X84418006Y-48535015D01*
X84379500Y-48827486D01*
X83445500Y-48827486D01*
X83445500Y-48153490D01*
X83465185Y-48086451D01*
X83517989Y-48040696D01*
X83522013Y-48038943D01*
X83595888Y-48008344D01*
X83794612Y-47893611D01*
X83976661Y-47753919D01*
X83976665Y-47753914D01*
X83976670Y-47753911D01*
X84138911Y-47591670D01*
X84138914Y-47591665D01*
X84138919Y-47591661D01*
X84278611Y-47409612D01*
X84393344Y-47210888D01*
X84481158Y-46998887D01*
X84540548Y-46777238D01*
X84570500Y-46549734D01*
X84570500Y-46320266D01*
X84540548Y-46092762D01*
X84481158Y-45871113D01*
X84395461Y-45664223D01*
X84393349Y-45659123D01*
X84393346Y-45659117D01*
X84393344Y-45659112D01*
X84278611Y-45460388D01*
X84278608Y-45460385D01*
X84278607Y-45460382D01*
X84138918Y-45278338D01*
X84138911Y-45278330D01*
X83976670Y-45116089D01*
X83976661Y-45116081D01*
X83794617Y-44976392D01*
X83595890Y-44861657D01*
X83595886Y-44861655D01*
X83522046Y-44831069D01*
X83467643Y-44787227D01*
X83445579Y-44720933D01*
X83445500Y-44716508D01*
X83445500Y-43780258D01*
X87419500Y-43780258D01*
X87419500Y-44009741D01*
X87440998Y-44173028D01*
X87449452Y-44237238D01*
X87449453Y-44237240D01*
X87508842Y-44458887D01*
X87596650Y-44670876D01*
X87596657Y-44670890D01*
X87711392Y-44869617D01*
X87851081Y-45051661D01*
X87851089Y-45051670D01*
X88013330Y-45213911D01*
X88013338Y-45213918D01*
X88195382Y-45353607D01*
X88195385Y-45353608D01*
X88195388Y-45353611D01*
X88394112Y-45468344D01*
X88394117Y-45468346D01*
X88394123Y-45468349D01*
X88485480Y-45506190D01*
X88606113Y-45556158D01*
X88827762Y-45615548D01*
X89055266Y-45645500D01*
X89055273Y-45645500D01*
X89284727Y-45645500D01*
X89284734Y-45645500D01*
X89512238Y-45615548D01*
X89733887Y-45556158D01*
X89945888Y-45468344D01*
X90144612Y-45353611D01*
X90326661Y-45213919D01*
X90326665Y-45213914D01*
X90326670Y-45213911D01*
X90477932Y-45062648D01*
X94854500Y-45062648D01*
X94854500Y-45267351D01*
X94886522Y-45469534D01*
X94949781Y-45664223D01*
X95042715Y-45846613D01*
X95163028Y-46012213D01*
X95307786Y-46156971D01*
X95462749Y-46269556D01*
X95473390Y-46277287D01*
X95557741Y-46320266D01*
X95655776Y-46370218D01*
X95655778Y-46370218D01*
X95655781Y-46370220D01*
X95760137Y-46404127D01*
X95850465Y-46433477D01*
X95951557Y-46449488D01*
X96052648Y-46465500D01*
X96052649Y-46465500D01*
X96257351Y-46465500D01*
X96257352Y-46465500D01*
X96459534Y-46433477D01*
X96654219Y-46370220D01*
X96836610Y-46277287D01*
X96929590Y-46209732D01*
X97002213Y-46156971D01*
X97002215Y-46156968D01*
X97002219Y-46156966D01*
X97146966Y-46012219D01*
X97146968Y-46012215D01*
X97146971Y-46012213D01*
X97199732Y-45939590D01*
X97267287Y-45846610D01*
X97360220Y-45664219D01*
X97423477Y-45469534D01*
X97455500Y-45267352D01*
X97455500Y-45062648D01*
X97441838Y-44976389D01*
X97423477Y-44860465D01*
X97360218Y-44665776D01*
X97326503Y-44599607D01*
X97267287Y-44483390D01*
X97249485Y-44458887D01*
X97146971Y-44317786D01*
X97002213Y-44173028D01*
X96836613Y-44052715D01*
X96836612Y-44052714D01*
X96836610Y-44052713D01*
X96752273Y-44009741D01*
X96654223Y-43959781D01*
X96459534Y-43896522D01*
X96284995Y-43868878D01*
X96257352Y-43864500D01*
X96052648Y-43864500D01*
X96028329Y-43868351D01*
X95850465Y-43896522D01*
X95655776Y-43959781D01*
X95473386Y-44052715D01*
X95307786Y-44173028D01*
X95163028Y-44317786D01*
X95042715Y-44483386D01*
X94949781Y-44665776D01*
X94886522Y-44860465D01*
X94854500Y-45062648D01*
X90477932Y-45062648D01*
X90488910Y-45051670D01*
X90488919Y-45051661D01*
X90628611Y-44869612D01*
X90743344Y-44670888D01*
X90831158Y-44458887D01*
X90890548Y-44237238D01*
X90920500Y-44009734D01*
X90920500Y-43780266D01*
X90890548Y-43552762D01*
X90831158Y-43331113D01*
X90781190Y-43210480D01*
X90743349Y-43119123D01*
X90743346Y-43119117D01*
X90743344Y-43119112D01*
X90628611Y-42920388D01*
X90628608Y-42920385D01*
X90628607Y-42920382D01*
X90488918Y-42738338D01*
X90488911Y-42738330D01*
X90326670Y-42576089D01*
X90326661Y-42576081D01*
X90144617Y-42436392D01*
X89945890Y-42321657D01*
X89945876Y-42321650D01*
X89733887Y-42233842D01*
X89512238Y-42174452D01*
X89474215Y-42169446D01*
X89284741Y-42144500D01*
X89284734Y-42144500D01*
X89055266Y-42144500D01*
X89055258Y-42144500D01*
X88838715Y-42173009D01*
X88827762Y-42174452D01*
X88734076Y-42199554D01*
X88606112Y-42233842D01*
X88394123Y-42321650D01*
X88394109Y-42321657D01*
X88195382Y-42436392D01*
X88013338Y-42576081D01*
X87851081Y-42738338D01*
X87711392Y-42920382D01*
X87596657Y-43119109D01*
X87596650Y-43119123D01*
X87508842Y-43331112D01*
X87508842Y-43331113D01*
X87458324Y-43519653D01*
X87449453Y-43552759D01*
X87449451Y-43552770D01*
X87419500Y-43780258D01*
X83445500Y-43780258D01*
X83445500Y-43253396D01*
X83438110Y-43216242D01*
X83421463Y-43132548D01*
X83398288Y-43076600D01*
X83374312Y-43018715D01*
X83357256Y-42993190D01*
X83305858Y-42916267D01*
X83305856Y-42916264D01*
X83215637Y-42826045D01*
X83215606Y-42826016D01*
X75218301Y-34828711D01*
X100604500Y-34828711D01*
X100604500Y-35071288D01*
X100636161Y-35311785D01*
X100698947Y-35546104D01*
X100778002Y-35736959D01*
X100791776Y-35770212D01*
X100913064Y-35980289D01*
X100913066Y-35980292D01*
X100913067Y-35980293D01*
X101060733Y-36172736D01*
X101060739Y-36172743D01*
X101232256Y-36344260D01*
X101232262Y-36344265D01*
X101424711Y-36491936D01*
X101634788Y-36613224D01*
X101858900Y-36706054D01*
X102093211Y-36768838D01*
X102273586Y-36792584D01*
X102333711Y-36800500D01*
X102333712Y-36800500D01*
X102576289Y-36800500D01*
X102624388Y-36794167D01*
X102816789Y-36768838D01*
X103051100Y-36706054D01*
X103275212Y-36613224D01*
X103485289Y-36491936D01*
X103677738Y-36344265D01*
X103849265Y-36172738D01*
X103996936Y-35980289D01*
X104118224Y-35770212D01*
X104211054Y-35546100D01*
X104273838Y-35311789D01*
X104305500Y-35071288D01*
X104305500Y-34828712D01*
X104273838Y-34588211D01*
X104211054Y-34353900D01*
X104207063Y-34344266D01*
X104136014Y-34172738D01*
X104118224Y-34129788D01*
X103996936Y-33919711D01*
X103849265Y-33727262D01*
X103849260Y-33727256D01*
X103677743Y-33555739D01*
X103677736Y-33555733D01*
X103485293Y-33408067D01*
X103485292Y-33408066D01*
X103485289Y-33408064D01*
X103275212Y-33286776D01*
X103275205Y-33286773D01*
X103051104Y-33193947D01*
X102816785Y-33131161D01*
X102576289Y-33099500D01*
X102576288Y-33099500D01*
X102333712Y-33099500D01*
X102333711Y-33099500D01*
X102093214Y-33131161D01*
X101858895Y-33193947D01*
X101634794Y-33286773D01*
X101634785Y-33286777D01*
X101424706Y-33408067D01*
X101232263Y-33555733D01*
X101232256Y-33555739D01*
X101060739Y-33727256D01*
X101060733Y-33727263D01*
X100913067Y-33919706D01*
X100791777Y-34129785D01*
X100791773Y-34129794D01*
X100698947Y-34353895D01*
X100636161Y-34588214D01*
X100604500Y-34828711D01*
X75218301Y-34828711D01*
X73616819Y-33227229D01*
X73583334Y-33165906D01*
X73580500Y-33139548D01*
X73580500Y-23888393D01*
X73580499Y-23888389D01*
X73565998Y-23815484D01*
X73556463Y-23767548D01*
X73509311Y-23653714D01*
X73509310Y-23653713D01*
X73509307Y-23653707D01*
X73440859Y-23551268D01*
X73434639Y-23545048D01*
X73353733Y-23464142D01*
X73353732Y-23464141D01*
X66845859Y-16956269D01*
X66845858Y-16956267D01*
X66758733Y-16869142D01*
X66707509Y-16834915D01*
X66656286Y-16800688D01*
X66656283Y-16800686D01*
X66656280Y-16800685D01*
X66582603Y-16770168D01*
X66582601Y-16770167D01*
X66575792Y-16767347D01*
X66542452Y-16753537D01*
X66482029Y-16741518D01*
X66477306Y-16740578D01*
X66477304Y-16740578D01*
X66421610Y-16729500D01*
X66421607Y-16729500D01*
X66421606Y-16729500D01*
X63699499Y-16729500D01*
X63632460Y-16709815D01*
X63586705Y-16657011D01*
X63575499Y-16605500D01*
X63575499Y-16457129D01*
X63575498Y-16457123D01*
X63573310Y-16436770D01*
X63569091Y-16397517D01*
X63520721Y-16267832D01*
X63515738Y-16198142D01*
X63549223Y-16136819D01*
X63610546Y-16103334D01*
X63636904Y-16100500D01*
X68639548Y-16100500D01*
X68706587Y-16120185D01*
X68727228Y-16136818D01*
X75424141Y-22833732D01*
X75424142Y-22833733D01*
X75484205Y-22893796D01*
X75511268Y-22920859D01*
X75613707Y-22989307D01*
X75613713Y-22989310D01*
X75613714Y-22989311D01*
X75727548Y-23036463D01*
X75848388Y-23060499D01*
X75848392Y-23060500D01*
X75848393Y-23060500D01*
X75848394Y-23060500D01*
X76302019Y-23060500D01*
X76369058Y-23080185D01*
X76412503Y-23128203D01*
X76419950Y-23142819D01*
X76544890Y-23314786D01*
X76695213Y-23465109D01*
X76867182Y-23590050D01*
X76875946Y-23594516D01*
X76926742Y-23642491D01*
X76943536Y-23710312D01*
X76920998Y-23776447D01*
X76875946Y-23815484D01*
X76867182Y-23819949D01*
X76695213Y-23944890D01*
X76544890Y-24095213D01*
X76419951Y-24267179D01*
X76323444Y-24456585D01*
X76257753Y-24658760D01*
X76224500Y-24868713D01*
X76224500Y-25081286D01*
X76253536Y-25264615D01*
X76257754Y-25291243D01*
X76316644Y-25472488D01*
X76323444Y-25493414D01*
X76419951Y-25682820D01*
X76544890Y-25854786D01*
X76695213Y-26005109D01*
X76867182Y-26130050D01*
X76902268Y-26147927D01*
X76953064Y-26195900D01*
X76969860Y-26263721D01*
X76947323Y-26329856D01*
X76918859Y-26358730D01*
X76745214Y-26484890D01*
X76745209Y-26484894D01*
X76594890Y-26635213D01*
X76469951Y-26807179D01*
X76373444Y-26996585D01*
X76307753Y-27198760D01*
X76274500Y-27408713D01*
X76274500Y-27621286D01*
X76300626Y-27786243D01*
X76307754Y-27831243D01*
X76361130Y-27995518D01*
X76373444Y-28033414D01*
X76469951Y-28222820D01*
X76594890Y-28394786D01*
X76745213Y-28545109D01*
X76917182Y-28670050D01*
X76925946Y-28674516D01*
X76976742Y-28722491D01*
X76993536Y-28790312D01*
X76970998Y-28856447D01*
X76925946Y-28895484D01*
X76917182Y-28899949D01*
X76745213Y-29024890D01*
X76594890Y-29175213D01*
X76469951Y-29347179D01*
X76373444Y-29536585D01*
X76307753Y-29738760D01*
X76274500Y-29948713D01*
X76274500Y-30161287D01*
X76307754Y-30371243D01*
X76334555Y-30453729D01*
X76373444Y-30573414D01*
X76469951Y-30762820D01*
X76594890Y-30934786D01*
X76745213Y-31085109D01*
X76917182Y-31210050D01*
X76925946Y-31214516D01*
X76976742Y-31262491D01*
X76993536Y-31330312D01*
X76970998Y-31396447D01*
X76925946Y-31435484D01*
X76917182Y-31439949D01*
X76745213Y-31564890D01*
X76594890Y-31715213D01*
X76469951Y-31887179D01*
X76373444Y-32076585D01*
X76307753Y-32278760D01*
X76274500Y-32488713D01*
X76274500Y-32701286D01*
X76307753Y-32911239D01*
X76373444Y-33113414D01*
X76469951Y-33302820D01*
X76594890Y-33474786D01*
X76745213Y-33625109D01*
X76917179Y-33750048D01*
X76917181Y-33750049D01*
X76917184Y-33750051D01*
X77106588Y-33846557D01*
X77308757Y-33912246D01*
X77518713Y-33945500D01*
X77518714Y-33945500D01*
X79631286Y-33945500D01*
X79631287Y-33945500D01*
X79841243Y-33912246D01*
X80043412Y-33846557D01*
X80232816Y-33750051D01*
X80394680Y-33632451D01*
X80404786Y-33625109D01*
X80404788Y-33625106D01*
X80404792Y-33625104D01*
X80555104Y-33474792D01*
X80555106Y-33474788D01*
X80555109Y-33474786D01*
X80680048Y-33302820D01*
X80680047Y-33302820D01*
X80680051Y-33302816D01*
X80776557Y-33113412D01*
X80842246Y-32911243D01*
X80875500Y-32701287D01*
X80875500Y-32488713D01*
X80842246Y-32278757D01*
X80776557Y-32076588D01*
X80680051Y-31887184D01*
X80680049Y-31887181D01*
X80680048Y-31887179D01*
X80555109Y-31715213D01*
X80404786Y-31564890D01*
X80232820Y-31439951D01*
X80232115Y-31439591D01*
X80224054Y-31435485D01*
X80173259Y-31387512D01*
X80156463Y-31319692D01*
X80178999Y-31253556D01*
X80224054Y-31214515D01*
X80232816Y-31210051D01*
X80254983Y-31193946D01*
X80404786Y-31085109D01*
X80404788Y-31085106D01*
X80404792Y-31085104D01*
X80555104Y-30934792D01*
X80555106Y-30934788D01*
X80555109Y-30934786D01*
X80680048Y-30762820D01*
X80680049Y-30762819D01*
X80680051Y-30762816D01*
X80776557Y-30573412D01*
X80842246Y-30371243D01*
X80875500Y-30161287D01*
X80875500Y-29948713D01*
X80842246Y-29738757D01*
X80776557Y-29536588D01*
X80680051Y-29347184D01*
X80680049Y-29347181D01*
X80680048Y-29347179D01*
X80555109Y-29175213D01*
X80404786Y-29024890D01*
X80232820Y-28899951D01*
X80232115Y-28899591D01*
X80224054Y-28895485D01*
X80173259Y-28847512D01*
X80156463Y-28779692D01*
X80178999Y-28713556D01*
X80224054Y-28674515D01*
X80232816Y-28670051D01*
X80294758Y-28625048D01*
X80404786Y-28545109D01*
X80404788Y-28545106D01*
X80404792Y-28545104D01*
X80447761Y-28502135D01*
X92104500Y-28502135D01*
X92104500Y-30597870D01*
X92104501Y-30597876D01*
X92110908Y-30657483D01*
X92161202Y-30792328D01*
X92161206Y-30792335D01*
X92247452Y-30907544D01*
X92247455Y-30907547D01*
X92362664Y-30993793D01*
X92362671Y-30993797D01*
X92497517Y-31044091D01*
X92497516Y-31044091D01*
X92504444Y-31044835D01*
X92557127Y-31050500D01*
X95852872Y-31050499D01*
X95912483Y-31044091D01*
X96047331Y-30993796D01*
X96162546Y-30907546D01*
X96248796Y-30792331D01*
X96299091Y-30657483D01*
X96305500Y-30597873D01*
X96305499Y-28502128D01*
X96299091Y-28442517D01*
X96248796Y-28307669D01*
X96248795Y-28307668D01*
X96248793Y-28307664D01*
X96162547Y-28192455D01*
X96162544Y-28192452D01*
X96047335Y-28106206D01*
X96047328Y-28106202D01*
X95912482Y-28055908D01*
X95912483Y-28055908D01*
X95852883Y-28049501D01*
X95852881Y-28049500D01*
X95852873Y-28049500D01*
X95852864Y-28049500D01*
X92557129Y-28049500D01*
X92557123Y-28049501D01*
X92497516Y-28055908D01*
X92362671Y-28106202D01*
X92362664Y-28106206D01*
X92247455Y-28192452D01*
X92247452Y-28192455D01*
X92161206Y-28307664D01*
X92161202Y-28307671D01*
X92110908Y-28442517D01*
X92104717Y-28500109D01*
X92104501Y-28502123D01*
X92104500Y-28502135D01*
X80447761Y-28502135D01*
X80555104Y-28394792D01*
X80555106Y-28394788D01*
X80555109Y-28394786D01*
X80618406Y-28307664D01*
X80680051Y-28222816D01*
X80687497Y-28208203D01*
X80700235Y-28183205D01*
X80748209Y-28132409D01*
X80810719Y-28115500D01*
X83303331Y-28115500D01*
X83303347Y-28115501D01*
X83310943Y-28115501D01*
X83469054Y-28115501D01*
X83469057Y-28115501D01*
X83621785Y-28074577D01*
X83686416Y-28037262D01*
X83758716Y-27995520D01*
X83870520Y-27883716D01*
X83870520Y-27883714D01*
X83880724Y-27873511D01*
X83880727Y-27873506D01*
X84667416Y-27086819D01*
X84728739Y-27053334D01*
X84755097Y-27050500D01*
X85250932Y-27050500D01*
X85317971Y-27070185D01*
X85361416Y-27118203D01*
X85421657Y-27236433D01*
X85560483Y-27427510D01*
X85727490Y-27594517D01*
X85918567Y-27733343D01*
X86017991Y-27784002D01*
X86129003Y-27840566D01*
X86129005Y-27840566D01*
X86129008Y-27840568D01*
X86230365Y-27873501D01*
X86353631Y-27913553D01*
X86586903Y-27950500D01*
X86586908Y-27950500D01*
X86823097Y-27950500D01*
X87056368Y-27913553D01*
X87280992Y-27840568D01*
X87491433Y-27733343D01*
X87682510Y-27594517D01*
X87849517Y-27427510D01*
X87988343Y-27236433D01*
X88095568Y-27025992D01*
X88168553Y-26801368D01*
X88174760Y-26762179D01*
X88205500Y-26568097D01*
X88205500Y-26331902D01*
X99704500Y-26331902D01*
X99704500Y-26568097D01*
X99741446Y-26801368D01*
X99814433Y-27025996D01*
X99921657Y-27236433D01*
X100060483Y-27427510D01*
X100227490Y-27594517D01*
X100418567Y-27733343D01*
X100517991Y-27784002D01*
X100629003Y-27840566D01*
X100629005Y-27840566D01*
X100629008Y-27840568D01*
X100730365Y-27873501D01*
X100853631Y-27913553D01*
X101086903Y-27950500D01*
X101086908Y-27950500D01*
X101323097Y-27950500D01*
X101556368Y-27913553D01*
X101780992Y-27840568D01*
X101991433Y-27733343D01*
X102182510Y-27594517D01*
X102349517Y-27427510D01*
X102488343Y-27236433D01*
X102595568Y-27025992D01*
X102668553Y-26801368D01*
X102674760Y-26762179D01*
X102705500Y-26568097D01*
X102705500Y-26331902D01*
X102676360Y-26147926D01*
X102668553Y-26098632D01*
X102668552Y-26098630D01*
X102668553Y-26098630D01*
X102622290Y-25956251D01*
X102595568Y-25874008D01*
X102595566Y-25874005D01*
X102595566Y-25874003D01*
X102539002Y-25762991D01*
X102488343Y-25663567D01*
X102349517Y-25472490D01*
X102182510Y-25305483D01*
X101991433Y-25166657D01*
X101780996Y-25059433D01*
X101556368Y-24986446D01*
X101323097Y-24949500D01*
X101323092Y-24949500D01*
X101086908Y-24949500D01*
X101086903Y-24949500D01*
X100853631Y-24986446D01*
X100629003Y-25059433D01*
X100418566Y-25166657D01*
X100325748Y-25234094D01*
X100227490Y-25305483D01*
X100227488Y-25305485D01*
X100227487Y-25305485D01*
X100060485Y-25472487D01*
X100060485Y-25472488D01*
X100060483Y-25472490D01*
X100045282Y-25493413D01*
X99921657Y-25663566D01*
X99814433Y-25874003D01*
X99741447Y-26098630D01*
X99704500Y-26331902D01*
X88205500Y-26331902D01*
X88176360Y-26147926D01*
X88168553Y-26098632D01*
X88168552Y-26098630D01*
X88168553Y-26098630D01*
X88122290Y-25956251D01*
X88095568Y-25874008D01*
X88095566Y-25874005D01*
X88095566Y-25874003D01*
X88039002Y-25762991D01*
X87988343Y-25663567D01*
X87849517Y-25472490D01*
X87682510Y-25305483D01*
X87626259Y-25264614D01*
X87583595Y-25209284D01*
X87578902Y-25177455D01*
X86834408Y-24432962D01*
X86897993Y-24415925D01*
X87012007Y-24350099D01*
X87105099Y-24257007D01*
X87170925Y-24142993D01*
X87187962Y-24079409D01*
X87927658Y-24819105D01*
X87927658Y-24819104D01*
X87987914Y-24736169D01*
X87987918Y-24736163D01*
X88095102Y-24525802D01*
X88168065Y-24301247D01*
X88205000Y-24068052D01*
X88205000Y-23831947D01*
X88168065Y-23598752D01*
X88095102Y-23374197D01*
X87987914Y-23163828D01*
X87918394Y-23068142D01*
X87894914Y-23002335D01*
X87910739Y-22934281D01*
X87944401Y-22895989D01*
X87947329Y-22893796D01*
X87947331Y-22893796D01*
X88062546Y-22807546D01*
X88148796Y-22692331D01*
X88199091Y-22557483D01*
X88205500Y-22497873D01*
X88205499Y-21331902D01*
X99704500Y-21331902D01*
X99704500Y-21568097D01*
X99741446Y-21801368D01*
X99814433Y-22025996D01*
X99921657Y-22236433D01*
X100060483Y-22427510D01*
X100227490Y-22594517D01*
X100418567Y-22733343D01*
X100453698Y-22751243D01*
X100629003Y-22840566D01*
X100629005Y-22840566D01*
X100629008Y-22840568D01*
X100737616Y-22875857D01*
X100853631Y-22913553D01*
X101086903Y-22950500D01*
X101086908Y-22950500D01*
X101323097Y-22950500D01*
X101556368Y-22913553D01*
X101610424Y-22895989D01*
X101780992Y-22840568D01*
X101991433Y-22733343D01*
X102182510Y-22594517D01*
X102349517Y-22427510D01*
X102488343Y-22236433D01*
X102595568Y-22025992D01*
X102668553Y-21801368D01*
X102670908Y-21786502D01*
X102705500Y-21568097D01*
X102705500Y-21331902D01*
X102668553Y-21098631D01*
X102612170Y-20925104D01*
X102595568Y-20874008D01*
X102595566Y-20874005D01*
X102595566Y-20874003D01*
X102488342Y-20663566D01*
X102349517Y-20472490D01*
X102182510Y-20305483D01*
X101991433Y-20166657D01*
X101948929Y-20145000D01*
X101780996Y-20059433D01*
X101556368Y-19986446D01*
X101323097Y-19949500D01*
X101323092Y-19949500D01*
X101086908Y-19949500D01*
X101086903Y-19949500D01*
X100853631Y-19986446D01*
X100629003Y-20059433D01*
X100418566Y-20166657D01*
X100309550Y-20245862D01*
X100227490Y-20305483D01*
X100227488Y-20305485D01*
X100227487Y-20305485D01*
X100060485Y-20472487D01*
X100060485Y-20472488D01*
X100060483Y-20472490D01*
X100000862Y-20554550D01*
X99921657Y-20663566D01*
X99814433Y-20874003D01*
X99741446Y-21098631D01*
X99704500Y-21331902D01*
X88205499Y-21331902D01*
X88205499Y-20402128D01*
X88199091Y-20342517D01*
X88185278Y-20305483D01*
X88148797Y-20207671D01*
X88148793Y-20207664D01*
X88062547Y-20092455D01*
X88062544Y-20092452D01*
X87947335Y-20006206D01*
X87947328Y-20006202D01*
X87812482Y-19955908D01*
X87812483Y-19955908D01*
X87752883Y-19949501D01*
X87752881Y-19949500D01*
X87752873Y-19949500D01*
X87752864Y-19949500D01*
X85657129Y-19949500D01*
X85657123Y-19949501D01*
X85597516Y-19955908D01*
X85462671Y-20006202D01*
X85462664Y-20006206D01*
X85347455Y-20092452D01*
X85347452Y-20092455D01*
X85261206Y-20207664D01*
X85261202Y-20207671D01*
X85210908Y-20342517D01*
X85205266Y-20395000D01*
X85204501Y-20402123D01*
X85204500Y-20402135D01*
X85204500Y-20725500D01*
X85184815Y-20792539D01*
X85132011Y-20838294D01*
X85080500Y-20849500D01*
X84041670Y-20849500D01*
X84041654Y-20849499D01*
X84034058Y-20849499D01*
X83875943Y-20849499D01*
X83784476Y-20874008D01*
X83723214Y-20890423D01*
X83691841Y-20908537D01*
X83691840Y-20908537D01*
X83586287Y-20969477D01*
X83586282Y-20969481D01*
X83474478Y-21081286D01*
X80620023Y-23935740D01*
X80590736Y-23951731D01*
X80561885Y-23968488D01*
X80560189Y-23968411D01*
X80558700Y-23969225D01*
X80525418Y-23966844D01*
X80492086Y-23965343D01*
X80490321Y-23964334D01*
X80489008Y-23964241D01*
X80460674Y-23949251D01*
X80455440Y-23945544D01*
X80454792Y-23944896D01*
X80282816Y-23819949D01*
X80266026Y-23811394D01*
X80258681Y-23806192D01*
X80242374Y-23785564D01*
X80223259Y-23767512D01*
X80221049Y-23758590D01*
X80215350Y-23751381D01*
X80212783Y-23725213D01*
X80206463Y-23699692D01*
X80209427Y-23690992D01*
X80208530Y-23681845D01*
X80220518Y-23658444D01*
X80228999Y-23633556D01*
X80236676Y-23626903D01*
X80240387Y-23619661D01*
X80254481Y-23611474D01*
X80274054Y-23594515D01*
X80282816Y-23590051D01*
X80344758Y-23545048D01*
X80454786Y-23465109D01*
X80454788Y-23465106D01*
X80454792Y-23465104D01*
X80605104Y-23314792D01*
X80605106Y-23314788D01*
X80605109Y-23314786D01*
X80730048Y-23142820D01*
X80730049Y-23142819D01*
X80730051Y-23142816D01*
X80826557Y-22953412D01*
X80892246Y-22751243D01*
X80925500Y-22541287D01*
X80925500Y-22328713D01*
X80892246Y-22118757D01*
X80826557Y-21916588D01*
X80730051Y-21727184D01*
X80730049Y-21727181D01*
X80730048Y-21727179D01*
X80605109Y-21555213D01*
X80454786Y-21404890D01*
X80282817Y-21279949D01*
X80273504Y-21275204D01*
X80222707Y-21227230D01*
X80205912Y-21159409D01*
X80228449Y-21093274D01*
X80273507Y-21054232D01*
X80282558Y-21049620D01*
X80454459Y-20924727D01*
X80454464Y-20924723D01*
X80604723Y-20774464D01*
X80604727Y-20774459D01*
X80729620Y-20602557D01*
X80826095Y-20413217D01*
X80891757Y-20211129D01*
X80891757Y-20211126D01*
X80902231Y-20145000D01*
X78008012Y-20145000D01*
X78040925Y-20087993D01*
X78075000Y-19960826D01*
X78075000Y-19829174D01*
X78040925Y-19702007D01*
X78008012Y-19645000D01*
X80902231Y-19645000D01*
X80891757Y-19578873D01*
X80891757Y-19578870D01*
X80826095Y-19376782D01*
X80729620Y-19187442D01*
X80604727Y-19015540D01*
X80604723Y-19015535D01*
X80454464Y-18865276D01*
X80454459Y-18865272D01*
X80282555Y-18740377D01*
X80273500Y-18735763D01*
X80222706Y-18687788D01*
X80205912Y-18619966D01*
X80228451Y-18553832D01*
X80273508Y-18514793D01*
X80282816Y-18510051D01*
X80369147Y-18447328D01*
X80454786Y-18385109D01*
X80454788Y-18385106D01*
X80454792Y-18385104D01*
X80605104Y-18234792D01*
X80605106Y-18234788D01*
X80605109Y-18234786D01*
X80730048Y-18062820D01*
X80730047Y-18062820D01*
X80730051Y-18062816D01*
X80826557Y-17873412D01*
X80892246Y-17671243D01*
X80925500Y-17461287D01*
X80925500Y-17302135D01*
X92104500Y-17302135D01*
X92104500Y-19397870D01*
X92104501Y-19397876D01*
X92110908Y-19457483D01*
X92161202Y-19592328D01*
X92161206Y-19592335D01*
X92247452Y-19707544D01*
X92247455Y-19707547D01*
X92362664Y-19793793D01*
X92362671Y-19793797D01*
X92497517Y-19844091D01*
X92497516Y-19844091D01*
X92504444Y-19844835D01*
X92557127Y-19850500D01*
X95852872Y-19850499D01*
X95912483Y-19844091D01*
X96047331Y-19793796D01*
X96162546Y-19707546D01*
X96248796Y-19592331D01*
X96299091Y-19457483D01*
X96305500Y-19397873D01*
X96305499Y-17302128D01*
X96299091Y-17242517D01*
X96290353Y-17219090D01*
X96248797Y-17107671D01*
X96248793Y-17107664D01*
X96162547Y-16992455D01*
X96162544Y-16992452D01*
X96047335Y-16906206D01*
X96047328Y-16906202D01*
X95912482Y-16855908D01*
X95912483Y-16855908D01*
X95852883Y-16849501D01*
X95852881Y-16849500D01*
X95852873Y-16849500D01*
X95852864Y-16849500D01*
X92557129Y-16849500D01*
X92557123Y-16849501D01*
X92497516Y-16855908D01*
X92362671Y-16906202D01*
X92362664Y-16906206D01*
X92247455Y-16992452D01*
X92247452Y-16992455D01*
X92161206Y-17107664D01*
X92161202Y-17107671D01*
X92110908Y-17242517D01*
X92104501Y-17302116D01*
X92104501Y-17302123D01*
X92104500Y-17302135D01*
X80925500Y-17302135D01*
X80925500Y-17248713D01*
X80892246Y-17038757D01*
X80826557Y-16836588D01*
X80730051Y-16647184D01*
X80730049Y-16647181D01*
X80730048Y-16647179D01*
X80605109Y-16475213D01*
X80454786Y-16324890D01*
X80282820Y-16199951D01*
X80093414Y-16103444D01*
X80093413Y-16103443D01*
X80093412Y-16103443D01*
X79891243Y-16037754D01*
X79891241Y-16037753D01*
X79891240Y-16037753D01*
X79729957Y-16012208D01*
X79681287Y-16004500D01*
X77468713Y-16004500D01*
X77420042Y-16012208D01*
X77258760Y-16037753D01*
X77258757Y-16037754D01*
X77056924Y-16103334D01*
X77056585Y-16103444D01*
X76867179Y-16199951D01*
X76695213Y-16324890D01*
X76544890Y-16475213D01*
X76419951Y-16647179D01*
X76323444Y-16836585D01*
X76257753Y-17038760D01*
X76224500Y-17248713D01*
X76224500Y-17461286D01*
X76257753Y-17671239D01*
X76323444Y-17873414D01*
X76419951Y-18062820D01*
X76544890Y-18234786D01*
X76695213Y-18385109D01*
X76867179Y-18510048D01*
X76867181Y-18510049D01*
X76867184Y-18510051D01*
X76876493Y-18514794D01*
X76927290Y-18562766D01*
X76944087Y-18630587D01*
X76921552Y-18696722D01*
X76876502Y-18735762D01*
X76867443Y-18740378D01*
X76695540Y-18865272D01*
X76695535Y-18865276D01*
X76545276Y-19015535D01*
X76545272Y-19015540D01*
X76420379Y-19187442D01*
X76323904Y-19376782D01*
X76258242Y-19578870D01*
X76258242Y-19578873D01*
X76247769Y-19645000D01*
X77141988Y-19645000D01*
X77109075Y-19702007D01*
X77075000Y-19829174D01*
X77075000Y-19960826D01*
X77109075Y-20087993D01*
X77141988Y-20145000D01*
X76247769Y-20145000D01*
X76258242Y-20211126D01*
X76258242Y-20211129D01*
X76323904Y-20413217D01*
X76420379Y-20602557D01*
X76545272Y-20774459D01*
X76545276Y-20774464D01*
X76695535Y-20924723D01*
X76695540Y-20924727D01*
X76867444Y-21049622D01*
X76876495Y-21054234D01*
X76927292Y-21102208D01*
X76944087Y-21170029D01*
X76921550Y-21236164D01*
X76876499Y-21275202D01*
X76867182Y-21279949D01*
X76695213Y-21404890D01*
X76544890Y-21555213D01*
X76419950Y-21727180D01*
X76412503Y-21741797D01*
X76402053Y-21752860D01*
X76395732Y-21766703D01*
X76378549Y-21777745D01*
X76364527Y-21792592D01*
X76348848Y-21796832D01*
X76336954Y-21804477D01*
X76302019Y-21809500D01*
X76220453Y-21809500D01*
X76153414Y-21789815D01*
X76132772Y-21773181D01*
X73938348Y-19578757D01*
X69435859Y-15076269D01*
X69435858Y-15076267D01*
X69348733Y-14989142D01*
X69290527Y-14950250D01*
X69246286Y-14920688D01*
X69246287Y-14920688D01*
X69246285Y-14920687D01*
X69206822Y-14904342D01*
X69165792Y-14887347D01*
X69132452Y-14873537D01*
X69072029Y-14861518D01*
X69067306Y-14860578D01*
X69067304Y-14860578D01*
X69011610Y-14849500D01*
X69011607Y-14849500D01*
X69011606Y-14849500D01*
X59001607Y-14849500D01*
X58878393Y-14849500D01*
X58878389Y-14849500D01*
X58822697Y-14860578D01*
X58817971Y-14861518D01*
X58780259Y-14869019D01*
X58757550Y-14873536D01*
X58757548Y-14873537D01*
X58724207Y-14887347D01*
X58643718Y-14920685D01*
X58643715Y-14920687D01*
X58605953Y-14945920D01*
X58599473Y-14950250D01*
X58541267Y-14989142D01*
X58454142Y-15076267D01*
X58454139Y-15076270D01*
X58450891Y-15079517D01*
X58450884Y-15079524D01*
X56969144Y-16561264D01*
X56969138Y-16561272D01*
X56900690Y-16663708D01*
X56900688Y-16663713D01*
X56853540Y-16777538D01*
X56853535Y-16777554D01*
X56837950Y-16855910D01*
X56829500Y-16898389D01*
X56829500Y-21199548D01*
X56809815Y-21266587D01*
X56793181Y-21287229D01*
X56352229Y-21728181D01*
X56290906Y-21761666D01*
X56264548Y-21764500D01*
X55727981Y-21764500D01*
X55660942Y-21744815D01*
X55617497Y-21696797D01*
X55610049Y-21682180D01*
X55485109Y-21510213D01*
X55371181Y-21396285D01*
X55337696Y-21334962D01*
X55342680Y-21265270D01*
X55384552Y-21209337D01*
X55415529Y-21192422D01*
X55547086Y-21143354D01*
X55547093Y-21143350D01*
X55662187Y-21057190D01*
X55662190Y-21057187D01*
X55748350Y-20942093D01*
X55748354Y-20942086D01*
X55798596Y-20807379D01*
X55798598Y-20807372D01*
X55804999Y-20747844D01*
X55805000Y-20747827D01*
X55805000Y-20100000D01*
X54888012Y-20100000D01*
X54920925Y-20042993D01*
X54955000Y-19915826D01*
X54955000Y-19784174D01*
X54920925Y-19657007D01*
X54888012Y-19600000D01*
X55805000Y-19600000D01*
X55805000Y-18952172D01*
X55804999Y-18952155D01*
X55798598Y-18892627D01*
X55798596Y-18892620D01*
X55748354Y-18757913D01*
X55748350Y-18757906D01*
X55662190Y-18642812D01*
X55662187Y-18642809D01*
X55547093Y-18556649D01*
X55547086Y-18556645D01*
X55412379Y-18506403D01*
X55412372Y-18506401D01*
X55352844Y-18500000D01*
X54705000Y-18500000D01*
X54705000Y-19416988D01*
X54647993Y-19384075D01*
X54520826Y-19350000D01*
X54389174Y-19350000D01*
X54262007Y-19384075D01*
X54205000Y-19416988D01*
X54205000Y-18500000D01*
X53557155Y-18500000D01*
X53497627Y-18506401D01*
X53497620Y-18506403D01*
X53362913Y-18556645D01*
X53362906Y-18556649D01*
X53247812Y-18642809D01*
X53247809Y-18642812D01*
X53161649Y-18757906D01*
X53161645Y-18757913D01*
X53111403Y-18892620D01*
X53111401Y-18892627D01*
X53105000Y-18952155D01*
X53105000Y-19600000D01*
X54021988Y-19600000D01*
X53989075Y-19657007D01*
X53955000Y-19784174D01*
X53955000Y-19915826D01*
X53989075Y-20042993D01*
X54021988Y-20100000D01*
X53105000Y-20100000D01*
X53105000Y-20747844D01*
X53111401Y-20807372D01*
X53111403Y-20807379D01*
X53161645Y-20942086D01*
X53161649Y-20942093D01*
X53247809Y-21057187D01*
X53247812Y-21057190D01*
X53362906Y-21143350D01*
X53362913Y-21143354D01*
X53494470Y-21192422D01*
X53550404Y-21234293D01*
X53574821Y-21299758D01*
X53559969Y-21368031D01*
X53538819Y-21396285D01*
X53424889Y-21510215D01*
X53299951Y-21682179D01*
X53203444Y-21871585D01*
X53137753Y-22073760D01*
X53104500Y-22283713D01*
X53104500Y-22496286D01*
X53135550Y-22692331D01*
X53137754Y-22706243D01*
X53192865Y-22875857D01*
X53203444Y-22908414D01*
X53299951Y-23097820D01*
X53424890Y-23269786D01*
X53575213Y-23420109D01*
X53747182Y-23545050D01*
X53755946Y-23549516D01*
X53806742Y-23597491D01*
X53823536Y-23665312D01*
X53800998Y-23731447D01*
X53755946Y-23770484D01*
X53747182Y-23774949D01*
X53575213Y-23899890D01*
X53424890Y-24050213D01*
X53299950Y-24222180D01*
X53292503Y-24236797D01*
X53244527Y-24287592D01*
X53182019Y-24304500D01*
X52913389Y-24304500D01*
X52862535Y-24314615D01*
X52862530Y-24314616D01*
X52852971Y-24316518D01*
X52792548Y-24328537D01*
X52745397Y-24348067D01*
X52678715Y-24375688D01*
X52678714Y-24375689D01*
X52656347Y-24390633D01*
X52656344Y-24390635D01*
X52576268Y-24444140D01*
X52532705Y-24487703D01*
X52489142Y-24531267D01*
X51469141Y-25551267D01*
X51469136Y-25551273D01*
X51452310Y-25576458D01*
X51452307Y-25576463D01*
X51400690Y-25653710D01*
X51400685Y-25653719D01*
X51388634Y-25682815D01*
X51353538Y-25767544D01*
X51353535Y-25767556D01*
X51329500Y-25888389D01*
X51329500Y-29011611D01*
X51353535Y-29132444D01*
X51353540Y-29132461D01*
X51400685Y-29246280D01*
X51400687Y-29246283D01*
X51400688Y-29246286D01*
X51434915Y-29297509D01*
X51469142Y-29348733D01*
X51556267Y-29435858D01*
X51556270Y-29435860D01*
X51563554Y-29443144D01*
X52571016Y-30450606D01*
X52571045Y-30450637D01*
X52661264Y-30540856D01*
X52661267Y-30540858D01*
X52712490Y-30575084D01*
X52763714Y-30609312D01*
X52844207Y-30642652D01*
X52877548Y-30656463D01*
X52937971Y-30668481D01*
X52998393Y-30680500D01*
X52998394Y-30680500D01*
X59102019Y-30680500D01*
X59169058Y-30700185D01*
X59212503Y-30748203D01*
X59219950Y-30762819D01*
X59344890Y-30934786D01*
X59495213Y-31085109D01*
X59667182Y-31210050D01*
X59675946Y-31214516D01*
X59726742Y-31262491D01*
X59743536Y-31330312D01*
X59720998Y-31396447D01*
X59675946Y-31435484D01*
X59667182Y-31439949D01*
X59495213Y-31564890D01*
X59344890Y-31715213D01*
X59219951Y-31887179D01*
X59123444Y-32076585D01*
X59057753Y-32278760D01*
X59024500Y-32488713D01*
X59024500Y-32701286D01*
X59057753Y-32911239D01*
X59123444Y-33113414D01*
X59219951Y-33302820D01*
X59344890Y-33474786D01*
X59495213Y-33625109D01*
X59667179Y-33750048D01*
X59667181Y-33750049D01*
X59667184Y-33750051D01*
X59856588Y-33846557D01*
X60058757Y-33912246D01*
X60268713Y-33945500D01*
X60268714Y-33945500D01*
X62381286Y-33945500D01*
X62381287Y-33945500D01*
X62591243Y-33912246D01*
X62793412Y-33846557D01*
X62982816Y-33750051D01*
X63144680Y-33632451D01*
X63154786Y-33625109D01*
X63154788Y-33625106D01*
X63154792Y-33625104D01*
X63305104Y-33474792D01*
X63305106Y-33474788D01*
X63305109Y-33474786D01*
X63430048Y-33302820D01*
X63430047Y-33302820D01*
X63430051Y-33302816D01*
X63526557Y-33113412D01*
X63592246Y-32911243D01*
X63625500Y-32701287D01*
X63625500Y-32488713D01*
X63592246Y-32278757D01*
X63526557Y-32076588D01*
X63430051Y-31887184D01*
X63430049Y-31887181D01*
X63430048Y-31887179D01*
X63305109Y-31715213D01*
X63154786Y-31564890D01*
X62982820Y-31439951D01*
X62982115Y-31439591D01*
X62974054Y-31435485D01*
X62923259Y-31387512D01*
X62906463Y-31319692D01*
X62928999Y-31253556D01*
X62974054Y-31214515D01*
X62982816Y-31210051D01*
X63004983Y-31193946D01*
X63154786Y-31085109D01*
X63154788Y-31085106D01*
X63154792Y-31085104D01*
X63305104Y-30934792D01*
X63305106Y-30934788D01*
X63305109Y-30934786D01*
X63430048Y-30762820D01*
X63430049Y-30762819D01*
X63430051Y-30762816D01*
X63526557Y-30573412D01*
X63592246Y-30371243D01*
X63625500Y-30161287D01*
X63625500Y-29948713D01*
X63592246Y-29738757D01*
X63526557Y-29536588D01*
X63430051Y-29347184D01*
X63430049Y-29347181D01*
X63430048Y-29347179D01*
X63305109Y-29175213D01*
X63154786Y-29024890D01*
X62982820Y-28899951D01*
X62982115Y-28899591D01*
X62974054Y-28895485D01*
X62923259Y-28847512D01*
X62906463Y-28779692D01*
X62928999Y-28713556D01*
X62974054Y-28674515D01*
X62982816Y-28670051D01*
X63044758Y-28625048D01*
X63154786Y-28545109D01*
X63154788Y-28545106D01*
X63154792Y-28545104D01*
X63305104Y-28394792D01*
X63305106Y-28394788D01*
X63305109Y-28394786D01*
X63430048Y-28222820D01*
X63430049Y-28222819D01*
X63430051Y-28222816D01*
X63526557Y-28033412D01*
X63592246Y-27831243D01*
X63625500Y-27621287D01*
X63625500Y-27408713D01*
X63592246Y-27198757D01*
X63526557Y-26996588D01*
X63430051Y-26807184D01*
X63430049Y-26807181D01*
X63430048Y-26807179D01*
X63305109Y-26635213D01*
X63154786Y-26484890D01*
X62982820Y-26359951D01*
X62982115Y-26359591D01*
X62974054Y-26355485D01*
X62923259Y-26307512D01*
X62906463Y-26239692D01*
X62928999Y-26173556D01*
X62974054Y-26134515D01*
X62982816Y-26130051D01*
X63049936Y-26081286D01*
X63154786Y-26005109D01*
X63154788Y-26005106D01*
X63154792Y-26005104D01*
X63305104Y-25854792D01*
X63305106Y-25854788D01*
X63305109Y-25854786D01*
X63430049Y-25682819D01*
X63430052Y-25682815D01*
X63434475Y-25674132D01*
X63437497Y-25668203D01*
X63485473Y-25617408D01*
X63547981Y-25600500D01*
X66669548Y-25600500D01*
X66736587Y-25620185D01*
X66757229Y-25636819D01*
X67793181Y-26672771D01*
X67826666Y-26734094D01*
X67829500Y-26760452D01*
X67829500Y-34139548D01*
X67809815Y-34206587D01*
X67793181Y-34227229D01*
X65732229Y-36288181D01*
X65670906Y-36321666D01*
X65644548Y-36324500D01*
X28393389Y-36324500D01*
X28342535Y-36334615D01*
X28342530Y-36334616D01*
X28332971Y-36336518D01*
X28272548Y-36348537D01*
X28225397Y-36368067D01*
X28158715Y-36395688D01*
X28158714Y-36395689D01*
X28136347Y-36410633D01*
X28136344Y-36410635D01*
X28056268Y-36464140D01*
X28028477Y-36491932D01*
X27969142Y-36551267D01*
X25184144Y-39336264D01*
X25184138Y-39336272D01*
X25115692Y-39438705D01*
X25115684Y-39438719D01*
X25082347Y-39519207D01*
X25076823Y-39532543D01*
X25068537Y-39552545D01*
X25068535Y-39552553D01*
X25044500Y-39673389D01*
X25044500Y-44716508D01*
X25024815Y-44783547D01*
X24972011Y-44829302D01*
X24967954Y-44831069D01*
X24894113Y-44861655D01*
X24894109Y-44861657D01*
X24695382Y-44976392D01*
X24513338Y-45116081D01*
X24351081Y-45278338D01*
X24211392Y-45460382D01*
X24096657Y-45659109D01*
X24096650Y-45659123D01*
X24008842Y-45871112D01*
X23949453Y-46092759D01*
X23949451Y-46092770D01*
X23919500Y-46320258D01*
X23919500Y-46549741D01*
X23942509Y-46724500D01*
X23949452Y-46777238D01*
X23996347Y-46952254D01*
X24008842Y-46998887D01*
X24096650Y-47210876D01*
X24096657Y-47210890D01*
X24211392Y-47409617D01*
X24351081Y-47591661D01*
X24351089Y-47591670D01*
X24397238Y-47637819D01*
X24430723Y-47699142D01*
X24425739Y-47768834D01*
X24383867Y-47824767D01*
X24318403Y-47849184D01*
X24312967Y-47849378D01*
X24311423Y-47849499D01*
X24136443Y-47877214D01*
X23967960Y-47931956D01*
X23967957Y-47931957D01*
X23810109Y-48012386D01*
X23729936Y-48070636D01*
X23666786Y-48116517D01*
X23666784Y-48116519D01*
X23666783Y-48116519D01*
X23541519Y-48241783D01*
X23541519Y-48241784D01*
X23541517Y-48241786D01*
X23496796Y-48303338D01*
X23437386Y-48385109D01*
X23356957Y-48542957D01*
X23356956Y-48542960D01*
X23302214Y-48711443D01*
X23274500Y-48886421D01*
X15955500Y-48886421D01*
X15955500Y-32828711D01*
X17604500Y-32828711D01*
X17604500Y-33071288D01*
X17636161Y-33311785D01*
X17698947Y-33546104D01*
X17781867Y-33746289D01*
X17791776Y-33770212D01*
X17913064Y-33980289D01*
X17913066Y-33980292D01*
X17913067Y-33980293D01*
X18060733Y-34172736D01*
X18060739Y-34172743D01*
X18232256Y-34344260D01*
X18232263Y-34344266D01*
X18345321Y-34431018D01*
X18424711Y-34491936D01*
X18634788Y-34613224D01*
X18858900Y-34706054D01*
X19093211Y-34768838D01*
X19273586Y-34792584D01*
X19333711Y-34800500D01*
X19333712Y-34800500D01*
X19576289Y-34800500D01*
X19624388Y-34794167D01*
X19816789Y-34768838D01*
X20051100Y-34706054D01*
X20275212Y-34613224D01*
X20485289Y-34491936D01*
X20677738Y-34344265D01*
X20849265Y-34172738D01*
X20996936Y-33980289D01*
X21118224Y-33770212D01*
X21211054Y-33546100D01*
X21273838Y-33311789D01*
X21305500Y-33071288D01*
X21305500Y-32828712D01*
X21273838Y-32588211D01*
X21211054Y-32353900D01*
X21118224Y-32129788D01*
X20996936Y-31919711D01*
X20849265Y-31727262D01*
X20849260Y-31727256D01*
X20677743Y-31555739D01*
X20677736Y-31555733D01*
X20485293Y-31408067D01*
X20485292Y-31408066D01*
X20485289Y-31408064D01*
X20275212Y-31286776D01*
X20195012Y-31253556D01*
X20051104Y-31193947D01*
X19816785Y-31131161D01*
X19576289Y-31099500D01*
X19576288Y-31099500D01*
X19333712Y-31099500D01*
X19333711Y-31099500D01*
X19093214Y-31131161D01*
X18858895Y-31193947D01*
X18634794Y-31286773D01*
X18634785Y-31286777D01*
X18424706Y-31408067D01*
X18232263Y-31555733D01*
X18232256Y-31555739D01*
X18060739Y-31727256D01*
X18060733Y-31727263D01*
X17913067Y-31919706D01*
X17791777Y-32129785D01*
X17791773Y-32129794D01*
X17698947Y-32353895D01*
X17636161Y-32588214D01*
X17604500Y-32828711D01*
X15955500Y-32828711D01*
X15955500Y-15954066D01*
X15955765Y-15945956D01*
X15959819Y-15884108D01*
X15972075Y-15697102D01*
X15974190Y-15681048D01*
X16022045Y-15440462D01*
X16026243Y-15424797D01*
X16049337Y-15356762D01*
X16105093Y-15192512D01*
X16111291Y-15177547D01*
X16219790Y-14957533D01*
X16227893Y-14943498D01*
X16364182Y-14739527D01*
X16374039Y-14726681D01*
X16535786Y-14542244D01*
X16547244Y-14530786D01*
X16731681Y-14369039D01*
X16744527Y-14359182D01*
X16948498Y-14222893D01*
X16962533Y-14214790D01*
X17182547Y-14106291D01*
X17197512Y-14100093D01*
X17361762Y-14044337D01*
X17429797Y-14021243D01*
X17445464Y-14017045D01*
X17686048Y-13969190D01*
X17702102Y-13967075D01*
X17950957Y-13950765D01*
X17959067Y-13950500D01*
X18020892Y-13950500D01*
X103889108Y-13950500D01*
X103950933Y-13950500D01*
X103959043Y-13950765D01*
G37*
%TD.AperFunction*%
%TD*%
M02*
