M48
; DRILL file {KiCad 9.0.7} date 2026-03-30T19:21:44+0200
; FORMAT={-:-/ absolute / metric / decimal}
; #@! TF.CreationDate,2026-03-30T19:21:44+02:00
; #@! TF.GenerationSoftware,Kicad,Pcbnew,9.0.7
; #@! TF.FileFunction,NonPlated,1,2,NPTH
FMAT,2
METRIC
; #@! TA.AperFunction,NonPlated,NPTH,ComponentDrill
T1C1.750
; #@! TA.AperFunction,NonPlated,NPTH,ComponentDrill
T2C4.000
%
G90
G05
T1
X24.4Y-48.975
X24.4Y-68.025
X24.4Y-87.075
X34.56Y-48.975
X34.56Y-68.025
X34.56Y-87.075
X43.45Y-48.975
X43.45Y-68.025
X43.45Y-87.075
X53.61Y-48.975
X53.61Y-68.025
X53.61Y-87.075
X62.5Y-48.975
X62.5Y-68.025
X62.5Y-87.075
X72.66Y-48.975
X72.66Y-68.025
X72.66Y-87.075
X81.55Y-48.975
X81.55Y-68.025
X81.55Y-87.075
X91.71Y-48.975
X91.71Y-68.025
X91.71Y-87.075
T2
X29.48Y-48.975
X29.48Y-68.025
X29.48Y-87.075
X48.53Y-48.975
X48.53Y-68.025
X48.53Y-87.075
X67.58Y-48.975
X67.58Y-68.025
X67.58Y-87.075
X86.63Y-48.975
X86.63Y-68.025
X86.63Y-87.075
M30
