%TF.GenerationSoftware,KiCad,Pcbnew,9.0.7*%
%TF.CreationDate,2026-03-31T23:41:48+02:00*%
%TF.ProjectId,Macropad_PCB,4d616372-6f70-4616-945f-5043422e6b69,rev?*%
%TF.SameCoordinates,Original*%
%TF.FileFunction,Soldermask,Bot*%
%TF.FilePolarity,Negative*%
%FSLAX46Y46*%
G04 Gerber Fmt 4.6, Leading zero omitted, Abs format (unit mm)*
G04 Created by KiCad (PCBNEW 9.0.7) date 2026-03-31 23:41:48*
%MOMM*%
%LPD*%
G01*
G04 APERTURE LIST*
G04 Aperture macros list*
%AMRoundRect*
0 Rectangle with rounded corners*
0 $1 Rounding radius*
0 $2 $3 $4 $5 $6 $7 $8 $9 X,Y pos of 4 corners*
0 Add a 4 corners polygon primitive as box body*
4,1,4,$2,$3,$4,$5,$6,$7,$8,$9,$2,$3,0*
0 Add four circle primitives for the rounded corners*
1,1,$1+$1,$2,$3*
1,1,$1+$1,$4,$5*
1,1,$1+$1,$6,$7*
1,1,$1+$1,$8,$9*
0 Add four rect primitives between the rounded corners*
20,1,$1+$1,$2,$3,$4,$5,0*
20,1,$1+$1,$4,$5,$6,$7,0*
20,1,$1+$1,$6,$7,$8,$9,0*
20,1,$1+$1,$8,$9,$2,$3,0*%
G04 Aperture macros list end*
%ADD10C,1.750000*%
%ADD11C,4.000000*%
%ADD12C,2.500000*%
%ADD13C,3.200000*%
%ADD14R,1.700000X1.700000*%
%ADD15O,1.700000X1.700000*%
%ADD16R,2.000000X2.000000*%
%ADD17C,2.000000*%
%ADD18R,3.200000X2.000000*%
%ADD19R,3.500000X1.700000*%
%ADD20O,3.600000X1.700000*%
%ADD21O,3.700000X1.700000*%
%ADD22RoundRect,0.250000X0.550000X-0.550000X0.550000X0.550000X-0.550000X0.550000X-0.550000X-0.550000X0*%
%ADD23C,1.600000*%
G04 APERTURE END LIST*
D10*
%TO.C,S7*%
X62500000Y-68025000D03*
D11*
X67580000Y-68025000D03*
D10*
X72660000Y-68025000D03*
D12*
X63770000Y-65485000D03*
X70120000Y-62945000D03*
%TD*%
D10*
%TO.C,S11*%
X62500000Y-87075000D03*
D11*
X67580000Y-87075000D03*
D10*
X72660000Y-87075000D03*
D12*
X63770000Y-84535000D03*
X70120000Y-81995000D03*
%TD*%
D10*
%TO.C,S4*%
X81550000Y-48975000D03*
D11*
X86630000Y-48975000D03*
D10*
X91710000Y-48975000D03*
D12*
X82820000Y-46435000D03*
X89170000Y-43895000D03*
%TD*%
D10*
%TO.C,S6*%
X43450000Y-68025000D03*
D11*
X48530000Y-68025000D03*
D10*
X53610000Y-68025000D03*
D12*
X44720000Y-65485000D03*
X51070000Y-62945000D03*
%TD*%
D10*
%TO.C,S5*%
X24400000Y-68025000D03*
D11*
X29480000Y-68025000D03*
D10*
X34560000Y-68025000D03*
D12*
X25670000Y-65485000D03*
X32020000Y-62945000D03*
%TD*%
D10*
%TO.C,S3*%
X62500000Y-48975000D03*
D11*
X67580000Y-48975000D03*
D10*
X72660000Y-48975000D03*
D12*
X63770000Y-46435000D03*
X70120000Y-43895000D03*
%TD*%
D13*
%TO.C,REF\u002A\u002A*%
X19455000Y-32950000D03*
%TD*%
D14*
%TO.C,J1*%
X54455000Y-19850000D03*
D15*
X54455000Y-22390000D03*
X54455000Y-24930000D03*
X54455000Y-27470000D03*
%TD*%
D10*
%TO.C,S10*%
X43450000Y-87075000D03*
D11*
X48530000Y-87075000D03*
D10*
X53610000Y-87075000D03*
D12*
X44720000Y-84535000D03*
X51070000Y-81995000D03*
%TD*%
D10*
%TO.C,S9*%
X24400000Y-87075000D03*
D11*
X29480000Y-87075000D03*
D10*
X34560000Y-87075000D03*
D12*
X25670000Y-84535000D03*
X32020000Y-81995000D03*
%TD*%
D10*
%TO.C,S2*%
X43450000Y-48975000D03*
D11*
X48530000Y-48975000D03*
D10*
X53610000Y-48975000D03*
D12*
X44720000Y-46435000D03*
X51070000Y-43895000D03*
%TD*%
D10*
%TO.C,S12*%
X81550000Y-87075000D03*
D11*
X86630000Y-87075000D03*
D10*
X91710000Y-87075000D03*
D12*
X82820000Y-84535000D03*
X89170000Y-81995000D03*
%TD*%
D16*
%TO.C,SW0*%
X86705000Y-21450000D03*
D17*
X86705000Y-26450000D03*
X86705000Y-23950000D03*
D18*
X94205000Y-18350000D03*
X94205000Y-29550000D03*
D17*
X101205000Y-26450000D03*
X101205000Y-21450000D03*
%TD*%
D10*
%TO.C,S1*%
X24400000Y-48975000D03*
D11*
X29480000Y-48975000D03*
D10*
X34560000Y-48975000D03*
D12*
X25670000Y-46435000D03*
X32020000Y-43895000D03*
%TD*%
D13*
%TO.C,REF\u002A\u002A*%
X102455000Y-34950000D03*
%TD*%
D10*
%TO.C,S8*%
X81550000Y-68025000D03*
D11*
X86630000Y-68025000D03*
D10*
X91710000Y-68025000D03*
D12*
X82820000Y-65485000D03*
X89170000Y-62945000D03*
%TD*%
D13*
%TO.C,REF\u002A\u002A*%
X102455000Y-94950000D03*
%TD*%
D19*
%TO.C,U1*%
X61325000Y-17355000D03*
D20*
X61325000Y-19895000D03*
X61325000Y-22435000D03*
X61325000Y-24975000D03*
X61325000Y-27515000D03*
X61325000Y-30055000D03*
X61325000Y-32595000D03*
X78575000Y-32595000D03*
X78575000Y-30055000D03*
X78575000Y-27515000D03*
D21*
X78575000Y-24975000D03*
X78575000Y-22435000D03*
X78575000Y-19895000D03*
X78575000Y-17355000D03*
%TD*%
D22*
%TO.C,D10*%
X58055000Y-90885000D03*
D23*
X58055000Y-83265000D03*
%TD*%
D22*
%TO.C,D4*%
X96155000Y-52785000D03*
D23*
X96155000Y-45165000D03*
%TD*%
D22*
%TO.C,D6*%
X58098750Y-71835000D03*
D23*
X58098750Y-64215000D03*
%TD*%
D22*
%TO.C,D11*%
X77105000Y-90885000D03*
D23*
X77105000Y-83265000D03*
%TD*%
D22*
%TO.C,D12*%
X96155000Y-90885000D03*
D23*
X96155000Y-83265000D03*
%TD*%
D22*
%TO.C,D1*%
X39005000Y-52785000D03*
D23*
X39005000Y-45165000D03*
%TD*%
D22*
%TO.C,D8*%
X96155000Y-71835000D03*
D23*
X96155000Y-64215000D03*
%TD*%
D22*
%TO.C,D2*%
X58055000Y-52785000D03*
D23*
X58055000Y-45165000D03*
%TD*%
D22*
%TO.C,D7*%
X77148750Y-71835000D03*
D23*
X77148750Y-64215000D03*
%TD*%
D22*
%TO.C,D5*%
X39005000Y-71835000D03*
D23*
X39005000Y-64215000D03*
%TD*%
D22*
%TO.C,D3*%
X77105000Y-52785000D03*
D23*
X77105000Y-45165000D03*
%TD*%
D22*
%TO.C,D9*%
X39005000Y-90885000D03*
D23*
X39005000Y-83265000D03*
%TD*%
M02*
