M48
; DRILL file {KiCad 9.0.7} date 2026-03-31T22:44:22+0200
; FORMAT={-:-/ absolute / metric / decimal}
; #@! TF.CreationDate,2026-03-31T22:44:22+02:00
; #@! TF.GenerationSoftware,Kicad,Pcbnew,9.0.7
; #@! TF.FileFunction,Plated,1,2,PTH
FMAT,2
METRIC
; #@! TA.AperFunction,Plated,PTH,ComponentDrill
T1C0.800
; #@! TA.AperFunction,Plated,PTH,ComponentDrill
T2C1.000
; #@! TA.AperFunction,Plated,PTH,ComponentDrill
T3C1.500
%
G90
G05
T1
X39.005Y-45.165
X39.005Y-52.785
X39.005Y-64.215
X39.005Y-71.835
X39.005Y-83.265
X39.005Y-90.885
X58.055Y-45.165
X58.055Y-52.785
X58.055Y-83.265
X58.055Y-90.885
X58.099Y-64.215
X58.099Y-71.835
X77.105Y-45.165
X77.105Y-52.785
X77.105Y-83.265
X77.105Y-90.885
X77.149Y-64.215
X77.149Y-71.835
X96.155Y-45.165
X96.155Y-52.785
X96.155Y-64.215
X96.155Y-71.835
X96.155Y-83.265
X96.155Y-90.885
T2
X54.455Y-19.85
X54.455Y-22.39
X54.455Y-24.93
X54.455Y-27.47
X62.325Y-17.355
X62.325Y-19.895
X62.325Y-22.435
X62.325Y-24.975
X62.325Y-27.515
X62.325Y-30.055
X62.325Y-32.595
X77.575Y-17.355
X77.575Y-19.895
X77.575Y-22.435
X77.575Y-24.975
X77.575Y-27.515
X77.575Y-30.055
X77.575Y-32.595
X86.705Y-21.45
X86.705Y-23.95
X86.705Y-26.45
X101.205Y-21.45
X101.205Y-26.45
T3
X25.67Y-46.435
X25.67Y-65.485
X25.67Y-84.535
X32.02Y-43.895
X32.02Y-62.945
X32.02Y-81.995
X44.72Y-46.435
X44.72Y-65.485
X44.72Y-84.535
X51.07Y-43.895
X51.07Y-62.945
X51.07Y-81.995
X63.77Y-46.435
X63.77Y-65.485
X63.77Y-84.535
X70.12Y-43.895
X70.12Y-62.945
X70.12Y-81.995
X82.82Y-46.435
X82.82Y-65.485
X82.82Y-84.535
X89.17Y-43.895
X89.17Y-62.945
X89.17Y-81.995
T3
G00X93.555Y-18.35
M15
G01X94.855Y-18.35
M16
G05
G00X93.555Y-29.55
M15
G01X94.855Y-29.55
M16
G05
M30
