%TF.GenerationSoftware,KiCad,Pcbnew,9.0.7*%
%TF.CreationDate,2026-03-31T22:44:10+02:00*%
%TF.ProjectId,Macropad_PCB,4d616372-6f70-4616-945f-5043422e6b69,rev?*%
%TF.SameCoordinates,Original*%
%TF.FileFunction,Copper,L1,Top*%
%TF.FilePolarity,Positive*%
%FSLAX46Y46*%
G04 Gerber Fmt 4.6, Leading zero omitted, Abs format (unit mm)*
G04 Created by KiCad (PCBNEW 9.0.7) date 2026-03-31 22:44:10*
%MOMM*%
%LPD*%
G01*
G04 APERTURE LIST*
G04 Aperture macros list*
%AMRoundRect*
0 Rectangle with rounded corners*
0 $1 Rounding radius*
0 $2 $3 $4 $5 $6 $7 $8 $9 X,Y pos of 4 corners*
0 Add a 4 corners polygon primitive as box body*
4,1,4,$2,$3,$4,$5,$6,$7,$8,$9,$2,$3,0*
0 Add four circle primitives for the rounded corners*
1,1,$1+$1,$2,$3*
1,1,$1+$1,$4,$5*
1,1,$1+$1,$6,$7*
1,1,$1+$1,$8,$9*
0 Add four rect primitives between the rounded corners*
20,1,$1+$1,$2,$3,$4,$5,0*
20,1,$1+$1,$4,$5,$6,$7,0*
20,1,$1+$1,$6,$7,$8,$9,0*
20,1,$1+$1,$8,$9,$2,$3,0*%
G04 Aperture macros list end*
%TA.AperFunction,ComponentPad*%
%ADD10R,3.500000X1.700000*%
%TD*%
%TA.AperFunction,ComponentPad*%
%ADD11O,3.600000X1.700000*%
%TD*%
%TA.AperFunction,ComponentPad*%
%ADD12O,3.700000X1.700000*%
%TD*%
%TA.AperFunction,ComponentPad*%
%ADD13C,2.500000*%
%TD*%
%TA.AperFunction,ComponentPad*%
%ADD14R,1.700000X1.700000*%
%TD*%
%TA.AperFunction,ComponentPad*%
%ADD15O,1.700000X1.700000*%
%TD*%
%TA.AperFunction,ComponentPad*%
%ADD16R,2.000000X2.000000*%
%TD*%
%TA.AperFunction,ComponentPad*%
%ADD17C,2.000000*%
%TD*%
%TA.AperFunction,ComponentPad*%
%ADD18R,3.200000X2.000000*%
%TD*%
%TA.AperFunction,ComponentPad*%
%ADD19RoundRect,0.250000X0.550000X-0.550000X0.550000X0.550000X-0.550000X0.550000X-0.550000X-0.550000X0*%
%TD*%
%TA.AperFunction,ComponentPad*%
%ADD20C,1.600000*%
%TD*%
%TA.AperFunction,Conductor*%
%ADD21C,0.250000*%
%TD*%
G04 APERTURE END LIST*
D10*
%TO.P,U1,1,PA02_A0_D0*%
%TO.N,Col3*%
X61325000Y-17355000D03*
D11*
%TO.P,U1,2,PA4_A1_D1*%
%TO.N,Col2*%
X61325000Y-19895000D03*
%TO.P,U1,3,PA10_A2_D2*%
%TO.N,Col1*%
X61325000Y-22435000D03*
%TO.P,U1,4,PA11_A3_D3*%
%TO.N,Col0*%
X61325000Y-24975000D03*
%TO.P,U1,5,PA8_A4_D4_SDA*%
%TO.N,SDA*%
X61325000Y-27515000D03*
%TO.P,U1,6,PA9_A5_D5_SCL*%
%TO.N,SCL*%
X61325000Y-30055000D03*
%TO.P,U1,7,PB08_A6_D6_TX*%
%TO.N,Row2*%
X61325000Y-32595000D03*
%TO.P,U1,8,PB09_A7_D7_RX*%
%TO.N,Row0*%
X78575000Y-32595000D03*
%TO.P,U1,9,PA7_A8_D8_SCK*%
%TO.N,Row1*%
X78575000Y-30055000D03*
%TO.P,U1,10,PA5_A9_D9_MISO*%
%TO.N,RodeaB*%
X78575000Y-27515000D03*
D12*
%TO.P,U1,11,PA6_A10_D10_MOSI*%
%TO.N,RodeaA*%
X78575000Y-24975000D03*
%TO.P,U1,12,3V3*%
%TO.N,+3.3V*%
X78575000Y-22435000D03*
%TO.P,U1,13,GND*%
%TO.N,GND*%
X78575000Y-19895000D03*
%TO.P,U1,14,5V*%
%TO.N,+5V*%
X78575000Y-17355000D03*
%TD*%
D13*
%TO.P,S7,1,1*%
%TO.N,Col2*%
X63770000Y-65485000D03*
%TO.P,S7,2,2*%
%TO.N,Net-(D7-A)*%
X70120000Y-62945000D03*
%TD*%
%TO.P,S11,1,1*%
%TO.N,Col2*%
X63770000Y-84535000D03*
%TO.P,S11,2,2*%
%TO.N,Net-(D11-A)*%
X70120000Y-81995000D03*
%TD*%
%TO.P,S4,1,1*%
%TO.N,Col3*%
X82820000Y-46435000D03*
%TO.P,S4,2,2*%
%TO.N,Net-(D4-A)*%
X89170000Y-43895000D03*
%TD*%
%TO.P,S6,1,1*%
%TO.N,Col1*%
X44720000Y-65485000D03*
%TO.P,S6,2,2*%
%TO.N,Net-(D6-A)*%
X51070000Y-62945000D03*
%TD*%
%TO.P,S5,1,1*%
%TO.N,Col0*%
X25670000Y-65485000D03*
%TO.P,S5,2,2*%
%TO.N,Net-(D5-A)*%
X32020000Y-62945000D03*
%TD*%
%TO.P,S3,1,1*%
%TO.N,Col2*%
X63770000Y-46435000D03*
%TO.P,S3,2,2*%
%TO.N,Net-(D3-A)*%
X70120000Y-43895000D03*
%TD*%
D14*
%TO.P,J1,1,GND*%
%TO.N,GND*%
X54455000Y-19850000D03*
D15*
%TO.P,J1,2,VCC*%
%TO.N,+3.3V*%
X54455000Y-22390000D03*
%TO.P,J1,3,SCL*%
%TO.N,SCL*%
X54455000Y-24930000D03*
%TO.P,J1,4,SDA*%
%TO.N,SDA*%
X54455000Y-27470000D03*
%TD*%
D13*
%TO.P,S10,1,1*%
%TO.N,Col1*%
X44720000Y-84535000D03*
%TO.P,S10,2,2*%
%TO.N,Net-(D10-A)*%
X51070000Y-81995000D03*
%TD*%
%TO.P,S9,1,1*%
%TO.N,Col0*%
X25670000Y-84535000D03*
%TO.P,S9,2,2*%
%TO.N,Net-(D9-A)*%
X32020000Y-81995000D03*
%TD*%
%TO.P,S2,1,1*%
%TO.N,Col1*%
X44720000Y-46435000D03*
%TO.P,S2,2,2*%
%TO.N,Net-(D2-A)*%
X51070000Y-43895000D03*
%TD*%
%TO.P,S12,1,1*%
%TO.N,Col3*%
X82820000Y-84535000D03*
%TO.P,S12,2,2*%
%TO.N,Net-(D12-A)*%
X89170000Y-81995000D03*
%TD*%
D16*
%TO.P,SW0,A,A*%
%TO.N,RodeaA*%
X86705000Y-21450000D03*
D17*
%TO.P,SW0,B,B*%
%TO.N,RodeaB*%
X86705000Y-26450000D03*
%TO.P,SW0,C,C*%
%TO.N,GND*%
X86705000Y-23950000D03*
D18*
%TO.P,SW0,MP*%
%TO.N,N/C*%
X94205000Y-18350000D03*
X94205000Y-29550000D03*
D17*
%TO.P,SW0,S1*%
X101205000Y-26450000D03*
%TO.P,SW0,S2*%
X101205000Y-21450000D03*
%TD*%
D13*
%TO.P,S1,1,1*%
%TO.N,Col0*%
X25670000Y-46435000D03*
%TO.P,S1,2,2*%
%TO.N,Net-(D1-A)*%
X32020000Y-43895000D03*
%TD*%
%TO.P,S8,1,1*%
%TO.N,Col3*%
X82820000Y-65485000D03*
%TO.P,S8,2,2*%
%TO.N,Net-(D8-A)*%
X89170000Y-62945000D03*
%TD*%
D19*
%TO.P,D10,1,K*%
%TO.N,Row2*%
X58055000Y-90885000D03*
D20*
%TO.P,D10,2,A*%
%TO.N,Net-(D10-A)*%
X58055000Y-83265000D03*
%TD*%
D19*
%TO.P,D4,1,K*%
%TO.N,Row0*%
X96155000Y-52785000D03*
D20*
%TO.P,D4,2,A*%
%TO.N,Net-(D4-A)*%
X96155000Y-45165000D03*
%TD*%
D19*
%TO.P,D6,1,K*%
%TO.N,Row1*%
X58098750Y-71835000D03*
D20*
%TO.P,D6,2,A*%
%TO.N,Net-(D6-A)*%
X58098750Y-64215000D03*
%TD*%
D19*
%TO.P,D11,1,K*%
%TO.N,Row2*%
X77105000Y-90885000D03*
D20*
%TO.P,D11,2,A*%
%TO.N,Net-(D11-A)*%
X77105000Y-83265000D03*
%TD*%
D19*
%TO.P,D12,1,K*%
%TO.N,Row2*%
X96155000Y-90885000D03*
D20*
%TO.P,D12,2,A*%
%TO.N,Net-(D12-A)*%
X96155000Y-83265000D03*
%TD*%
D19*
%TO.P,D1,1,K*%
%TO.N,Row0*%
X39005000Y-52785000D03*
D20*
%TO.P,D1,2,A*%
%TO.N,Net-(D1-A)*%
X39005000Y-45165000D03*
%TD*%
D19*
%TO.P,D8,1,K*%
%TO.N,Row1*%
X96155000Y-71835000D03*
D20*
%TO.P,D8,2,A*%
%TO.N,Net-(D8-A)*%
X96155000Y-64215000D03*
%TD*%
D19*
%TO.P,D2,1,K*%
%TO.N,Row0*%
X58055000Y-52785000D03*
D20*
%TO.P,D2,2,A*%
%TO.N,Net-(D2-A)*%
X58055000Y-45165000D03*
%TD*%
D19*
%TO.P,D7,1,K*%
%TO.N,Row1*%
X77148750Y-71835000D03*
D20*
%TO.P,D7,2,A*%
%TO.N,Net-(D7-A)*%
X77148750Y-64215000D03*
%TD*%
D19*
%TO.P,D5,1,K*%
%TO.N,Row1*%
X39005000Y-71835000D03*
D20*
%TO.P,D5,2,A*%
%TO.N,Net-(D5-A)*%
X39005000Y-64215000D03*
%TD*%
D19*
%TO.P,D3,1,K*%
%TO.N,Row0*%
X77105000Y-52785000D03*
D20*
%TO.P,D3,2,A*%
%TO.N,Net-(D3-A)*%
X77105000Y-45165000D03*
%TD*%
D19*
%TO.P,D9,1,K*%
%TO.N,Row2*%
X39005000Y-90885000D03*
D20*
%TO.P,D9,2,A*%
%TO.N,Net-(D9-A)*%
X39005000Y-83265000D03*
%TD*%
D21*
%TO.N,Net-(D1-A)*%
X37735000Y-43895000D02*
X39005000Y-45165000D01*
X32020000Y-43895000D02*
X37735000Y-43895000D01*
%TO.N,Net-(D2-A)*%
X56785000Y-43895000D02*
X58055000Y-45165000D01*
X51070000Y-43895000D02*
X56785000Y-43895000D01*
%TO.N,Net-(D3-A)*%
X75835000Y-43895000D02*
X77105000Y-45165000D01*
X70120000Y-43895000D02*
X75835000Y-43895000D01*
%TO.N,Net-(D4-A)*%
X89170000Y-43895000D02*
X94885000Y-43895000D01*
X94885000Y-43895000D02*
X96155000Y-45165000D01*
%TO.N,Net-(D5-A)*%
X32020000Y-62945000D02*
X37735000Y-62945000D01*
X37735000Y-62945000D02*
X39005000Y-64215000D01*
%TO.N,Net-(D6-A)*%
X51070000Y-62945000D02*
X56828750Y-62945000D01*
X56828750Y-62945000D02*
X58098750Y-64215000D01*
%TO.N,Net-(D7-A)*%
X70120000Y-62945000D02*
X75878750Y-62945000D01*
X75878750Y-62945000D02*
X77148750Y-64215000D01*
%TO.N,Net-(D8-A)*%
X94885000Y-62945000D02*
X96155000Y-64215000D01*
X89170000Y-62945000D02*
X94885000Y-62945000D01*
%TO.N,Net-(D9-A)*%
X37735000Y-81995000D02*
X39005000Y-83265000D01*
X32020000Y-81995000D02*
X37735000Y-81995000D01*
%TO.N,Net-(D10-A)*%
X56785000Y-81995000D02*
X58055000Y-83265000D01*
X51070000Y-81995000D02*
X56785000Y-81995000D01*
%TO.N,Net-(D11-A)*%
X75835000Y-81995000D02*
X77105000Y-83265000D01*
X70120000Y-81995000D02*
X75835000Y-81995000D01*
%TO.N,Net-(D12-A)*%
X94885000Y-81995000D02*
X96155000Y-83265000D01*
X89170000Y-81995000D02*
X94885000Y-81995000D01*
%TO.N,Row0*%
X83070000Y-32595000D02*
X88450000Y-37975000D01*
X98620000Y-52785000D02*
X96155000Y-52785000D01*
X77575000Y-32595000D02*
X83070000Y-32595000D01*
X97950000Y-37975000D02*
X99950000Y-39975000D01*
X99950000Y-39975000D02*
X99950000Y-51445000D01*
X88450000Y-37975000D02*
X97950000Y-37975000D01*
X58055000Y-52785000D02*
X77105000Y-52785000D01*
X99950000Y-51445000D02*
X99955000Y-51450000D01*
X99955000Y-51450000D02*
X98620000Y-52785000D01*
X39005000Y-52785000D02*
X58055000Y-52785000D01*
X77105000Y-52785000D02*
X96155000Y-52785000D01*
%TO.N,Row1*%
X101955000Y-69950000D02*
X100070000Y-71835000D01*
X83030000Y-30055000D02*
X88950000Y-35975000D01*
X100070000Y-71835000D02*
X96155000Y-71835000D01*
X39005000Y-71835000D02*
X58098750Y-71835000D01*
X99450000Y-35975000D02*
X101955000Y-38480000D01*
X77148750Y-71835000D02*
X96155000Y-71835000D01*
X58098750Y-71835000D02*
X77148750Y-71835000D01*
X88950000Y-35975000D02*
X99450000Y-35975000D01*
X101955000Y-38480000D02*
X101955000Y-69950000D01*
X77575000Y-30055000D02*
X83030000Y-30055000D01*
%TO.N,Row2*%
X62325000Y-34080000D02*
X60955000Y-35450000D01*
X77105000Y-90885000D02*
X96155000Y-90885000D01*
X39005000Y-90900000D02*
X38955000Y-90950000D01*
X21390000Y-90885000D02*
X39005000Y-90885000D01*
X20955000Y-35450000D02*
X18455000Y-37950000D01*
X18455000Y-87950000D02*
X21390000Y-90885000D01*
X58055000Y-90885000D02*
X77105000Y-90885000D01*
X62325000Y-32595000D02*
X62325000Y-34080000D01*
X39005000Y-90885000D02*
X58055000Y-90885000D01*
X60955000Y-35450000D02*
X20955000Y-35450000D01*
X39005000Y-90885000D02*
X39005000Y-90900000D01*
X18455000Y-37950000D02*
X18455000Y-87950000D01*
%TD*%
M02*
