%TF.GenerationSoftware,KiCad,Pcbnew,9.0.7*%
%TF.CreationDate,2026-03-30T19:21:22+02:00*%
%TF.ProjectId,Macropad_PCB,4d616372-6f70-4616-945f-5043422e6b69,rev?*%
%TF.SameCoordinates,Original*%
%TF.FileFunction,Copper,L1,Top*%
%TF.FilePolarity,Positive*%
%FSLAX46Y46*%
G04 Gerber Fmt 4.6, Leading zero omitted, Abs format (unit mm)*
G04 Created by KiCad (PCBNEW 9.0.7) date 2026-03-30 19:21:22*
%MOMM*%
%LPD*%
G01*
G04 APERTURE LIST*
G04 Aperture macros list*
%AMRoundRect*
0 Rectangle with rounded corners*
0 $1 Rounding radius*
0 $2 $3 $4 $5 $6 $7 $8 $9 X,Y pos of 4 corners*
0 Add a 4 corners polygon primitive as box body*
4,1,4,$2,$3,$4,$5,$6,$7,$8,$9,$2,$3,0*
0 Add four circle primitives for the rounded corners*
1,1,$1+$1,$2,$3*
1,1,$1+$1,$4,$5*
1,1,$1+$1,$6,$7*
1,1,$1+$1,$8,$9*
0 Add four rect primitives between the rounded corners*
20,1,$1+$1,$2,$3,$4,$5,0*
20,1,$1+$1,$4,$5,$6,$7,0*
20,1,$1+$1,$6,$7,$8,$9,0*
20,1,$1+$1,$8,$9,$2,$3,0*%
G04 Aperture macros list end*
%TA.AperFunction,ComponentPad*%
%ADD10C,2.500000*%
%TD*%
%TA.AperFunction,ComponentPad*%
%ADD11R,1.700000X1.700000*%
%TD*%
%TA.AperFunction,ComponentPad*%
%ADD12O,1.700000X1.700000*%
%TD*%
%TA.AperFunction,ComponentPad*%
%ADD13R,2.000000X2.000000*%
%TD*%
%TA.AperFunction,ComponentPad*%
%ADD14C,2.000000*%
%TD*%
%TA.AperFunction,ComponentPad*%
%ADD15R,3.200000X2.000000*%
%TD*%
%TA.AperFunction,SMDPad,CuDef*%
%ADD16RoundRect,0.152400X1.063600X0.609600X-1.063600X0.609600X-1.063600X-0.609600X1.063600X-0.609600X0*%
%TD*%
%TA.AperFunction,ComponentPad*%
%ADD17C,1.524000*%
%TD*%
%TA.AperFunction,SMDPad,CuDef*%
%ADD18RoundRect,0.152400X-1.063600X-0.609600X1.063600X-0.609600X1.063600X0.609600X-1.063600X0.609600X0*%
%TD*%
%TA.AperFunction,ComponentPad*%
%ADD19RoundRect,0.250000X0.550000X-0.550000X0.550000X0.550000X-0.550000X0.550000X-0.550000X-0.550000X0*%
%TD*%
%TA.AperFunction,ComponentPad*%
%ADD20C,1.600000*%
%TD*%
%TA.AperFunction,Conductor*%
%ADD21C,0.250000*%
%TD*%
G04 APERTURE END LIST*
D10*
%TO.P,S7,1,1*%
%TO.N,Col2*%
X63770000Y-65485000D03*
%TO.P,S7,2,2*%
%TO.N,Net-(D7-A)*%
X70120000Y-62945000D03*
%TD*%
%TO.P,S11,1,1*%
%TO.N,Col2*%
X63770000Y-84535000D03*
%TO.P,S11,2,2*%
%TO.N,Net-(D11-A)*%
X70120000Y-81995000D03*
%TD*%
%TO.P,S4,1,1*%
%TO.N,Col3*%
X82820000Y-46435000D03*
%TO.P,S4,2,2*%
%TO.N,Net-(D4-A)*%
X89170000Y-43895000D03*
%TD*%
%TO.P,S6,1,1*%
%TO.N,Col1*%
X44720000Y-65485000D03*
%TO.P,S6,2,2*%
%TO.N,Net-(D6-A)*%
X51070000Y-62945000D03*
%TD*%
%TO.P,S5,1,1*%
%TO.N,Col0*%
X25670000Y-65485000D03*
%TO.P,S5,2,2*%
%TO.N,Net-(D5-A)*%
X32020000Y-62945000D03*
%TD*%
%TO.P,S3,1,1*%
%TO.N,Col2*%
X63770000Y-46435000D03*
%TO.P,S3,2,2*%
%TO.N,Net-(D3-A)*%
X70120000Y-43895000D03*
%TD*%
D11*
%TO.P,J1,1,GND*%
%TO.N,GND*%
X54455000Y-22330000D03*
D12*
%TO.P,J1,2,VCC*%
%TO.N,+3.3V*%
X54455000Y-24870000D03*
%TO.P,J1,3,SCL*%
%TO.N,SCL*%
X54455000Y-27410000D03*
%TO.P,J1,4,SDA*%
%TO.N,SDA*%
X54455000Y-29950000D03*
%TD*%
D10*
%TO.P,S10,1,1*%
%TO.N,Col1*%
X44720000Y-84535000D03*
%TO.P,S10,2,2*%
%TO.N,Net-(D10-A)*%
X51070000Y-81995000D03*
%TD*%
%TO.P,S9,1,1*%
%TO.N,Col0*%
X25670000Y-84535000D03*
%TO.P,S9,2,2*%
%TO.N,Net-(D9-A)*%
X32020000Y-81995000D03*
%TD*%
%TO.P,S2,1,1*%
%TO.N,Col1*%
X44720000Y-46435000D03*
%TO.P,S2,2,2*%
%TO.N,Net-(D2-A)*%
X51070000Y-43895000D03*
%TD*%
%TO.P,S12,1,1*%
%TO.N,Col3*%
X82820000Y-84535000D03*
%TO.P,S12,2,2*%
%TO.N,Net-(D12-A)*%
X89170000Y-81995000D03*
%TD*%
D13*
%TO.P,SW0,A,A*%
%TO.N,RodeaA*%
X86705000Y-23950000D03*
D14*
%TO.P,SW0,B,B*%
%TO.N,RodeaB*%
X86705000Y-28950000D03*
%TO.P,SW0,C,C*%
%TO.N,GND*%
X86705000Y-26450000D03*
D15*
%TO.P,SW0,MP*%
%TO.N,N/C*%
X94205000Y-20850000D03*
X94205000Y-32050000D03*
D14*
%TO.P,SW0,S1*%
X101205000Y-28950000D03*
%TO.P,SW0,S2*%
X101205000Y-23950000D03*
%TD*%
D10*
%TO.P,S1,1,1*%
%TO.N,Col0*%
X25670000Y-46435000D03*
%TO.P,S1,2,2*%
%TO.N,Net-(D1-A)*%
X32020000Y-43895000D03*
%TD*%
%TO.P,S8,1,1*%
%TO.N,Col3*%
X82820000Y-65485000D03*
%TO.P,S8,2,2*%
%TO.N,Net-(D8-A)*%
X89170000Y-62945000D03*
%TD*%
D16*
%TO.P,U1,1,PA02_A0_D0*%
%TO.N,Col3*%
X61495000Y-17355000D03*
D17*
X62330000Y-17355000D03*
D16*
%TO.P,U1,2,PA4_A1_D1*%
%TO.N,Col2*%
X61495000Y-19895000D03*
D17*
X62330000Y-19895000D03*
D16*
%TO.P,U1,3,PA10_A2_D2*%
%TO.N,Col1*%
X61495000Y-22435000D03*
D17*
X62330000Y-22435000D03*
D16*
%TO.P,U1,4,PA11_A3_D3*%
%TO.N,Col0*%
X61495000Y-24975000D03*
D17*
X62330000Y-24975000D03*
D16*
%TO.P,U1,5,PA8_A4_D4_SDA*%
%TO.N,SDA*%
X61495000Y-27515000D03*
D17*
X62330000Y-27515000D03*
D16*
%TO.P,U1,6,PA9_A5_D5_SCL*%
%TO.N,SCL*%
X61495000Y-30055000D03*
D17*
X62330000Y-30055000D03*
D16*
%TO.P,U1,7,PB08_A6_D6_TX*%
%TO.N,Row2*%
X61495000Y-32595000D03*
D17*
X62330000Y-32595000D03*
%TO.P,U1,8,PB09_A7_D7_RX*%
%TO.N,Row0*%
X77570000Y-32595000D03*
D18*
X78405000Y-32595000D03*
D17*
%TO.P,U1,9,PA7_A8_D8_SCK*%
%TO.N,Row1*%
X77570000Y-30055000D03*
D18*
X78405000Y-30055000D03*
D17*
%TO.P,U1,10,PA5_A9_D9_MISO*%
%TO.N,RodeaB*%
X77570000Y-27515000D03*
D18*
X78405000Y-27515000D03*
D17*
%TO.P,U1,11,PA6_A10_D10_MOSI*%
%TO.N,RodeaA*%
X77570000Y-24975000D03*
D18*
X78405000Y-24975000D03*
D17*
%TO.P,U1,12,3V3*%
%TO.N,+3.3V*%
X77570000Y-22435000D03*
D18*
X78405000Y-22435000D03*
D17*
%TO.P,U1,13,GND*%
%TO.N,GND*%
X77570000Y-19895000D03*
D18*
X78405000Y-19895000D03*
D17*
%TO.P,U1,14,5V*%
%TO.N,+5V*%
X77570000Y-17355000D03*
D18*
X78405000Y-17355000D03*
%TD*%
D19*
%TO.P,D10,1,K*%
%TO.N,Row2*%
X58055000Y-90885000D03*
D20*
%TO.P,D10,2,A*%
%TO.N,Net-(D10-A)*%
X58055000Y-83265000D03*
%TD*%
D19*
%TO.P,D4,1,K*%
%TO.N,Row0*%
X96155000Y-52785000D03*
D20*
%TO.P,D4,2,A*%
%TO.N,Net-(D4-A)*%
X96155000Y-45165000D03*
%TD*%
D19*
%TO.P,D6,1,K*%
%TO.N,Row1*%
X58098750Y-71835000D03*
D20*
%TO.P,D6,2,A*%
%TO.N,Net-(D6-A)*%
X58098750Y-64215000D03*
%TD*%
D19*
%TO.P,D11,1,K*%
%TO.N,Row2*%
X77105000Y-90885000D03*
D20*
%TO.P,D11,2,A*%
%TO.N,Net-(D11-A)*%
X77105000Y-83265000D03*
%TD*%
D19*
%TO.P,D12,1,K*%
%TO.N,Row2*%
X96155000Y-90885000D03*
D20*
%TO.P,D12,2,A*%
%TO.N,Net-(D12-A)*%
X96155000Y-83265000D03*
%TD*%
D19*
%TO.P,D1,1,K*%
%TO.N,Row0*%
X39005000Y-52785000D03*
D20*
%TO.P,D1,2,A*%
%TO.N,Net-(D1-A)*%
X39005000Y-45165000D03*
%TD*%
D19*
%TO.P,D8,1,K*%
%TO.N,Row1*%
X96155000Y-71835000D03*
D20*
%TO.P,D8,2,A*%
%TO.N,Net-(D8-A)*%
X96155000Y-64215000D03*
%TD*%
D19*
%TO.P,D2,1,K*%
%TO.N,Row0*%
X58055000Y-52785000D03*
D20*
%TO.P,D2,2,A*%
%TO.N,Net-(D2-A)*%
X58055000Y-45165000D03*
%TD*%
D19*
%TO.P,D7,1,K*%
%TO.N,Row1*%
X77148750Y-71835000D03*
D20*
%TO.P,D7,2,A*%
%TO.N,Net-(D7-A)*%
X77148750Y-64215000D03*
%TD*%
D19*
%TO.P,D5,1,K*%
%TO.N,Row1*%
X39005000Y-71835000D03*
D20*
%TO.P,D5,2,A*%
%TO.N,Net-(D5-A)*%
X39005000Y-64215000D03*
%TD*%
D19*
%TO.P,D3,1,K*%
%TO.N,Row0*%
X77105000Y-52785000D03*
D20*
%TO.P,D3,2,A*%
%TO.N,Net-(D3-A)*%
X77105000Y-45165000D03*
%TD*%
D19*
%TO.P,D9,1,K*%
%TO.N,Row2*%
X39005000Y-90885000D03*
D20*
%TO.P,D9,2,A*%
%TO.N,Net-(D9-A)*%
X39005000Y-83265000D03*
%TD*%
D21*
%TO.N,Net-(D1-A)*%
X37735000Y-43895000D02*
X39005000Y-45165000D01*
X32020000Y-43895000D02*
X37735000Y-43895000D01*
%TO.N,Net-(D2-A)*%
X56785000Y-43895000D02*
X58055000Y-45165000D01*
X51070000Y-43895000D02*
X56785000Y-43895000D01*
%TO.N,Net-(D3-A)*%
X75835000Y-43895000D02*
X77105000Y-45165000D01*
X70120000Y-43895000D02*
X75835000Y-43895000D01*
%TO.N,Net-(D4-A)*%
X89170000Y-43895000D02*
X94885000Y-43895000D01*
X94885000Y-43895000D02*
X96155000Y-45165000D01*
%TO.N,Net-(D5-A)*%
X32020000Y-62945000D02*
X37735000Y-62945000D01*
X37735000Y-62945000D02*
X39005000Y-64215000D01*
%TO.N,Net-(D6-A)*%
X51070000Y-62945000D02*
X56828750Y-62945000D01*
X56828750Y-62945000D02*
X58098750Y-64215000D01*
%TO.N,Net-(D7-A)*%
X70120000Y-62945000D02*
X75878750Y-62945000D01*
X75878750Y-62945000D02*
X77148750Y-64215000D01*
%TO.N,Net-(D8-A)*%
X94885000Y-62945000D02*
X96155000Y-64215000D01*
X89170000Y-62945000D02*
X94885000Y-62945000D01*
%TO.N,Net-(D9-A)*%
X37735000Y-81995000D02*
X39005000Y-83265000D01*
X32020000Y-81995000D02*
X37735000Y-81995000D01*
%TO.N,Net-(D10-A)*%
X56785000Y-81995000D02*
X58055000Y-83265000D01*
X51070000Y-81995000D02*
X56785000Y-81995000D01*
%TO.N,Net-(D11-A)*%
X75835000Y-81995000D02*
X77105000Y-83265000D01*
X70120000Y-81995000D02*
X75835000Y-81995000D01*
%TO.N,Net-(D12-A)*%
X94885000Y-81995000D02*
X96155000Y-83265000D01*
X89170000Y-81995000D02*
X94885000Y-81995000D01*
%TO.N,Row0*%
X83070000Y-32595000D02*
X88450000Y-37975000D01*
X98620000Y-52785000D02*
X96155000Y-52785000D01*
X77575000Y-32595000D02*
X83070000Y-32595000D01*
X97950000Y-37975000D02*
X99950000Y-39975000D01*
X99950000Y-39975000D02*
X99950000Y-51445000D01*
X88450000Y-37975000D02*
X97950000Y-37975000D01*
X58055000Y-52785000D02*
X77105000Y-52785000D01*
X99950000Y-51445000D02*
X99955000Y-51450000D01*
X99955000Y-51450000D02*
X98620000Y-52785000D01*
X39005000Y-52785000D02*
X58055000Y-52785000D01*
X77105000Y-52785000D02*
X96155000Y-52785000D01*
%TO.N,Row1*%
X101955000Y-69950000D02*
X100070000Y-71835000D01*
X83030000Y-30055000D02*
X88950000Y-35975000D01*
X100070000Y-71835000D02*
X96155000Y-71835000D01*
X39005000Y-71835000D02*
X58098750Y-71835000D01*
X99450000Y-35975000D02*
X101955000Y-38480000D01*
X77148750Y-71835000D02*
X96155000Y-71835000D01*
X58098750Y-71835000D02*
X77148750Y-71835000D01*
X88950000Y-35975000D02*
X99450000Y-35975000D01*
X101955000Y-38480000D02*
X101955000Y-69950000D01*
X77575000Y-30055000D02*
X83030000Y-30055000D01*
%TO.N,Row2*%
X62325000Y-34080000D02*
X60955000Y-35450000D01*
X77105000Y-90885000D02*
X96155000Y-90885000D01*
X39005000Y-90900000D02*
X38955000Y-90950000D01*
X21390000Y-90885000D02*
X39005000Y-90885000D01*
X20955000Y-35450000D02*
X18455000Y-37950000D01*
X18455000Y-87950000D02*
X21390000Y-90885000D01*
X58055000Y-90885000D02*
X77105000Y-90885000D01*
X62325000Y-32595000D02*
X62325000Y-34080000D01*
X39005000Y-90885000D02*
X58055000Y-90885000D01*
X60955000Y-35450000D02*
X20955000Y-35450000D01*
X39005000Y-90885000D02*
X39005000Y-90900000D01*
X18455000Y-37950000D02*
X18455000Y-87950000D01*
%TD*%
%TA.AperFunction,Conductor*%
%TO.N,GND*%
G36*
X105897539Y-13970185D02*
G01*
X105943294Y-14022989D01*
X105954500Y-14074500D01*
X105954500Y-98325500D01*
X105934815Y-98392539D01*
X105882011Y-98438294D01*
X105830500Y-98449500D01*
X16079500Y-98449500D01*
X16012461Y-98429815D01*
X15966706Y-98377011D01*
X15955500Y-98325500D01*
X15955500Y-37888394D01*
X17829500Y-37888394D01*
X17829500Y-88011611D01*
X17853535Y-88132444D01*
X17853540Y-88132461D01*
X17900685Y-88246280D01*
X17900687Y-88246283D01*
X17900688Y-88246286D01*
X17934915Y-88297509D01*
X17969142Y-88348733D01*
X18056267Y-88435858D01*
X18056270Y-88435860D01*
X18063554Y-88443144D01*
X20901016Y-91280606D01*
X20901045Y-91280637D01*
X20991264Y-91370856D01*
X20991267Y-91370858D01*
X21068190Y-91422256D01*
X21093715Y-91439312D01*
X21160397Y-91466932D01*
X21164185Y-91468501D01*
X21164193Y-91468505D01*
X21201427Y-91483927D01*
X21207548Y-91486463D01*
X21267971Y-91498481D01*
X21328393Y-91510500D01*
X21328394Y-91510500D01*
X37599846Y-91510500D01*
X37666885Y-91530185D01*
X37712640Y-91582989D01*
X37717552Y-91595496D01*
X37770186Y-91754334D01*
X37862288Y-91903656D01*
X37986344Y-92027712D01*
X38135666Y-92119814D01*
X38302203Y-92174999D01*
X38404991Y-92185500D01*
X39605008Y-92185499D01*
X39707797Y-92174999D01*
X39874334Y-92119814D01*
X40023656Y-92027712D01*
X40147712Y-91903656D01*
X40239814Y-91754334D01*
X40292448Y-91595493D01*
X40332219Y-91538051D01*
X40396735Y-91511228D01*
X40410153Y-91510500D01*
X56649846Y-91510500D01*
X56716885Y-91530185D01*
X56762640Y-91582989D01*
X56767552Y-91595496D01*
X56820186Y-91754334D01*
X56912288Y-91903656D01*
X57036344Y-92027712D01*
X57185666Y-92119814D01*
X57352203Y-92174999D01*
X57454991Y-92185500D01*
X58655008Y-92185499D01*
X58757797Y-92174999D01*
X58924334Y-92119814D01*
X59073656Y-92027712D01*
X59197712Y-91903656D01*
X59289814Y-91754334D01*
X59342448Y-91595493D01*
X59382219Y-91538051D01*
X59446735Y-91511228D01*
X59460153Y-91510500D01*
X75699846Y-91510500D01*
X75766885Y-91530185D01*
X75812640Y-91582989D01*
X75817552Y-91595496D01*
X75870186Y-91754334D01*
X75962288Y-91903656D01*
X76086344Y-92027712D01*
X76235666Y-92119814D01*
X76402203Y-92174999D01*
X76504991Y-92185500D01*
X77705008Y-92185499D01*
X77807797Y-92174999D01*
X77974334Y-92119814D01*
X78123656Y-92027712D01*
X78247712Y-91903656D01*
X78339814Y-91754334D01*
X78392448Y-91595493D01*
X78432219Y-91538051D01*
X78496735Y-91511228D01*
X78510153Y-91510500D01*
X94749846Y-91510500D01*
X94816885Y-91530185D01*
X94862640Y-91582989D01*
X94867552Y-91595496D01*
X94920186Y-91754334D01*
X95012288Y-91903656D01*
X95136344Y-92027712D01*
X95285666Y-92119814D01*
X95452203Y-92174999D01*
X95554991Y-92185500D01*
X96755008Y-92185499D01*
X96857797Y-92174999D01*
X97024334Y-92119814D01*
X97173656Y-92027712D01*
X97297712Y-91903656D01*
X97389814Y-91754334D01*
X97444999Y-91587797D01*
X97455500Y-91485009D01*
X97455499Y-90284992D01*
X97444999Y-90182203D01*
X97389814Y-90015666D01*
X97297712Y-89866344D01*
X97173656Y-89742288D01*
X97024334Y-89650186D01*
X96857797Y-89595001D01*
X96857795Y-89595000D01*
X96755010Y-89584500D01*
X95554998Y-89584500D01*
X95554981Y-89584501D01*
X95452203Y-89595000D01*
X95452200Y-89595001D01*
X95285668Y-89650185D01*
X95285663Y-89650187D01*
X95136342Y-89742289D01*
X95012289Y-89866342D01*
X94920187Y-90015663D01*
X94920186Y-90015666D01*
X94867551Y-90174506D01*
X94827781Y-90231949D01*
X94763265Y-90258772D01*
X94749847Y-90259500D01*
X78510154Y-90259500D01*
X78443115Y-90239815D01*
X78397360Y-90187011D01*
X78392448Y-90174504D01*
X78380212Y-90137580D01*
X78339814Y-90015666D01*
X78247712Y-89866344D01*
X78123656Y-89742288D01*
X77974334Y-89650186D01*
X77807797Y-89595001D01*
X77807795Y-89595000D01*
X77705010Y-89584500D01*
X76504998Y-89584500D01*
X76504981Y-89584501D01*
X76402203Y-89595000D01*
X76402200Y-89595001D01*
X76235668Y-89650185D01*
X76235663Y-89650187D01*
X76086342Y-89742289D01*
X75962289Y-89866342D01*
X75870187Y-90015663D01*
X75870186Y-90015666D01*
X75817551Y-90174506D01*
X75777781Y-90231949D01*
X75713265Y-90258772D01*
X75699847Y-90259500D01*
X59460154Y-90259500D01*
X59393115Y-90239815D01*
X59347360Y-90187011D01*
X59342448Y-90174504D01*
X59330212Y-90137580D01*
X59289814Y-90015666D01*
X59197712Y-89866344D01*
X59073656Y-89742288D01*
X58924334Y-89650186D01*
X58757797Y-89595001D01*
X58757795Y-89595000D01*
X58655010Y-89584500D01*
X57454998Y-89584500D01*
X57454981Y-89584501D01*
X57352203Y-89595000D01*
X57352200Y-89595001D01*
X57185668Y-89650185D01*
X57185663Y-89650187D01*
X57036342Y-89742289D01*
X56912289Y-89866342D01*
X56820187Y-90015663D01*
X56820186Y-90015666D01*
X56767551Y-90174506D01*
X56727781Y-90231949D01*
X56663265Y-90258772D01*
X56649847Y-90259500D01*
X40410154Y-90259500D01*
X40343115Y-90239815D01*
X40297360Y-90187011D01*
X40292448Y-90174504D01*
X40280212Y-90137580D01*
X40239814Y-90015666D01*
X40147712Y-89866344D01*
X40023656Y-89742288D01*
X39874334Y-89650186D01*
X39707797Y-89595001D01*
X39707795Y-89595000D01*
X39605010Y-89584500D01*
X38404998Y-89584500D01*
X38404981Y-89584501D01*
X38302203Y-89595000D01*
X38302200Y-89595001D01*
X38135668Y-89650185D01*
X38135663Y-89650187D01*
X37986342Y-89742289D01*
X37862289Y-89866342D01*
X37770187Y-90015663D01*
X37770186Y-90015666D01*
X37717551Y-90174506D01*
X37677781Y-90231949D01*
X37613265Y-90258772D01*
X37599847Y-90259500D01*
X21700452Y-90259500D01*
X21633413Y-90239815D01*
X21612771Y-90223181D01*
X19116819Y-87727229D01*
X19083334Y-87665906D01*
X19080500Y-87639548D01*
X19080500Y-86986421D01*
X23274500Y-86986421D01*
X23274500Y-87163578D01*
X23302214Y-87338556D01*
X23356956Y-87507039D01*
X23356957Y-87507042D01*
X23437386Y-87664890D01*
X23541517Y-87808214D01*
X23666786Y-87933483D01*
X23810110Y-88037614D01*
X23878577Y-88072500D01*
X23967957Y-88118042D01*
X23967960Y-88118043D01*
X24052201Y-88145414D01*
X24136445Y-88172786D01*
X24311421Y-88200500D01*
X24311422Y-88200500D01*
X24488578Y-88200500D01*
X24488579Y-88200500D01*
X24663555Y-88172786D01*
X24832042Y-88118042D01*
X24989890Y-88037614D01*
X25133214Y-87933483D01*
X25258483Y-87808214D01*
X25362614Y-87664890D01*
X25443042Y-87507042D01*
X25497786Y-87338555D01*
X25525500Y-87163579D01*
X25525500Y-86986421D01*
X25516165Y-86927486D01*
X27229500Y-86927486D01*
X27229500Y-87222513D01*
X27244778Y-87338555D01*
X27268007Y-87514993D01*
X27324875Y-87727229D01*
X27344361Y-87799951D01*
X27344364Y-87799961D01*
X27457254Y-88072500D01*
X27457258Y-88072510D01*
X27604761Y-88327993D01*
X27784352Y-88562040D01*
X27784358Y-88562047D01*
X27992952Y-88770641D01*
X27992959Y-88770647D01*
X28227006Y-88950238D01*
X28482489Y-89097741D01*
X28482490Y-89097741D01*
X28482493Y-89097743D01*
X28755048Y-89210639D01*
X29040007Y-89286993D01*
X29332494Y-89325500D01*
X29332501Y-89325500D01*
X29627499Y-89325500D01*
X29627506Y-89325500D01*
X29919993Y-89286993D01*
X30204952Y-89210639D01*
X30477507Y-89097743D01*
X30732994Y-88950238D01*
X30967042Y-88770646D01*
X31175646Y-88562042D01*
X31355238Y-88327994D01*
X31502743Y-88072507D01*
X31615639Y-87799952D01*
X31691993Y-87514993D01*
X31730500Y-87222506D01*
X31730500Y-86986421D01*
X33434500Y-86986421D01*
X33434500Y-87163578D01*
X33462214Y-87338556D01*
X33516956Y-87507039D01*
X33516957Y-87507042D01*
X33597386Y-87664890D01*
X33701517Y-87808214D01*
X33826786Y-87933483D01*
X33970110Y-88037614D01*
X34038577Y-88072500D01*
X34127957Y-88118042D01*
X34127960Y-88118043D01*
X34212201Y-88145414D01*
X34296445Y-88172786D01*
X34471421Y-88200500D01*
X34471422Y-88200500D01*
X34648578Y-88200500D01*
X34648579Y-88200500D01*
X34823555Y-88172786D01*
X34992042Y-88118042D01*
X35149890Y-88037614D01*
X35293214Y-87933483D01*
X35418483Y-87808214D01*
X35522614Y-87664890D01*
X35603042Y-87507042D01*
X35657786Y-87338555D01*
X35685500Y-87163579D01*
X35685500Y-86986421D01*
X42324500Y-86986421D01*
X42324500Y-87163578D01*
X42352214Y-87338556D01*
X42406956Y-87507039D01*
X42406957Y-87507042D01*
X42487386Y-87664890D01*
X42591517Y-87808214D01*
X42716786Y-87933483D01*
X42860110Y-88037614D01*
X42928577Y-88072500D01*
X43017957Y-88118042D01*
X43017960Y-88118043D01*
X43102201Y-88145414D01*
X43186445Y-88172786D01*
X43361421Y-88200500D01*
X43361422Y-88200500D01*
X43538578Y-88200500D01*
X43538579Y-88200500D01*
X43713555Y-88172786D01*
X43882042Y-88118042D01*
X44039890Y-88037614D01*
X44183214Y-87933483D01*
X44308483Y-87808214D01*
X44412614Y-87664890D01*
X44493042Y-87507042D01*
X44547786Y-87338555D01*
X44575500Y-87163579D01*
X44575500Y-86986421D01*
X44566165Y-86927486D01*
X46279500Y-86927486D01*
X46279500Y-87222513D01*
X46294778Y-87338555D01*
X46318007Y-87514993D01*
X46374875Y-87727229D01*
X46394361Y-87799951D01*
X46394364Y-87799961D01*
X46507254Y-88072500D01*
X46507258Y-88072510D01*
X46654761Y-88327993D01*
X46834352Y-88562040D01*
X46834358Y-88562047D01*
X47042952Y-88770641D01*
X47042959Y-88770647D01*
X47277006Y-88950238D01*
X47532489Y-89097741D01*
X47532490Y-89097741D01*
X47532493Y-89097743D01*
X47805048Y-89210639D01*
X48090007Y-89286993D01*
X48382494Y-89325500D01*
X48382501Y-89325500D01*
X48677499Y-89325500D01*
X48677506Y-89325500D01*
X48969993Y-89286993D01*
X49254952Y-89210639D01*
X49527507Y-89097743D01*
X49782994Y-88950238D01*
X50017042Y-88770646D01*
X50225646Y-88562042D01*
X50405238Y-88327994D01*
X50552743Y-88072507D01*
X50665639Y-87799952D01*
X50741993Y-87514993D01*
X50780500Y-87222506D01*
X50780500Y-86986421D01*
X52484500Y-86986421D01*
X52484500Y-87163578D01*
X52512214Y-87338556D01*
X52566956Y-87507039D01*
X52566957Y-87507042D01*
X52647386Y-87664890D01*
X52751517Y-87808214D01*
X52876786Y-87933483D01*
X53020110Y-88037614D01*
X53088577Y-88072500D01*
X53177957Y-88118042D01*
X53177960Y-88118043D01*
X53262201Y-88145414D01*
X53346445Y-88172786D01*
X53521421Y-88200500D01*
X53521422Y-88200500D01*
X53698578Y-88200500D01*
X53698579Y-88200500D01*
X53873555Y-88172786D01*
X54042042Y-88118042D01*
X54199890Y-88037614D01*
X54343214Y-87933483D01*
X54468483Y-87808214D01*
X54572614Y-87664890D01*
X54653042Y-87507042D01*
X54707786Y-87338555D01*
X54735500Y-87163579D01*
X54735500Y-86986421D01*
X61374500Y-86986421D01*
X61374500Y-87163578D01*
X61402214Y-87338556D01*
X61456956Y-87507039D01*
X61456957Y-87507042D01*
X61537386Y-87664890D01*
X61641517Y-87808214D01*
X61766786Y-87933483D01*
X61910110Y-88037614D01*
X61978577Y-88072500D01*
X62067957Y-88118042D01*
X62067960Y-88118043D01*
X62152201Y-88145414D01*
X62236445Y-88172786D01*
X62411421Y-88200500D01*
X62411422Y-88200500D01*
X62588578Y-88200500D01*
X62588579Y-88200500D01*
X62763555Y-88172786D01*
X62932042Y-88118042D01*
X63089890Y-88037614D01*
X63233214Y-87933483D01*
X63358483Y-87808214D01*
X63462614Y-87664890D01*
X63543042Y-87507042D01*
X63597786Y-87338555D01*
X63625500Y-87163579D01*
X63625500Y-86986421D01*
X63616165Y-86927486D01*
X65329500Y-86927486D01*
X65329500Y-87222513D01*
X65344778Y-87338555D01*
X65368007Y-87514993D01*
X65424875Y-87727229D01*
X65444361Y-87799951D01*
X65444364Y-87799961D01*
X65557254Y-88072500D01*
X65557258Y-88072510D01*
X65704761Y-88327993D01*
X65884352Y-88562040D01*
X65884358Y-88562047D01*
X66092952Y-88770641D01*
X66092959Y-88770647D01*
X66327006Y-88950238D01*
X66582489Y-89097741D01*
X66582490Y-89097741D01*
X66582493Y-89097743D01*
X66855048Y-89210639D01*
X67140007Y-89286993D01*
X67432494Y-89325500D01*
X67432501Y-89325500D01*
X67727499Y-89325500D01*
X67727506Y-89325500D01*
X68019993Y-89286993D01*
X68304952Y-89210639D01*
X68577507Y-89097743D01*
X68832994Y-88950238D01*
X69067042Y-88770646D01*
X69275646Y-88562042D01*
X69455238Y-88327994D01*
X69602743Y-88072507D01*
X69715639Y-87799952D01*
X69791993Y-87514993D01*
X69830500Y-87222506D01*
X69830500Y-86986421D01*
X71534500Y-86986421D01*
X71534500Y-87163578D01*
X71562214Y-87338556D01*
X71616956Y-87507039D01*
X71616957Y-87507042D01*
X71697386Y-87664890D01*
X71801517Y-87808214D01*
X71926786Y-87933483D01*
X72070110Y-88037614D01*
X72138577Y-88072500D01*
X72227957Y-88118042D01*
X72227960Y-88118043D01*
X72312201Y-88145414D01*
X72396445Y-88172786D01*
X72571421Y-88200500D01*
X72571422Y-88200500D01*
X72748578Y-88200500D01*
X72748579Y-88200500D01*
X72923555Y-88172786D01*
X73092042Y-88118042D01*
X73249890Y-88037614D01*
X73393214Y-87933483D01*
X73518483Y-87808214D01*
X73622614Y-87664890D01*
X73703042Y-87507042D01*
X73757786Y-87338555D01*
X73785500Y-87163579D01*
X73785500Y-86986421D01*
X80424500Y-86986421D01*
X80424500Y-87163578D01*
X80452214Y-87338556D01*
X80506956Y-87507039D01*
X80506957Y-87507042D01*
X80587386Y-87664890D01*
X80691517Y-87808214D01*
X80816786Y-87933483D01*
X80960110Y-88037614D01*
X81028577Y-88072500D01*
X81117957Y-88118042D01*
X81117960Y-88118043D01*
X81202201Y-88145414D01*
X81286445Y-88172786D01*
X81461421Y-88200500D01*
X81461422Y-88200500D01*
X81638578Y-88200500D01*
X81638579Y-88200500D01*
X81813555Y-88172786D01*
X81982042Y-88118042D01*
X82139890Y-88037614D01*
X82283214Y-87933483D01*
X82408483Y-87808214D01*
X82512614Y-87664890D01*
X82593042Y-87507042D01*
X82647786Y-87338555D01*
X82675500Y-87163579D01*
X82675500Y-86986421D01*
X82666165Y-86927486D01*
X84379500Y-86927486D01*
X84379500Y-87222513D01*
X84394778Y-87338555D01*
X84418007Y-87514993D01*
X84474875Y-87727229D01*
X84494361Y-87799951D01*
X84494364Y-87799961D01*
X84607254Y-88072500D01*
X84607258Y-88072510D01*
X84754761Y-88327993D01*
X84934352Y-88562040D01*
X84934358Y-88562047D01*
X85142952Y-88770641D01*
X85142959Y-88770647D01*
X85377006Y-88950238D01*
X85632489Y-89097741D01*
X85632490Y-89097741D01*
X85632493Y-89097743D01*
X85905048Y-89210639D01*
X86190007Y-89286993D01*
X86482494Y-89325500D01*
X86482501Y-89325500D01*
X86777499Y-89325500D01*
X86777506Y-89325500D01*
X87069993Y-89286993D01*
X87354952Y-89210639D01*
X87627507Y-89097743D01*
X87882994Y-88950238D01*
X88117042Y-88770646D01*
X88325646Y-88562042D01*
X88505238Y-88327994D01*
X88652743Y-88072507D01*
X88765639Y-87799952D01*
X88841993Y-87514993D01*
X88880500Y-87222506D01*
X88880500Y-86986421D01*
X90584500Y-86986421D01*
X90584500Y-87163578D01*
X90612214Y-87338556D01*
X90666956Y-87507039D01*
X90666957Y-87507042D01*
X90747386Y-87664890D01*
X90851517Y-87808214D01*
X90976786Y-87933483D01*
X91120110Y-88037614D01*
X91188577Y-88072500D01*
X91277957Y-88118042D01*
X91277960Y-88118043D01*
X91362201Y-88145414D01*
X91446445Y-88172786D01*
X91621421Y-88200500D01*
X91621422Y-88200500D01*
X91798578Y-88200500D01*
X91798579Y-88200500D01*
X91973555Y-88172786D01*
X92142042Y-88118042D01*
X92299890Y-88037614D01*
X92443214Y-87933483D01*
X92568483Y-87808214D01*
X92672614Y-87664890D01*
X92753042Y-87507042D01*
X92807786Y-87338555D01*
X92835500Y-87163579D01*
X92835500Y-86986421D01*
X92807786Y-86811445D01*
X92753042Y-86642958D01*
X92753042Y-86642957D01*
X92672613Y-86485109D01*
X92661518Y-86469838D01*
X92568483Y-86341786D01*
X92443214Y-86216517D01*
X92299890Y-86112386D01*
X92291953Y-86108342D01*
X92142042Y-86031957D01*
X92142039Y-86031956D01*
X91973556Y-85977214D01*
X91886067Y-85963357D01*
X91798579Y-85949500D01*
X91621421Y-85949500D01*
X91563095Y-85958738D01*
X91446443Y-85977214D01*
X91277960Y-86031956D01*
X91277957Y-86031957D01*
X91120109Y-86112386D01*
X91038338Y-86171796D01*
X90976786Y-86216517D01*
X90976784Y-86216519D01*
X90976783Y-86216519D01*
X90851519Y-86341783D01*
X90851519Y-86341784D01*
X90851517Y-86341786D01*
X90806796Y-86403338D01*
X90747386Y-86485109D01*
X90666957Y-86642957D01*
X90666956Y-86642960D01*
X90612214Y-86811443D01*
X90584500Y-86986421D01*
X88880500Y-86986421D01*
X88880500Y-86927494D01*
X88841993Y-86635007D01*
X88765639Y-86350048D01*
X88652743Y-86077493D01*
X88626453Y-86031958D01*
X88505238Y-85822006D01*
X88325647Y-85587959D01*
X88325641Y-85587952D01*
X88117047Y-85379358D01*
X88117040Y-85379352D01*
X87882993Y-85199761D01*
X87627510Y-85052258D01*
X87627500Y-85052254D01*
X87354961Y-84939364D01*
X87354954Y-84939362D01*
X87354952Y-84939361D01*
X87069993Y-84863007D01*
X87021113Y-84856571D01*
X86777513Y-84824500D01*
X86777506Y-84824500D01*
X86482494Y-84824500D01*
X86482486Y-84824500D01*
X86204085Y-84861153D01*
X86190007Y-84863007D01*
X85905048Y-84939361D01*
X85905038Y-84939364D01*
X85632499Y-85052254D01*
X85632489Y-85052258D01*
X85377006Y-85199761D01*
X85142959Y-85379352D01*
X85142952Y-85379358D01*
X84934358Y-85587952D01*
X84934352Y-85587959D01*
X84754761Y-85822006D01*
X84607258Y-86077489D01*
X84607254Y-86077499D01*
X84494364Y-86350038D01*
X84494361Y-86350048D01*
X84458172Y-86485110D01*
X84418008Y-86635004D01*
X84418006Y-86635015D01*
X84379500Y-86927486D01*
X82666165Y-86927486D01*
X82647786Y-86811445D01*
X82593042Y-86642958D01*
X82593042Y-86642957D01*
X82512613Y-86485109D01*
X82501518Y-86469838D01*
X82478038Y-86404032D01*
X82493863Y-86335978D01*
X82543968Y-86287283D01*
X82612446Y-86273407D01*
X82617977Y-86274008D01*
X82705266Y-86285500D01*
X82705273Y-86285500D01*
X82934727Y-86285500D01*
X82934734Y-86285500D01*
X83162238Y-86255548D01*
X83383887Y-86196158D01*
X83595888Y-86108344D01*
X83794612Y-85993611D01*
X83976661Y-85853919D01*
X83976665Y-85853914D01*
X83976670Y-85853911D01*
X84138911Y-85691670D01*
X84138914Y-85691665D01*
X84138919Y-85691661D01*
X84278611Y-85509612D01*
X84393344Y-85310888D01*
X84481158Y-85098887D01*
X84540548Y-84877238D01*
X84570500Y-84649734D01*
X84570500Y-84420266D01*
X84540548Y-84192762D01*
X84481158Y-83971113D01*
X84395461Y-83764223D01*
X84393349Y-83759123D01*
X84393346Y-83759117D01*
X84393344Y-83759112D01*
X84278611Y-83560388D01*
X84278608Y-83560385D01*
X84278607Y-83560382D01*
X84138918Y-83378338D01*
X84138911Y-83378330D01*
X83976670Y-83216089D01*
X83976661Y-83216081D01*
X83794617Y-83076392D01*
X83595890Y-82961657D01*
X83595876Y-82961650D01*
X83383887Y-82873842D01*
X83162238Y-82814452D01*
X83124215Y-82809446D01*
X82934741Y-82784500D01*
X82934734Y-82784500D01*
X82705266Y-82784500D01*
X82705258Y-82784500D01*
X82488715Y-82813009D01*
X82477762Y-82814452D01*
X82384076Y-82839554D01*
X82256112Y-82873842D01*
X82044123Y-82961650D01*
X82044109Y-82961657D01*
X81845382Y-83076392D01*
X81663338Y-83216081D01*
X81501081Y-83378338D01*
X81361392Y-83560382D01*
X81246657Y-83759109D01*
X81246650Y-83759123D01*
X81158842Y-83971112D01*
X81099453Y-84192759D01*
X81099451Y-84192770D01*
X81069500Y-84420258D01*
X81069500Y-84649741D01*
X81092509Y-84824500D01*
X81099452Y-84877238D01*
X81146347Y-85052254D01*
X81158842Y-85098887D01*
X81246650Y-85310876D01*
X81246657Y-85310890D01*
X81361392Y-85509617D01*
X81501081Y-85691661D01*
X81501089Y-85691670D01*
X81547238Y-85737819D01*
X81580723Y-85799142D01*
X81575739Y-85868834D01*
X81533867Y-85924767D01*
X81468403Y-85949184D01*
X81462967Y-85949378D01*
X81461423Y-85949499D01*
X81286443Y-85977214D01*
X81117960Y-86031956D01*
X81117957Y-86031957D01*
X80960109Y-86112386D01*
X80878338Y-86171796D01*
X80816786Y-86216517D01*
X80816784Y-86216519D01*
X80816783Y-86216519D01*
X80691519Y-86341783D01*
X80691519Y-86341784D01*
X80691517Y-86341786D01*
X80646796Y-86403338D01*
X80587386Y-86485109D01*
X80506957Y-86642957D01*
X80506956Y-86642960D01*
X80452214Y-86811443D01*
X80424500Y-86986421D01*
X73785500Y-86986421D01*
X73757786Y-86811445D01*
X73703042Y-86642958D01*
X73703042Y-86642957D01*
X73622613Y-86485109D01*
X73611518Y-86469838D01*
X73518483Y-86341786D01*
X73393214Y-86216517D01*
X73249890Y-86112386D01*
X73241953Y-86108342D01*
X73092042Y-86031957D01*
X73092039Y-86031956D01*
X72923556Y-85977214D01*
X72836067Y-85963357D01*
X72748579Y-85949500D01*
X72571421Y-85949500D01*
X72513095Y-85958738D01*
X72396443Y-85977214D01*
X72227960Y-86031956D01*
X72227957Y-86031957D01*
X72070109Y-86112386D01*
X71988338Y-86171796D01*
X71926786Y-86216517D01*
X71926784Y-86216519D01*
X71926783Y-86216519D01*
X71801519Y-86341783D01*
X71801519Y-86341784D01*
X71801517Y-86341786D01*
X71756796Y-86403338D01*
X71697386Y-86485109D01*
X71616957Y-86642957D01*
X71616956Y-86642960D01*
X71562214Y-86811443D01*
X71534500Y-86986421D01*
X69830500Y-86986421D01*
X69830500Y-86927494D01*
X69791993Y-86635007D01*
X69715639Y-86350048D01*
X69602743Y-86077493D01*
X69576453Y-86031958D01*
X69455238Y-85822006D01*
X69275647Y-85587959D01*
X69275641Y-85587952D01*
X69067047Y-85379358D01*
X69067040Y-85379352D01*
X68832993Y-85199761D01*
X68577510Y-85052258D01*
X68577500Y-85052254D01*
X68304961Y-84939364D01*
X68304954Y-84939362D01*
X68304952Y-84939361D01*
X68019993Y-84863007D01*
X67971113Y-84856571D01*
X67727513Y-84824500D01*
X67727506Y-84824500D01*
X67432494Y-84824500D01*
X67432486Y-84824500D01*
X67154085Y-84861153D01*
X67140007Y-84863007D01*
X66855048Y-84939361D01*
X66855038Y-84939364D01*
X66582499Y-85052254D01*
X66582489Y-85052258D01*
X66327006Y-85199761D01*
X66092959Y-85379352D01*
X66092952Y-85379358D01*
X65884358Y-85587952D01*
X65884352Y-85587959D01*
X65704761Y-85822006D01*
X65557258Y-86077489D01*
X65557254Y-86077499D01*
X65444364Y-86350038D01*
X65444361Y-86350048D01*
X65408172Y-86485110D01*
X65368008Y-86635004D01*
X65368006Y-86635015D01*
X65329500Y-86927486D01*
X63616165Y-86927486D01*
X63597786Y-86811445D01*
X63543042Y-86642958D01*
X63543042Y-86642957D01*
X63462613Y-86485109D01*
X63451518Y-86469838D01*
X63428038Y-86404032D01*
X63443863Y-86335978D01*
X63493968Y-86287283D01*
X63562446Y-86273407D01*
X63567977Y-86274008D01*
X63655266Y-86285500D01*
X63655273Y-86285500D01*
X63884727Y-86285500D01*
X63884734Y-86285500D01*
X64112238Y-86255548D01*
X64333887Y-86196158D01*
X64545888Y-86108344D01*
X64744612Y-85993611D01*
X64926661Y-85853919D01*
X64926665Y-85853914D01*
X64926670Y-85853911D01*
X65088911Y-85691670D01*
X65088914Y-85691665D01*
X65088919Y-85691661D01*
X65228611Y-85509612D01*
X65343344Y-85310888D01*
X65431158Y-85098887D01*
X65490548Y-84877238D01*
X65520500Y-84649734D01*
X65520500Y-84420266D01*
X65490548Y-84192762D01*
X65431158Y-83971113D01*
X65345461Y-83764223D01*
X65343349Y-83759123D01*
X65343346Y-83759117D01*
X65343344Y-83759112D01*
X65228611Y-83560388D01*
X65228608Y-83560385D01*
X65228607Y-83560382D01*
X65088918Y-83378338D01*
X65088911Y-83378330D01*
X64926670Y-83216089D01*
X64926661Y-83216081D01*
X64744617Y-83076392D01*
X64545890Y-82961657D01*
X64545876Y-82961650D01*
X64333887Y-82873842D01*
X64112238Y-82814452D01*
X64074215Y-82809446D01*
X63884741Y-82784500D01*
X63884734Y-82784500D01*
X63655266Y-82784500D01*
X63655258Y-82784500D01*
X63438715Y-82813009D01*
X63427762Y-82814452D01*
X63334076Y-82839554D01*
X63206112Y-82873842D01*
X62994123Y-82961650D01*
X62994109Y-82961657D01*
X62795382Y-83076392D01*
X62613338Y-83216081D01*
X62451081Y-83378338D01*
X62311392Y-83560382D01*
X62196657Y-83759109D01*
X62196650Y-83759123D01*
X62108842Y-83971112D01*
X62049453Y-84192759D01*
X62049451Y-84192770D01*
X62019500Y-84420258D01*
X62019500Y-84649741D01*
X62042509Y-84824500D01*
X62049452Y-84877238D01*
X62096347Y-85052254D01*
X62108842Y-85098887D01*
X62196650Y-85310876D01*
X62196657Y-85310890D01*
X62311392Y-85509617D01*
X62451081Y-85691661D01*
X62451089Y-85691670D01*
X62497238Y-85737819D01*
X62530723Y-85799142D01*
X62525739Y-85868834D01*
X62483867Y-85924767D01*
X62418403Y-85949184D01*
X62412967Y-85949378D01*
X62411423Y-85949499D01*
X62236443Y-85977214D01*
X62067960Y-86031956D01*
X62067957Y-86031957D01*
X61910109Y-86112386D01*
X61828338Y-86171796D01*
X61766786Y-86216517D01*
X61766784Y-86216519D01*
X61766783Y-86216519D01*
X61641519Y-86341783D01*
X61641519Y-86341784D01*
X61641517Y-86341786D01*
X61596796Y-86403338D01*
X61537386Y-86485109D01*
X61456957Y-86642957D01*
X61456956Y-86642960D01*
X61402214Y-86811443D01*
X61374500Y-86986421D01*
X54735500Y-86986421D01*
X54707786Y-86811445D01*
X54653042Y-86642958D01*
X54653042Y-86642957D01*
X54572613Y-86485109D01*
X54561518Y-86469838D01*
X54468483Y-86341786D01*
X54343214Y-86216517D01*
X54199890Y-86112386D01*
X54191953Y-86108342D01*
X54042042Y-86031957D01*
X54042039Y-86031956D01*
X53873556Y-85977214D01*
X53786067Y-85963357D01*
X53698579Y-85949500D01*
X53521421Y-85949500D01*
X53463095Y-85958738D01*
X53346443Y-85977214D01*
X53177960Y-86031956D01*
X53177957Y-86031957D01*
X53020109Y-86112386D01*
X52938338Y-86171796D01*
X52876786Y-86216517D01*
X52876784Y-86216519D01*
X52876783Y-86216519D01*
X52751519Y-86341783D01*
X52751519Y-86341784D01*
X52751517Y-86341786D01*
X52706796Y-86403338D01*
X52647386Y-86485109D01*
X52566957Y-86642957D01*
X52566956Y-86642960D01*
X52512214Y-86811443D01*
X52484500Y-86986421D01*
X50780500Y-86986421D01*
X50780500Y-86927494D01*
X50741993Y-86635007D01*
X50665639Y-86350048D01*
X50552743Y-86077493D01*
X50526453Y-86031958D01*
X50405238Y-85822006D01*
X50225647Y-85587959D01*
X50225641Y-85587952D01*
X50017047Y-85379358D01*
X50017040Y-85379352D01*
X49782993Y-85199761D01*
X49527510Y-85052258D01*
X49527500Y-85052254D01*
X49254961Y-84939364D01*
X49254954Y-84939362D01*
X49254952Y-84939361D01*
X48969993Y-84863007D01*
X48921113Y-84856571D01*
X48677513Y-84824500D01*
X48677506Y-84824500D01*
X48382494Y-84824500D01*
X48382486Y-84824500D01*
X48104085Y-84861153D01*
X48090007Y-84863007D01*
X47805048Y-84939361D01*
X47805038Y-84939364D01*
X47532499Y-85052254D01*
X47532489Y-85052258D01*
X47277006Y-85199761D01*
X47042959Y-85379352D01*
X47042952Y-85379358D01*
X46834358Y-85587952D01*
X46834352Y-85587959D01*
X46654761Y-85822006D01*
X46507258Y-86077489D01*
X46507254Y-86077499D01*
X46394364Y-86350038D01*
X46394361Y-86350048D01*
X46358172Y-86485110D01*
X46318008Y-86635004D01*
X46318006Y-86635015D01*
X46279500Y-86927486D01*
X44566165Y-86927486D01*
X44547786Y-86811445D01*
X44493042Y-86642958D01*
X44493042Y-86642957D01*
X44412613Y-86485109D01*
X44401518Y-86469838D01*
X44378038Y-86404032D01*
X44393863Y-86335978D01*
X44443968Y-86287283D01*
X44512446Y-86273407D01*
X44517977Y-86274008D01*
X44605266Y-86285500D01*
X44605273Y-86285500D01*
X44834727Y-86285500D01*
X44834734Y-86285500D01*
X45062238Y-86255548D01*
X45283887Y-86196158D01*
X45495888Y-86108344D01*
X45694612Y-85993611D01*
X45876661Y-85853919D01*
X45876665Y-85853914D01*
X45876670Y-85853911D01*
X46038911Y-85691670D01*
X46038914Y-85691665D01*
X46038919Y-85691661D01*
X46178611Y-85509612D01*
X46293344Y-85310888D01*
X46381158Y-85098887D01*
X46440548Y-84877238D01*
X46470500Y-84649734D01*
X46470500Y-84420266D01*
X46440548Y-84192762D01*
X46381158Y-83971113D01*
X46295461Y-83764223D01*
X46293349Y-83759123D01*
X46293346Y-83759117D01*
X46293344Y-83759112D01*
X46178611Y-83560388D01*
X46178608Y-83560385D01*
X46178607Y-83560382D01*
X46038918Y-83378338D01*
X46038911Y-83378330D01*
X45876670Y-83216089D01*
X45876661Y-83216081D01*
X45694617Y-83076392D01*
X45495890Y-82961657D01*
X45495876Y-82961650D01*
X45283887Y-82873842D01*
X45062238Y-82814452D01*
X45024215Y-82809446D01*
X44834741Y-82784500D01*
X44834734Y-82784500D01*
X44605266Y-82784500D01*
X44605258Y-82784500D01*
X44388715Y-82813009D01*
X44377762Y-82814452D01*
X44284076Y-82839554D01*
X44156112Y-82873842D01*
X43944123Y-82961650D01*
X43944109Y-82961657D01*
X43745382Y-83076392D01*
X43563338Y-83216081D01*
X43401081Y-83378338D01*
X43261392Y-83560382D01*
X43146657Y-83759109D01*
X43146650Y-83759123D01*
X43058842Y-83971112D01*
X42999453Y-84192759D01*
X42999451Y-84192770D01*
X42969500Y-84420258D01*
X42969500Y-84649741D01*
X42992509Y-84824500D01*
X42999452Y-84877238D01*
X43046347Y-85052254D01*
X43058842Y-85098887D01*
X43146650Y-85310876D01*
X43146657Y-85310890D01*
X43261392Y-85509617D01*
X43401081Y-85691661D01*
X43401089Y-85691670D01*
X43447238Y-85737819D01*
X43480723Y-85799142D01*
X43475739Y-85868834D01*
X43433867Y-85924767D01*
X43368403Y-85949184D01*
X43362967Y-85949378D01*
X43361423Y-85949499D01*
X43186443Y-85977214D01*
X43017960Y-86031956D01*
X43017957Y-86031957D01*
X42860109Y-86112386D01*
X42778338Y-86171796D01*
X42716786Y-86216517D01*
X42716784Y-86216519D01*
X42716783Y-86216519D01*
X42591519Y-86341783D01*
X42591519Y-86341784D01*
X42591517Y-86341786D01*
X42546796Y-86403338D01*
X42487386Y-86485109D01*
X42406957Y-86642957D01*
X42406956Y-86642960D01*
X42352214Y-86811443D01*
X42324500Y-86986421D01*
X35685500Y-86986421D01*
X35657786Y-86811445D01*
X35603042Y-86642958D01*
X35603042Y-86642957D01*
X35522613Y-86485109D01*
X35511518Y-86469838D01*
X35418483Y-86341786D01*
X35293214Y-86216517D01*
X35149890Y-86112386D01*
X35141953Y-86108342D01*
X34992042Y-86031957D01*
X34992039Y-86031956D01*
X34823556Y-85977214D01*
X34736067Y-85963357D01*
X34648579Y-85949500D01*
X34471421Y-85949500D01*
X34413095Y-85958738D01*
X34296443Y-85977214D01*
X34127960Y-86031956D01*
X34127957Y-86031957D01*
X33970109Y-86112386D01*
X33888338Y-86171796D01*
X33826786Y-86216517D01*
X33826784Y-86216519D01*
X33826783Y-86216519D01*
X33701519Y-86341783D01*
X33701519Y-86341784D01*
X33701517Y-86341786D01*
X33656796Y-86403338D01*
X33597386Y-86485109D01*
X33516957Y-86642957D01*
X33516956Y-86642960D01*
X33462214Y-86811443D01*
X33434500Y-86986421D01*
X31730500Y-86986421D01*
X31730500Y-86927494D01*
X31691993Y-86635007D01*
X31615639Y-86350048D01*
X31502743Y-86077493D01*
X31476453Y-86031958D01*
X31355238Y-85822006D01*
X31175647Y-85587959D01*
X31175641Y-85587952D01*
X30967047Y-85379358D01*
X30967040Y-85379352D01*
X30732993Y-85199761D01*
X30477510Y-85052258D01*
X30477500Y-85052254D01*
X30204961Y-84939364D01*
X30204954Y-84939362D01*
X30204952Y-84939361D01*
X29919993Y-84863007D01*
X29871113Y-84856571D01*
X29627513Y-84824500D01*
X29627506Y-84824500D01*
X29332494Y-84824500D01*
X29332486Y-84824500D01*
X29054085Y-84861153D01*
X29040007Y-84863007D01*
X28755048Y-84939361D01*
X28755038Y-84939364D01*
X28482499Y-85052254D01*
X28482489Y-85052258D01*
X28227006Y-85199761D01*
X27992959Y-85379352D01*
X27992952Y-85379358D01*
X27784358Y-85587952D01*
X27784352Y-85587959D01*
X27604761Y-85822006D01*
X27457258Y-86077489D01*
X27457254Y-86077499D01*
X27344364Y-86350038D01*
X27344361Y-86350048D01*
X27308172Y-86485110D01*
X27268008Y-86635004D01*
X27268006Y-86635015D01*
X27229500Y-86927486D01*
X25516165Y-86927486D01*
X25497786Y-86811445D01*
X25443042Y-86642958D01*
X25443042Y-86642957D01*
X25362613Y-86485109D01*
X25351518Y-86469838D01*
X25328038Y-86404032D01*
X25343863Y-86335978D01*
X25393968Y-86287283D01*
X25462446Y-86273407D01*
X25467977Y-86274008D01*
X25555266Y-86285500D01*
X25555273Y-86285500D01*
X25784727Y-86285500D01*
X25784734Y-86285500D01*
X26012238Y-86255548D01*
X26233887Y-86196158D01*
X26445888Y-86108344D01*
X26644612Y-85993611D01*
X26826661Y-85853919D01*
X26826665Y-85853914D01*
X26826670Y-85853911D01*
X26988911Y-85691670D01*
X26988914Y-85691665D01*
X26988919Y-85691661D01*
X27128611Y-85509612D01*
X27243344Y-85310888D01*
X27331158Y-85098887D01*
X27390548Y-84877238D01*
X27420500Y-84649734D01*
X27420500Y-84420266D01*
X27390548Y-84192762D01*
X27331158Y-83971113D01*
X27245461Y-83764223D01*
X27243349Y-83759123D01*
X27243346Y-83759117D01*
X27243344Y-83759112D01*
X27128611Y-83560388D01*
X27128608Y-83560385D01*
X27128607Y-83560382D01*
X26988918Y-83378338D01*
X26988911Y-83378330D01*
X26826670Y-83216089D01*
X26826661Y-83216081D01*
X26644617Y-83076392D01*
X26445890Y-82961657D01*
X26445876Y-82961650D01*
X26233887Y-82873842D01*
X26012238Y-82814452D01*
X25974215Y-82809446D01*
X25784741Y-82784500D01*
X25784734Y-82784500D01*
X25555266Y-82784500D01*
X25555258Y-82784500D01*
X25338715Y-82813009D01*
X25327762Y-82814452D01*
X25234076Y-82839554D01*
X25106112Y-82873842D01*
X24894123Y-82961650D01*
X24894109Y-82961657D01*
X24695382Y-83076392D01*
X24513338Y-83216081D01*
X24351081Y-83378338D01*
X24211392Y-83560382D01*
X24096657Y-83759109D01*
X24096650Y-83759123D01*
X24008842Y-83971112D01*
X23949453Y-84192759D01*
X23949451Y-84192770D01*
X23919500Y-84420258D01*
X23919500Y-84649741D01*
X23942509Y-84824500D01*
X23949452Y-84877238D01*
X23996347Y-85052254D01*
X24008842Y-85098887D01*
X24096650Y-85310876D01*
X24096657Y-85310890D01*
X24211392Y-85509617D01*
X24351081Y-85691661D01*
X24351089Y-85691670D01*
X24397238Y-85737819D01*
X24430723Y-85799142D01*
X24425739Y-85868834D01*
X24383867Y-85924767D01*
X24318403Y-85949184D01*
X24312967Y-85949378D01*
X24311423Y-85949499D01*
X24136443Y-85977214D01*
X23967960Y-86031956D01*
X23967957Y-86031957D01*
X23810109Y-86112386D01*
X23728338Y-86171796D01*
X23666786Y-86216517D01*
X23666784Y-86216519D01*
X23666783Y-86216519D01*
X23541519Y-86341783D01*
X23541519Y-86341784D01*
X23541517Y-86341786D01*
X23496796Y-86403338D01*
X23437386Y-86485109D01*
X23356957Y-86642957D01*
X23356956Y-86642960D01*
X23302214Y-86811443D01*
X23274500Y-86986421D01*
X19080500Y-86986421D01*
X19080500Y-81880258D01*
X30269500Y-81880258D01*
X30269500Y-82109741D01*
X30290998Y-82273028D01*
X30299452Y-82337238D01*
X30299453Y-82337240D01*
X30358842Y-82558887D01*
X30446650Y-82770876D01*
X30446657Y-82770890D01*
X30561392Y-82969617D01*
X30701081Y-83151661D01*
X30701089Y-83151670D01*
X30863330Y-83313911D01*
X30863338Y-83313918D01*
X31045382Y-83453607D01*
X31045385Y-83453608D01*
X31045388Y-83453611D01*
X31244112Y-83568344D01*
X31244117Y-83568346D01*
X31244123Y-83568349D01*
X31335480Y-83606190D01*
X31456113Y-83656158D01*
X31677762Y-83715548D01*
X31905266Y-83745500D01*
X31905273Y-83745500D01*
X32134727Y-83745500D01*
X32134734Y-83745500D01*
X32362238Y-83715548D01*
X32583887Y-83656158D01*
X32795888Y-83568344D01*
X32994612Y-83453611D01*
X33176661Y-83313919D01*
X33176665Y-83313914D01*
X33176670Y-83313911D01*
X33338911Y-83151670D01*
X33338914Y-83151665D01*
X33338919Y-83151661D01*
X33478611Y-82969612D01*
X33593344Y-82770888D01*
X33595459Y-82765781D01*
X33623930Y-82697048D01*
X33667771Y-82642644D01*
X33734065Y-82620579D01*
X33738491Y-82620500D01*
X37424548Y-82620500D01*
X37491587Y-82640185D01*
X37512229Y-82656819D01*
X37702781Y-82847371D01*
X37736266Y-82908694D01*
X37735785Y-82955416D01*
X37737285Y-82955654D01*
X37704500Y-83162648D01*
X37704500Y-83367351D01*
X37736522Y-83569534D01*
X37799781Y-83764223D01*
X37892715Y-83946613D01*
X38013028Y-84112213D01*
X38157786Y-84256971D01*
X38312749Y-84369556D01*
X38323390Y-84377287D01*
X38407741Y-84420266D01*
X38505776Y-84470218D01*
X38505778Y-84470218D01*
X38505781Y-84470220D01*
X38610137Y-84504127D01*
X38700465Y-84533477D01*
X38801557Y-84549488D01*
X38902648Y-84565500D01*
X38902649Y-84565500D01*
X39107351Y-84565500D01*
X39107352Y-84565500D01*
X39309534Y-84533477D01*
X39504219Y-84470220D01*
X39686610Y-84377287D01*
X39779590Y-84309732D01*
X39852213Y-84256971D01*
X39852215Y-84256968D01*
X39852219Y-84256966D01*
X39996966Y-84112219D01*
X39996968Y-84112215D01*
X39996971Y-84112213D01*
X40049732Y-84039590D01*
X40117287Y-83946610D01*
X40210220Y-83764219D01*
X40273477Y-83569534D01*
X40305500Y-83367352D01*
X40305500Y-83162648D01*
X40291838Y-83076389D01*
X40273477Y-82960465D01*
X40210218Y-82765776D01*
X40147478Y-82642644D01*
X40117287Y-82583390D01*
X40099485Y-82558887D01*
X39996971Y-82417786D01*
X39852213Y-82273028D01*
X39686613Y-82152715D01*
X39686612Y-82152714D01*
X39686610Y-82152713D01*
X39602273Y-82109741D01*
X39504223Y-82059781D01*
X39309534Y-81996522D01*
X39134995Y-81968878D01*
X39107352Y-81964500D01*
X38902648Y-81964500D01*
X38799101Y-81980900D01*
X38695654Y-81997285D01*
X38695333Y-81995262D01*
X38634120Y-81992149D01*
X38587371Y-81962781D01*
X38504848Y-81880258D01*
X49319500Y-81880258D01*
X49319500Y-82109741D01*
X49340998Y-82273028D01*
X49349452Y-82337238D01*
X49349453Y-82337240D01*
X49408842Y-82558887D01*
X49496650Y-82770876D01*
X49496657Y-82770890D01*
X49611392Y-82969617D01*
X49751081Y-83151661D01*
X49751089Y-83151670D01*
X49913330Y-83313911D01*
X49913338Y-83313918D01*
X50095382Y-83453607D01*
X50095385Y-83453608D01*
X50095388Y-83453611D01*
X50294112Y-83568344D01*
X50294117Y-83568346D01*
X50294123Y-83568349D01*
X50385480Y-83606190D01*
X50506113Y-83656158D01*
X50727762Y-83715548D01*
X50955266Y-83745500D01*
X50955273Y-83745500D01*
X51184727Y-83745500D01*
X51184734Y-83745500D01*
X51412238Y-83715548D01*
X51633887Y-83656158D01*
X51845888Y-83568344D01*
X52044612Y-83453611D01*
X52226661Y-83313919D01*
X52226665Y-83313914D01*
X52226670Y-83313911D01*
X52388911Y-83151670D01*
X52388914Y-83151665D01*
X52388919Y-83151661D01*
X52528611Y-82969612D01*
X52643344Y-82770888D01*
X52645459Y-82765781D01*
X52673930Y-82697048D01*
X52717771Y-82642644D01*
X52784065Y-82620579D01*
X52788491Y-82620500D01*
X56474548Y-82620500D01*
X56541587Y-82640185D01*
X56562229Y-82656819D01*
X56752781Y-82847371D01*
X56786266Y-82908694D01*
X56785785Y-82955416D01*
X56787285Y-82955654D01*
X56754500Y-83162648D01*
X56754500Y-83367351D01*
X56786522Y-83569534D01*
X56849781Y-83764223D01*
X56942715Y-83946613D01*
X57063028Y-84112213D01*
X57207786Y-84256971D01*
X57362749Y-84369556D01*
X57373390Y-84377287D01*
X57457741Y-84420266D01*
X57555776Y-84470218D01*
X57555778Y-84470218D01*
X57555781Y-84470220D01*
X57660137Y-84504127D01*
X57750465Y-84533477D01*
X57851557Y-84549488D01*
X57952648Y-84565500D01*
X57952649Y-84565500D01*
X58157351Y-84565500D01*
X58157352Y-84565500D01*
X58359534Y-84533477D01*
X58554219Y-84470220D01*
X58736610Y-84377287D01*
X58829590Y-84309732D01*
X58902213Y-84256971D01*
X58902215Y-84256968D01*
X58902219Y-84256966D01*
X59046966Y-84112219D01*
X59046968Y-84112215D01*
X59046971Y-84112213D01*
X59099732Y-84039590D01*
X59167287Y-83946610D01*
X59260220Y-83764219D01*
X59323477Y-83569534D01*
X59355500Y-83367352D01*
X59355500Y-83162648D01*
X59341838Y-83076389D01*
X59323477Y-82960465D01*
X59260218Y-82765776D01*
X59197478Y-82642644D01*
X59167287Y-82583390D01*
X59149485Y-82558887D01*
X59046971Y-82417786D01*
X58902213Y-82273028D01*
X58736613Y-82152715D01*
X58736612Y-82152714D01*
X58736610Y-82152713D01*
X58652273Y-82109741D01*
X58554223Y-82059781D01*
X58359534Y-81996522D01*
X58184995Y-81968878D01*
X58157352Y-81964500D01*
X57952648Y-81964500D01*
X57849101Y-81980900D01*
X57745654Y-81997285D01*
X57745333Y-81995262D01*
X57684120Y-81992149D01*
X57637371Y-81962781D01*
X57554848Y-81880258D01*
X68369500Y-81880258D01*
X68369500Y-82109741D01*
X68390998Y-82273028D01*
X68399452Y-82337238D01*
X68399453Y-82337240D01*
X68458842Y-82558887D01*
X68546650Y-82770876D01*
X68546657Y-82770890D01*
X68661392Y-82969617D01*
X68801081Y-83151661D01*
X68801089Y-83151670D01*
X68963330Y-83313911D01*
X68963338Y-83313918D01*
X69145382Y-83453607D01*
X69145385Y-83453608D01*
X69145388Y-83453611D01*
X69344112Y-83568344D01*
X69344117Y-83568346D01*
X69344123Y-83568349D01*
X69435480Y-83606190D01*
X69556113Y-83656158D01*
X69777762Y-83715548D01*
X70005266Y-83745500D01*
X70005273Y-83745500D01*
X70234727Y-83745500D01*
X70234734Y-83745500D01*
X70462238Y-83715548D01*
X70683887Y-83656158D01*
X70895888Y-83568344D01*
X71094612Y-83453611D01*
X71276661Y-83313919D01*
X71276665Y-83313914D01*
X71276670Y-83313911D01*
X71438911Y-83151670D01*
X71438914Y-83151665D01*
X71438919Y-83151661D01*
X71578611Y-82969612D01*
X71693344Y-82770888D01*
X71695459Y-82765781D01*
X71723930Y-82697048D01*
X71767771Y-82642644D01*
X71834065Y-82620579D01*
X71838491Y-82620500D01*
X75524548Y-82620500D01*
X75591587Y-82640185D01*
X75612229Y-82656819D01*
X75802781Y-82847371D01*
X75836266Y-82908694D01*
X75835785Y-82955416D01*
X75837285Y-82955654D01*
X75804500Y-83162648D01*
X75804500Y-83367351D01*
X75836522Y-83569534D01*
X75899781Y-83764223D01*
X75992715Y-83946613D01*
X76113028Y-84112213D01*
X76257786Y-84256971D01*
X76412749Y-84369556D01*
X76423390Y-84377287D01*
X76507741Y-84420266D01*
X76605776Y-84470218D01*
X76605778Y-84470218D01*
X76605781Y-84470220D01*
X76710137Y-84504127D01*
X76800465Y-84533477D01*
X76901557Y-84549488D01*
X77002648Y-84565500D01*
X77002649Y-84565500D01*
X77207351Y-84565500D01*
X77207352Y-84565500D01*
X77409534Y-84533477D01*
X77604219Y-84470220D01*
X77786610Y-84377287D01*
X77879590Y-84309732D01*
X77952213Y-84256971D01*
X77952215Y-84256968D01*
X77952219Y-84256966D01*
X78096966Y-84112219D01*
X78096968Y-84112215D01*
X78096971Y-84112213D01*
X78149732Y-84039590D01*
X78217287Y-83946610D01*
X78310220Y-83764219D01*
X78373477Y-83569534D01*
X78405500Y-83367352D01*
X78405500Y-83162648D01*
X78391838Y-83076389D01*
X78373477Y-82960465D01*
X78310218Y-82765776D01*
X78247478Y-82642644D01*
X78217287Y-82583390D01*
X78199485Y-82558887D01*
X78096971Y-82417786D01*
X77952213Y-82273028D01*
X77786613Y-82152715D01*
X77786612Y-82152714D01*
X77786610Y-82152713D01*
X77702273Y-82109741D01*
X77604223Y-82059781D01*
X77409534Y-81996522D01*
X77234995Y-81968878D01*
X77207352Y-81964500D01*
X77002648Y-81964500D01*
X76899101Y-81980900D01*
X76795654Y-81997285D01*
X76795333Y-81995262D01*
X76734120Y-81992149D01*
X76687371Y-81962781D01*
X76604848Y-81880258D01*
X87419500Y-81880258D01*
X87419500Y-82109741D01*
X87440998Y-82273028D01*
X87449452Y-82337238D01*
X87449453Y-82337240D01*
X87508842Y-82558887D01*
X87596650Y-82770876D01*
X87596657Y-82770890D01*
X87711392Y-82969617D01*
X87851081Y-83151661D01*
X87851089Y-83151670D01*
X88013330Y-83313911D01*
X88013338Y-83313918D01*
X88195382Y-83453607D01*
X88195385Y-83453608D01*
X88195388Y-83453611D01*
X88394112Y-83568344D01*
X88394117Y-83568346D01*
X88394123Y-83568349D01*
X88485480Y-83606190D01*
X88606113Y-83656158D01*
X88827762Y-83715548D01*
X89055266Y-83745500D01*
X89055273Y-83745500D01*
X89284727Y-83745500D01*
X89284734Y-83745500D01*
X89512238Y-83715548D01*
X89733887Y-83656158D01*
X89945888Y-83568344D01*
X90144612Y-83453611D01*
X90326661Y-83313919D01*
X90326665Y-83313914D01*
X90326670Y-83313911D01*
X90488911Y-83151670D01*
X90488914Y-83151665D01*
X90488919Y-83151661D01*
X90628611Y-82969612D01*
X90743344Y-82770888D01*
X90745459Y-82765781D01*
X90773930Y-82697048D01*
X90817771Y-82642644D01*
X90884065Y-82620579D01*
X90888491Y-82620500D01*
X94574548Y-82620500D01*
X94641587Y-82640185D01*
X94662229Y-82656819D01*
X94852781Y-82847371D01*
X94886266Y-82908694D01*
X94885785Y-82955416D01*
X94887285Y-82955654D01*
X94854500Y-83162648D01*
X94854500Y-83367351D01*
X94886522Y-83569534D01*
X94949781Y-83764223D01*
X95042715Y-83946613D01*
X95163028Y-84112213D01*
X95307786Y-84256971D01*
X95462749Y-84369556D01*
X95473390Y-84377287D01*
X95557741Y-84420266D01*
X95655776Y-84470218D01*
X95655778Y-84470218D01*
X95655781Y-84470220D01*
X95760137Y-84504127D01*
X95850465Y-84533477D01*
X95951557Y-84549488D01*
X96052648Y-84565500D01*
X96052649Y-84565500D01*
X96257351Y-84565500D01*
X96257352Y-84565500D01*
X96459534Y-84533477D01*
X96654219Y-84470220D01*
X96836610Y-84377287D01*
X96929590Y-84309732D01*
X97002213Y-84256971D01*
X97002215Y-84256968D01*
X97002219Y-84256966D01*
X97146966Y-84112219D01*
X97146968Y-84112215D01*
X97146971Y-84112213D01*
X97199732Y-84039590D01*
X97267287Y-83946610D01*
X97360220Y-83764219D01*
X97423477Y-83569534D01*
X97455500Y-83367352D01*
X97455500Y-83162648D01*
X97441838Y-83076389D01*
X97423477Y-82960465D01*
X97360218Y-82765776D01*
X97297478Y-82642644D01*
X97267287Y-82583390D01*
X97249485Y-82558887D01*
X97146971Y-82417786D01*
X97002213Y-82273028D01*
X96836613Y-82152715D01*
X96836612Y-82152714D01*
X96836610Y-82152713D01*
X96752273Y-82109741D01*
X96654223Y-82059781D01*
X96459534Y-81996522D01*
X96284995Y-81968878D01*
X96257352Y-81964500D01*
X96052648Y-81964500D01*
X95949101Y-81980900D01*
X95845654Y-81997285D01*
X95845333Y-81995262D01*
X95784120Y-81992149D01*
X95737371Y-81962781D01*
X95378150Y-81603560D01*
X95370860Y-81596270D01*
X95370858Y-81596267D01*
X95283733Y-81509142D01*
X95232509Y-81474915D01*
X95181286Y-81440688D01*
X95181283Y-81440686D01*
X95181280Y-81440685D01*
X95107603Y-81410168D01*
X95107601Y-81410167D01*
X95100792Y-81407347D01*
X95067452Y-81393537D01*
X95007029Y-81381518D01*
X95002306Y-81380578D01*
X95002304Y-81380578D01*
X94946610Y-81369500D01*
X94946607Y-81369500D01*
X94946606Y-81369500D01*
X90888491Y-81369500D01*
X90821452Y-81349815D01*
X90775697Y-81297011D01*
X90773930Y-81292952D01*
X90743349Y-81219123D01*
X90743346Y-81219117D01*
X90743344Y-81219112D01*
X90628611Y-81020388D01*
X90628608Y-81020385D01*
X90628607Y-81020382D01*
X90488918Y-80838338D01*
X90488911Y-80838330D01*
X90326670Y-80676089D01*
X90326661Y-80676081D01*
X90144617Y-80536392D01*
X89945890Y-80421657D01*
X89945876Y-80421650D01*
X89733887Y-80333842D01*
X89512238Y-80274452D01*
X89474215Y-80269446D01*
X89284741Y-80244500D01*
X89284734Y-80244500D01*
X89055266Y-80244500D01*
X89055258Y-80244500D01*
X88838715Y-80273009D01*
X88827762Y-80274452D01*
X88734076Y-80299554D01*
X88606112Y-80333842D01*
X88394123Y-80421650D01*
X88394109Y-80421657D01*
X88195382Y-80536392D01*
X88013338Y-80676081D01*
X87851081Y-80838338D01*
X87711392Y-81020382D01*
X87596657Y-81219109D01*
X87596650Y-81219123D01*
X87508842Y-81431112D01*
X87508842Y-81431113D01*
X87462636Y-81603560D01*
X87449453Y-81652759D01*
X87449451Y-81652770D01*
X87419500Y-81880258D01*
X76604848Y-81880258D01*
X76328150Y-81603560D01*
X76320860Y-81596270D01*
X76320858Y-81596267D01*
X76233733Y-81509142D01*
X76182509Y-81474915D01*
X76131286Y-81440688D01*
X76131283Y-81440686D01*
X76131280Y-81440685D01*
X76057603Y-81410168D01*
X76057601Y-81410167D01*
X76050792Y-81407347D01*
X76017452Y-81393537D01*
X75957029Y-81381518D01*
X75952306Y-81380578D01*
X75952304Y-81380578D01*
X75896610Y-81369500D01*
X75896607Y-81369500D01*
X75896606Y-81369500D01*
X71838491Y-81369500D01*
X71771452Y-81349815D01*
X71725697Y-81297011D01*
X71723930Y-81292952D01*
X71693349Y-81219123D01*
X71693346Y-81219117D01*
X71693344Y-81219112D01*
X71578611Y-81020388D01*
X71578608Y-81020385D01*
X71578607Y-81020382D01*
X71438918Y-80838338D01*
X71438911Y-80838330D01*
X71276670Y-80676089D01*
X71276661Y-80676081D01*
X71094617Y-80536392D01*
X70895890Y-80421657D01*
X70895876Y-80421650D01*
X70683887Y-80333842D01*
X70462238Y-80274452D01*
X70424215Y-80269446D01*
X70234741Y-80244500D01*
X70234734Y-80244500D01*
X70005266Y-80244500D01*
X70005258Y-80244500D01*
X69788715Y-80273009D01*
X69777762Y-80274452D01*
X69684076Y-80299554D01*
X69556112Y-80333842D01*
X69344123Y-80421650D01*
X69344109Y-80421657D01*
X69145382Y-80536392D01*
X68963338Y-80676081D01*
X68801081Y-80838338D01*
X68661392Y-81020382D01*
X68546657Y-81219109D01*
X68546650Y-81219123D01*
X68458842Y-81431112D01*
X68458842Y-81431113D01*
X68412636Y-81603560D01*
X68399453Y-81652759D01*
X68399451Y-81652770D01*
X68369500Y-81880258D01*
X57554848Y-81880258D01*
X57278150Y-81603560D01*
X57270860Y-81596270D01*
X57270858Y-81596267D01*
X57183733Y-81509142D01*
X57132509Y-81474915D01*
X57081286Y-81440688D01*
X57081283Y-81440686D01*
X57081280Y-81440685D01*
X57007603Y-81410168D01*
X57007601Y-81410167D01*
X57000792Y-81407347D01*
X56967452Y-81393537D01*
X56907029Y-81381518D01*
X56902306Y-81380578D01*
X56902304Y-81380578D01*
X56846610Y-81369500D01*
X56846607Y-81369500D01*
X56846606Y-81369500D01*
X52788491Y-81369500D01*
X52721452Y-81349815D01*
X52675697Y-81297011D01*
X52673930Y-81292952D01*
X52643349Y-81219123D01*
X52643346Y-81219117D01*
X52643344Y-81219112D01*
X52528611Y-81020388D01*
X52528608Y-81020385D01*
X52528607Y-81020382D01*
X52388918Y-80838338D01*
X52388911Y-80838330D01*
X52226670Y-80676089D01*
X52226661Y-80676081D01*
X52044617Y-80536392D01*
X51845890Y-80421657D01*
X51845876Y-80421650D01*
X51633887Y-80333842D01*
X51412238Y-80274452D01*
X51374215Y-80269446D01*
X51184741Y-80244500D01*
X51184734Y-80244500D01*
X50955266Y-80244500D01*
X50955258Y-80244500D01*
X50738715Y-80273009D01*
X50727762Y-80274452D01*
X50634076Y-80299554D01*
X50506112Y-80333842D01*
X50294123Y-80421650D01*
X50294109Y-80421657D01*
X50095382Y-80536392D01*
X49913338Y-80676081D01*
X49751081Y-80838338D01*
X49611392Y-81020382D01*
X49496657Y-81219109D01*
X49496650Y-81219123D01*
X49408842Y-81431112D01*
X49408842Y-81431113D01*
X49362636Y-81603560D01*
X49349453Y-81652759D01*
X49349451Y-81652770D01*
X49319500Y-81880258D01*
X38504848Y-81880258D01*
X38228150Y-81603560D01*
X38220860Y-81596270D01*
X38220858Y-81596267D01*
X38133733Y-81509142D01*
X38082509Y-81474915D01*
X38031286Y-81440688D01*
X38031283Y-81440686D01*
X38031280Y-81440685D01*
X37957603Y-81410168D01*
X37957601Y-81410167D01*
X37950792Y-81407347D01*
X37917452Y-81393537D01*
X37857029Y-81381518D01*
X37852306Y-81380578D01*
X37852304Y-81380578D01*
X37796610Y-81369500D01*
X37796607Y-81369500D01*
X37796606Y-81369500D01*
X33738491Y-81369500D01*
X33671452Y-81349815D01*
X33625697Y-81297011D01*
X33623930Y-81292952D01*
X33593349Y-81219123D01*
X33593346Y-81219117D01*
X33593344Y-81219112D01*
X33478611Y-81020388D01*
X33478608Y-81020385D01*
X33478607Y-81020382D01*
X33338918Y-80838338D01*
X33338911Y-80838330D01*
X33176670Y-80676089D01*
X33176661Y-80676081D01*
X32994617Y-80536392D01*
X32795890Y-80421657D01*
X32795876Y-80421650D01*
X32583887Y-80333842D01*
X32362238Y-80274452D01*
X32324215Y-80269446D01*
X32134741Y-80244500D01*
X32134734Y-80244500D01*
X31905266Y-80244500D01*
X31905258Y-80244500D01*
X31688715Y-80273009D01*
X31677762Y-80274452D01*
X31584076Y-80299554D01*
X31456112Y-80333842D01*
X31244123Y-80421650D01*
X31244109Y-80421657D01*
X31045382Y-80536392D01*
X30863338Y-80676081D01*
X30701081Y-80838338D01*
X30561392Y-81020382D01*
X30446657Y-81219109D01*
X30446650Y-81219123D01*
X30358842Y-81431112D01*
X30358842Y-81431113D01*
X30312636Y-81603560D01*
X30299453Y-81652759D01*
X30299451Y-81652770D01*
X30269500Y-81880258D01*
X19080500Y-81880258D01*
X19080500Y-67936421D01*
X23274500Y-67936421D01*
X23274500Y-68113578D01*
X23302214Y-68288556D01*
X23356956Y-68457039D01*
X23356957Y-68457042D01*
X23437386Y-68614890D01*
X23541517Y-68758214D01*
X23666786Y-68883483D01*
X23810110Y-68987614D01*
X23878577Y-69022500D01*
X23967957Y-69068042D01*
X23967960Y-69068043D01*
X24052201Y-69095414D01*
X24136445Y-69122786D01*
X24311421Y-69150500D01*
X24311422Y-69150500D01*
X24488578Y-69150500D01*
X24488579Y-69150500D01*
X24663555Y-69122786D01*
X24832042Y-69068042D01*
X24989890Y-68987614D01*
X25133214Y-68883483D01*
X25258483Y-68758214D01*
X25362614Y-68614890D01*
X25443042Y-68457042D01*
X25497786Y-68288555D01*
X25525500Y-68113579D01*
X25525500Y-67936421D01*
X25516165Y-67877486D01*
X27229500Y-67877486D01*
X27229500Y-68172513D01*
X27244778Y-68288555D01*
X27268007Y-68464993D01*
X27344361Y-68749951D01*
X27344364Y-68749961D01*
X27457254Y-69022500D01*
X27457258Y-69022510D01*
X27604761Y-69277993D01*
X27784352Y-69512040D01*
X27784358Y-69512047D01*
X27992952Y-69720641D01*
X27992959Y-69720647D01*
X28227006Y-69900238D01*
X28482489Y-70047741D01*
X28482490Y-70047741D01*
X28482493Y-70047743D01*
X28755048Y-70160639D01*
X29040007Y-70236993D01*
X29332494Y-70275500D01*
X29332501Y-70275500D01*
X29627499Y-70275500D01*
X29627506Y-70275500D01*
X29919993Y-70236993D01*
X30204952Y-70160639D01*
X30477507Y-70047743D01*
X30732994Y-69900238D01*
X30967042Y-69720646D01*
X31175646Y-69512042D01*
X31355238Y-69277994D01*
X31502743Y-69022507D01*
X31615639Y-68749952D01*
X31691993Y-68464993D01*
X31730500Y-68172506D01*
X31730500Y-67936421D01*
X33434500Y-67936421D01*
X33434500Y-68113578D01*
X33462214Y-68288556D01*
X33516956Y-68457039D01*
X33516957Y-68457042D01*
X33597386Y-68614890D01*
X33701517Y-68758214D01*
X33826786Y-68883483D01*
X33970110Y-68987614D01*
X34038577Y-69022500D01*
X34127957Y-69068042D01*
X34127960Y-69068043D01*
X34212201Y-69095414D01*
X34296445Y-69122786D01*
X34471421Y-69150500D01*
X34471422Y-69150500D01*
X34648578Y-69150500D01*
X34648579Y-69150500D01*
X34823555Y-69122786D01*
X34992042Y-69068042D01*
X35149890Y-68987614D01*
X35293214Y-68883483D01*
X35418483Y-68758214D01*
X35522614Y-68614890D01*
X35603042Y-68457042D01*
X35657786Y-68288555D01*
X35685500Y-68113579D01*
X35685500Y-67936421D01*
X42324500Y-67936421D01*
X42324500Y-68113578D01*
X42352214Y-68288556D01*
X42406956Y-68457039D01*
X42406957Y-68457042D01*
X42487386Y-68614890D01*
X42591517Y-68758214D01*
X42716786Y-68883483D01*
X42860110Y-68987614D01*
X42928577Y-69022500D01*
X43017957Y-69068042D01*
X43017960Y-69068043D01*
X43102201Y-69095414D01*
X43186445Y-69122786D01*
X43361421Y-69150500D01*
X43361422Y-69150500D01*
X43538578Y-69150500D01*
X43538579Y-69150500D01*
X43713555Y-69122786D01*
X43882042Y-69068042D01*
X44039890Y-68987614D01*
X44183214Y-68883483D01*
X44308483Y-68758214D01*
X44412614Y-68614890D01*
X44493042Y-68457042D01*
X44547786Y-68288555D01*
X44575500Y-68113579D01*
X44575500Y-67936421D01*
X44566165Y-67877486D01*
X46279500Y-67877486D01*
X46279500Y-68172513D01*
X46294778Y-68288555D01*
X46318007Y-68464993D01*
X46394361Y-68749951D01*
X46394364Y-68749961D01*
X46507254Y-69022500D01*
X46507258Y-69022510D01*
X46654761Y-69277993D01*
X46834352Y-69512040D01*
X46834358Y-69512047D01*
X47042952Y-69720641D01*
X47042959Y-69720647D01*
X47277006Y-69900238D01*
X47532489Y-70047741D01*
X47532490Y-70047741D01*
X47532493Y-70047743D01*
X47805048Y-70160639D01*
X48090007Y-70236993D01*
X48382494Y-70275500D01*
X48382501Y-70275500D01*
X48677499Y-70275500D01*
X48677506Y-70275500D01*
X48969993Y-70236993D01*
X49254952Y-70160639D01*
X49527507Y-70047743D01*
X49782994Y-69900238D01*
X50017042Y-69720646D01*
X50225646Y-69512042D01*
X50405238Y-69277994D01*
X50552743Y-69022507D01*
X50665639Y-68749952D01*
X50741993Y-68464993D01*
X50780500Y-68172506D01*
X50780500Y-67936421D01*
X52484500Y-67936421D01*
X52484500Y-68113578D01*
X52512214Y-68288556D01*
X52566956Y-68457039D01*
X52566957Y-68457042D01*
X52647386Y-68614890D01*
X52751517Y-68758214D01*
X52876786Y-68883483D01*
X53020110Y-68987614D01*
X53088577Y-69022500D01*
X53177957Y-69068042D01*
X53177960Y-69068043D01*
X53262201Y-69095414D01*
X53346445Y-69122786D01*
X53521421Y-69150500D01*
X53521422Y-69150500D01*
X53698578Y-69150500D01*
X53698579Y-69150500D01*
X53873555Y-69122786D01*
X54042042Y-69068042D01*
X54199890Y-68987614D01*
X54343214Y-68883483D01*
X54468483Y-68758214D01*
X54572614Y-68614890D01*
X54653042Y-68457042D01*
X54707786Y-68288555D01*
X54735500Y-68113579D01*
X54735500Y-67936421D01*
X61374500Y-67936421D01*
X61374500Y-68113578D01*
X61402214Y-68288556D01*
X61456956Y-68457039D01*
X61456957Y-68457042D01*
X61537386Y-68614890D01*
X61641517Y-68758214D01*
X61766786Y-68883483D01*
X61910110Y-68987614D01*
X61978577Y-69022500D01*
X62067957Y-69068042D01*
X62067960Y-69068043D01*
X62152201Y-69095414D01*
X62236445Y-69122786D01*
X62411421Y-69150500D01*
X62411422Y-69150500D01*
X62588578Y-69150500D01*
X62588579Y-69150500D01*
X62763555Y-69122786D01*
X62932042Y-69068042D01*
X63089890Y-68987614D01*
X63233214Y-68883483D01*
X63358483Y-68758214D01*
X63462614Y-68614890D01*
X63543042Y-68457042D01*
X63597786Y-68288555D01*
X63625500Y-68113579D01*
X63625500Y-67936421D01*
X63616165Y-67877486D01*
X65329500Y-67877486D01*
X65329500Y-68172513D01*
X65344778Y-68288555D01*
X65368007Y-68464993D01*
X65444361Y-68749951D01*
X65444364Y-68749961D01*
X65557254Y-69022500D01*
X65557258Y-69022510D01*
X65704761Y-69277993D01*
X65884352Y-69512040D01*
X65884358Y-69512047D01*
X66092952Y-69720641D01*
X66092959Y-69720647D01*
X66327006Y-69900238D01*
X66582489Y-70047741D01*
X66582490Y-70047741D01*
X66582493Y-70047743D01*
X66855048Y-70160639D01*
X67140007Y-70236993D01*
X67432494Y-70275500D01*
X67432501Y-70275500D01*
X67727499Y-70275500D01*
X67727506Y-70275500D01*
X68019993Y-70236993D01*
X68304952Y-70160639D01*
X68577507Y-70047743D01*
X68832994Y-69900238D01*
X69067042Y-69720646D01*
X69275646Y-69512042D01*
X69455238Y-69277994D01*
X69602743Y-69022507D01*
X69715639Y-68749952D01*
X69791993Y-68464993D01*
X69830500Y-68172506D01*
X69830500Y-67936421D01*
X71534500Y-67936421D01*
X71534500Y-68113578D01*
X71562214Y-68288556D01*
X71616956Y-68457039D01*
X71616957Y-68457042D01*
X71697386Y-68614890D01*
X71801517Y-68758214D01*
X71926786Y-68883483D01*
X72070110Y-68987614D01*
X72138577Y-69022500D01*
X72227957Y-69068042D01*
X72227960Y-69068043D01*
X72312201Y-69095414D01*
X72396445Y-69122786D01*
X72571421Y-69150500D01*
X72571422Y-69150500D01*
X72748578Y-69150500D01*
X72748579Y-69150500D01*
X72923555Y-69122786D01*
X73092042Y-69068042D01*
X73249890Y-68987614D01*
X73393214Y-68883483D01*
X73518483Y-68758214D01*
X73622614Y-68614890D01*
X73703042Y-68457042D01*
X73757786Y-68288555D01*
X73785500Y-68113579D01*
X73785500Y-67936421D01*
X80424500Y-67936421D01*
X80424500Y-68113578D01*
X80452214Y-68288556D01*
X80506956Y-68457039D01*
X80506957Y-68457042D01*
X80587386Y-68614890D01*
X80691517Y-68758214D01*
X80816786Y-68883483D01*
X80960110Y-68987614D01*
X81028577Y-69022500D01*
X81117957Y-69068042D01*
X81117960Y-69068043D01*
X81202201Y-69095414D01*
X81286445Y-69122786D01*
X81461421Y-69150500D01*
X81461422Y-69150500D01*
X81638578Y-69150500D01*
X81638579Y-69150500D01*
X81813555Y-69122786D01*
X81982042Y-69068042D01*
X82139890Y-68987614D01*
X82283214Y-68883483D01*
X82408483Y-68758214D01*
X82512614Y-68614890D01*
X82593042Y-68457042D01*
X82647786Y-68288555D01*
X82675500Y-68113579D01*
X82675500Y-67936421D01*
X82666165Y-67877486D01*
X84379500Y-67877486D01*
X84379500Y-68172513D01*
X84394778Y-68288555D01*
X84418007Y-68464993D01*
X84494361Y-68749951D01*
X84494364Y-68749961D01*
X84607254Y-69022500D01*
X84607258Y-69022510D01*
X84754761Y-69277993D01*
X84934352Y-69512040D01*
X84934358Y-69512047D01*
X85142952Y-69720641D01*
X85142959Y-69720647D01*
X85377006Y-69900238D01*
X85632489Y-70047741D01*
X85632490Y-70047741D01*
X85632493Y-70047743D01*
X85905048Y-70160639D01*
X86190007Y-70236993D01*
X86482494Y-70275500D01*
X86482501Y-70275500D01*
X86777499Y-70275500D01*
X86777506Y-70275500D01*
X87069993Y-70236993D01*
X87354952Y-70160639D01*
X87627507Y-70047743D01*
X87882994Y-69900238D01*
X88117042Y-69720646D01*
X88325646Y-69512042D01*
X88505238Y-69277994D01*
X88652743Y-69022507D01*
X88765639Y-68749952D01*
X88841993Y-68464993D01*
X88880500Y-68172506D01*
X88880500Y-67936421D01*
X90584500Y-67936421D01*
X90584500Y-68113578D01*
X90612214Y-68288556D01*
X90666956Y-68457039D01*
X90666957Y-68457042D01*
X90747386Y-68614890D01*
X90851517Y-68758214D01*
X90976786Y-68883483D01*
X91120110Y-68987614D01*
X91188577Y-69022500D01*
X91277957Y-69068042D01*
X91277960Y-69068043D01*
X91362201Y-69095414D01*
X91446445Y-69122786D01*
X91621421Y-69150500D01*
X91621422Y-69150500D01*
X91798578Y-69150500D01*
X91798579Y-69150500D01*
X91973555Y-69122786D01*
X92142042Y-69068042D01*
X92299890Y-68987614D01*
X92443214Y-68883483D01*
X92568483Y-68758214D01*
X92672614Y-68614890D01*
X92753042Y-68457042D01*
X92807786Y-68288555D01*
X92835500Y-68113579D01*
X92835500Y-67936421D01*
X92807786Y-67761445D01*
X92753042Y-67592958D01*
X92753042Y-67592957D01*
X92672613Y-67435109D01*
X92661518Y-67419838D01*
X92568483Y-67291786D01*
X92443214Y-67166517D01*
X92299890Y-67062386D01*
X92291953Y-67058342D01*
X92142042Y-66981957D01*
X92142039Y-66981956D01*
X91973556Y-66927214D01*
X91886067Y-66913357D01*
X91798579Y-66899500D01*
X91621421Y-66899500D01*
X91563095Y-66908738D01*
X91446443Y-66927214D01*
X91277960Y-66981956D01*
X91277957Y-66981957D01*
X91120109Y-67062386D01*
X91038338Y-67121796D01*
X90976786Y-67166517D01*
X90976784Y-67166519D01*
X90976783Y-67166519D01*
X90851519Y-67291783D01*
X90851519Y-67291784D01*
X90851517Y-67291786D01*
X90806796Y-67353338D01*
X90747386Y-67435109D01*
X90666957Y-67592957D01*
X90666956Y-67592960D01*
X90612214Y-67761443D01*
X90584500Y-67936421D01*
X88880500Y-67936421D01*
X88880500Y-67877494D01*
X88841993Y-67585007D01*
X88765639Y-67300048D01*
X88652743Y-67027493D01*
X88626453Y-66981958D01*
X88505238Y-66772006D01*
X88325647Y-66537959D01*
X88325641Y-66537952D01*
X88117047Y-66329358D01*
X88117040Y-66329352D01*
X87882993Y-66149761D01*
X87627510Y-66002258D01*
X87627500Y-66002254D01*
X87354961Y-65889364D01*
X87354954Y-65889362D01*
X87354952Y-65889361D01*
X87069993Y-65813007D01*
X87021113Y-65806571D01*
X86777513Y-65774500D01*
X86777506Y-65774500D01*
X86482494Y-65774500D01*
X86482486Y-65774500D01*
X86204085Y-65811153D01*
X86190007Y-65813007D01*
X85905048Y-65889361D01*
X85905038Y-65889364D01*
X85632499Y-66002254D01*
X85632489Y-66002258D01*
X85377006Y-66149761D01*
X85142959Y-66329352D01*
X85142952Y-66329358D01*
X84934358Y-66537952D01*
X84934352Y-66537959D01*
X84754761Y-66772006D01*
X84607258Y-67027489D01*
X84607254Y-67027499D01*
X84494364Y-67300038D01*
X84494361Y-67300048D01*
X84458172Y-67435110D01*
X84418008Y-67585004D01*
X84418006Y-67585015D01*
X84379500Y-67877486D01*
X82666165Y-67877486D01*
X82647786Y-67761445D01*
X82593042Y-67592958D01*
X82593042Y-67592957D01*
X82512613Y-67435109D01*
X82501518Y-67419838D01*
X82478038Y-67354032D01*
X82493863Y-67285978D01*
X82543968Y-67237283D01*
X82612446Y-67223407D01*
X82617977Y-67224008D01*
X82705266Y-67235500D01*
X82705273Y-67235500D01*
X82934727Y-67235500D01*
X82934734Y-67235500D01*
X83162238Y-67205548D01*
X83383887Y-67146158D01*
X83595888Y-67058344D01*
X83794612Y-66943611D01*
X83976661Y-66803919D01*
X83976665Y-66803914D01*
X83976670Y-66803911D01*
X84138911Y-66641670D01*
X84138914Y-66641665D01*
X84138919Y-66641661D01*
X84278611Y-66459612D01*
X84393344Y-66260888D01*
X84481158Y-66048887D01*
X84540548Y-65827238D01*
X84570500Y-65599734D01*
X84570500Y-65370266D01*
X84540548Y-65142762D01*
X84481158Y-64921113D01*
X84395461Y-64714223D01*
X84393349Y-64709123D01*
X84393346Y-64709117D01*
X84393344Y-64709112D01*
X84278611Y-64510388D01*
X84278608Y-64510385D01*
X84278607Y-64510382D01*
X84138918Y-64328338D01*
X84138911Y-64328330D01*
X83976670Y-64166089D01*
X83976661Y-64166081D01*
X83794617Y-64026392D01*
X83595890Y-63911657D01*
X83595876Y-63911650D01*
X83383887Y-63823842D01*
X83162238Y-63764452D01*
X83124215Y-63759446D01*
X82934741Y-63734500D01*
X82934734Y-63734500D01*
X82705266Y-63734500D01*
X82705258Y-63734500D01*
X82488715Y-63763009D01*
X82477762Y-63764452D01*
X82384076Y-63789554D01*
X82256112Y-63823842D01*
X82044123Y-63911650D01*
X82044109Y-63911657D01*
X81845382Y-64026392D01*
X81663338Y-64166081D01*
X81501081Y-64328338D01*
X81361392Y-64510382D01*
X81246657Y-64709109D01*
X81246650Y-64709123D01*
X81158842Y-64921112D01*
X81099453Y-65142759D01*
X81099451Y-65142770D01*
X81069500Y-65370258D01*
X81069500Y-65599741D01*
X81092509Y-65774500D01*
X81099452Y-65827238D01*
X81146347Y-66002254D01*
X81158842Y-66048887D01*
X81246650Y-66260876D01*
X81246657Y-66260890D01*
X81361392Y-66459617D01*
X81501081Y-66641661D01*
X81501089Y-66641670D01*
X81547238Y-66687819D01*
X81580723Y-66749142D01*
X81575739Y-66818834D01*
X81533867Y-66874767D01*
X81468403Y-66899184D01*
X81462967Y-66899378D01*
X81461423Y-66899499D01*
X81286443Y-66927214D01*
X81117960Y-66981956D01*
X81117957Y-66981957D01*
X80960109Y-67062386D01*
X80878338Y-67121796D01*
X80816786Y-67166517D01*
X80816784Y-67166519D01*
X80816783Y-67166519D01*
X80691519Y-67291783D01*
X80691519Y-67291784D01*
X80691517Y-67291786D01*
X80646796Y-67353338D01*
X80587386Y-67435109D01*
X80506957Y-67592957D01*
X80506956Y-67592960D01*
X80452214Y-67761443D01*
X80424500Y-67936421D01*
X73785500Y-67936421D01*
X73757786Y-67761445D01*
X73703042Y-67592958D01*
X73703042Y-67592957D01*
X73622613Y-67435109D01*
X73611518Y-67419838D01*
X73518483Y-67291786D01*
X73393214Y-67166517D01*
X73249890Y-67062386D01*
X73241953Y-67058342D01*
X73092042Y-66981957D01*
X73092039Y-66981956D01*
X72923556Y-66927214D01*
X72836067Y-66913357D01*
X72748579Y-66899500D01*
X72571421Y-66899500D01*
X72513095Y-66908738D01*
X72396443Y-66927214D01*
X72227960Y-66981956D01*
X72227957Y-66981957D01*
X72070109Y-67062386D01*
X71988338Y-67121796D01*
X71926786Y-67166517D01*
X71926784Y-67166519D01*
X71926783Y-67166519D01*
X71801519Y-67291783D01*
X71801519Y-67291784D01*
X71801517Y-67291786D01*
X71756796Y-67353338D01*
X71697386Y-67435109D01*
X71616957Y-67592957D01*
X71616956Y-67592960D01*
X71562214Y-67761443D01*
X71534500Y-67936421D01*
X69830500Y-67936421D01*
X69830500Y-67877494D01*
X69791993Y-67585007D01*
X69715639Y-67300048D01*
X69602743Y-67027493D01*
X69576453Y-66981958D01*
X69455238Y-66772006D01*
X69275647Y-66537959D01*
X69275641Y-66537952D01*
X69067047Y-66329358D01*
X69067040Y-66329352D01*
X68832993Y-66149761D01*
X68577510Y-66002258D01*
X68577500Y-66002254D01*
X68304961Y-65889364D01*
X68304954Y-65889362D01*
X68304952Y-65889361D01*
X68019993Y-65813007D01*
X67971113Y-65806571D01*
X67727513Y-65774500D01*
X67727506Y-65774500D01*
X67432494Y-65774500D01*
X67432486Y-65774500D01*
X67154085Y-65811153D01*
X67140007Y-65813007D01*
X66855048Y-65889361D01*
X66855038Y-65889364D01*
X66582499Y-66002254D01*
X66582489Y-66002258D01*
X66327006Y-66149761D01*
X66092959Y-66329352D01*
X66092952Y-66329358D01*
X65884358Y-66537952D01*
X65884352Y-66537959D01*
X65704761Y-66772006D01*
X65557258Y-67027489D01*
X65557254Y-67027499D01*
X65444364Y-67300038D01*
X65444361Y-67300048D01*
X65408172Y-67435110D01*
X65368008Y-67585004D01*
X65368006Y-67585015D01*
X65329500Y-67877486D01*
X63616165Y-67877486D01*
X63597786Y-67761445D01*
X63543042Y-67592958D01*
X63543042Y-67592957D01*
X63462613Y-67435109D01*
X63451518Y-67419838D01*
X63428038Y-67354032D01*
X63443863Y-67285978D01*
X63493968Y-67237283D01*
X63562446Y-67223407D01*
X63567977Y-67224008D01*
X63655266Y-67235500D01*
X63655273Y-67235500D01*
X63884727Y-67235500D01*
X63884734Y-67235500D01*
X64112238Y-67205548D01*
X64333887Y-67146158D01*
X64545888Y-67058344D01*
X64744612Y-66943611D01*
X64926661Y-66803919D01*
X64926665Y-66803914D01*
X64926670Y-66803911D01*
X65088911Y-66641670D01*
X65088914Y-66641665D01*
X65088919Y-66641661D01*
X65228611Y-66459612D01*
X65343344Y-66260888D01*
X65431158Y-66048887D01*
X65490548Y-65827238D01*
X65520500Y-65599734D01*
X65520500Y-65370266D01*
X65490548Y-65142762D01*
X65431158Y-64921113D01*
X65345461Y-64714223D01*
X65343349Y-64709123D01*
X65343346Y-64709117D01*
X65343344Y-64709112D01*
X65228611Y-64510388D01*
X65228608Y-64510385D01*
X65228607Y-64510382D01*
X65088918Y-64328338D01*
X65088911Y-64328330D01*
X64926670Y-64166089D01*
X64926661Y-64166081D01*
X64744617Y-64026392D01*
X64545890Y-63911657D01*
X64545876Y-63911650D01*
X64333887Y-63823842D01*
X64112238Y-63764452D01*
X64074215Y-63759446D01*
X63884741Y-63734500D01*
X63884734Y-63734500D01*
X63655266Y-63734500D01*
X63655258Y-63734500D01*
X63438715Y-63763009D01*
X63427762Y-63764452D01*
X63334076Y-63789554D01*
X63206112Y-63823842D01*
X62994123Y-63911650D01*
X62994109Y-63911657D01*
X62795382Y-64026392D01*
X62613338Y-64166081D01*
X62451081Y-64328338D01*
X62311392Y-64510382D01*
X62196657Y-64709109D01*
X62196650Y-64709123D01*
X62108842Y-64921112D01*
X62049453Y-65142759D01*
X62049451Y-65142770D01*
X62019500Y-65370258D01*
X62019500Y-65599741D01*
X62042509Y-65774500D01*
X62049452Y-65827238D01*
X62096347Y-66002254D01*
X62108842Y-66048887D01*
X62196650Y-66260876D01*
X62196657Y-66260890D01*
X62311392Y-66459617D01*
X62451081Y-66641661D01*
X62451089Y-66641670D01*
X62497238Y-66687819D01*
X62530723Y-66749142D01*
X62525739Y-66818834D01*
X62483867Y-66874767D01*
X62418403Y-66899184D01*
X62412967Y-66899378D01*
X62411423Y-66899499D01*
X62236443Y-66927214D01*
X62067960Y-66981956D01*
X62067957Y-66981957D01*
X61910109Y-67062386D01*
X61828338Y-67121796D01*
X61766786Y-67166517D01*
X61766784Y-67166519D01*
X61766783Y-67166519D01*
X61641519Y-67291783D01*
X61641519Y-67291784D01*
X61641517Y-67291786D01*
X61596796Y-67353338D01*
X61537386Y-67435109D01*
X61456957Y-67592957D01*
X61456956Y-67592960D01*
X61402214Y-67761443D01*
X61374500Y-67936421D01*
X54735500Y-67936421D01*
X54707786Y-67761445D01*
X54653042Y-67592958D01*
X54653042Y-67592957D01*
X54572613Y-67435109D01*
X54561518Y-67419838D01*
X54468483Y-67291786D01*
X54343214Y-67166517D01*
X54199890Y-67062386D01*
X54191953Y-67058342D01*
X54042042Y-66981957D01*
X54042039Y-66981956D01*
X53873556Y-66927214D01*
X53786067Y-66913357D01*
X53698579Y-66899500D01*
X53521421Y-66899500D01*
X53463095Y-66908738D01*
X53346443Y-66927214D01*
X53177960Y-66981956D01*
X53177957Y-66981957D01*
X53020109Y-67062386D01*
X52938338Y-67121796D01*
X52876786Y-67166517D01*
X52876784Y-67166519D01*
X52876783Y-67166519D01*
X52751519Y-67291783D01*
X52751519Y-67291784D01*
X52751517Y-67291786D01*
X52706796Y-67353338D01*
X52647386Y-67435109D01*
X52566957Y-67592957D01*
X52566956Y-67592960D01*
X52512214Y-67761443D01*
X52484500Y-67936421D01*
X50780500Y-67936421D01*
X50780500Y-67877494D01*
X50741993Y-67585007D01*
X50665639Y-67300048D01*
X50552743Y-67027493D01*
X50526453Y-66981958D01*
X50405238Y-66772006D01*
X50225647Y-66537959D01*
X50225641Y-66537952D01*
X50017047Y-66329358D01*
X50017040Y-66329352D01*
X49782993Y-66149761D01*
X49527510Y-66002258D01*
X49527500Y-66002254D01*
X49254961Y-65889364D01*
X49254954Y-65889362D01*
X49254952Y-65889361D01*
X48969993Y-65813007D01*
X48921113Y-65806571D01*
X48677513Y-65774500D01*
X48677506Y-65774500D01*
X48382494Y-65774500D01*
X48382486Y-65774500D01*
X48104085Y-65811153D01*
X48090007Y-65813007D01*
X47805048Y-65889361D01*
X47805038Y-65889364D01*
X47532499Y-66002254D01*
X47532489Y-66002258D01*
X47277006Y-66149761D01*
X47042959Y-66329352D01*
X47042952Y-66329358D01*
X46834358Y-66537952D01*
X46834352Y-66537959D01*
X46654761Y-66772006D01*
X46507258Y-67027489D01*
X46507254Y-67027499D01*
X46394364Y-67300038D01*
X46394361Y-67300048D01*
X46358172Y-67435110D01*
X46318008Y-67585004D01*
X46318006Y-67585015D01*
X46279500Y-67877486D01*
X44566165Y-67877486D01*
X44547786Y-67761445D01*
X44493042Y-67592958D01*
X44493042Y-67592957D01*
X44412613Y-67435109D01*
X44401518Y-67419838D01*
X44378038Y-67354032D01*
X44393863Y-67285978D01*
X44443968Y-67237283D01*
X44512446Y-67223407D01*
X44517977Y-67224008D01*
X44605266Y-67235500D01*
X44605273Y-67235500D01*
X44834727Y-67235500D01*
X44834734Y-67235500D01*
X45062238Y-67205548D01*
X45283887Y-67146158D01*
X45495888Y-67058344D01*
X45694612Y-66943611D01*
X45876661Y-66803919D01*
X45876665Y-66803914D01*
X45876670Y-66803911D01*
X46038911Y-66641670D01*
X46038914Y-66641665D01*
X46038919Y-66641661D01*
X46178611Y-66459612D01*
X46293344Y-66260888D01*
X46381158Y-66048887D01*
X46440548Y-65827238D01*
X46470500Y-65599734D01*
X46470500Y-65370266D01*
X46440548Y-65142762D01*
X46381158Y-64921113D01*
X46295461Y-64714223D01*
X46293349Y-64709123D01*
X46293346Y-64709117D01*
X46293344Y-64709112D01*
X46178611Y-64510388D01*
X46178608Y-64510385D01*
X46178607Y-64510382D01*
X46038918Y-64328338D01*
X46038911Y-64328330D01*
X45876670Y-64166089D01*
X45876661Y-64166081D01*
X45694617Y-64026392D01*
X45495890Y-63911657D01*
X45495876Y-63911650D01*
X45283887Y-63823842D01*
X45062238Y-63764452D01*
X45024215Y-63759446D01*
X44834741Y-63734500D01*
X44834734Y-63734500D01*
X44605266Y-63734500D01*
X44605258Y-63734500D01*
X44388715Y-63763009D01*
X44377762Y-63764452D01*
X44284076Y-63789554D01*
X44156112Y-63823842D01*
X43944123Y-63911650D01*
X43944109Y-63911657D01*
X43745382Y-64026392D01*
X43563338Y-64166081D01*
X43401081Y-64328338D01*
X43261392Y-64510382D01*
X43146657Y-64709109D01*
X43146650Y-64709123D01*
X43058842Y-64921112D01*
X42999453Y-65142759D01*
X42999451Y-65142770D01*
X42969500Y-65370258D01*
X42969500Y-65599741D01*
X42992509Y-65774500D01*
X42999452Y-65827238D01*
X43046347Y-66002254D01*
X43058842Y-66048887D01*
X43146650Y-66260876D01*
X43146657Y-66260890D01*
X43261392Y-66459617D01*
X43401081Y-66641661D01*
X43401089Y-66641670D01*
X43447238Y-66687819D01*
X43480723Y-66749142D01*
X43475739Y-66818834D01*
X43433867Y-66874767D01*
X43368403Y-66899184D01*
X43362967Y-66899378D01*
X43361423Y-66899499D01*
X43186443Y-66927214D01*
X43017960Y-66981956D01*
X43017957Y-66981957D01*
X42860109Y-67062386D01*
X42778338Y-67121796D01*
X42716786Y-67166517D01*
X42716784Y-67166519D01*
X42716783Y-67166519D01*
X42591519Y-67291783D01*
X42591519Y-67291784D01*
X42591517Y-67291786D01*
X42546796Y-67353338D01*
X42487386Y-67435109D01*
X42406957Y-67592957D01*
X42406956Y-67592960D01*
X42352214Y-67761443D01*
X42324500Y-67936421D01*
X35685500Y-67936421D01*
X35657786Y-67761445D01*
X35603042Y-67592958D01*
X35603042Y-67592957D01*
X35522613Y-67435109D01*
X35511518Y-67419838D01*
X35418483Y-67291786D01*
X35293214Y-67166517D01*
X35149890Y-67062386D01*
X35141953Y-67058342D01*
X34992042Y-66981957D01*
X34992039Y-66981956D01*
X34823556Y-66927214D01*
X34736067Y-66913357D01*
X34648579Y-66899500D01*
X34471421Y-66899500D01*
X34413095Y-66908738D01*
X34296443Y-66927214D01*
X34127960Y-66981956D01*
X34127957Y-66981957D01*
X33970109Y-67062386D01*
X33888338Y-67121796D01*
X33826786Y-67166517D01*
X33826784Y-67166519D01*
X33826783Y-67166519D01*
X33701519Y-67291783D01*
X33701519Y-67291784D01*
X33701517Y-67291786D01*
X33656796Y-67353338D01*
X33597386Y-67435109D01*
X33516957Y-67592957D01*
X33516956Y-67592960D01*
X33462214Y-67761443D01*
X33434500Y-67936421D01*
X31730500Y-67936421D01*
X31730500Y-67877494D01*
X31691993Y-67585007D01*
X31615639Y-67300048D01*
X31502743Y-67027493D01*
X31476453Y-66981958D01*
X31355238Y-66772006D01*
X31175647Y-66537959D01*
X31175641Y-66537952D01*
X30967047Y-66329358D01*
X30967040Y-66329352D01*
X30732993Y-66149761D01*
X30477510Y-66002258D01*
X30477500Y-66002254D01*
X30204961Y-65889364D01*
X30204954Y-65889362D01*
X30204952Y-65889361D01*
X29919993Y-65813007D01*
X29871113Y-65806571D01*
X29627513Y-65774500D01*
X29627506Y-65774500D01*
X29332494Y-65774500D01*
X29332486Y-65774500D01*
X29054085Y-65811153D01*
X29040007Y-65813007D01*
X28755048Y-65889361D01*
X28755038Y-65889364D01*
X28482499Y-66002254D01*
X28482489Y-66002258D01*
X28227006Y-66149761D01*
X27992959Y-66329352D01*
X27992952Y-66329358D01*
X27784358Y-66537952D01*
X27784352Y-66537959D01*
X27604761Y-66772006D01*
X27457258Y-67027489D01*
X27457254Y-67027499D01*
X27344364Y-67300038D01*
X27344361Y-67300048D01*
X27308172Y-67435110D01*
X27268008Y-67585004D01*
X27268006Y-67585015D01*
X27229500Y-67877486D01*
X25516165Y-67877486D01*
X25497786Y-67761445D01*
X25443042Y-67592958D01*
X25443042Y-67592957D01*
X25362613Y-67435109D01*
X25351518Y-67419838D01*
X25328038Y-67354032D01*
X25343863Y-67285978D01*
X25393968Y-67237283D01*
X25462446Y-67223407D01*
X25467977Y-67224008D01*
X25555266Y-67235500D01*
X25555273Y-67235500D01*
X25784727Y-67235500D01*
X25784734Y-67235500D01*
X26012238Y-67205548D01*
X26233887Y-67146158D01*
X26445888Y-67058344D01*
X26644612Y-66943611D01*
X26826661Y-66803919D01*
X26826665Y-66803914D01*
X26826670Y-66803911D01*
X26988911Y-66641670D01*
X26988914Y-66641665D01*
X26988919Y-66641661D01*
X27128611Y-66459612D01*
X27243344Y-66260888D01*
X27331158Y-66048887D01*
X27390548Y-65827238D01*
X27420500Y-65599734D01*
X27420500Y-65370266D01*
X27390548Y-65142762D01*
X27331158Y-64921113D01*
X27245461Y-64714223D01*
X27243349Y-64709123D01*
X27243346Y-64709117D01*
X27243344Y-64709112D01*
X27128611Y-64510388D01*
X27128608Y-64510385D01*
X27128607Y-64510382D01*
X26988918Y-64328338D01*
X26988911Y-64328330D01*
X26826670Y-64166089D01*
X26826661Y-64166081D01*
X26644617Y-64026392D01*
X26445890Y-63911657D01*
X26445876Y-63911650D01*
X26233887Y-63823842D01*
X26012238Y-63764452D01*
X25974215Y-63759446D01*
X25784741Y-63734500D01*
X25784734Y-63734500D01*
X25555266Y-63734500D01*
X25555258Y-63734500D01*
X25338715Y-63763009D01*
X25327762Y-63764452D01*
X25234076Y-63789554D01*
X25106112Y-63823842D01*
X24894123Y-63911650D01*
X24894109Y-63911657D01*
X24695382Y-64026392D01*
X24513338Y-64166081D01*
X24351081Y-64328338D01*
X24211392Y-64510382D01*
X24096657Y-64709109D01*
X24096650Y-64709123D01*
X24008842Y-64921112D01*
X23949453Y-65142759D01*
X23949451Y-65142770D01*
X23919500Y-65370258D01*
X23919500Y-65599741D01*
X23942509Y-65774500D01*
X23949452Y-65827238D01*
X23996347Y-66002254D01*
X24008842Y-66048887D01*
X24096650Y-66260876D01*
X24096657Y-66260890D01*
X24211392Y-66459617D01*
X24351081Y-66641661D01*
X24351089Y-66641670D01*
X24397238Y-66687819D01*
X24430723Y-66749142D01*
X24425739Y-66818834D01*
X24383867Y-66874767D01*
X24318403Y-66899184D01*
X24312967Y-66899378D01*
X24311423Y-66899499D01*
X24136443Y-66927214D01*
X23967960Y-66981956D01*
X23967957Y-66981957D01*
X23810109Y-67062386D01*
X23728338Y-67121796D01*
X23666786Y-67166517D01*
X23666784Y-67166519D01*
X23666783Y-67166519D01*
X23541519Y-67291783D01*
X23541519Y-67291784D01*
X23541517Y-67291786D01*
X23496796Y-67353338D01*
X23437386Y-67435109D01*
X23356957Y-67592957D01*
X23356956Y-67592960D01*
X23302214Y-67761443D01*
X23274500Y-67936421D01*
X19080500Y-67936421D01*
X19080500Y-62830258D01*
X30269500Y-62830258D01*
X30269500Y-63059741D01*
X30290998Y-63223028D01*
X30299452Y-63287238D01*
X30299453Y-63287240D01*
X30358842Y-63508887D01*
X30446650Y-63720876D01*
X30446657Y-63720890D01*
X30561392Y-63919617D01*
X30701081Y-64101661D01*
X30701089Y-64101670D01*
X30863330Y-64263911D01*
X30863338Y-64263918D01*
X31045382Y-64403607D01*
X31045385Y-64403608D01*
X31045388Y-64403611D01*
X31244112Y-64518344D01*
X31244117Y-64518346D01*
X31244123Y-64518349D01*
X31335480Y-64556190D01*
X31456113Y-64606158D01*
X31677762Y-64665548D01*
X31905266Y-64695500D01*
X31905273Y-64695500D01*
X32134727Y-64695500D01*
X32134734Y-64695500D01*
X32362238Y-64665548D01*
X32583887Y-64606158D01*
X32795888Y-64518344D01*
X32994612Y-64403611D01*
X33176661Y-64263919D01*
X33176665Y-64263914D01*
X33176670Y-64263911D01*
X33338911Y-64101670D01*
X33338914Y-64101665D01*
X33338919Y-64101661D01*
X33478611Y-63919612D01*
X33593344Y-63720888D01*
X33595459Y-63715781D01*
X33623930Y-63647048D01*
X33667771Y-63592644D01*
X33734065Y-63570579D01*
X33738491Y-63570500D01*
X37424548Y-63570500D01*
X37491587Y-63590185D01*
X37512229Y-63606819D01*
X37702781Y-63797371D01*
X37736266Y-63858694D01*
X37735785Y-63905416D01*
X37737285Y-63905654D01*
X37704500Y-64112648D01*
X37704500Y-64317351D01*
X37736522Y-64519534D01*
X37799781Y-64714223D01*
X37892715Y-64896613D01*
X38013028Y-65062213D01*
X38157786Y-65206971D01*
X38312749Y-65319556D01*
X38323390Y-65327287D01*
X38407741Y-65370266D01*
X38505776Y-65420218D01*
X38505778Y-65420218D01*
X38505781Y-65420220D01*
X38610137Y-65454127D01*
X38700465Y-65483477D01*
X38801557Y-65499488D01*
X38902648Y-65515500D01*
X38902649Y-65515500D01*
X39107351Y-65515500D01*
X39107352Y-65515500D01*
X39309534Y-65483477D01*
X39504219Y-65420220D01*
X39686610Y-65327287D01*
X39779590Y-65259732D01*
X39852213Y-65206971D01*
X39852215Y-65206968D01*
X39852219Y-65206966D01*
X39996966Y-65062219D01*
X39996968Y-65062215D01*
X39996971Y-65062213D01*
X40049732Y-64989590D01*
X40117287Y-64896610D01*
X40210220Y-64714219D01*
X40273477Y-64519534D01*
X40305500Y-64317352D01*
X40305500Y-64112648D01*
X40291838Y-64026389D01*
X40273477Y-63910465D01*
X40210218Y-63715776D01*
X40147478Y-63592644D01*
X40117287Y-63533390D01*
X40099485Y-63508887D01*
X39996971Y-63367786D01*
X39852213Y-63223028D01*
X39686613Y-63102715D01*
X39686612Y-63102714D01*
X39686610Y-63102713D01*
X39602273Y-63059741D01*
X39504223Y-63009781D01*
X39309534Y-62946522D01*
X39134995Y-62918878D01*
X39107352Y-62914500D01*
X38902648Y-62914500D01*
X38799101Y-62930900D01*
X38695654Y-62947285D01*
X38695333Y-62945262D01*
X38634120Y-62942149D01*
X38587371Y-62912781D01*
X38504848Y-62830258D01*
X49319500Y-62830258D01*
X49319500Y-63059741D01*
X49340998Y-63223028D01*
X49349452Y-63287238D01*
X49349453Y-63287240D01*
X49408842Y-63508887D01*
X49496650Y-63720876D01*
X49496657Y-63720890D01*
X49611392Y-63919617D01*
X49751081Y-64101661D01*
X49751089Y-64101670D01*
X49913330Y-64263911D01*
X49913338Y-64263918D01*
X50095382Y-64403607D01*
X50095385Y-64403608D01*
X50095388Y-64403611D01*
X50294112Y-64518344D01*
X50294117Y-64518346D01*
X50294123Y-64518349D01*
X50385480Y-64556190D01*
X50506113Y-64606158D01*
X50727762Y-64665548D01*
X50955266Y-64695500D01*
X50955273Y-64695500D01*
X51184727Y-64695500D01*
X51184734Y-64695500D01*
X51412238Y-64665548D01*
X51633887Y-64606158D01*
X51845888Y-64518344D01*
X52044612Y-64403611D01*
X52226661Y-64263919D01*
X52226665Y-64263914D01*
X52226670Y-64263911D01*
X52388911Y-64101670D01*
X52388914Y-64101665D01*
X52388919Y-64101661D01*
X52528611Y-63919612D01*
X52643344Y-63720888D01*
X52645459Y-63715781D01*
X52673930Y-63647048D01*
X52717771Y-63592644D01*
X52784065Y-63570579D01*
X52788491Y-63570500D01*
X56518298Y-63570500D01*
X56585337Y-63590185D01*
X56605979Y-63606819D01*
X56796531Y-63797371D01*
X56830016Y-63858694D01*
X56829535Y-63905416D01*
X56831035Y-63905654D01*
X56798250Y-64112648D01*
X56798250Y-64317351D01*
X56830272Y-64519534D01*
X56893531Y-64714223D01*
X56986465Y-64896613D01*
X57106778Y-65062213D01*
X57251536Y-65206971D01*
X57406499Y-65319556D01*
X57417140Y-65327287D01*
X57501491Y-65370266D01*
X57599526Y-65420218D01*
X57599528Y-65420218D01*
X57599531Y-65420220D01*
X57703887Y-65454127D01*
X57794215Y-65483477D01*
X57895307Y-65499488D01*
X57996398Y-65515500D01*
X57996399Y-65515500D01*
X58201101Y-65515500D01*
X58201102Y-65515500D01*
X58403284Y-65483477D01*
X58597969Y-65420220D01*
X58780360Y-65327287D01*
X58873340Y-65259732D01*
X58945963Y-65206971D01*
X58945965Y-65206968D01*
X58945969Y-65206966D01*
X59090716Y-65062219D01*
X59090718Y-65062215D01*
X59090721Y-65062213D01*
X59143482Y-64989590D01*
X59211037Y-64896610D01*
X59303970Y-64714219D01*
X59367227Y-64519534D01*
X59399250Y-64317352D01*
X59399250Y-64112648D01*
X59385588Y-64026389D01*
X59367227Y-63910465D01*
X59303968Y-63715776D01*
X59241228Y-63592644D01*
X59211037Y-63533390D01*
X59193235Y-63508887D01*
X59090721Y-63367786D01*
X58945963Y-63223028D01*
X58780363Y-63102715D01*
X58780362Y-63102714D01*
X58780360Y-63102713D01*
X58696023Y-63059741D01*
X58597973Y-63009781D01*
X58403284Y-62946522D01*
X58228745Y-62918878D01*
X58201102Y-62914500D01*
X57996398Y-62914500D01*
X57892851Y-62930900D01*
X57789404Y-62947285D01*
X57789083Y-62945262D01*
X57727870Y-62942149D01*
X57681121Y-62912781D01*
X57598598Y-62830258D01*
X68369500Y-62830258D01*
X68369500Y-63059741D01*
X68390998Y-63223028D01*
X68399452Y-63287238D01*
X68399453Y-63287240D01*
X68458842Y-63508887D01*
X68546650Y-63720876D01*
X68546657Y-63720890D01*
X68661392Y-63919617D01*
X68801081Y-64101661D01*
X68801089Y-64101670D01*
X68963330Y-64263911D01*
X68963338Y-64263918D01*
X69145382Y-64403607D01*
X69145385Y-64403608D01*
X69145388Y-64403611D01*
X69344112Y-64518344D01*
X69344117Y-64518346D01*
X69344123Y-64518349D01*
X69435480Y-64556190D01*
X69556113Y-64606158D01*
X69777762Y-64665548D01*
X70005266Y-64695500D01*
X70005273Y-64695500D01*
X70234727Y-64695500D01*
X70234734Y-64695500D01*
X70462238Y-64665548D01*
X70683887Y-64606158D01*
X70895888Y-64518344D01*
X71094612Y-64403611D01*
X71276661Y-64263919D01*
X71276665Y-64263914D01*
X71276670Y-64263911D01*
X71438911Y-64101670D01*
X71438914Y-64101665D01*
X71438919Y-64101661D01*
X71578611Y-63919612D01*
X71693344Y-63720888D01*
X71695459Y-63715781D01*
X71723930Y-63647048D01*
X71767771Y-63592644D01*
X71834065Y-63570579D01*
X71838491Y-63570500D01*
X75568298Y-63570500D01*
X75635337Y-63590185D01*
X75655979Y-63606819D01*
X75846531Y-63797371D01*
X75880016Y-63858694D01*
X75879535Y-63905416D01*
X75881035Y-63905654D01*
X75848250Y-64112648D01*
X75848250Y-64317351D01*
X75880272Y-64519534D01*
X75943531Y-64714223D01*
X76036465Y-64896613D01*
X76156778Y-65062213D01*
X76301536Y-65206971D01*
X76456499Y-65319556D01*
X76467140Y-65327287D01*
X76551491Y-65370266D01*
X76649526Y-65420218D01*
X76649528Y-65420218D01*
X76649531Y-65420220D01*
X76753887Y-65454127D01*
X76844215Y-65483477D01*
X76945307Y-65499488D01*
X77046398Y-65515500D01*
X77046399Y-65515500D01*
X77251101Y-65515500D01*
X77251102Y-65515500D01*
X77453284Y-65483477D01*
X77647969Y-65420220D01*
X77830360Y-65327287D01*
X77923340Y-65259732D01*
X77995963Y-65206971D01*
X77995965Y-65206968D01*
X77995969Y-65206966D01*
X78140716Y-65062219D01*
X78140718Y-65062215D01*
X78140721Y-65062213D01*
X78193482Y-64989590D01*
X78261037Y-64896610D01*
X78353970Y-64714219D01*
X78417227Y-64519534D01*
X78449250Y-64317352D01*
X78449250Y-64112648D01*
X78435588Y-64026389D01*
X78417227Y-63910465D01*
X78353968Y-63715776D01*
X78291228Y-63592644D01*
X78261037Y-63533390D01*
X78243235Y-63508887D01*
X78140721Y-63367786D01*
X77995963Y-63223028D01*
X77830363Y-63102715D01*
X77830362Y-63102714D01*
X77830360Y-63102713D01*
X77746023Y-63059741D01*
X77647973Y-63009781D01*
X77453284Y-62946522D01*
X77278745Y-62918878D01*
X77251102Y-62914500D01*
X77046398Y-62914500D01*
X76942851Y-62930900D01*
X76839404Y-62947285D01*
X76839083Y-62945262D01*
X76777870Y-62942149D01*
X76731121Y-62912781D01*
X76648598Y-62830258D01*
X87419500Y-62830258D01*
X87419500Y-63059741D01*
X87440998Y-63223028D01*
X87449452Y-63287238D01*
X87449453Y-63287240D01*
X87508842Y-63508887D01*
X87596650Y-63720876D01*
X87596657Y-63720890D01*
X87711392Y-63919617D01*
X87851081Y-64101661D01*
X87851089Y-64101670D01*
X88013330Y-64263911D01*
X88013338Y-64263918D01*
X88195382Y-64403607D01*
X88195385Y-64403608D01*
X88195388Y-64403611D01*
X88394112Y-64518344D01*
X88394117Y-64518346D01*
X88394123Y-64518349D01*
X88485480Y-64556190D01*
X88606113Y-64606158D01*
X88827762Y-64665548D01*
X89055266Y-64695500D01*
X89055273Y-64695500D01*
X89284727Y-64695500D01*
X89284734Y-64695500D01*
X89512238Y-64665548D01*
X89733887Y-64606158D01*
X89945888Y-64518344D01*
X90144612Y-64403611D01*
X90326661Y-64263919D01*
X90326665Y-64263914D01*
X90326670Y-64263911D01*
X90488911Y-64101670D01*
X90488914Y-64101665D01*
X90488919Y-64101661D01*
X90628611Y-63919612D01*
X90743344Y-63720888D01*
X90745459Y-63715781D01*
X90773930Y-63647048D01*
X90817771Y-63592644D01*
X90884065Y-63570579D01*
X90888491Y-63570500D01*
X94574548Y-63570500D01*
X94641587Y-63590185D01*
X94662229Y-63606819D01*
X94852781Y-63797371D01*
X94886266Y-63858694D01*
X94885785Y-63905416D01*
X94887285Y-63905654D01*
X94854500Y-64112648D01*
X94854500Y-64317351D01*
X94886522Y-64519534D01*
X94949781Y-64714223D01*
X95042715Y-64896613D01*
X95163028Y-65062213D01*
X95307786Y-65206971D01*
X95462749Y-65319556D01*
X95473390Y-65327287D01*
X95557741Y-65370266D01*
X95655776Y-65420218D01*
X95655778Y-65420218D01*
X95655781Y-65420220D01*
X95760137Y-65454127D01*
X95850465Y-65483477D01*
X95951557Y-65499488D01*
X96052648Y-65515500D01*
X96052649Y-65515500D01*
X96257351Y-65515500D01*
X96257352Y-65515500D01*
X96459534Y-65483477D01*
X96654219Y-65420220D01*
X96836610Y-65327287D01*
X96929590Y-65259732D01*
X97002213Y-65206971D01*
X97002215Y-65206968D01*
X97002219Y-65206966D01*
X97146966Y-65062219D01*
X97146968Y-65062215D01*
X97146971Y-65062213D01*
X97199732Y-64989590D01*
X97267287Y-64896610D01*
X97360220Y-64714219D01*
X97423477Y-64519534D01*
X97455500Y-64317352D01*
X97455500Y-64112648D01*
X97441838Y-64026389D01*
X97423477Y-63910465D01*
X97360218Y-63715776D01*
X97297478Y-63592644D01*
X97267287Y-63533390D01*
X97249485Y-63508887D01*
X97146971Y-63367786D01*
X97002213Y-63223028D01*
X96836613Y-63102715D01*
X96836612Y-63102714D01*
X96836610Y-63102713D01*
X96752273Y-63059741D01*
X96654223Y-63009781D01*
X96459534Y-62946522D01*
X96284995Y-62918878D01*
X96257352Y-62914500D01*
X96052648Y-62914500D01*
X95949101Y-62930900D01*
X95845654Y-62947285D01*
X95845333Y-62945262D01*
X95784120Y-62942149D01*
X95737371Y-62912781D01*
X95378150Y-62553560D01*
X95370860Y-62546270D01*
X95370858Y-62546267D01*
X95283733Y-62459142D01*
X95232509Y-62424915D01*
X95181286Y-62390688D01*
X95181283Y-62390686D01*
X95181280Y-62390685D01*
X95107603Y-62360168D01*
X95107601Y-62360167D01*
X95100792Y-62357347D01*
X95067452Y-62343537D01*
X95007029Y-62331518D01*
X95002306Y-62330578D01*
X95002304Y-62330578D01*
X94946610Y-62319500D01*
X94946607Y-62319500D01*
X94946606Y-62319500D01*
X90888491Y-62319500D01*
X90821452Y-62299815D01*
X90775697Y-62247011D01*
X90773930Y-62242952D01*
X90743349Y-62169123D01*
X90743346Y-62169117D01*
X90743344Y-62169112D01*
X90628611Y-61970388D01*
X90628608Y-61970385D01*
X90628607Y-61970382D01*
X90488918Y-61788338D01*
X90488911Y-61788330D01*
X90326670Y-61626089D01*
X90326661Y-61626081D01*
X90144617Y-61486392D01*
X89945890Y-61371657D01*
X89945876Y-61371650D01*
X89733887Y-61283842D01*
X89512238Y-61224452D01*
X89474215Y-61219446D01*
X89284741Y-61194500D01*
X89284734Y-61194500D01*
X89055266Y-61194500D01*
X89055258Y-61194500D01*
X88838715Y-61223009D01*
X88827762Y-61224452D01*
X88734076Y-61249554D01*
X88606112Y-61283842D01*
X88394123Y-61371650D01*
X88394109Y-61371657D01*
X88195382Y-61486392D01*
X88013338Y-61626081D01*
X87851081Y-61788338D01*
X87711392Y-61970382D01*
X87596657Y-62169109D01*
X87596650Y-62169123D01*
X87508842Y-62381112D01*
X87508842Y-62381113D01*
X87462636Y-62553560D01*
X87449453Y-62602759D01*
X87449451Y-62602770D01*
X87419500Y-62830258D01*
X76648598Y-62830258D01*
X76371900Y-62553560D01*
X76364610Y-62546270D01*
X76364608Y-62546267D01*
X76277483Y-62459142D01*
X76226259Y-62424915D01*
X76175036Y-62390688D01*
X76175033Y-62390686D01*
X76175030Y-62390685D01*
X76101353Y-62360168D01*
X76101351Y-62360167D01*
X76094542Y-62357347D01*
X76061202Y-62343537D01*
X76000779Y-62331518D01*
X75996056Y-62330578D01*
X75996054Y-62330578D01*
X75940360Y-62319500D01*
X75940357Y-62319500D01*
X75940356Y-62319500D01*
X71838491Y-62319500D01*
X71771452Y-62299815D01*
X71725697Y-62247011D01*
X71723930Y-62242952D01*
X71693349Y-62169123D01*
X71693346Y-62169117D01*
X71693344Y-62169112D01*
X71578611Y-61970388D01*
X71578608Y-61970385D01*
X71578607Y-61970382D01*
X71438918Y-61788338D01*
X71438911Y-61788330D01*
X71276670Y-61626089D01*
X71276661Y-61626081D01*
X71094617Y-61486392D01*
X70895890Y-61371657D01*
X70895876Y-61371650D01*
X70683887Y-61283842D01*
X70462238Y-61224452D01*
X70424215Y-61219446D01*
X70234741Y-61194500D01*
X70234734Y-61194500D01*
X70005266Y-61194500D01*
X70005258Y-61194500D01*
X69788715Y-61223009D01*
X69777762Y-61224452D01*
X69684076Y-61249554D01*
X69556112Y-61283842D01*
X69344123Y-61371650D01*
X69344109Y-61371657D01*
X69145382Y-61486392D01*
X68963338Y-61626081D01*
X68801081Y-61788338D01*
X68661392Y-61970382D01*
X68546657Y-62169109D01*
X68546650Y-62169123D01*
X68458842Y-62381112D01*
X68458842Y-62381113D01*
X68412636Y-62553560D01*
X68399453Y-62602759D01*
X68399451Y-62602770D01*
X68369500Y-62830258D01*
X57598598Y-62830258D01*
X57321900Y-62553560D01*
X57314610Y-62546270D01*
X57314608Y-62546267D01*
X57227483Y-62459142D01*
X57176259Y-62424915D01*
X57125036Y-62390688D01*
X57125033Y-62390686D01*
X57125030Y-62390685D01*
X57051353Y-62360168D01*
X57051351Y-62360167D01*
X57044542Y-62357347D01*
X57011202Y-62343537D01*
X56950779Y-62331518D01*
X56946056Y-62330578D01*
X56946054Y-62330578D01*
X56890360Y-62319500D01*
X56890357Y-62319500D01*
X56890356Y-62319500D01*
X52788491Y-62319500D01*
X52721452Y-62299815D01*
X52675697Y-62247011D01*
X52673930Y-62242952D01*
X52643349Y-62169123D01*
X52643346Y-62169117D01*
X52643344Y-62169112D01*
X52528611Y-61970388D01*
X52528608Y-61970385D01*
X52528607Y-61970382D01*
X52388918Y-61788338D01*
X52388911Y-61788330D01*
X52226670Y-61626089D01*
X52226661Y-61626081D01*
X52044617Y-61486392D01*
X51845890Y-61371657D01*
X51845876Y-61371650D01*
X51633887Y-61283842D01*
X51412238Y-61224452D01*
X51374215Y-61219446D01*
X51184741Y-61194500D01*
X51184734Y-61194500D01*
X50955266Y-61194500D01*
X50955258Y-61194500D01*
X50738715Y-61223009D01*
X50727762Y-61224452D01*
X50634076Y-61249554D01*
X50506112Y-61283842D01*
X50294123Y-61371650D01*
X50294109Y-61371657D01*
X50095382Y-61486392D01*
X49913338Y-61626081D01*
X49751081Y-61788338D01*
X49611392Y-61970382D01*
X49496657Y-62169109D01*
X49496650Y-62169123D01*
X49408842Y-62381112D01*
X49408842Y-62381113D01*
X49362636Y-62553560D01*
X49349453Y-62602759D01*
X49349451Y-62602770D01*
X49319500Y-62830258D01*
X38504848Y-62830258D01*
X38228150Y-62553560D01*
X38220860Y-62546270D01*
X38220858Y-62546267D01*
X38133733Y-62459142D01*
X38082509Y-62424915D01*
X38031286Y-62390688D01*
X38031283Y-62390686D01*
X38031280Y-62390685D01*
X37957603Y-62360168D01*
X37957601Y-62360167D01*
X37950792Y-62357347D01*
X37917452Y-62343537D01*
X37857029Y-62331518D01*
X37852306Y-62330578D01*
X37852304Y-62330578D01*
X37796610Y-62319500D01*
X37796607Y-62319500D01*
X37796606Y-62319500D01*
X33738491Y-62319500D01*
X33671452Y-62299815D01*
X33625697Y-62247011D01*
X33623930Y-62242952D01*
X33593349Y-62169123D01*
X33593346Y-62169117D01*
X33593344Y-62169112D01*
X33478611Y-61970388D01*
X33478608Y-61970385D01*
X33478607Y-61970382D01*
X33338918Y-61788338D01*
X33338911Y-61788330D01*
X33176670Y-61626089D01*
X33176661Y-61626081D01*
X32994617Y-61486392D01*
X32795890Y-61371657D01*
X32795876Y-61371650D01*
X32583887Y-61283842D01*
X32362238Y-61224452D01*
X32324215Y-61219446D01*
X32134741Y-61194500D01*
X32134734Y-61194500D01*
X31905266Y-61194500D01*
X31905258Y-61194500D01*
X31688715Y-61223009D01*
X31677762Y-61224452D01*
X31584076Y-61249554D01*
X31456112Y-61283842D01*
X31244123Y-61371650D01*
X31244109Y-61371657D01*
X31045382Y-61486392D01*
X30863338Y-61626081D01*
X30701081Y-61788338D01*
X30561392Y-61970382D01*
X30446657Y-62169109D01*
X30446650Y-62169123D01*
X30358842Y-62381112D01*
X30358842Y-62381113D01*
X30312636Y-62553560D01*
X30299453Y-62602759D01*
X30299451Y-62602770D01*
X30269500Y-62830258D01*
X19080500Y-62830258D01*
X19080500Y-52184983D01*
X37704500Y-52184983D01*
X37704500Y-53385001D01*
X37704501Y-53385018D01*
X37715000Y-53487796D01*
X37715001Y-53487799D01*
X37717552Y-53495496D01*
X37770186Y-53654334D01*
X37862288Y-53803656D01*
X37986344Y-53927712D01*
X38135666Y-54019814D01*
X38302203Y-54074999D01*
X38404991Y-54085500D01*
X39605008Y-54085499D01*
X39707797Y-54074999D01*
X39874334Y-54019814D01*
X40023656Y-53927712D01*
X40147712Y-53803656D01*
X40239814Y-53654334D01*
X40292448Y-53495493D01*
X40332219Y-53438051D01*
X40396735Y-53411228D01*
X40410153Y-53410500D01*
X56649846Y-53410500D01*
X56716885Y-53430185D01*
X56762640Y-53482989D01*
X56767552Y-53495496D01*
X56820186Y-53654334D01*
X56912288Y-53803656D01*
X57036344Y-53927712D01*
X57185666Y-54019814D01*
X57352203Y-54074999D01*
X57454991Y-54085500D01*
X58655008Y-54085499D01*
X58757797Y-54074999D01*
X58924334Y-54019814D01*
X59073656Y-53927712D01*
X59197712Y-53803656D01*
X59289814Y-53654334D01*
X59342448Y-53495493D01*
X59382219Y-53438051D01*
X59446735Y-53411228D01*
X59460153Y-53410500D01*
X75699846Y-53410500D01*
X75766885Y-53430185D01*
X75812640Y-53482989D01*
X75817552Y-53495496D01*
X75870186Y-53654334D01*
X75962288Y-53803656D01*
X76086344Y-53927712D01*
X76235666Y-54019814D01*
X76402203Y-54074999D01*
X76504991Y-54085500D01*
X77705008Y-54085499D01*
X77807797Y-54074999D01*
X77974334Y-54019814D01*
X78123656Y-53927712D01*
X78247712Y-53803656D01*
X78339814Y-53654334D01*
X78392448Y-53495493D01*
X78432219Y-53438051D01*
X78496735Y-53411228D01*
X78510153Y-53410500D01*
X94749846Y-53410500D01*
X94816885Y-53430185D01*
X94862640Y-53482989D01*
X94867552Y-53495496D01*
X94920186Y-53654334D01*
X95012288Y-53803656D01*
X95136344Y-53927712D01*
X95285666Y-54019814D01*
X95452203Y-54074999D01*
X95554991Y-54085500D01*
X96755008Y-54085499D01*
X96857797Y-54074999D01*
X97024334Y-54019814D01*
X97173656Y-53927712D01*
X97297712Y-53803656D01*
X97389814Y-53654334D01*
X97442448Y-53495493D01*
X97482219Y-53438051D01*
X97546735Y-53411228D01*
X97560153Y-53410500D01*
X98681607Y-53410500D01*
X98742029Y-53398481D01*
X98802452Y-53386463D01*
X98835792Y-53372652D01*
X98916286Y-53339312D01*
X98967509Y-53305084D01*
X99018733Y-53270858D01*
X99105858Y-53183733D01*
X99105859Y-53183731D01*
X99112925Y-53176665D01*
X99112927Y-53176661D01*
X100440857Y-51848733D01*
X100509312Y-51746286D01*
X100552388Y-51642289D01*
X100556459Y-51632461D01*
X100556459Y-51632459D01*
X100556463Y-51632451D01*
X100580500Y-51511607D01*
X100580500Y-51388393D01*
X100577882Y-51375230D01*
X100575500Y-51351041D01*
X100575500Y-39913396D01*
X100575500Y-39913394D01*
X100551463Y-39792548D01*
X100537652Y-39759207D01*
X100504312Y-39678714D01*
X100470084Y-39627490D01*
X100435858Y-39576267D01*
X100435856Y-39576264D01*
X100345637Y-39486045D01*
X100345606Y-39486016D01*
X98443150Y-37583560D01*
X98435860Y-37576270D01*
X98435858Y-37576267D01*
X98348733Y-37489142D01*
X98297509Y-37454915D01*
X98246286Y-37420688D01*
X98246283Y-37420686D01*
X98246280Y-37420685D01*
X98172603Y-37390168D01*
X98172601Y-37390167D01*
X98165792Y-37387347D01*
X98132452Y-37373537D01*
X98072029Y-37361518D01*
X98067306Y-37360578D01*
X98067304Y-37360578D01*
X98011610Y-37349500D01*
X98011607Y-37349500D01*
X98011606Y-37349500D01*
X88760452Y-37349500D01*
X88693413Y-37329815D01*
X88672771Y-37313181D01*
X83563150Y-32203560D01*
X83555860Y-32196270D01*
X83555858Y-32196267D01*
X83468733Y-32109142D01*
X83417509Y-32074915D01*
X83366286Y-32040688D01*
X83366283Y-32040686D01*
X83366280Y-32040685D01*
X83292603Y-32010168D01*
X83292601Y-32010167D01*
X83285792Y-32007347D01*
X83252452Y-31993537D01*
X83192029Y-31981518D01*
X83187306Y-31980578D01*
X83187304Y-31980578D01*
X83131610Y-31969500D01*
X83131607Y-31969500D01*
X83131606Y-31969500D01*
X80236979Y-31969500D01*
X80169940Y-31949815D01*
X80124185Y-31897011D01*
X80117903Y-31880095D01*
X80072566Y-31724045D01*
X80072564Y-31724042D01*
X80072564Y-31724041D01*
X79988592Y-31582053D01*
X79988590Y-31582051D01*
X79988587Y-31582047D01*
X79871952Y-31465412D01*
X79871944Y-31465406D01*
X79815004Y-31431732D01*
X79767321Y-31380663D01*
X79754817Y-31311921D01*
X79781462Y-31247332D01*
X79815004Y-31218268D01*
X79871947Y-31184592D01*
X79988592Y-31067947D01*
X80072564Y-30925959D01*
X80072565Y-30925955D01*
X80072566Y-30925954D01*
X80117903Y-30769905D01*
X80155509Y-30711019D01*
X80218982Y-30681813D01*
X80236979Y-30680500D01*
X82719548Y-30680500D01*
X82786587Y-30700185D01*
X82807229Y-30716819D01*
X88461016Y-36370606D01*
X88461045Y-36370637D01*
X88551263Y-36460855D01*
X88551267Y-36460858D01*
X88653707Y-36529307D01*
X88653713Y-36529310D01*
X88653714Y-36529311D01*
X88767548Y-36576463D01*
X88827971Y-36588481D01*
X88888393Y-36600500D01*
X88888394Y-36600500D01*
X99139548Y-36600500D01*
X99206587Y-36620185D01*
X99227229Y-36636819D01*
X101293181Y-38702771D01*
X101326666Y-38764094D01*
X101329500Y-38790452D01*
X101329500Y-69639547D01*
X101309815Y-69706586D01*
X101293181Y-69727228D01*
X99847229Y-71173181D01*
X99785906Y-71206666D01*
X99759548Y-71209500D01*
X97560154Y-71209500D01*
X97493115Y-71189815D01*
X97447360Y-71137011D01*
X97442448Y-71124504D01*
X97430212Y-71087580D01*
X97389814Y-70965666D01*
X97297712Y-70816344D01*
X97173656Y-70692288D01*
X97024334Y-70600186D01*
X96857797Y-70545001D01*
X96857795Y-70545000D01*
X96755010Y-70534500D01*
X95554998Y-70534500D01*
X95554981Y-70534501D01*
X95452203Y-70545000D01*
X95452200Y-70545001D01*
X95285668Y-70600185D01*
X95285663Y-70600187D01*
X95136342Y-70692289D01*
X95012289Y-70816342D01*
X94920187Y-70965663D01*
X94920186Y-70965666D01*
X94867551Y-71124506D01*
X94827781Y-71181949D01*
X94763265Y-71208772D01*
X94749847Y-71209500D01*
X78553904Y-71209500D01*
X78486865Y-71189815D01*
X78441110Y-71137011D01*
X78436198Y-71124504D01*
X78423962Y-71087580D01*
X78383564Y-70965666D01*
X78291462Y-70816344D01*
X78167406Y-70692288D01*
X78018084Y-70600186D01*
X77851547Y-70545001D01*
X77851545Y-70545000D01*
X77748760Y-70534500D01*
X76548748Y-70534500D01*
X76548731Y-70534501D01*
X76445953Y-70545000D01*
X76445950Y-70545001D01*
X76279418Y-70600185D01*
X76279413Y-70600187D01*
X76130092Y-70692289D01*
X76006039Y-70816342D01*
X75913937Y-70965663D01*
X75913936Y-70965666D01*
X75861301Y-71124506D01*
X75821531Y-71181949D01*
X75757015Y-71208772D01*
X75743597Y-71209500D01*
X59503904Y-71209500D01*
X59436865Y-71189815D01*
X59391110Y-71137011D01*
X59386198Y-71124504D01*
X59373962Y-71087580D01*
X59333564Y-70965666D01*
X59241462Y-70816344D01*
X59117406Y-70692288D01*
X58968084Y-70600186D01*
X58801547Y-70545001D01*
X58801545Y-70545000D01*
X58698760Y-70534500D01*
X57498748Y-70534500D01*
X57498731Y-70534501D01*
X57395953Y-70545000D01*
X57395950Y-70545001D01*
X57229418Y-70600185D01*
X57229413Y-70600187D01*
X57080092Y-70692289D01*
X56956039Y-70816342D01*
X56863937Y-70965663D01*
X56863936Y-70965666D01*
X56811301Y-71124506D01*
X56771531Y-71181949D01*
X56707015Y-71208772D01*
X56693597Y-71209500D01*
X40410154Y-71209500D01*
X40343115Y-71189815D01*
X40297360Y-71137011D01*
X40292448Y-71124504D01*
X40280212Y-71087580D01*
X40239814Y-70965666D01*
X40147712Y-70816344D01*
X40023656Y-70692288D01*
X39874334Y-70600186D01*
X39707797Y-70545001D01*
X39707795Y-70545000D01*
X39605010Y-70534500D01*
X38404998Y-70534500D01*
X38404981Y-70534501D01*
X38302203Y-70545000D01*
X38302200Y-70545001D01*
X38135668Y-70600185D01*
X38135663Y-70600187D01*
X37986342Y-70692289D01*
X37862289Y-70816342D01*
X37770187Y-70965663D01*
X37770186Y-70965666D01*
X37715001Y-71132203D01*
X37715001Y-71132204D01*
X37715000Y-71132204D01*
X37704500Y-71234983D01*
X37704500Y-72435001D01*
X37704501Y-72435018D01*
X37715000Y-72537796D01*
X37715001Y-72537799D01*
X37717552Y-72545496D01*
X37770186Y-72704334D01*
X37862288Y-72853656D01*
X37986344Y-72977712D01*
X38135666Y-73069814D01*
X38302203Y-73124999D01*
X38404991Y-73135500D01*
X39605008Y-73135499D01*
X39707797Y-73124999D01*
X39874334Y-73069814D01*
X40023656Y-72977712D01*
X40147712Y-72853656D01*
X40239814Y-72704334D01*
X40292448Y-72545493D01*
X40332219Y-72488051D01*
X40396735Y-72461228D01*
X40410153Y-72460500D01*
X56693596Y-72460500D01*
X56760635Y-72480185D01*
X56806390Y-72532989D01*
X56811302Y-72545496D01*
X56863936Y-72704334D01*
X56956038Y-72853656D01*
X57080094Y-72977712D01*
X57229416Y-73069814D01*
X57395953Y-73124999D01*
X57498741Y-73135500D01*
X58698758Y-73135499D01*
X58801547Y-73124999D01*
X58968084Y-73069814D01*
X59117406Y-72977712D01*
X59241462Y-72853656D01*
X59333564Y-72704334D01*
X59386198Y-72545493D01*
X59425969Y-72488051D01*
X59490485Y-72461228D01*
X59503903Y-72460500D01*
X75743596Y-72460500D01*
X75810635Y-72480185D01*
X75856390Y-72532989D01*
X75861302Y-72545496D01*
X75913936Y-72704334D01*
X76006038Y-72853656D01*
X76130094Y-72977712D01*
X76279416Y-73069814D01*
X76445953Y-73124999D01*
X76548741Y-73135500D01*
X77748758Y-73135499D01*
X77851547Y-73124999D01*
X78018084Y-73069814D01*
X78167406Y-72977712D01*
X78291462Y-72853656D01*
X78383564Y-72704334D01*
X78436198Y-72545493D01*
X78475969Y-72488051D01*
X78540485Y-72461228D01*
X78553903Y-72460500D01*
X94749846Y-72460500D01*
X94816885Y-72480185D01*
X94862640Y-72532989D01*
X94867552Y-72545496D01*
X94920186Y-72704334D01*
X95012288Y-72853656D01*
X95136344Y-72977712D01*
X95285666Y-73069814D01*
X95452203Y-73124999D01*
X95554991Y-73135500D01*
X96755008Y-73135499D01*
X96857797Y-73124999D01*
X97024334Y-73069814D01*
X97173656Y-72977712D01*
X97297712Y-72853656D01*
X97389814Y-72704334D01*
X97442448Y-72545493D01*
X97482219Y-72488051D01*
X97546735Y-72461228D01*
X97560153Y-72460500D01*
X100131607Y-72460500D01*
X100192029Y-72448481D01*
X100252452Y-72436463D01*
X100285792Y-72422652D01*
X100366286Y-72389312D01*
X100417509Y-72355084D01*
X100468733Y-72320858D01*
X100555858Y-72233733D01*
X100555858Y-72233731D01*
X100566066Y-72223524D01*
X100566067Y-72223521D01*
X102440858Y-70348733D01*
X102509312Y-70246285D01*
X102556463Y-70132451D01*
X102568400Y-70072440D01*
X102580501Y-70011608D01*
X102580501Y-69883283D01*
X102580500Y-69883257D01*
X102580500Y-38418396D01*
X102580500Y-38418394D01*
X102556463Y-38297548D01*
X102542652Y-38264207D01*
X102509312Y-38183714D01*
X102475058Y-38132451D01*
X102440858Y-38081267D01*
X102440856Y-38081264D01*
X102350637Y-37991045D01*
X102350606Y-37991016D01*
X99943150Y-35583560D01*
X99935860Y-35576270D01*
X99935858Y-35576267D01*
X99848733Y-35489142D01*
X99797509Y-35454915D01*
X99746286Y-35420688D01*
X99746283Y-35420686D01*
X99746280Y-35420685D01*
X99672603Y-35390168D01*
X99672601Y-35390167D01*
X99665792Y-35387347D01*
X99632452Y-35373537D01*
X99572029Y-35361518D01*
X99567306Y-35360578D01*
X99567304Y-35360578D01*
X99511610Y-35349500D01*
X99511607Y-35349500D01*
X99511606Y-35349500D01*
X89260452Y-35349500D01*
X89193413Y-35329815D01*
X89172771Y-35313181D01*
X84861725Y-31002135D01*
X92104500Y-31002135D01*
X92104500Y-33097870D01*
X92104501Y-33097876D01*
X92110908Y-33157483D01*
X92161202Y-33292328D01*
X92161206Y-33292335D01*
X92247452Y-33407544D01*
X92247455Y-33407547D01*
X92362664Y-33493793D01*
X92362671Y-33493797D01*
X92497517Y-33544091D01*
X92497516Y-33544091D01*
X92504444Y-33544835D01*
X92557127Y-33550500D01*
X95852872Y-33550499D01*
X95912483Y-33544091D01*
X96047331Y-33493796D01*
X96162546Y-33407546D01*
X96248796Y-33292331D01*
X96299091Y-33157483D01*
X96305500Y-33097873D01*
X96305499Y-31002128D01*
X96299091Y-30942517D01*
X96292915Y-30925959D01*
X96248797Y-30807671D01*
X96248793Y-30807664D01*
X96162547Y-30692455D01*
X96162544Y-30692452D01*
X96047335Y-30606206D01*
X96047328Y-30606202D01*
X95912482Y-30555908D01*
X95912483Y-30555908D01*
X95852883Y-30549501D01*
X95852881Y-30549500D01*
X95852873Y-30549500D01*
X95852864Y-30549500D01*
X92557129Y-30549500D01*
X92557123Y-30549501D01*
X92497516Y-30555908D01*
X92362671Y-30606202D01*
X92362664Y-30606206D01*
X92247455Y-30692452D01*
X92247452Y-30692455D01*
X92161206Y-30807664D01*
X92161202Y-30807671D01*
X92110908Y-30942517D01*
X92106867Y-30980109D01*
X92104501Y-31002123D01*
X92104500Y-31002135D01*
X84861725Y-31002135D01*
X83523543Y-29663953D01*
X83515860Y-29656270D01*
X83515858Y-29656267D01*
X83428733Y-29569142D01*
X83364155Y-29525992D01*
X83326286Y-29500688D01*
X83326287Y-29500688D01*
X83326285Y-29500687D01*
X83286822Y-29484342D01*
X83245792Y-29467347D01*
X83212452Y-29453537D01*
X83152029Y-29441518D01*
X83147306Y-29440578D01*
X83147304Y-29440578D01*
X83091610Y-29429500D01*
X83091607Y-29429500D01*
X83091606Y-29429500D01*
X80236979Y-29429500D01*
X80169940Y-29409815D01*
X80124185Y-29357011D01*
X80117903Y-29340095D01*
X80072566Y-29184045D01*
X80072564Y-29184042D01*
X80072564Y-29184041D01*
X80005243Y-29070208D01*
X79988594Y-29042056D01*
X79988587Y-29042047D01*
X79874149Y-28927609D01*
X79874146Y-28927607D01*
X79871947Y-28925408D01*
X79814366Y-28891354D01*
X79813826Y-28891027D01*
X79790684Y-28865685D01*
X79767321Y-28840663D01*
X79767193Y-28839961D01*
X79766711Y-28839433D01*
X79760943Y-28805601D01*
X79754817Y-28771921D01*
X79755089Y-28771261D01*
X79754969Y-28770557D01*
X79768394Y-28739008D01*
X79781462Y-28707332D01*
X79782115Y-28706765D01*
X79782328Y-28706266D01*
X79784021Y-28705114D01*
X79815004Y-28678268D01*
X79821051Y-28674692D01*
X79871947Y-28644592D01*
X79988592Y-28527947D01*
X80072564Y-28385959D01*
X80118587Y-28227548D01*
X80121500Y-28190534D01*
X80121500Y-26839466D01*
X80118587Y-26802452D01*
X80072564Y-26644041D01*
X80005243Y-26530208D01*
X79988594Y-26502056D01*
X79988587Y-26502047D01*
X79871952Y-26385412D01*
X79871944Y-26385406D01*
X79815004Y-26351732D01*
X79767321Y-26300663D01*
X79754817Y-26231921D01*
X79781462Y-26167332D01*
X79815004Y-26138268D01*
X79821051Y-26134692D01*
X79871947Y-26104592D01*
X79988592Y-25987947D01*
X80072564Y-25845959D01*
X80118587Y-25687548D01*
X80121500Y-25650534D01*
X80121500Y-24299466D01*
X80118587Y-24262452D01*
X80072564Y-24104041D01*
X79988592Y-23962053D01*
X79988590Y-23962051D01*
X79988587Y-23962047D01*
X79871952Y-23845412D01*
X79871944Y-23845406D01*
X79815004Y-23811732D01*
X79767321Y-23760663D01*
X79754817Y-23691921D01*
X79781462Y-23627332D01*
X79815004Y-23598268D01*
X79871947Y-23564592D01*
X79988592Y-23447947D01*
X80072564Y-23305959D01*
X80118587Y-23147548D01*
X80121500Y-23110534D01*
X80121500Y-22902135D01*
X85204500Y-22902135D01*
X85204500Y-24997870D01*
X85204501Y-24997876D01*
X85210908Y-25057483D01*
X85261202Y-25192328D01*
X85261206Y-25192335D01*
X85347452Y-25307544D01*
X85347453Y-25307544D01*
X85347454Y-25307546D01*
X85391563Y-25340566D01*
X85465599Y-25395990D01*
X85507469Y-25451924D01*
X85512453Y-25521615D01*
X85491605Y-25568141D01*
X85422087Y-25663824D01*
X85314897Y-25874197D01*
X85241934Y-26098752D01*
X85205000Y-26331947D01*
X85205000Y-26568052D01*
X85241934Y-26801247D01*
X85314897Y-27025802D01*
X85422087Y-27236174D01*
X85482338Y-27319104D01*
X85482340Y-27319105D01*
X86222037Y-26579408D01*
X86239075Y-26642993D01*
X86304901Y-26757007D01*
X86397993Y-26850099D01*
X86512007Y-26915925D01*
X86575590Y-26932962D01*
X85829280Y-27679271D01*
X85820105Y-27722947D01*
X85783739Y-27764615D01*
X85727490Y-27805482D01*
X85560485Y-27972487D01*
X85560485Y-27972488D01*
X85560483Y-27972490D01*
X85540763Y-27999632D01*
X85421657Y-28163566D01*
X85314433Y-28374003D01*
X85241446Y-28598631D01*
X85204500Y-28831902D01*
X85204500Y-29068097D01*
X85241446Y-29301368D01*
X85314433Y-29525996D01*
X85421657Y-29736433D01*
X85560483Y-29927510D01*
X85727490Y-30094517D01*
X85918567Y-30233343D01*
X85983129Y-30266239D01*
X86129003Y-30340566D01*
X86129005Y-30340566D01*
X86129008Y-30340568D01*
X86249412Y-30379689D01*
X86353631Y-30413553D01*
X86586903Y-30450500D01*
X86586908Y-30450500D01*
X86823097Y-30450500D01*
X87056368Y-30413553D01*
X87280992Y-30340568D01*
X87491433Y-30233343D01*
X87682510Y-30094517D01*
X87849517Y-29927510D01*
X87988343Y-29736433D01*
X88095568Y-29525992D01*
X88168553Y-29301368D01*
X88179455Y-29232536D01*
X88205500Y-29068097D01*
X88205500Y-28831902D01*
X99704500Y-28831902D01*
X99704500Y-29068097D01*
X99741446Y-29301368D01*
X99814433Y-29525996D01*
X99921657Y-29736433D01*
X100060483Y-29927510D01*
X100227490Y-30094517D01*
X100418567Y-30233343D01*
X100483129Y-30266239D01*
X100629003Y-30340566D01*
X100629005Y-30340566D01*
X100629008Y-30340568D01*
X100749412Y-30379689D01*
X100853631Y-30413553D01*
X101086903Y-30450500D01*
X101086908Y-30450500D01*
X101323097Y-30450500D01*
X101556368Y-30413553D01*
X101780992Y-30340568D01*
X101991433Y-30233343D01*
X102182510Y-30094517D01*
X102349517Y-29927510D01*
X102488343Y-29736433D01*
X102595568Y-29525992D01*
X102668553Y-29301368D01*
X102679455Y-29232536D01*
X102705500Y-29068097D01*
X102705500Y-28831902D01*
X102668553Y-28598631D01*
X102629350Y-28477979D01*
X102595568Y-28374008D01*
X102595566Y-28374005D01*
X102595566Y-28374003D01*
X102502079Y-28190526D01*
X102488343Y-28163567D01*
X102349517Y-27972490D01*
X102182510Y-27805483D01*
X101991433Y-27666657D01*
X101780996Y-27559433D01*
X101556368Y-27486446D01*
X101323097Y-27449500D01*
X101323092Y-27449500D01*
X101086908Y-27449500D01*
X101086903Y-27449500D01*
X100853631Y-27486446D01*
X100629003Y-27559433D01*
X100418566Y-27666657D01*
X100336554Y-27726243D01*
X100227490Y-27805483D01*
X100227488Y-27805485D01*
X100227487Y-27805485D01*
X100060485Y-27972487D01*
X100060485Y-27972488D01*
X100060483Y-27972490D01*
X100040763Y-27999632D01*
X99921657Y-28163566D01*
X99814433Y-28374003D01*
X99741446Y-28598631D01*
X99704500Y-28831902D01*
X88205500Y-28831902D01*
X88168553Y-28598631D01*
X88129350Y-28477979D01*
X88095568Y-28374008D01*
X88095566Y-28374005D01*
X88095566Y-28374003D01*
X88002079Y-28190526D01*
X87988343Y-28163567D01*
X87849517Y-27972490D01*
X87682510Y-27805483D01*
X87626259Y-27764614D01*
X87583595Y-27709284D01*
X87578902Y-27677455D01*
X86834408Y-26932962D01*
X86897993Y-26915925D01*
X87012007Y-26850099D01*
X87105099Y-26757007D01*
X87170925Y-26642993D01*
X87187962Y-26579409D01*
X87927658Y-27319105D01*
X87927658Y-27319104D01*
X87987914Y-27236169D01*
X87987918Y-27236163D01*
X88095102Y-27025802D01*
X88168065Y-26801247D01*
X88205000Y-26568052D01*
X88205000Y-26331947D01*
X88168065Y-26098752D01*
X88095102Y-25874197D01*
X87987914Y-25663828D01*
X87918394Y-25568142D01*
X87894914Y-25502335D01*
X87910739Y-25434281D01*
X87944401Y-25395989D01*
X87947329Y-25393796D01*
X87947331Y-25393796D01*
X88062546Y-25307546D01*
X88148796Y-25192331D01*
X88199091Y-25057483D01*
X88205500Y-24997873D01*
X88205499Y-23831902D01*
X99704500Y-23831902D01*
X99704500Y-24068097D01*
X99741446Y-24301368D01*
X99814433Y-24525996D01*
X99828580Y-24553760D01*
X99921657Y-24736433D01*
X100060483Y-24927510D01*
X100227490Y-25094517D01*
X100418567Y-25233343D01*
X100491759Y-25270636D01*
X100629003Y-25340566D01*
X100629005Y-25340566D01*
X100629008Y-25340568D01*
X100749412Y-25379689D01*
X100853631Y-25413553D01*
X101086903Y-25450500D01*
X101086908Y-25450500D01*
X101323097Y-25450500D01*
X101556368Y-25413553D01*
X101610424Y-25395989D01*
X101780992Y-25340568D01*
X101991433Y-25233343D01*
X102182510Y-25094517D01*
X102349517Y-24927510D01*
X102488343Y-24736433D01*
X102595568Y-24525992D01*
X102668553Y-24301368D01*
X102668856Y-24299458D01*
X102705500Y-24068097D01*
X102705500Y-23831902D01*
X102668553Y-23598631D01*
X102611192Y-23422093D01*
X102595568Y-23374008D01*
X102595566Y-23374005D01*
X102595566Y-23374003D01*
X102488342Y-23163566D01*
X102449806Y-23110526D01*
X102349517Y-22972490D01*
X102182510Y-22805483D01*
X101991433Y-22666657D01*
X101933242Y-22637007D01*
X101780996Y-22559433D01*
X101556368Y-22486446D01*
X101323097Y-22449500D01*
X101323092Y-22449500D01*
X101086908Y-22449500D01*
X101086903Y-22449500D01*
X100853631Y-22486446D01*
X100629003Y-22559433D01*
X100418566Y-22666657D01*
X100362119Y-22707669D01*
X100227490Y-22805483D01*
X100227488Y-22805485D01*
X100227487Y-22805485D01*
X100060485Y-22972487D01*
X100060485Y-22972488D01*
X100060483Y-22972490D01*
X100000862Y-23054550D01*
X99921657Y-23163566D01*
X99814433Y-23374003D01*
X99741446Y-23598631D01*
X99704500Y-23831902D01*
X88205499Y-23831902D01*
X88205499Y-22902128D01*
X88199091Y-22842517D01*
X88194422Y-22830000D01*
X88148797Y-22707671D01*
X88148793Y-22707664D01*
X88062547Y-22592455D01*
X88062544Y-22592452D01*
X87947335Y-22506206D01*
X87947328Y-22506202D01*
X87812482Y-22455908D01*
X87812483Y-22455908D01*
X87752883Y-22449501D01*
X87752881Y-22449500D01*
X87752873Y-22449500D01*
X87752864Y-22449500D01*
X85657129Y-22449500D01*
X85657123Y-22449501D01*
X85597516Y-22455908D01*
X85462671Y-22506202D01*
X85462664Y-22506206D01*
X85347455Y-22592452D01*
X85347452Y-22592455D01*
X85261206Y-22707664D01*
X85261202Y-22707671D01*
X85210908Y-22842517D01*
X85204501Y-22902116D01*
X85204501Y-22902123D01*
X85204500Y-22902135D01*
X80121500Y-22902135D01*
X80121500Y-21759466D01*
X80118587Y-21722452D01*
X80072564Y-21564041D01*
X80011795Y-21461287D01*
X79988594Y-21422056D01*
X79988587Y-21422047D01*
X79871952Y-21305412D01*
X79871949Y-21305410D01*
X79871947Y-21305408D01*
X79814511Y-21271440D01*
X79766829Y-21220371D01*
X79754326Y-21151630D01*
X79780972Y-21087040D01*
X79814514Y-21057976D01*
X79871637Y-21024193D01*
X79871643Y-21024189D01*
X79988189Y-20907643D01*
X79988196Y-20907634D01*
X80072102Y-20765756D01*
X80072103Y-20765753D01*
X80118088Y-20607473D01*
X80118089Y-20607467D01*
X80120999Y-20570488D01*
X80120999Y-19802135D01*
X92104500Y-19802135D01*
X92104500Y-21897870D01*
X92104501Y-21897876D01*
X92110908Y-21957483D01*
X92161202Y-22092328D01*
X92161206Y-22092335D01*
X92247452Y-22207544D01*
X92247455Y-22207547D01*
X92362664Y-22293793D01*
X92362671Y-22293797D01*
X92497517Y-22344091D01*
X92497516Y-22344091D01*
X92504444Y-22344835D01*
X92557127Y-22350500D01*
X95852872Y-22350499D01*
X95912483Y-22344091D01*
X96047331Y-22293796D01*
X96162546Y-22207546D01*
X96248796Y-22092331D01*
X96299091Y-21957483D01*
X96305500Y-21897873D01*
X96305499Y-19802128D01*
X96299091Y-19742517D01*
X96248796Y-19607669D01*
X96248795Y-19607668D01*
X96248793Y-19607664D01*
X96162547Y-19492455D01*
X96162544Y-19492452D01*
X96047335Y-19406206D01*
X96047328Y-19406202D01*
X95912482Y-19355908D01*
X95912483Y-19355908D01*
X95852883Y-19349501D01*
X95852881Y-19349500D01*
X95852873Y-19349500D01*
X95852864Y-19349500D01*
X92557129Y-19349500D01*
X92557123Y-19349501D01*
X92497516Y-19355908D01*
X92362671Y-19406202D01*
X92362664Y-19406206D01*
X92247455Y-19492452D01*
X92247452Y-19492455D01*
X92161206Y-19607664D01*
X92161202Y-19607671D01*
X92110908Y-19742517D01*
X92105193Y-19795678D01*
X92104501Y-19802123D01*
X92104500Y-19802135D01*
X80120999Y-19802135D01*
X80120999Y-19219530D01*
X80120998Y-19219508D01*
X80118089Y-19182533D01*
X80072102Y-19024242D01*
X79988196Y-18882365D01*
X79988189Y-18882356D01*
X79871643Y-18765810D01*
X79871634Y-18765803D01*
X79814513Y-18732022D01*
X79766829Y-18680953D01*
X79754326Y-18612211D01*
X79780972Y-18547622D01*
X79814514Y-18518558D01*
X79871941Y-18484596D01*
X79871942Y-18484594D01*
X79871947Y-18484592D01*
X79988592Y-18367947D01*
X80072564Y-18225959D01*
X80118587Y-18067548D01*
X80121500Y-18030534D01*
X80121500Y-16679466D01*
X80118587Y-16642452D01*
X80072564Y-16484041D01*
X79988592Y-16342053D01*
X79988590Y-16342051D01*
X79988587Y-16342047D01*
X79871952Y-16225412D01*
X79871943Y-16225405D01*
X79729957Y-16141435D01*
X79729954Y-16141434D01*
X79571552Y-16095413D01*
X79571546Y-16095412D01*
X79534541Y-16092500D01*
X79534534Y-16092500D01*
X77275466Y-16092500D01*
X77275458Y-16092500D01*
X77238453Y-16095412D01*
X77238447Y-16095413D01*
X77080045Y-16141434D01*
X77080042Y-16141435D01*
X76938056Y-16225405D01*
X76938046Y-16225413D01*
X76841854Y-16321604D01*
X76827061Y-16334239D01*
X76747536Y-16392018D01*
X76607021Y-16532533D01*
X76490213Y-16693305D01*
X76399994Y-16870367D01*
X76399993Y-16870370D01*
X76338587Y-17059362D01*
X76307500Y-17255639D01*
X76307500Y-17454360D01*
X76338587Y-17650637D01*
X76399993Y-17839629D01*
X76399994Y-17839632D01*
X76490213Y-18016694D01*
X76607019Y-18177464D01*
X76607021Y-18177466D01*
X76747539Y-18317984D01*
X76827060Y-18375758D01*
X76833786Y-18381007D01*
X76837979Y-18384518D01*
X76938053Y-18484592D01*
X77004208Y-18523716D01*
X77011975Y-18530220D01*
X77025962Y-18551197D01*
X77043170Y-18569627D01*
X77045015Y-18579773D01*
X77050736Y-18588353D01*
X77051161Y-18613564D01*
X77055673Y-18638369D01*
X77051740Y-18647900D01*
X77051915Y-18658212D01*
X77038643Y-18679649D01*
X77029028Y-18702958D01*
X77018643Y-18711956D01*
X77015137Y-18717620D01*
X77008391Y-18720838D01*
X76995487Y-18732021D01*
X76938370Y-18765800D01*
X76938357Y-18765810D01*
X76866360Y-18837806D01*
X76866360Y-18837807D01*
X77485905Y-19457352D01*
X77398429Y-19480792D01*
X77297070Y-19539311D01*
X77214311Y-19622070D01*
X77155792Y-19723429D01*
X77132352Y-19810905D01*
X76517730Y-19196282D01*
X76517729Y-19196283D01*
X76490643Y-19233564D01*
X76400457Y-19410562D01*
X76339075Y-19599476D01*
X76339075Y-19599479D01*
X76308000Y-19795678D01*
X76308000Y-19994321D01*
X76339075Y-20190520D01*
X76339075Y-20190523D01*
X76400457Y-20379437D01*
X76490641Y-20556432D01*
X76517730Y-20593715D01*
X76517731Y-20593716D01*
X77132352Y-19979094D01*
X77155792Y-20066571D01*
X77214311Y-20167930D01*
X77297070Y-20250689D01*
X77398429Y-20309208D01*
X77485904Y-20332647D01*
X76866360Y-20952191D01*
X76938360Y-21024192D01*
X76938364Y-21024195D01*
X76995486Y-21057977D01*
X77043169Y-21109046D01*
X77055673Y-21177788D01*
X77029028Y-21242377D01*
X77011975Y-21259779D01*
X77004204Y-21266285D01*
X76938053Y-21305408D01*
X76837990Y-21405469D01*
X76833784Y-21408992D01*
X76832598Y-21409509D01*
X76827061Y-21414239D01*
X76747536Y-21472018D01*
X76607021Y-21612533D01*
X76490213Y-21773305D01*
X76399994Y-21950367D01*
X76399993Y-21950370D01*
X76338587Y-22139362D01*
X76307500Y-22335639D01*
X76307500Y-22534360D01*
X76338587Y-22730637D01*
X76399993Y-22919629D01*
X76399994Y-22919632D01*
X76490213Y-23096694D01*
X76607019Y-23257464D01*
X76607021Y-23257466D01*
X76747539Y-23397984D01*
X76827060Y-23455758D01*
X76833824Y-23461039D01*
X76837998Y-23464537D01*
X76938053Y-23564592D01*
X77003737Y-23603437D01*
X77011522Y-23609962D01*
X77025488Y-23630926D01*
X77042679Y-23649338D01*
X77044528Y-23659506D01*
X77050260Y-23668110D01*
X77050674Y-23693297D01*
X77055182Y-23718079D01*
X77051239Y-23727634D01*
X77051410Y-23737970D01*
X77038143Y-23759381D01*
X77028536Y-23782669D01*
X77018122Y-23791692D01*
X77014609Y-23797363D01*
X77007871Y-23800575D01*
X76994996Y-23811732D01*
X76938053Y-23845408D01*
X76938046Y-23845413D01*
X76841854Y-23941604D01*
X76827061Y-23954239D01*
X76747536Y-24012018D01*
X76607021Y-24152533D01*
X76490213Y-24313305D01*
X76399994Y-24490367D01*
X76399993Y-24490370D01*
X76338587Y-24679362D01*
X76338587Y-24679364D01*
X76307500Y-24875639D01*
X76307500Y-25074361D01*
X76323043Y-25172498D01*
X76338587Y-25270637D01*
X76399993Y-25459629D01*
X76399994Y-25459632D01*
X76460213Y-25577816D01*
X76490213Y-25636694D01*
X76607019Y-25797464D01*
X76607021Y-25797466D01*
X76747539Y-25937984D01*
X76827060Y-25995758D01*
X76833824Y-26001039D01*
X76837998Y-26004537D01*
X76938053Y-26104592D01*
X77003737Y-26143437D01*
X77011522Y-26149962D01*
X77025488Y-26170926D01*
X77042679Y-26189338D01*
X77044528Y-26199506D01*
X77050260Y-26208110D01*
X77050674Y-26233297D01*
X77055182Y-26258079D01*
X77051239Y-26267634D01*
X77051410Y-26277970D01*
X77038143Y-26299381D01*
X77028536Y-26322669D01*
X77018122Y-26331692D01*
X77014609Y-26337363D01*
X77007871Y-26340575D01*
X76994996Y-26351732D01*
X76938053Y-26385408D01*
X76938046Y-26385413D01*
X76841854Y-26481604D01*
X76827061Y-26494239D01*
X76747536Y-26552018D01*
X76607021Y-26692533D01*
X76490213Y-26853305D01*
X76399994Y-27030367D01*
X76399993Y-27030370D01*
X76338587Y-27219362D01*
X76307500Y-27415639D01*
X76307500Y-27614360D01*
X76338587Y-27810637D01*
X76399993Y-27999629D01*
X76399994Y-27999632D01*
X76460213Y-28117816D01*
X76490213Y-28176694D01*
X76607019Y-28337464D01*
X76607021Y-28337466D01*
X76747539Y-28477984D01*
X76827060Y-28535758D01*
X76833824Y-28541039D01*
X76837998Y-28544537D01*
X76938053Y-28644592D01*
X77003737Y-28683437D01*
X77011522Y-28689962D01*
X77025488Y-28710926D01*
X77042679Y-28729338D01*
X77044528Y-28739506D01*
X77050260Y-28748110D01*
X77050674Y-28773297D01*
X77055182Y-28798079D01*
X77051239Y-28807634D01*
X77051410Y-28817970D01*
X77038143Y-28839381D01*
X77028536Y-28862669D01*
X77018122Y-28871692D01*
X77014609Y-28877363D01*
X77007871Y-28880575D01*
X76994996Y-28891732D01*
X76938053Y-28925408D01*
X76938046Y-28925413D01*
X76841854Y-29021604D01*
X76827061Y-29034239D01*
X76747536Y-29092018D01*
X76607021Y-29232533D01*
X76490213Y-29393305D01*
X76399994Y-29570367D01*
X76399993Y-29570370D01*
X76338587Y-29759362D01*
X76307500Y-29955639D01*
X76307500Y-30154360D01*
X76338587Y-30350637D01*
X76399993Y-30539629D01*
X76399994Y-30539632D01*
X76481801Y-30700185D01*
X76490213Y-30716694D01*
X76607019Y-30877464D01*
X76607021Y-30877466D01*
X76747539Y-31017984D01*
X76827060Y-31075758D01*
X76833824Y-31081039D01*
X76837998Y-31084537D01*
X76938053Y-31184592D01*
X77003737Y-31223437D01*
X77011522Y-31229962D01*
X77025488Y-31250926D01*
X77042679Y-31269338D01*
X77044528Y-31279506D01*
X77050260Y-31288110D01*
X77050674Y-31313297D01*
X77055182Y-31338079D01*
X77051239Y-31347634D01*
X77051410Y-31357970D01*
X77038143Y-31379381D01*
X77028536Y-31402669D01*
X77018122Y-31411692D01*
X77014609Y-31417363D01*
X77007871Y-31420575D01*
X76994996Y-31431732D01*
X76938053Y-31465408D01*
X76938046Y-31465413D01*
X76841854Y-31561604D01*
X76827061Y-31574239D01*
X76747536Y-31632018D01*
X76607021Y-31772533D01*
X76490213Y-31933305D01*
X76399994Y-32110367D01*
X76399993Y-32110370D01*
X76338587Y-32299362D01*
X76307500Y-32495639D01*
X76307500Y-32694360D01*
X76338587Y-32890637D01*
X76399993Y-33079629D01*
X76399994Y-33079632D01*
X76439662Y-33157483D01*
X76490213Y-33256694D01*
X76607019Y-33417464D01*
X76607021Y-33417466D01*
X76747539Y-33557984D01*
X76827060Y-33615758D01*
X76841851Y-33628390D01*
X76938053Y-33724592D01*
X76938054Y-33724593D01*
X76938056Y-33724594D01*
X76977287Y-33747795D01*
X77080041Y-33808564D01*
X77121816Y-33820701D01*
X77238447Y-33854586D01*
X77238450Y-33854586D01*
X77238452Y-33854587D01*
X77275466Y-33857500D01*
X77275474Y-33857500D01*
X79534526Y-33857500D01*
X79534534Y-33857500D01*
X79571548Y-33854587D01*
X79571550Y-33854586D01*
X79571552Y-33854586D01*
X79613323Y-33842449D01*
X79729959Y-33808564D01*
X79871947Y-33724592D01*
X79988592Y-33607947D01*
X80072564Y-33465959D01*
X80072565Y-33465955D01*
X80072566Y-33465954D01*
X80117903Y-33309905D01*
X80155509Y-33251019D01*
X80218982Y-33221813D01*
X80236979Y-33220500D01*
X82759548Y-33220500D01*
X82826587Y-33240185D01*
X82847229Y-33256819D01*
X87964139Y-38373729D01*
X87964142Y-38373733D01*
X88051267Y-38460858D01*
X88128190Y-38512256D01*
X88133990Y-38516132D01*
X88133993Y-38516134D01*
X88153710Y-38529309D01*
X88153713Y-38529311D01*
X88153715Y-38529312D01*
X88207191Y-38551462D01*
X88207192Y-38551463D01*
X88240200Y-38565135D01*
X88267548Y-38576463D01*
X88327971Y-38588481D01*
X88388393Y-38600500D01*
X88388394Y-38600500D01*
X97639548Y-38600500D01*
X97706587Y-38620185D01*
X97727229Y-38636819D01*
X99288181Y-40197771D01*
X99321666Y-40259094D01*
X99324500Y-40285452D01*
X99324500Y-51144548D01*
X99304815Y-51211587D01*
X99288181Y-51232229D01*
X98397229Y-52123181D01*
X98335906Y-52156666D01*
X98309548Y-52159500D01*
X97560154Y-52159500D01*
X97493115Y-52139815D01*
X97447360Y-52087011D01*
X97442448Y-52074504D01*
X97430212Y-52037580D01*
X97389814Y-51915666D01*
X97297712Y-51766344D01*
X97173656Y-51642288D01*
X97024334Y-51550186D01*
X96857797Y-51495001D01*
X96857795Y-51495000D01*
X96755010Y-51484500D01*
X95554998Y-51484500D01*
X95554981Y-51484501D01*
X95452203Y-51495000D01*
X95452200Y-51495001D01*
X95285668Y-51550185D01*
X95285663Y-51550187D01*
X95136342Y-51642289D01*
X95012289Y-51766342D01*
X94920187Y-51915663D01*
X94920186Y-51915666D01*
X94867551Y-52074506D01*
X94827781Y-52131949D01*
X94763265Y-52158772D01*
X94749847Y-52159500D01*
X78510154Y-52159500D01*
X78443115Y-52139815D01*
X78397360Y-52087011D01*
X78392448Y-52074504D01*
X78380212Y-52037580D01*
X78339814Y-51915666D01*
X78247712Y-51766344D01*
X78123656Y-51642288D01*
X77974334Y-51550186D01*
X77807797Y-51495001D01*
X77807795Y-51495000D01*
X77705010Y-51484500D01*
X76504998Y-51484500D01*
X76504981Y-51484501D01*
X76402203Y-51495000D01*
X76402200Y-51495001D01*
X76235668Y-51550185D01*
X76235663Y-51550187D01*
X76086342Y-51642289D01*
X75962289Y-51766342D01*
X75870187Y-51915663D01*
X75870186Y-51915666D01*
X75817551Y-52074506D01*
X75777781Y-52131949D01*
X75713265Y-52158772D01*
X75699847Y-52159500D01*
X59460154Y-52159500D01*
X59393115Y-52139815D01*
X59347360Y-52087011D01*
X59342448Y-52074504D01*
X59330212Y-52037580D01*
X59289814Y-51915666D01*
X59197712Y-51766344D01*
X59073656Y-51642288D01*
X58924334Y-51550186D01*
X58757797Y-51495001D01*
X58757795Y-51495000D01*
X58655010Y-51484500D01*
X57454998Y-51484500D01*
X57454981Y-51484501D01*
X57352203Y-51495000D01*
X57352200Y-51495001D01*
X57185668Y-51550185D01*
X57185663Y-51550187D01*
X57036342Y-51642289D01*
X56912289Y-51766342D01*
X56820187Y-51915663D01*
X56820186Y-51915666D01*
X56767551Y-52074506D01*
X56727781Y-52131949D01*
X56663265Y-52158772D01*
X56649847Y-52159500D01*
X40410154Y-52159500D01*
X40343115Y-52139815D01*
X40297360Y-52087011D01*
X40292448Y-52074504D01*
X40280212Y-52037580D01*
X40239814Y-51915666D01*
X40147712Y-51766344D01*
X40023656Y-51642288D01*
X39874334Y-51550186D01*
X39707797Y-51495001D01*
X39707795Y-51495000D01*
X39605010Y-51484500D01*
X38404998Y-51484500D01*
X38404981Y-51484501D01*
X38302203Y-51495000D01*
X38302200Y-51495001D01*
X38135668Y-51550185D01*
X38135663Y-51550187D01*
X37986342Y-51642289D01*
X37862289Y-51766342D01*
X37770187Y-51915663D01*
X37770186Y-51915666D01*
X37715001Y-52082203D01*
X37715001Y-52082204D01*
X37715000Y-52082204D01*
X37704500Y-52184983D01*
X19080500Y-52184983D01*
X19080500Y-48886421D01*
X23274500Y-48886421D01*
X23274500Y-49063578D01*
X23302214Y-49238556D01*
X23356956Y-49407039D01*
X23356957Y-49407042D01*
X23437386Y-49564890D01*
X23541517Y-49708214D01*
X23666786Y-49833483D01*
X23810110Y-49937614D01*
X23878577Y-49972500D01*
X23967957Y-50018042D01*
X23967960Y-50018043D01*
X24052201Y-50045414D01*
X24136445Y-50072786D01*
X24311421Y-50100500D01*
X24311422Y-50100500D01*
X24488578Y-50100500D01*
X24488579Y-50100500D01*
X24663555Y-50072786D01*
X24832042Y-50018042D01*
X24989890Y-49937614D01*
X25133214Y-49833483D01*
X25258483Y-49708214D01*
X25362614Y-49564890D01*
X25443042Y-49407042D01*
X25497786Y-49238555D01*
X25525500Y-49063579D01*
X25525500Y-48886421D01*
X25516165Y-48827486D01*
X27229500Y-48827486D01*
X27229500Y-49122513D01*
X27244778Y-49238555D01*
X27268007Y-49414993D01*
X27344361Y-49699951D01*
X27344364Y-49699961D01*
X27457254Y-49972500D01*
X27457258Y-49972510D01*
X27604761Y-50227993D01*
X27784352Y-50462040D01*
X27784358Y-50462047D01*
X27992952Y-50670641D01*
X27992959Y-50670647D01*
X28227006Y-50850238D01*
X28482489Y-50997741D01*
X28482490Y-50997741D01*
X28482493Y-50997743D01*
X28755048Y-51110639D01*
X29040007Y-51186993D01*
X29332494Y-51225500D01*
X29332501Y-51225500D01*
X29627499Y-51225500D01*
X29627506Y-51225500D01*
X29919993Y-51186993D01*
X30204952Y-51110639D01*
X30477507Y-50997743D01*
X30732994Y-50850238D01*
X30967042Y-50670646D01*
X31175646Y-50462042D01*
X31355238Y-50227994D01*
X31502743Y-49972507D01*
X31615639Y-49699952D01*
X31691993Y-49414993D01*
X31730500Y-49122506D01*
X31730500Y-48886421D01*
X33434500Y-48886421D01*
X33434500Y-49063578D01*
X33462214Y-49238556D01*
X33516956Y-49407039D01*
X33516957Y-49407042D01*
X33597386Y-49564890D01*
X33701517Y-49708214D01*
X33826786Y-49833483D01*
X33970110Y-49937614D01*
X34038577Y-49972500D01*
X34127957Y-50018042D01*
X34127960Y-50018043D01*
X34212201Y-50045414D01*
X34296445Y-50072786D01*
X34471421Y-50100500D01*
X34471422Y-50100500D01*
X34648578Y-50100500D01*
X34648579Y-50100500D01*
X34823555Y-50072786D01*
X34992042Y-50018042D01*
X35149890Y-49937614D01*
X35293214Y-49833483D01*
X35418483Y-49708214D01*
X35522614Y-49564890D01*
X35603042Y-49407042D01*
X35657786Y-49238555D01*
X35685500Y-49063579D01*
X35685500Y-48886421D01*
X42324500Y-48886421D01*
X42324500Y-49063578D01*
X42352214Y-49238556D01*
X42406956Y-49407039D01*
X42406957Y-49407042D01*
X42487386Y-49564890D01*
X42591517Y-49708214D01*
X42716786Y-49833483D01*
X42860110Y-49937614D01*
X42928577Y-49972500D01*
X43017957Y-50018042D01*
X43017960Y-50018043D01*
X43102201Y-50045414D01*
X43186445Y-50072786D01*
X43361421Y-50100500D01*
X43361422Y-50100500D01*
X43538578Y-50100500D01*
X43538579Y-50100500D01*
X43713555Y-50072786D01*
X43882042Y-50018042D01*
X44039890Y-49937614D01*
X44183214Y-49833483D01*
X44308483Y-49708214D01*
X44412614Y-49564890D01*
X44493042Y-49407042D01*
X44547786Y-49238555D01*
X44575500Y-49063579D01*
X44575500Y-48886421D01*
X44566165Y-48827486D01*
X46279500Y-48827486D01*
X46279500Y-49122513D01*
X46294778Y-49238555D01*
X46318007Y-49414993D01*
X46394361Y-49699951D01*
X46394364Y-49699961D01*
X46507254Y-49972500D01*
X46507258Y-49972510D01*
X46654761Y-50227993D01*
X46834352Y-50462040D01*
X46834358Y-50462047D01*
X47042952Y-50670641D01*
X47042959Y-50670647D01*
X47277006Y-50850238D01*
X47532489Y-50997741D01*
X47532490Y-50997741D01*
X47532493Y-50997743D01*
X47805048Y-51110639D01*
X48090007Y-51186993D01*
X48382494Y-51225500D01*
X48382501Y-51225500D01*
X48677499Y-51225500D01*
X48677506Y-51225500D01*
X48969993Y-51186993D01*
X49254952Y-51110639D01*
X49527507Y-50997743D01*
X49782994Y-50850238D01*
X50017042Y-50670646D01*
X50225646Y-50462042D01*
X50405238Y-50227994D01*
X50552743Y-49972507D01*
X50665639Y-49699952D01*
X50741993Y-49414993D01*
X50780500Y-49122506D01*
X50780500Y-48886421D01*
X52484500Y-48886421D01*
X52484500Y-49063578D01*
X52512214Y-49238556D01*
X52566956Y-49407039D01*
X52566957Y-49407042D01*
X52647386Y-49564890D01*
X52751517Y-49708214D01*
X52876786Y-49833483D01*
X53020110Y-49937614D01*
X53088577Y-49972500D01*
X53177957Y-50018042D01*
X53177960Y-50018043D01*
X53262201Y-50045414D01*
X53346445Y-50072786D01*
X53521421Y-50100500D01*
X53521422Y-50100500D01*
X53698578Y-50100500D01*
X53698579Y-50100500D01*
X53873555Y-50072786D01*
X54042042Y-50018042D01*
X54199890Y-49937614D01*
X54343214Y-49833483D01*
X54468483Y-49708214D01*
X54572614Y-49564890D01*
X54653042Y-49407042D01*
X54707786Y-49238555D01*
X54735500Y-49063579D01*
X54735500Y-48886421D01*
X61374500Y-48886421D01*
X61374500Y-49063578D01*
X61402214Y-49238556D01*
X61456956Y-49407039D01*
X61456957Y-49407042D01*
X61537386Y-49564890D01*
X61641517Y-49708214D01*
X61766786Y-49833483D01*
X61910110Y-49937614D01*
X61978577Y-49972500D01*
X62067957Y-50018042D01*
X62067960Y-50018043D01*
X62152201Y-50045414D01*
X62236445Y-50072786D01*
X62411421Y-50100500D01*
X62411422Y-50100500D01*
X62588578Y-50100500D01*
X62588579Y-50100500D01*
X62763555Y-50072786D01*
X62932042Y-50018042D01*
X63089890Y-49937614D01*
X63233214Y-49833483D01*
X63358483Y-49708214D01*
X63462614Y-49564890D01*
X63543042Y-49407042D01*
X63597786Y-49238555D01*
X63625500Y-49063579D01*
X63625500Y-48886421D01*
X63616165Y-48827486D01*
X65329500Y-48827486D01*
X65329500Y-49122513D01*
X65344778Y-49238555D01*
X65368007Y-49414993D01*
X65444361Y-49699951D01*
X65444364Y-49699961D01*
X65557254Y-49972500D01*
X65557258Y-49972510D01*
X65704761Y-50227993D01*
X65884352Y-50462040D01*
X65884358Y-50462047D01*
X66092952Y-50670641D01*
X66092959Y-50670647D01*
X66327006Y-50850238D01*
X66582489Y-50997741D01*
X66582490Y-50997741D01*
X66582493Y-50997743D01*
X66855048Y-51110639D01*
X67140007Y-51186993D01*
X67432494Y-51225500D01*
X67432501Y-51225500D01*
X67727499Y-51225500D01*
X67727506Y-51225500D01*
X68019993Y-51186993D01*
X68304952Y-51110639D01*
X68577507Y-50997743D01*
X68832994Y-50850238D01*
X69067042Y-50670646D01*
X69275646Y-50462042D01*
X69455238Y-50227994D01*
X69602743Y-49972507D01*
X69715639Y-49699952D01*
X69791993Y-49414993D01*
X69830500Y-49122506D01*
X69830500Y-48886421D01*
X71534500Y-48886421D01*
X71534500Y-49063578D01*
X71562214Y-49238556D01*
X71616956Y-49407039D01*
X71616957Y-49407042D01*
X71697386Y-49564890D01*
X71801517Y-49708214D01*
X71926786Y-49833483D01*
X72070110Y-49937614D01*
X72138577Y-49972500D01*
X72227957Y-50018042D01*
X72227960Y-50018043D01*
X72312201Y-50045414D01*
X72396445Y-50072786D01*
X72571421Y-50100500D01*
X72571422Y-50100500D01*
X72748578Y-50100500D01*
X72748579Y-50100500D01*
X72923555Y-50072786D01*
X73092042Y-50018042D01*
X73249890Y-49937614D01*
X73393214Y-49833483D01*
X73518483Y-49708214D01*
X73622614Y-49564890D01*
X73703042Y-49407042D01*
X73757786Y-49238555D01*
X73785500Y-49063579D01*
X73785500Y-48886421D01*
X80424500Y-48886421D01*
X80424500Y-49063578D01*
X80452214Y-49238556D01*
X80506956Y-49407039D01*
X80506957Y-49407042D01*
X80587386Y-49564890D01*
X80691517Y-49708214D01*
X80816786Y-49833483D01*
X80960110Y-49937614D01*
X81028577Y-49972500D01*
X81117957Y-50018042D01*
X81117960Y-50018043D01*
X81202201Y-50045414D01*
X81286445Y-50072786D01*
X81461421Y-50100500D01*
X81461422Y-50100500D01*
X81638578Y-50100500D01*
X81638579Y-50100500D01*
X81813555Y-50072786D01*
X81982042Y-50018042D01*
X82139890Y-49937614D01*
X82283214Y-49833483D01*
X82408483Y-49708214D01*
X82512614Y-49564890D01*
X82593042Y-49407042D01*
X82647786Y-49238555D01*
X82675500Y-49063579D01*
X82675500Y-48886421D01*
X82666165Y-48827486D01*
X84379500Y-48827486D01*
X84379500Y-49122513D01*
X84394778Y-49238555D01*
X84418007Y-49414993D01*
X84494361Y-49699951D01*
X84494364Y-49699961D01*
X84607254Y-49972500D01*
X84607258Y-49972510D01*
X84754761Y-50227993D01*
X84934352Y-50462040D01*
X84934358Y-50462047D01*
X85142952Y-50670641D01*
X85142959Y-50670647D01*
X85377006Y-50850238D01*
X85632489Y-50997741D01*
X85632490Y-50997741D01*
X85632493Y-50997743D01*
X85905048Y-51110639D01*
X86190007Y-51186993D01*
X86482494Y-51225500D01*
X86482501Y-51225500D01*
X86777499Y-51225500D01*
X86777506Y-51225500D01*
X87069993Y-51186993D01*
X87354952Y-51110639D01*
X87627507Y-50997743D01*
X87882994Y-50850238D01*
X88117042Y-50670646D01*
X88325646Y-50462042D01*
X88505238Y-50227994D01*
X88652743Y-49972507D01*
X88765639Y-49699952D01*
X88841993Y-49414993D01*
X88880500Y-49122506D01*
X88880500Y-48886421D01*
X90584500Y-48886421D01*
X90584500Y-49063578D01*
X90612214Y-49238556D01*
X90666956Y-49407039D01*
X90666957Y-49407042D01*
X90747386Y-49564890D01*
X90851517Y-49708214D01*
X90976786Y-49833483D01*
X91120110Y-49937614D01*
X91188577Y-49972500D01*
X91277957Y-50018042D01*
X91277960Y-50018043D01*
X91362201Y-50045414D01*
X91446445Y-50072786D01*
X91621421Y-50100500D01*
X91621422Y-50100500D01*
X91798578Y-50100500D01*
X91798579Y-50100500D01*
X91973555Y-50072786D01*
X92142042Y-50018042D01*
X92299890Y-49937614D01*
X92443214Y-49833483D01*
X92568483Y-49708214D01*
X92672614Y-49564890D01*
X92753042Y-49407042D01*
X92807786Y-49238555D01*
X92835500Y-49063579D01*
X92835500Y-48886421D01*
X92807786Y-48711445D01*
X92753042Y-48542958D01*
X92753042Y-48542957D01*
X92672613Y-48385109D01*
X92661518Y-48369838D01*
X92568483Y-48241786D01*
X92443214Y-48116517D01*
X92299890Y-48012386D01*
X92291953Y-48008342D01*
X92142042Y-47931957D01*
X92142039Y-47931956D01*
X91973556Y-47877214D01*
X91886067Y-47863357D01*
X91798579Y-47849500D01*
X91621421Y-47849500D01*
X91563095Y-47858738D01*
X91446443Y-47877214D01*
X91277960Y-47931956D01*
X91277957Y-47931957D01*
X91120109Y-48012386D01*
X91038338Y-48071796D01*
X90976786Y-48116517D01*
X90976784Y-48116519D01*
X90976783Y-48116519D01*
X90851519Y-48241783D01*
X90851519Y-48241784D01*
X90851517Y-48241786D01*
X90806796Y-48303338D01*
X90747386Y-48385109D01*
X90666957Y-48542957D01*
X90666956Y-48542960D01*
X90612214Y-48711443D01*
X90584500Y-48886421D01*
X88880500Y-48886421D01*
X88880500Y-48827494D01*
X88841993Y-48535007D01*
X88765639Y-48250048D01*
X88652743Y-47977493D01*
X88626453Y-47931958D01*
X88505238Y-47722006D01*
X88325647Y-47487959D01*
X88325641Y-47487952D01*
X88117047Y-47279358D01*
X88117040Y-47279352D01*
X87882993Y-47099761D01*
X87627510Y-46952258D01*
X87627500Y-46952254D01*
X87354961Y-46839364D01*
X87354954Y-46839362D01*
X87354952Y-46839361D01*
X87069993Y-46763007D01*
X87021113Y-46756571D01*
X86777513Y-46724500D01*
X86777506Y-46724500D01*
X86482494Y-46724500D01*
X86482486Y-46724500D01*
X86204085Y-46761153D01*
X86190007Y-46763007D01*
X85905048Y-46839361D01*
X85905038Y-46839364D01*
X85632499Y-46952254D01*
X85632489Y-46952258D01*
X85377006Y-47099761D01*
X85142959Y-47279352D01*
X85142952Y-47279358D01*
X84934358Y-47487952D01*
X84934352Y-47487959D01*
X84754761Y-47722006D01*
X84607258Y-47977489D01*
X84607254Y-47977499D01*
X84494364Y-48250038D01*
X84494361Y-48250048D01*
X84458172Y-48385110D01*
X84418008Y-48535004D01*
X84418006Y-48535015D01*
X84379500Y-48827486D01*
X82666165Y-48827486D01*
X82647786Y-48711445D01*
X82593042Y-48542958D01*
X82593042Y-48542957D01*
X82512613Y-48385109D01*
X82501518Y-48369838D01*
X82478038Y-48304032D01*
X82493863Y-48235978D01*
X82543968Y-48187283D01*
X82612446Y-48173407D01*
X82617977Y-48174008D01*
X82705266Y-48185500D01*
X82705273Y-48185500D01*
X82934727Y-48185500D01*
X82934734Y-48185500D01*
X83162238Y-48155548D01*
X83383887Y-48096158D01*
X83595888Y-48008344D01*
X83794612Y-47893611D01*
X83976661Y-47753919D01*
X83976665Y-47753914D01*
X83976670Y-47753911D01*
X84138911Y-47591670D01*
X84138914Y-47591665D01*
X84138919Y-47591661D01*
X84278611Y-47409612D01*
X84393344Y-47210888D01*
X84481158Y-46998887D01*
X84540548Y-46777238D01*
X84570500Y-46549734D01*
X84570500Y-46320266D01*
X84540548Y-46092762D01*
X84481158Y-45871113D01*
X84395461Y-45664223D01*
X84393349Y-45659123D01*
X84393346Y-45659117D01*
X84393344Y-45659112D01*
X84278611Y-45460388D01*
X84278608Y-45460385D01*
X84278607Y-45460382D01*
X84138918Y-45278338D01*
X84138911Y-45278330D01*
X83976670Y-45116089D01*
X83976661Y-45116081D01*
X83794617Y-44976392D01*
X83595890Y-44861657D01*
X83595876Y-44861650D01*
X83383887Y-44773842D01*
X83162238Y-44714452D01*
X83124215Y-44709446D01*
X82934741Y-44684500D01*
X82934734Y-44684500D01*
X82705266Y-44684500D01*
X82705258Y-44684500D01*
X82488715Y-44713009D01*
X82477762Y-44714452D01*
X82384076Y-44739554D01*
X82256112Y-44773842D01*
X82044123Y-44861650D01*
X82044109Y-44861657D01*
X81845382Y-44976392D01*
X81663338Y-45116081D01*
X81501081Y-45278338D01*
X81361392Y-45460382D01*
X81246657Y-45659109D01*
X81246650Y-45659123D01*
X81158842Y-45871112D01*
X81099453Y-46092759D01*
X81099451Y-46092770D01*
X81069500Y-46320258D01*
X81069500Y-46549741D01*
X81092509Y-46724500D01*
X81099452Y-46777238D01*
X81146347Y-46952254D01*
X81158842Y-46998887D01*
X81246650Y-47210876D01*
X81246657Y-47210890D01*
X81361392Y-47409617D01*
X81501081Y-47591661D01*
X81501089Y-47591670D01*
X81547238Y-47637819D01*
X81580723Y-47699142D01*
X81575739Y-47768834D01*
X81533867Y-47824767D01*
X81468403Y-47849184D01*
X81462967Y-47849378D01*
X81461423Y-47849499D01*
X81286443Y-47877214D01*
X81117960Y-47931956D01*
X81117957Y-47931957D01*
X80960109Y-48012386D01*
X80878338Y-48071796D01*
X80816786Y-48116517D01*
X80816784Y-48116519D01*
X80816783Y-48116519D01*
X80691519Y-48241783D01*
X80691519Y-48241784D01*
X80691517Y-48241786D01*
X80646796Y-48303338D01*
X80587386Y-48385109D01*
X80506957Y-48542957D01*
X80506956Y-48542960D01*
X80452214Y-48711443D01*
X80424500Y-48886421D01*
X73785500Y-48886421D01*
X73757786Y-48711445D01*
X73703042Y-48542958D01*
X73703042Y-48542957D01*
X73622613Y-48385109D01*
X73611518Y-48369838D01*
X73518483Y-48241786D01*
X73393214Y-48116517D01*
X73249890Y-48012386D01*
X73241953Y-48008342D01*
X73092042Y-47931957D01*
X73092039Y-47931956D01*
X72923556Y-47877214D01*
X72836067Y-47863357D01*
X72748579Y-47849500D01*
X72571421Y-47849500D01*
X72513095Y-47858738D01*
X72396443Y-47877214D01*
X72227960Y-47931956D01*
X72227957Y-47931957D01*
X72070109Y-48012386D01*
X71988338Y-48071796D01*
X71926786Y-48116517D01*
X71926784Y-48116519D01*
X71926783Y-48116519D01*
X71801519Y-48241783D01*
X71801519Y-48241784D01*
X71801517Y-48241786D01*
X71756796Y-48303338D01*
X71697386Y-48385109D01*
X71616957Y-48542957D01*
X71616956Y-48542960D01*
X71562214Y-48711443D01*
X71534500Y-48886421D01*
X69830500Y-48886421D01*
X69830500Y-48827494D01*
X69791993Y-48535007D01*
X69715639Y-48250048D01*
X69602743Y-47977493D01*
X69576453Y-47931958D01*
X69455238Y-47722006D01*
X69275647Y-47487959D01*
X69275641Y-47487952D01*
X69067047Y-47279358D01*
X69067040Y-47279352D01*
X68832993Y-47099761D01*
X68577510Y-46952258D01*
X68577500Y-46952254D01*
X68304961Y-46839364D01*
X68304954Y-46839362D01*
X68304952Y-46839361D01*
X68019993Y-46763007D01*
X67971113Y-46756571D01*
X67727513Y-46724500D01*
X67727506Y-46724500D01*
X67432494Y-46724500D01*
X67432486Y-46724500D01*
X67154085Y-46761153D01*
X67140007Y-46763007D01*
X66855048Y-46839361D01*
X66855038Y-46839364D01*
X66582499Y-46952254D01*
X66582489Y-46952258D01*
X66327006Y-47099761D01*
X66092959Y-47279352D01*
X66092952Y-47279358D01*
X65884358Y-47487952D01*
X65884352Y-47487959D01*
X65704761Y-47722006D01*
X65557258Y-47977489D01*
X65557254Y-47977499D01*
X65444364Y-48250038D01*
X65444361Y-48250048D01*
X65408172Y-48385110D01*
X65368008Y-48535004D01*
X65368006Y-48535015D01*
X65329500Y-48827486D01*
X63616165Y-48827486D01*
X63597786Y-48711445D01*
X63543042Y-48542958D01*
X63543042Y-48542957D01*
X63462613Y-48385109D01*
X63451518Y-48369838D01*
X63428038Y-48304032D01*
X63443863Y-48235978D01*
X63493968Y-48187283D01*
X63562446Y-48173407D01*
X63567977Y-48174008D01*
X63655266Y-48185500D01*
X63655273Y-48185500D01*
X63884727Y-48185500D01*
X63884734Y-48185500D01*
X64112238Y-48155548D01*
X64333887Y-48096158D01*
X64545888Y-48008344D01*
X64744612Y-47893611D01*
X64926661Y-47753919D01*
X64926665Y-47753914D01*
X64926670Y-47753911D01*
X65088911Y-47591670D01*
X65088914Y-47591665D01*
X65088919Y-47591661D01*
X65228611Y-47409612D01*
X65343344Y-47210888D01*
X65431158Y-46998887D01*
X65490548Y-46777238D01*
X65520500Y-46549734D01*
X65520500Y-46320266D01*
X65490548Y-46092762D01*
X65431158Y-45871113D01*
X65345461Y-45664223D01*
X65343349Y-45659123D01*
X65343346Y-45659117D01*
X65343344Y-45659112D01*
X65228611Y-45460388D01*
X65228608Y-45460385D01*
X65228607Y-45460382D01*
X65088918Y-45278338D01*
X65088911Y-45278330D01*
X64926670Y-45116089D01*
X64926661Y-45116081D01*
X64744617Y-44976392D01*
X64545890Y-44861657D01*
X64545876Y-44861650D01*
X64333887Y-44773842D01*
X64112238Y-44714452D01*
X64074215Y-44709446D01*
X63884741Y-44684500D01*
X63884734Y-44684500D01*
X63655266Y-44684500D01*
X63655258Y-44684500D01*
X63438715Y-44713009D01*
X63427762Y-44714452D01*
X63334076Y-44739554D01*
X63206112Y-44773842D01*
X62994123Y-44861650D01*
X62994109Y-44861657D01*
X62795382Y-44976392D01*
X62613338Y-45116081D01*
X62451081Y-45278338D01*
X62311392Y-45460382D01*
X62196657Y-45659109D01*
X62196650Y-45659123D01*
X62108842Y-45871112D01*
X62049453Y-46092759D01*
X62049451Y-46092770D01*
X62019500Y-46320258D01*
X62019500Y-46549741D01*
X62042509Y-46724500D01*
X62049452Y-46777238D01*
X62096347Y-46952254D01*
X62108842Y-46998887D01*
X62196650Y-47210876D01*
X62196657Y-47210890D01*
X62311392Y-47409617D01*
X62451081Y-47591661D01*
X62451089Y-47591670D01*
X62497238Y-47637819D01*
X62530723Y-47699142D01*
X62525739Y-47768834D01*
X62483867Y-47824767D01*
X62418403Y-47849184D01*
X62412967Y-47849378D01*
X62411423Y-47849499D01*
X62236443Y-47877214D01*
X62067960Y-47931956D01*
X62067957Y-47931957D01*
X61910109Y-48012386D01*
X61828338Y-48071796D01*
X61766786Y-48116517D01*
X61766784Y-48116519D01*
X61766783Y-48116519D01*
X61641519Y-48241783D01*
X61641519Y-48241784D01*
X61641517Y-48241786D01*
X61596796Y-48303338D01*
X61537386Y-48385109D01*
X61456957Y-48542957D01*
X61456956Y-48542960D01*
X61402214Y-48711443D01*
X61374500Y-48886421D01*
X54735500Y-48886421D01*
X54707786Y-48711445D01*
X54653042Y-48542958D01*
X54653042Y-48542957D01*
X54572613Y-48385109D01*
X54561518Y-48369838D01*
X54468483Y-48241786D01*
X54343214Y-48116517D01*
X54199890Y-48012386D01*
X54191953Y-48008342D01*
X54042042Y-47931957D01*
X54042039Y-47931956D01*
X53873556Y-47877214D01*
X53786067Y-47863357D01*
X53698579Y-47849500D01*
X53521421Y-47849500D01*
X53463095Y-47858738D01*
X53346443Y-47877214D01*
X53177960Y-47931956D01*
X53177957Y-47931957D01*
X53020109Y-48012386D01*
X52938338Y-48071796D01*
X52876786Y-48116517D01*
X52876784Y-48116519D01*
X52876783Y-48116519D01*
X52751519Y-48241783D01*
X52751519Y-48241784D01*
X52751517Y-48241786D01*
X52706796Y-48303338D01*
X52647386Y-48385109D01*
X52566957Y-48542957D01*
X52566956Y-48542960D01*
X52512214Y-48711443D01*
X52484500Y-48886421D01*
X50780500Y-48886421D01*
X50780500Y-48827494D01*
X50741993Y-48535007D01*
X50665639Y-48250048D01*
X50552743Y-47977493D01*
X50526453Y-47931958D01*
X50405238Y-47722006D01*
X50225647Y-47487959D01*
X50225641Y-47487952D01*
X50017047Y-47279358D01*
X50017040Y-47279352D01*
X49782993Y-47099761D01*
X49527510Y-46952258D01*
X49527500Y-46952254D01*
X49254961Y-46839364D01*
X49254954Y-46839362D01*
X49254952Y-46839361D01*
X48969993Y-46763007D01*
X48921113Y-46756571D01*
X48677513Y-46724500D01*
X48677506Y-46724500D01*
X48382494Y-46724500D01*
X48382486Y-46724500D01*
X48104085Y-46761153D01*
X48090007Y-46763007D01*
X47805048Y-46839361D01*
X47805038Y-46839364D01*
X47532499Y-46952254D01*
X47532489Y-46952258D01*
X47277006Y-47099761D01*
X47042959Y-47279352D01*
X47042952Y-47279358D01*
X46834358Y-47487952D01*
X46834352Y-47487959D01*
X46654761Y-47722006D01*
X46507258Y-47977489D01*
X46507254Y-47977499D01*
X46394364Y-48250038D01*
X46394361Y-48250048D01*
X46358172Y-48385110D01*
X46318008Y-48535004D01*
X46318006Y-48535015D01*
X46279500Y-48827486D01*
X44566165Y-48827486D01*
X44547786Y-48711445D01*
X44493042Y-48542958D01*
X44493042Y-48542957D01*
X44412613Y-48385109D01*
X44401518Y-48369838D01*
X44378038Y-48304032D01*
X44393863Y-48235978D01*
X44443968Y-48187283D01*
X44512446Y-48173407D01*
X44517977Y-48174008D01*
X44605266Y-48185500D01*
X44605273Y-48185500D01*
X44834727Y-48185500D01*
X44834734Y-48185500D01*
X45062238Y-48155548D01*
X45283887Y-48096158D01*
X45495888Y-48008344D01*
X45694612Y-47893611D01*
X45876661Y-47753919D01*
X45876665Y-47753914D01*
X45876670Y-47753911D01*
X46038911Y-47591670D01*
X46038914Y-47591665D01*
X46038919Y-47591661D01*
X46178611Y-47409612D01*
X46293344Y-47210888D01*
X46381158Y-46998887D01*
X46440548Y-46777238D01*
X46470500Y-46549734D01*
X46470500Y-46320266D01*
X46440548Y-46092762D01*
X46381158Y-45871113D01*
X46295461Y-45664223D01*
X46293349Y-45659123D01*
X46293346Y-45659117D01*
X46293344Y-45659112D01*
X46178611Y-45460388D01*
X46178608Y-45460385D01*
X46178607Y-45460382D01*
X46038918Y-45278338D01*
X46038911Y-45278330D01*
X45876670Y-45116089D01*
X45876661Y-45116081D01*
X45694617Y-44976392D01*
X45495890Y-44861657D01*
X45495876Y-44861650D01*
X45283887Y-44773842D01*
X45062238Y-44714452D01*
X45024215Y-44709446D01*
X44834741Y-44684500D01*
X44834734Y-44684500D01*
X44605266Y-44684500D01*
X44605258Y-44684500D01*
X44388715Y-44713009D01*
X44377762Y-44714452D01*
X44284076Y-44739554D01*
X44156112Y-44773842D01*
X43944123Y-44861650D01*
X43944109Y-44861657D01*
X43745382Y-44976392D01*
X43563338Y-45116081D01*
X43401081Y-45278338D01*
X43261392Y-45460382D01*
X43146657Y-45659109D01*
X43146650Y-45659123D01*
X43058842Y-45871112D01*
X42999453Y-46092759D01*
X42999451Y-46092770D01*
X42969500Y-46320258D01*
X42969500Y-46549741D01*
X42992509Y-46724500D01*
X42999452Y-46777238D01*
X43046347Y-46952254D01*
X43058842Y-46998887D01*
X43146650Y-47210876D01*
X43146657Y-47210890D01*
X43261392Y-47409617D01*
X43401081Y-47591661D01*
X43401089Y-47591670D01*
X43447238Y-47637819D01*
X43480723Y-47699142D01*
X43475739Y-47768834D01*
X43433867Y-47824767D01*
X43368403Y-47849184D01*
X43362967Y-47849378D01*
X43361423Y-47849499D01*
X43186443Y-47877214D01*
X43017960Y-47931956D01*
X43017957Y-47931957D01*
X42860109Y-48012386D01*
X42778338Y-48071796D01*
X42716786Y-48116517D01*
X42716784Y-48116519D01*
X42716783Y-48116519D01*
X42591519Y-48241783D01*
X42591519Y-48241784D01*
X42591517Y-48241786D01*
X42546796Y-48303338D01*
X42487386Y-48385109D01*
X42406957Y-48542957D01*
X42406956Y-48542960D01*
X42352214Y-48711443D01*
X42324500Y-48886421D01*
X35685500Y-48886421D01*
X35657786Y-48711445D01*
X35603042Y-48542958D01*
X35603042Y-48542957D01*
X35522613Y-48385109D01*
X35511518Y-48369838D01*
X35418483Y-48241786D01*
X35293214Y-48116517D01*
X35149890Y-48012386D01*
X35141953Y-48008342D01*
X34992042Y-47931957D01*
X34992039Y-47931956D01*
X34823556Y-47877214D01*
X34736067Y-47863357D01*
X34648579Y-47849500D01*
X34471421Y-47849500D01*
X34413095Y-47858738D01*
X34296443Y-47877214D01*
X34127960Y-47931956D01*
X34127957Y-47931957D01*
X33970109Y-48012386D01*
X33888338Y-48071796D01*
X33826786Y-48116517D01*
X33826784Y-48116519D01*
X33826783Y-48116519D01*
X33701519Y-48241783D01*
X33701519Y-48241784D01*
X33701517Y-48241786D01*
X33656796Y-48303338D01*
X33597386Y-48385109D01*
X33516957Y-48542957D01*
X33516956Y-48542960D01*
X33462214Y-48711443D01*
X33434500Y-48886421D01*
X31730500Y-48886421D01*
X31730500Y-48827494D01*
X31691993Y-48535007D01*
X31615639Y-48250048D01*
X31502743Y-47977493D01*
X31476453Y-47931958D01*
X31355238Y-47722006D01*
X31175647Y-47487959D01*
X31175641Y-47487952D01*
X30967047Y-47279358D01*
X30967040Y-47279352D01*
X30732993Y-47099761D01*
X30477510Y-46952258D01*
X30477500Y-46952254D01*
X30204961Y-46839364D01*
X30204954Y-46839362D01*
X30204952Y-46839361D01*
X29919993Y-46763007D01*
X29871113Y-46756571D01*
X29627513Y-46724500D01*
X29627506Y-46724500D01*
X29332494Y-46724500D01*
X29332486Y-46724500D01*
X29054085Y-46761153D01*
X29040007Y-46763007D01*
X28755048Y-46839361D01*
X28755038Y-46839364D01*
X28482499Y-46952254D01*
X28482489Y-46952258D01*
X28227006Y-47099761D01*
X27992959Y-47279352D01*
X27992952Y-47279358D01*
X27784358Y-47487952D01*
X27784352Y-47487959D01*
X27604761Y-47722006D01*
X27457258Y-47977489D01*
X27457254Y-47977499D01*
X27344364Y-48250038D01*
X27344361Y-48250048D01*
X27308172Y-48385110D01*
X27268008Y-48535004D01*
X27268006Y-48535015D01*
X27229500Y-48827486D01*
X25516165Y-48827486D01*
X25497786Y-48711445D01*
X25443042Y-48542958D01*
X25443042Y-48542957D01*
X25362613Y-48385109D01*
X25351518Y-48369838D01*
X25328038Y-48304032D01*
X25343863Y-48235978D01*
X25393968Y-48187283D01*
X25462446Y-48173407D01*
X25467977Y-48174008D01*
X25555266Y-48185500D01*
X25555273Y-48185500D01*
X25784727Y-48185500D01*
X25784734Y-48185500D01*
X26012238Y-48155548D01*
X26233887Y-48096158D01*
X26445888Y-48008344D01*
X26644612Y-47893611D01*
X26826661Y-47753919D01*
X26826665Y-47753914D01*
X26826670Y-47753911D01*
X26988911Y-47591670D01*
X26988914Y-47591665D01*
X26988919Y-47591661D01*
X27128611Y-47409612D01*
X27243344Y-47210888D01*
X27331158Y-46998887D01*
X27390548Y-46777238D01*
X27420500Y-46549734D01*
X27420500Y-46320266D01*
X27390548Y-46092762D01*
X27331158Y-45871113D01*
X27245461Y-45664223D01*
X27243349Y-45659123D01*
X27243346Y-45659117D01*
X27243344Y-45659112D01*
X27128611Y-45460388D01*
X27128608Y-45460385D01*
X27128607Y-45460382D01*
X26988918Y-45278338D01*
X26988911Y-45278330D01*
X26826670Y-45116089D01*
X26826661Y-45116081D01*
X26644617Y-44976392D01*
X26445890Y-44861657D01*
X26445876Y-44861650D01*
X26233887Y-44773842D01*
X26012238Y-44714452D01*
X25974215Y-44709446D01*
X25784741Y-44684500D01*
X25784734Y-44684500D01*
X25555266Y-44684500D01*
X25555258Y-44684500D01*
X25338715Y-44713009D01*
X25327762Y-44714452D01*
X25234076Y-44739554D01*
X25106112Y-44773842D01*
X24894123Y-44861650D01*
X24894109Y-44861657D01*
X24695382Y-44976392D01*
X24513338Y-45116081D01*
X24351081Y-45278338D01*
X24211392Y-45460382D01*
X24096657Y-45659109D01*
X24096650Y-45659123D01*
X24008842Y-45871112D01*
X23949453Y-46092759D01*
X23949451Y-46092770D01*
X23919500Y-46320258D01*
X23919500Y-46549741D01*
X23942509Y-46724500D01*
X23949452Y-46777238D01*
X23996347Y-46952254D01*
X24008842Y-46998887D01*
X24096650Y-47210876D01*
X24096657Y-47210890D01*
X24211392Y-47409617D01*
X24351081Y-47591661D01*
X24351089Y-47591670D01*
X24397238Y-47637819D01*
X24430723Y-47699142D01*
X24425739Y-47768834D01*
X24383867Y-47824767D01*
X24318403Y-47849184D01*
X24312967Y-47849378D01*
X24311423Y-47849499D01*
X24136443Y-47877214D01*
X23967960Y-47931956D01*
X23967957Y-47931957D01*
X23810109Y-48012386D01*
X23728338Y-48071796D01*
X23666786Y-48116517D01*
X23666784Y-48116519D01*
X23666783Y-48116519D01*
X23541519Y-48241783D01*
X23541519Y-48241784D01*
X23541517Y-48241786D01*
X23496796Y-48303338D01*
X23437386Y-48385109D01*
X23356957Y-48542957D01*
X23356956Y-48542960D01*
X23302214Y-48711443D01*
X23274500Y-48886421D01*
X19080500Y-48886421D01*
X19080500Y-43780258D01*
X30269500Y-43780258D01*
X30269500Y-44009741D01*
X30290998Y-44173028D01*
X30299452Y-44237238D01*
X30299453Y-44237240D01*
X30358842Y-44458887D01*
X30446650Y-44670876D01*
X30446657Y-44670890D01*
X30561392Y-44869617D01*
X30701081Y-45051661D01*
X30701089Y-45051670D01*
X30863330Y-45213911D01*
X30863338Y-45213918D01*
X31045382Y-45353607D01*
X31045385Y-45353608D01*
X31045388Y-45353611D01*
X31244112Y-45468344D01*
X31244117Y-45468346D01*
X31244123Y-45468349D01*
X31335480Y-45506190D01*
X31456113Y-45556158D01*
X31677762Y-45615548D01*
X31905266Y-45645500D01*
X31905273Y-45645500D01*
X32134727Y-45645500D01*
X32134734Y-45645500D01*
X32362238Y-45615548D01*
X32583887Y-45556158D01*
X32795888Y-45468344D01*
X32994612Y-45353611D01*
X33176661Y-45213919D01*
X33176665Y-45213914D01*
X33176670Y-45213911D01*
X33338911Y-45051670D01*
X33338914Y-45051665D01*
X33338919Y-45051661D01*
X33478611Y-44869612D01*
X33593344Y-44670888D01*
X33595459Y-44665781D01*
X33623930Y-44597048D01*
X33667771Y-44542644D01*
X33734065Y-44520579D01*
X33738491Y-44520500D01*
X37424548Y-44520500D01*
X37491587Y-44540185D01*
X37512229Y-44556819D01*
X37702781Y-44747371D01*
X37736266Y-44808694D01*
X37735785Y-44855416D01*
X37737285Y-44855654D01*
X37704500Y-45062648D01*
X37704500Y-45267351D01*
X37736522Y-45469534D01*
X37799781Y-45664223D01*
X37892715Y-45846613D01*
X38013028Y-46012213D01*
X38157786Y-46156971D01*
X38312749Y-46269556D01*
X38323390Y-46277287D01*
X38407741Y-46320266D01*
X38505776Y-46370218D01*
X38505778Y-46370218D01*
X38505781Y-46370220D01*
X38610137Y-46404127D01*
X38700465Y-46433477D01*
X38801557Y-46449488D01*
X38902648Y-46465500D01*
X38902649Y-46465500D01*
X39107351Y-46465500D01*
X39107352Y-46465500D01*
X39309534Y-46433477D01*
X39504219Y-46370220D01*
X39686610Y-46277287D01*
X39779590Y-46209732D01*
X39852213Y-46156971D01*
X39852215Y-46156968D01*
X39852219Y-46156966D01*
X39996966Y-46012219D01*
X39996968Y-46012215D01*
X39996971Y-46012213D01*
X40049732Y-45939590D01*
X40117287Y-45846610D01*
X40210220Y-45664219D01*
X40273477Y-45469534D01*
X40305500Y-45267352D01*
X40305500Y-45062648D01*
X40291838Y-44976389D01*
X40273477Y-44860465D01*
X40210218Y-44665776D01*
X40147478Y-44542644D01*
X40117287Y-44483390D01*
X40099485Y-44458887D01*
X39996971Y-44317786D01*
X39852213Y-44173028D01*
X39686613Y-44052715D01*
X39686612Y-44052714D01*
X39686610Y-44052713D01*
X39602273Y-44009741D01*
X39504223Y-43959781D01*
X39309534Y-43896522D01*
X39134995Y-43868878D01*
X39107352Y-43864500D01*
X38902648Y-43864500D01*
X38799101Y-43880900D01*
X38695654Y-43897285D01*
X38695333Y-43895262D01*
X38634120Y-43892149D01*
X38587371Y-43862781D01*
X38504848Y-43780258D01*
X49319500Y-43780258D01*
X49319500Y-44009741D01*
X49340998Y-44173028D01*
X49349452Y-44237238D01*
X49349453Y-44237240D01*
X49408842Y-44458887D01*
X49496650Y-44670876D01*
X49496657Y-44670890D01*
X49611392Y-44869617D01*
X49751081Y-45051661D01*
X49751089Y-45051670D01*
X49913330Y-45213911D01*
X49913338Y-45213918D01*
X50095382Y-45353607D01*
X50095385Y-45353608D01*
X50095388Y-45353611D01*
X50294112Y-45468344D01*
X50294117Y-45468346D01*
X50294123Y-45468349D01*
X50385480Y-45506190D01*
X50506113Y-45556158D01*
X50727762Y-45615548D01*
X50955266Y-45645500D01*
X50955273Y-45645500D01*
X51184727Y-45645500D01*
X51184734Y-45645500D01*
X51412238Y-45615548D01*
X51633887Y-45556158D01*
X51845888Y-45468344D01*
X52044612Y-45353611D01*
X52226661Y-45213919D01*
X52226665Y-45213914D01*
X52226670Y-45213911D01*
X52388911Y-45051670D01*
X52388914Y-45051665D01*
X52388919Y-45051661D01*
X52528611Y-44869612D01*
X52643344Y-44670888D01*
X52645459Y-44665781D01*
X52673930Y-44597048D01*
X52717771Y-44542644D01*
X52784065Y-44520579D01*
X52788491Y-44520500D01*
X56474548Y-44520500D01*
X56541587Y-44540185D01*
X56562229Y-44556819D01*
X56752781Y-44747371D01*
X56786266Y-44808694D01*
X56785785Y-44855416D01*
X56787285Y-44855654D01*
X56754500Y-45062648D01*
X56754500Y-45267351D01*
X56786522Y-45469534D01*
X56849781Y-45664223D01*
X56942715Y-45846613D01*
X57063028Y-46012213D01*
X57207786Y-46156971D01*
X57362749Y-46269556D01*
X57373390Y-46277287D01*
X57457741Y-46320266D01*
X57555776Y-46370218D01*
X57555778Y-46370218D01*
X57555781Y-46370220D01*
X57660137Y-46404127D01*
X57750465Y-46433477D01*
X57851557Y-46449488D01*
X57952648Y-46465500D01*
X57952649Y-46465500D01*
X58157351Y-46465500D01*
X58157352Y-46465500D01*
X58359534Y-46433477D01*
X58554219Y-46370220D01*
X58736610Y-46277287D01*
X58829590Y-46209732D01*
X58902213Y-46156971D01*
X58902215Y-46156968D01*
X58902219Y-46156966D01*
X59046966Y-46012219D01*
X59046968Y-46012215D01*
X59046971Y-46012213D01*
X59099732Y-45939590D01*
X59167287Y-45846610D01*
X59260220Y-45664219D01*
X59323477Y-45469534D01*
X59355500Y-45267352D01*
X59355500Y-45062648D01*
X59341838Y-44976389D01*
X59323477Y-44860465D01*
X59260218Y-44665776D01*
X59197478Y-44542644D01*
X59167287Y-44483390D01*
X59149485Y-44458887D01*
X59046971Y-44317786D01*
X58902213Y-44173028D01*
X58736613Y-44052715D01*
X58736612Y-44052714D01*
X58736610Y-44052713D01*
X58652273Y-44009741D01*
X58554223Y-43959781D01*
X58359534Y-43896522D01*
X58184995Y-43868878D01*
X58157352Y-43864500D01*
X57952648Y-43864500D01*
X57849101Y-43880900D01*
X57745654Y-43897285D01*
X57745333Y-43895262D01*
X57684120Y-43892149D01*
X57637371Y-43862781D01*
X57554848Y-43780258D01*
X68369500Y-43780258D01*
X68369500Y-44009741D01*
X68390998Y-44173028D01*
X68399452Y-44237238D01*
X68399453Y-44237240D01*
X68458842Y-44458887D01*
X68546650Y-44670876D01*
X68546657Y-44670890D01*
X68661392Y-44869617D01*
X68801081Y-45051661D01*
X68801089Y-45051670D01*
X68963330Y-45213911D01*
X68963338Y-45213918D01*
X69145382Y-45353607D01*
X69145385Y-45353608D01*
X69145388Y-45353611D01*
X69344112Y-45468344D01*
X69344117Y-45468346D01*
X69344123Y-45468349D01*
X69435480Y-45506190D01*
X69556113Y-45556158D01*
X69777762Y-45615548D01*
X70005266Y-45645500D01*
X70005273Y-45645500D01*
X70234727Y-45645500D01*
X70234734Y-45645500D01*
X70462238Y-45615548D01*
X70683887Y-45556158D01*
X70895888Y-45468344D01*
X71094612Y-45353611D01*
X71276661Y-45213919D01*
X71276665Y-45213914D01*
X71276670Y-45213911D01*
X71438911Y-45051670D01*
X71438914Y-45051665D01*
X71438919Y-45051661D01*
X71578611Y-44869612D01*
X71693344Y-44670888D01*
X71695459Y-44665781D01*
X71723930Y-44597048D01*
X71767771Y-44542644D01*
X71834065Y-44520579D01*
X71838491Y-44520500D01*
X75524548Y-44520500D01*
X75591587Y-44540185D01*
X75612229Y-44556819D01*
X75802781Y-44747371D01*
X75836266Y-44808694D01*
X75835785Y-44855416D01*
X75837285Y-44855654D01*
X75804500Y-45062648D01*
X75804500Y-45267351D01*
X75836522Y-45469534D01*
X75899781Y-45664223D01*
X75992715Y-45846613D01*
X76113028Y-46012213D01*
X76257786Y-46156971D01*
X76412749Y-46269556D01*
X76423390Y-46277287D01*
X76507741Y-46320266D01*
X76605776Y-46370218D01*
X76605778Y-46370218D01*
X76605781Y-46370220D01*
X76710137Y-46404127D01*
X76800465Y-46433477D01*
X76901557Y-46449488D01*
X77002648Y-46465500D01*
X77002649Y-46465500D01*
X77207351Y-46465500D01*
X77207352Y-46465500D01*
X77409534Y-46433477D01*
X77604219Y-46370220D01*
X77786610Y-46277287D01*
X77879590Y-46209732D01*
X77952213Y-46156971D01*
X77952215Y-46156968D01*
X77952219Y-46156966D01*
X78096966Y-46012219D01*
X78096968Y-46012215D01*
X78096971Y-46012213D01*
X78149732Y-45939590D01*
X78217287Y-45846610D01*
X78310220Y-45664219D01*
X78373477Y-45469534D01*
X78405500Y-45267352D01*
X78405500Y-45062648D01*
X78391838Y-44976389D01*
X78373477Y-44860465D01*
X78310218Y-44665776D01*
X78247478Y-44542644D01*
X78217287Y-44483390D01*
X78199485Y-44458887D01*
X78096971Y-44317786D01*
X77952213Y-44173028D01*
X77786613Y-44052715D01*
X77786612Y-44052714D01*
X77786610Y-44052713D01*
X77702273Y-44009741D01*
X77604223Y-43959781D01*
X77409534Y-43896522D01*
X77234995Y-43868878D01*
X77207352Y-43864500D01*
X77002648Y-43864500D01*
X76899101Y-43880900D01*
X76795654Y-43897285D01*
X76795333Y-43895262D01*
X76734120Y-43892149D01*
X76687371Y-43862781D01*
X76604848Y-43780258D01*
X87419500Y-43780258D01*
X87419500Y-44009741D01*
X87440998Y-44173028D01*
X87449452Y-44237238D01*
X87449453Y-44237240D01*
X87508842Y-44458887D01*
X87596650Y-44670876D01*
X87596657Y-44670890D01*
X87711392Y-44869617D01*
X87851081Y-45051661D01*
X87851089Y-45051670D01*
X88013330Y-45213911D01*
X88013338Y-45213918D01*
X88195382Y-45353607D01*
X88195385Y-45353608D01*
X88195388Y-45353611D01*
X88394112Y-45468344D01*
X88394117Y-45468346D01*
X88394123Y-45468349D01*
X88485480Y-45506190D01*
X88606113Y-45556158D01*
X88827762Y-45615548D01*
X89055266Y-45645500D01*
X89055273Y-45645500D01*
X89284727Y-45645500D01*
X89284734Y-45645500D01*
X89512238Y-45615548D01*
X89733887Y-45556158D01*
X89945888Y-45468344D01*
X90144612Y-45353611D01*
X90326661Y-45213919D01*
X90326665Y-45213914D01*
X90326670Y-45213911D01*
X90488911Y-45051670D01*
X90488914Y-45051665D01*
X90488919Y-45051661D01*
X90628611Y-44869612D01*
X90743344Y-44670888D01*
X90745459Y-44665781D01*
X90773930Y-44597048D01*
X90817771Y-44542644D01*
X90884065Y-44520579D01*
X90888491Y-44520500D01*
X94574548Y-44520500D01*
X94641587Y-44540185D01*
X94662229Y-44556819D01*
X94852781Y-44747371D01*
X94886266Y-44808694D01*
X94885785Y-44855416D01*
X94887285Y-44855654D01*
X94854500Y-45062648D01*
X94854500Y-45267351D01*
X94886522Y-45469534D01*
X94949781Y-45664223D01*
X95042715Y-45846613D01*
X95163028Y-46012213D01*
X95307786Y-46156971D01*
X95462749Y-46269556D01*
X95473390Y-46277287D01*
X95557741Y-46320266D01*
X95655776Y-46370218D01*
X95655778Y-46370218D01*
X95655781Y-46370220D01*
X95760137Y-46404127D01*
X95850465Y-46433477D01*
X95951557Y-46449488D01*
X96052648Y-46465500D01*
X96052649Y-46465500D01*
X96257351Y-46465500D01*
X96257352Y-46465500D01*
X96459534Y-46433477D01*
X96654219Y-46370220D01*
X96836610Y-46277287D01*
X96929590Y-46209732D01*
X97002213Y-46156971D01*
X97002215Y-46156968D01*
X97002219Y-46156966D01*
X97146966Y-46012219D01*
X97146968Y-46012215D01*
X97146971Y-46012213D01*
X97199732Y-45939590D01*
X97267287Y-45846610D01*
X97360220Y-45664219D01*
X97423477Y-45469534D01*
X97455500Y-45267352D01*
X97455500Y-45062648D01*
X97441838Y-44976389D01*
X97423477Y-44860465D01*
X97360218Y-44665776D01*
X97297478Y-44542644D01*
X97267287Y-44483390D01*
X97249485Y-44458887D01*
X97146971Y-44317786D01*
X97002213Y-44173028D01*
X96836613Y-44052715D01*
X96836612Y-44052714D01*
X96836610Y-44052713D01*
X96752273Y-44009741D01*
X96654223Y-43959781D01*
X96459534Y-43896522D01*
X96284995Y-43868878D01*
X96257352Y-43864500D01*
X96052648Y-43864500D01*
X95949101Y-43880900D01*
X95845654Y-43897285D01*
X95845333Y-43895262D01*
X95784120Y-43892149D01*
X95737371Y-43862781D01*
X95378150Y-43503560D01*
X95370860Y-43496270D01*
X95370858Y-43496267D01*
X95283733Y-43409142D01*
X95232509Y-43374915D01*
X95181286Y-43340688D01*
X95181283Y-43340686D01*
X95181280Y-43340685D01*
X95107603Y-43310168D01*
X95107601Y-43310167D01*
X95100792Y-43307347D01*
X95067452Y-43293537D01*
X95007029Y-43281518D01*
X95002306Y-43280578D01*
X95002304Y-43280578D01*
X94946610Y-43269500D01*
X94946607Y-43269500D01*
X94946606Y-43269500D01*
X90888491Y-43269500D01*
X90821452Y-43249815D01*
X90775697Y-43197011D01*
X90773930Y-43192952D01*
X90743349Y-43119123D01*
X90743346Y-43119117D01*
X90743344Y-43119112D01*
X90628611Y-42920388D01*
X90628608Y-42920385D01*
X90628607Y-42920382D01*
X90488918Y-42738338D01*
X90488911Y-42738330D01*
X90326670Y-42576089D01*
X90326661Y-42576081D01*
X90144617Y-42436392D01*
X89945890Y-42321657D01*
X89945876Y-42321650D01*
X89733887Y-42233842D01*
X89512238Y-42174452D01*
X89474215Y-42169446D01*
X89284741Y-42144500D01*
X89284734Y-42144500D01*
X89055266Y-42144500D01*
X89055258Y-42144500D01*
X88838715Y-42173009D01*
X88827762Y-42174452D01*
X88734076Y-42199554D01*
X88606112Y-42233842D01*
X88394123Y-42321650D01*
X88394109Y-42321657D01*
X88195382Y-42436392D01*
X88013338Y-42576081D01*
X87851081Y-42738338D01*
X87711392Y-42920382D01*
X87596657Y-43119109D01*
X87596650Y-43119123D01*
X87508842Y-43331112D01*
X87508842Y-43331113D01*
X87462636Y-43503560D01*
X87449453Y-43552759D01*
X87449451Y-43552770D01*
X87419500Y-43780258D01*
X76604848Y-43780258D01*
X76328150Y-43503560D01*
X76320860Y-43496270D01*
X76320858Y-43496267D01*
X76233733Y-43409142D01*
X76182509Y-43374915D01*
X76131286Y-43340688D01*
X76131283Y-43340686D01*
X76131280Y-43340685D01*
X76057603Y-43310168D01*
X76057601Y-43310167D01*
X76050792Y-43307347D01*
X76017452Y-43293537D01*
X75957029Y-43281518D01*
X75952306Y-43280578D01*
X75952304Y-43280578D01*
X75896610Y-43269500D01*
X75896607Y-43269500D01*
X75896606Y-43269500D01*
X71838491Y-43269500D01*
X71771452Y-43249815D01*
X71725697Y-43197011D01*
X71723930Y-43192952D01*
X71693349Y-43119123D01*
X71693346Y-43119117D01*
X71693344Y-43119112D01*
X71578611Y-42920388D01*
X71578608Y-42920385D01*
X71578607Y-42920382D01*
X71438918Y-42738338D01*
X71438911Y-42738330D01*
X71276670Y-42576089D01*
X71276661Y-42576081D01*
X71094617Y-42436392D01*
X70895890Y-42321657D01*
X70895876Y-42321650D01*
X70683887Y-42233842D01*
X70462238Y-42174452D01*
X70424215Y-42169446D01*
X70234741Y-42144500D01*
X70234734Y-42144500D01*
X70005266Y-42144500D01*
X70005258Y-42144500D01*
X69788715Y-42173009D01*
X69777762Y-42174452D01*
X69684076Y-42199554D01*
X69556112Y-42233842D01*
X69344123Y-42321650D01*
X69344109Y-42321657D01*
X69145382Y-42436392D01*
X68963338Y-42576081D01*
X68801081Y-42738338D01*
X68661392Y-42920382D01*
X68546657Y-43119109D01*
X68546650Y-43119123D01*
X68458842Y-43331112D01*
X68458842Y-43331113D01*
X68412636Y-43503560D01*
X68399453Y-43552759D01*
X68399451Y-43552770D01*
X68369500Y-43780258D01*
X57554848Y-43780258D01*
X57278150Y-43503560D01*
X57270860Y-43496270D01*
X57270858Y-43496267D01*
X57183733Y-43409142D01*
X57132509Y-43374915D01*
X57081286Y-43340688D01*
X57081283Y-43340686D01*
X57081280Y-43340685D01*
X57007603Y-43310168D01*
X57007601Y-43310167D01*
X57000792Y-43307347D01*
X56967452Y-43293537D01*
X56907029Y-43281518D01*
X56902306Y-43280578D01*
X56902304Y-43280578D01*
X56846610Y-43269500D01*
X56846607Y-43269500D01*
X56846606Y-43269500D01*
X52788491Y-43269500D01*
X52721452Y-43249815D01*
X52675697Y-43197011D01*
X52673930Y-43192952D01*
X52643349Y-43119123D01*
X52643346Y-43119117D01*
X52643344Y-43119112D01*
X52528611Y-42920388D01*
X52528608Y-42920385D01*
X52528607Y-42920382D01*
X52388918Y-42738338D01*
X52388911Y-42738330D01*
X52226670Y-42576089D01*
X52226661Y-42576081D01*
X52044617Y-42436392D01*
X51845890Y-42321657D01*
X51845876Y-42321650D01*
X51633887Y-42233842D01*
X51412238Y-42174452D01*
X51374215Y-42169446D01*
X51184741Y-42144500D01*
X51184734Y-42144500D01*
X50955266Y-42144500D01*
X50955258Y-42144500D01*
X50738715Y-42173009D01*
X50727762Y-42174452D01*
X50634076Y-42199554D01*
X50506112Y-42233842D01*
X50294123Y-42321650D01*
X50294109Y-42321657D01*
X50095382Y-42436392D01*
X49913338Y-42576081D01*
X49751081Y-42738338D01*
X49611392Y-42920382D01*
X49496657Y-43119109D01*
X49496650Y-43119123D01*
X49408842Y-43331112D01*
X49408842Y-43331113D01*
X49362636Y-43503560D01*
X49349453Y-43552759D01*
X49349451Y-43552770D01*
X49319500Y-43780258D01*
X38504848Y-43780258D01*
X38228150Y-43503560D01*
X38220860Y-43496270D01*
X38220858Y-43496267D01*
X38133733Y-43409142D01*
X38082509Y-43374915D01*
X38031286Y-43340688D01*
X38031283Y-43340686D01*
X38031280Y-43340685D01*
X37957603Y-43310168D01*
X37957601Y-43310167D01*
X37950792Y-43307347D01*
X37917452Y-43293537D01*
X37857029Y-43281518D01*
X37852306Y-43280578D01*
X37852304Y-43280578D01*
X37796610Y-43269500D01*
X37796607Y-43269500D01*
X37796606Y-43269500D01*
X33738491Y-43269500D01*
X33671452Y-43249815D01*
X33625697Y-43197011D01*
X33623930Y-43192952D01*
X33593349Y-43119123D01*
X33593346Y-43119117D01*
X33593344Y-43119112D01*
X33478611Y-42920388D01*
X33478608Y-42920385D01*
X33478607Y-42920382D01*
X33338918Y-42738338D01*
X33338911Y-42738330D01*
X33176670Y-42576089D01*
X33176661Y-42576081D01*
X32994617Y-42436392D01*
X32795890Y-42321657D01*
X32795876Y-42321650D01*
X32583887Y-42233842D01*
X32362238Y-42174452D01*
X32324215Y-42169446D01*
X32134741Y-42144500D01*
X32134734Y-42144500D01*
X31905266Y-42144500D01*
X31905258Y-42144500D01*
X31688715Y-42173009D01*
X31677762Y-42174452D01*
X31584076Y-42199554D01*
X31456112Y-42233842D01*
X31244123Y-42321650D01*
X31244109Y-42321657D01*
X31045382Y-42436392D01*
X30863338Y-42576081D01*
X30701081Y-42738338D01*
X30561392Y-42920382D01*
X30446657Y-43119109D01*
X30446650Y-43119123D01*
X30358842Y-43331112D01*
X30358842Y-43331113D01*
X30312636Y-43503560D01*
X30299453Y-43552759D01*
X30299451Y-43552770D01*
X30269500Y-43780258D01*
X19080500Y-43780258D01*
X19080500Y-38260452D01*
X19100185Y-38193413D01*
X19116819Y-38172771D01*
X21177771Y-36111819D01*
X21239094Y-36078334D01*
X21265452Y-36075500D01*
X61016607Y-36075500D01*
X61077029Y-36063481D01*
X61137452Y-36051463D01*
X61173320Y-36036606D01*
X61251286Y-36004312D01*
X61302509Y-35970084D01*
X61353733Y-35935858D01*
X61440858Y-35848733D01*
X61440858Y-35848731D01*
X61451066Y-35838524D01*
X61451067Y-35838521D01*
X62810858Y-34478733D01*
X62879312Y-34376285D01*
X62926463Y-34262451D01*
X62950501Y-34141606D01*
X62950501Y-34018393D01*
X62950501Y-34013283D01*
X62950500Y-34013257D01*
X62950500Y-33787401D01*
X62970185Y-33720362D01*
X62986814Y-33699723D01*
X63058148Y-33628389D01*
X63072939Y-33615758D01*
X63152464Y-33557981D01*
X63292981Y-33417464D01*
X63409787Y-33256694D01*
X63500005Y-33079632D01*
X63561413Y-32890636D01*
X63592500Y-32694361D01*
X63592500Y-32495639D01*
X63561413Y-32299364D01*
X63500005Y-32110368D01*
X63500005Y-32110367D01*
X63428229Y-31969500D01*
X63409787Y-31933306D01*
X63292981Y-31772536D01*
X63152464Y-31632019D01*
X63072937Y-31574239D01*
X63066175Y-31568960D01*
X63062000Y-31565461D01*
X62961947Y-31465408D01*
X62896259Y-31426560D01*
X62888477Y-31420038D01*
X62874510Y-31399073D01*
X62857321Y-31380663D01*
X62855471Y-31370492D01*
X62849740Y-31361890D01*
X62849324Y-31336702D01*
X62844817Y-31311921D01*
X62848758Y-31302366D01*
X62848588Y-31292030D01*
X62861856Y-31270616D01*
X62871462Y-31247332D01*
X62881874Y-31238309D01*
X62885389Y-31232638D01*
X62892127Y-31229425D01*
X62905004Y-31218268D01*
X62961947Y-31184592D01*
X63058148Y-31088389D01*
X63072939Y-31075758D01*
X63152464Y-31017981D01*
X63292981Y-30877464D01*
X63409787Y-30716694D01*
X63500005Y-30539632D01*
X63561413Y-30350636D01*
X63592500Y-30154361D01*
X63592500Y-29955639D01*
X63561413Y-29759364D01*
X63500005Y-29570368D01*
X63500005Y-29570367D01*
X63433873Y-29440578D01*
X63409787Y-29393306D01*
X63292981Y-29232536D01*
X63152464Y-29092019D01*
X63072937Y-29034239D01*
X63066175Y-29028960D01*
X63062000Y-29025461D01*
X62961947Y-28925408D01*
X62896259Y-28886560D01*
X62888477Y-28880038D01*
X62874510Y-28859073D01*
X62857321Y-28840663D01*
X62855471Y-28830492D01*
X62849740Y-28821890D01*
X62849324Y-28796702D01*
X62844817Y-28771921D01*
X62848758Y-28762366D01*
X62848588Y-28752030D01*
X62861856Y-28730616D01*
X62871462Y-28707332D01*
X62881874Y-28698309D01*
X62885389Y-28692638D01*
X62892127Y-28689425D01*
X62905004Y-28678268D01*
X62911051Y-28674692D01*
X62961947Y-28644592D01*
X63058148Y-28548389D01*
X63072939Y-28535758D01*
X63152464Y-28477981D01*
X63292981Y-28337464D01*
X63409787Y-28176694D01*
X63500005Y-27999632D01*
X63561413Y-27810636D01*
X63592500Y-27614361D01*
X63592500Y-27415639D01*
X63561413Y-27219364D01*
X63500005Y-27030368D01*
X63500005Y-27030367D01*
X63441693Y-26915925D01*
X63409787Y-26853306D01*
X63292981Y-26692536D01*
X63152464Y-26552019D01*
X63072937Y-26494239D01*
X63066175Y-26488960D01*
X63062000Y-26485461D01*
X62961947Y-26385408D01*
X62896259Y-26346560D01*
X62888477Y-26340038D01*
X62874510Y-26319073D01*
X62857321Y-26300663D01*
X62855471Y-26290492D01*
X62849740Y-26281890D01*
X62849324Y-26256702D01*
X62844817Y-26231921D01*
X62848758Y-26222366D01*
X62848588Y-26212030D01*
X62861856Y-26190616D01*
X62871462Y-26167332D01*
X62881874Y-26158309D01*
X62885389Y-26152638D01*
X62892127Y-26149425D01*
X62905004Y-26138268D01*
X62911051Y-26134692D01*
X62961947Y-26104592D01*
X63058148Y-26008389D01*
X63072939Y-25995758D01*
X63152464Y-25937981D01*
X63292981Y-25797464D01*
X63409787Y-25636694D01*
X63500005Y-25459632D01*
X63561413Y-25270636D01*
X63592500Y-25074361D01*
X63592500Y-24875639D01*
X63561413Y-24679364D01*
X63500005Y-24490368D01*
X63500005Y-24490367D01*
X63454035Y-24400149D01*
X63409787Y-24313306D01*
X63292981Y-24152536D01*
X63152464Y-24012019D01*
X63072937Y-23954239D01*
X63066175Y-23948960D01*
X63062000Y-23945461D01*
X62961947Y-23845408D01*
X62896259Y-23806560D01*
X62888477Y-23800038D01*
X62874510Y-23779073D01*
X62857321Y-23760663D01*
X62855471Y-23750492D01*
X62849740Y-23741890D01*
X62849324Y-23716702D01*
X62844817Y-23691921D01*
X62848758Y-23682366D01*
X62848588Y-23672030D01*
X62861856Y-23650616D01*
X62871462Y-23627332D01*
X62881874Y-23618309D01*
X62885389Y-23612638D01*
X62892127Y-23609425D01*
X62905004Y-23598268D01*
X62961947Y-23564592D01*
X63058148Y-23468389D01*
X63072939Y-23455758D01*
X63152464Y-23397981D01*
X63292981Y-23257464D01*
X63409787Y-23096694D01*
X63500005Y-22919632D01*
X63561413Y-22730636D01*
X63592500Y-22534361D01*
X63592500Y-22335639D01*
X63561413Y-22139364D01*
X63502317Y-21957483D01*
X63500006Y-21950370D01*
X63500005Y-21950367D01*
X63409786Y-21773305D01*
X63292981Y-21612536D01*
X63152464Y-21472019D01*
X63072937Y-21414239D01*
X63066175Y-21408960D01*
X63062000Y-21405461D01*
X62961947Y-21305408D01*
X62896259Y-21266560D01*
X62888477Y-21260038D01*
X62874510Y-21239073D01*
X62857321Y-21220663D01*
X62855471Y-21210492D01*
X62849740Y-21201890D01*
X62849324Y-21176702D01*
X62844817Y-21151921D01*
X62848758Y-21142366D01*
X62848588Y-21132030D01*
X62861856Y-21110616D01*
X62871462Y-21087332D01*
X62881874Y-21078309D01*
X62885389Y-21072638D01*
X62892127Y-21069425D01*
X62905004Y-21058268D01*
X62905498Y-21057976D01*
X62961947Y-21024592D01*
X63058148Y-20928389D01*
X63072939Y-20915758D01*
X63152464Y-20857981D01*
X63292981Y-20717464D01*
X63409787Y-20556694D01*
X63500005Y-20379632D01*
X63561413Y-20190636D01*
X63592500Y-19994361D01*
X63592500Y-19795639D01*
X63561413Y-19599364D01*
X63561412Y-19599362D01*
X63561412Y-19599359D01*
X63500006Y-19410370D01*
X63500005Y-19410367D01*
X63409786Y-19233305D01*
X63399762Y-19219508D01*
X63292981Y-19072536D01*
X63152464Y-18932019D01*
X63072938Y-18874240D01*
X63066175Y-18868960D01*
X63062000Y-18865461D01*
X62961947Y-18765408D01*
X62896259Y-18726560D01*
X62888477Y-18720038D01*
X62874510Y-18699073D01*
X62857321Y-18680663D01*
X62855471Y-18670492D01*
X62849740Y-18661890D01*
X62849324Y-18636702D01*
X62844817Y-18611921D01*
X62848758Y-18602366D01*
X62848588Y-18592030D01*
X62861856Y-18570616D01*
X62871462Y-18547332D01*
X62881874Y-18538309D01*
X62885389Y-18532638D01*
X62892127Y-18529425D01*
X62905004Y-18518268D01*
X62961947Y-18484592D01*
X63058148Y-18388389D01*
X63072939Y-18375758D01*
X63152464Y-18317981D01*
X63292981Y-18177464D01*
X63409787Y-18016694D01*
X63500005Y-17839632D01*
X63561413Y-17650636D01*
X63592500Y-17454361D01*
X63592500Y-17255639D01*
X63561413Y-17059364D01*
X63500005Y-16870368D01*
X63500005Y-16870367D01*
X63409786Y-16693305D01*
X63292981Y-16532536D01*
X63152464Y-16392019D01*
X63072937Y-16334239D01*
X63058147Y-16321608D01*
X62961947Y-16225408D01*
X62961946Y-16225407D01*
X62961943Y-16225405D01*
X62819957Y-16141435D01*
X62819954Y-16141434D01*
X62661552Y-16095413D01*
X62661546Y-16095412D01*
X62624541Y-16092500D01*
X62624534Y-16092500D01*
X60365466Y-16092500D01*
X60365458Y-16092500D01*
X60328453Y-16095412D01*
X60328447Y-16095413D01*
X60170045Y-16141434D01*
X60170042Y-16141435D01*
X60028056Y-16225405D01*
X60028047Y-16225412D01*
X59911412Y-16342047D01*
X59911405Y-16342056D01*
X59827435Y-16484042D01*
X59827434Y-16484045D01*
X59781413Y-16642447D01*
X59781412Y-16642453D01*
X59778500Y-16679458D01*
X59778500Y-18030541D01*
X59781412Y-18067546D01*
X59781413Y-18067552D01*
X59827434Y-18225954D01*
X59827435Y-18225957D01*
X59911405Y-18367943D01*
X59911412Y-18367952D01*
X60028047Y-18484587D01*
X60028050Y-18484589D01*
X60028053Y-18484592D01*
X60084996Y-18518268D01*
X60132679Y-18569338D01*
X60145182Y-18638079D01*
X60118536Y-18702669D01*
X60084996Y-18731731D01*
X60028053Y-18765408D01*
X60028047Y-18765412D01*
X59911412Y-18882047D01*
X59911405Y-18882056D01*
X59827435Y-19024042D01*
X59827434Y-19024045D01*
X59781413Y-19182447D01*
X59781412Y-19182453D01*
X59778500Y-19219458D01*
X59778500Y-20570541D01*
X59781412Y-20607546D01*
X59781413Y-20607552D01*
X59827434Y-20765954D01*
X59827435Y-20765957D01*
X59911405Y-20907943D01*
X59911412Y-20907952D01*
X60028047Y-21024587D01*
X60028050Y-21024589D01*
X60028053Y-21024592D01*
X60084502Y-21057976D01*
X60084996Y-21058268D01*
X60132679Y-21109338D01*
X60145182Y-21178079D01*
X60118536Y-21242669D01*
X60084996Y-21271732D01*
X60028053Y-21305408D01*
X60028047Y-21305412D01*
X59911412Y-21422047D01*
X59911405Y-21422056D01*
X59827435Y-21564042D01*
X59827434Y-21564045D01*
X59781413Y-21722447D01*
X59781412Y-21722453D01*
X59778500Y-21759458D01*
X59778500Y-23110541D01*
X59781412Y-23147546D01*
X59781413Y-23147552D01*
X59827434Y-23305954D01*
X59827435Y-23305957D01*
X59911405Y-23447943D01*
X59911412Y-23447952D01*
X60028047Y-23564587D01*
X60028050Y-23564589D01*
X60028053Y-23564592D01*
X60084996Y-23598268D01*
X60132679Y-23649338D01*
X60145182Y-23718079D01*
X60118536Y-23782669D01*
X60084996Y-23811732D01*
X60028053Y-23845408D01*
X60028047Y-23845412D01*
X59911412Y-23962047D01*
X59911405Y-23962056D01*
X59827435Y-24104042D01*
X59827434Y-24104045D01*
X59781413Y-24262447D01*
X59781412Y-24262453D01*
X59778500Y-24299458D01*
X59778500Y-25650541D01*
X59781412Y-25687546D01*
X59781413Y-25687552D01*
X59827434Y-25845954D01*
X59827435Y-25845957D01*
X59911405Y-25987943D01*
X59911412Y-25987952D01*
X60028047Y-26104587D01*
X60028050Y-26104589D01*
X60028053Y-26104592D01*
X60078949Y-26134692D01*
X60084996Y-26138268D01*
X60132679Y-26189338D01*
X60145182Y-26258079D01*
X60118536Y-26322669D01*
X60084996Y-26351732D01*
X60028053Y-26385408D01*
X60028047Y-26385412D01*
X59911412Y-26502047D01*
X59911405Y-26502056D01*
X59827435Y-26644042D01*
X59827434Y-26644045D01*
X59781413Y-26802447D01*
X59781412Y-26802453D01*
X59778500Y-26839458D01*
X59778500Y-28190541D01*
X59781412Y-28227546D01*
X59781413Y-28227552D01*
X59827434Y-28385954D01*
X59827435Y-28385957D01*
X59911405Y-28527943D01*
X59911412Y-28527952D01*
X60028047Y-28644587D01*
X60028050Y-28644589D01*
X60028053Y-28644592D01*
X60078949Y-28674692D01*
X60084996Y-28678268D01*
X60132679Y-28729338D01*
X60145182Y-28798079D01*
X60118536Y-28862669D01*
X60084996Y-28891732D01*
X60028053Y-28925408D01*
X60028047Y-28925412D01*
X59911412Y-29042047D01*
X59911405Y-29042056D01*
X59827435Y-29184042D01*
X59827434Y-29184045D01*
X59781413Y-29342447D01*
X59781412Y-29342453D01*
X59778500Y-29379458D01*
X59778500Y-30730541D01*
X59781412Y-30767546D01*
X59781413Y-30767552D01*
X59827434Y-30925954D01*
X59827435Y-30925957D01*
X59827436Y-30925959D01*
X59846218Y-30957718D01*
X59911405Y-31067943D01*
X59911412Y-31067952D01*
X60028047Y-31184587D01*
X60028050Y-31184589D01*
X60028053Y-31184592D01*
X60084996Y-31218268D01*
X60132679Y-31269338D01*
X60145182Y-31338079D01*
X60118536Y-31402669D01*
X60084996Y-31431732D01*
X60028053Y-31465408D01*
X60028047Y-31465412D01*
X59911412Y-31582047D01*
X59911405Y-31582056D01*
X59827435Y-31724042D01*
X59827434Y-31724045D01*
X59781413Y-31882447D01*
X59781412Y-31882453D01*
X59778500Y-31919458D01*
X59778500Y-33270541D01*
X59781412Y-33307546D01*
X59781413Y-33307552D01*
X59827434Y-33465954D01*
X59827435Y-33465957D01*
X59911405Y-33607943D01*
X59911412Y-33607952D01*
X60028047Y-33724587D01*
X60028056Y-33724594D01*
X60067287Y-33747795D01*
X60170041Y-33808564D01*
X60211816Y-33820701D01*
X60328447Y-33854586D01*
X60328450Y-33854586D01*
X60328452Y-33854587D01*
X60365466Y-33857500D01*
X61363547Y-33857500D01*
X61430586Y-33877185D01*
X61476341Y-33929989D01*
X61486285Y-33999147D01*
X61457260Y-34062703D01*
X61451228Y-34069181D01*
X60732229Y-34788181D01*
X60670906Y-34821666D01*
X60644548Y-34824500D01*
X20893389Y-34824500D01*
X20842535Y-34834615D01*
X20842530Y-34834616D01*
X20832971Y-34836518D01*
X20772548Y-34848537D01*
X20725397Y-34868067D01*
X20658715Y-34895688D01*
X20658714Y-34895689D01*
X20636347Y-34910633D01*
X20636344Y-34910635D01*
X20556268Y-34964140D01*
X20512705Y-35007703D01*
X20469142Y-35051267D01*
X17969141Y-37551267D01*
X17959076Y-37566331D01*
X17952438Y-37576267D01*
X17947565Y-37583560D01*
X17900687Y-37653714D01*
X17900685Y-37653718D01*
X17853540Y-37767538D01*
X17853535Y-37767554D01*
X17831461Y-37878529D01*
X17831462Y-37878530D01*
X17829500Y-37888394D01*
X15955500Y-37888394D01*
X15955500Y-24763713D01*
X53104500Y-24763713D01*
X53104500Y-24976287D01*
X53114534Y-25039644D01*
X53120033Y-25074361D01*
X53137754Y-25186243D01*
X53187897Y-25340568D01*
X53203444Y-25388414D01*
X53299951Y-25577820D01*
X53424890Y-25749786D01*
X53575213Y-25900109D01*
X53747182Y-26025050D01*
X53755946Y-26029516D01*
X53806742Y-26077491D01*
X53823536Y-26145312D01*
X53800998Y-26211447D01*
X53755946Y-26250484D01*
X53747182Y-26254949D01*
X53575213Y-26379890D01*
X53575212Y-26379892D01*
X53424894Y-26530209D01*
X53424890Y-26530213D01*
X53299951Y-26702179D01*
X53203444Y-26891585D01*
X53137753Y-27093760D01*
X53104500Y-27303713D01*
X53104500Y-27516286D01*
X53130026Y-27677455D01*
X53137754Y-27726243D01*
X53165175Y-27810637D01*
X53203444Y-27928414D01*
X53299951Y-28117820D01*
X53424890Y-28289786D01*
X53575213Y-28440109D01*
X53747182Y-28565050D01*
X53755946Y-28569516D01*
X53806742Y-28617491D01*
X53823536Y-28685312D01*
X53800998Y-28751447D01*
X53755946Y-28790484D01*
X53747182Y-28794949D01*
X53575213Y-28919890D01*
X53575212Y-28919892D01*
X53424894Y-29070209D01*
X53424890Y-29070213D01*
X53299951Y-29242179D01*
X53203444Y-29431585D01*
X53137753Y-29633760D01*
X53104500Y-29843713D01*
X53104500Y-30056286D01*
X53120033Y-30154361D01*
X53137754Y-30266243D01*
X53165175Y-30350637D01*
X53203444Y-30468414D01*
X53299951Y-30657820D01*
X53424890Y-30829786D01*
X53575213Y-30980109D01*
X53747179Y-31105048D01*
X53747181Y-31105049D01*
X53747184Y-31105051D01*
X53936588Y-31201557D01*
X54138757Y-31267246D01*
X54348713Y-31300500D01*
X54348714Y-31300500D01*
X54561286Y-31300500D01*
X54561287Y-31300500D01*
X54771243Y-31267246D01*
X54973412Y-31201557D01*
X55162816Y-31105051D01*
X55213891Y-31067943D01*
X55334786Y-30980109D01*
X55334788Y-30980106D01*
X55334792Y-30980104D01*
X55485104Y-30829792D01*
X55485106Y-30829788D01*
X55485109Y-30829786D01*
X55610048Y-30657820D01*
X55610047Y-30657820D01*
X55610051Y-30657816D01*
X55706557Y-30468412D01*
X55772246Y-30266243D01*
X55805500Y-30056287D01*
X55805500Y-29843713D01*
X55772246Y-29633757D01*
X55706557Y-29431588D01*
X55610051Y-29242184D01*
X55610049Y-29242181D01*
X55610048Y-29242179D01*
X55485109Y-29070213D01*
X55334786Y-28919890D01*
X55162820Y-28794951D01*
X55162115Y-28794591D01*
X55154054Y-28790485D01*
X55103259Y-28742512D01*
X55086463Y-28674692D01*
X55108999Y-28608556D01*
X55154054Y-28569515D01*
X55162816Y-28565051D01*
X55213891Y-28527943D01*
X55334786Y-28440109D01*
X55334788Y-28440106D01*
X55334792Y-28440104D01*
X55485104Y-28289792D01*
X55485106Y-28289788D01*
X55485109Y-28289786D01*
X55610048Y-28117820D01*
X55610047Y-28117820D01*
X55610051Y-28117816D01*
X55706557Y-27928412D01*
X55772246Y-27726243D01*
X55805500Y-27516287D01*
X55805500Y-27303713D01*
X55772246Y-27093757D01*
X55706557Y-26891588D01*
X55610051Y-26702184D01*
X55610049Y-26702181D01*
X55610048Y-26702179D01*
X55485109Y-26530213D01*
X55334786Y-26379890D01*
X55162820Y-26254951D01*
X55162115Y-26254591D01*
X55154054Y-26250485D01*
X55103259Y-26202512D01*
X55086463Y-26134692D01*
X55108999Y-26068556D01*
X55154054Y-26029515D01*
X55162816Y-26025051D01*
X55266116Y-25950000D01*
X55334786Y-25900109D01*
X55334788Y-25900106D01*
X55334792Y-25900104D01*
X55485104Y-25749792D01*
X55485106Y-25749788D01*
X55485109Y-25749786D01*
X55610048Y-25577820D01*
X55610047Y-25577820D01*
X55610051Y-25577816D01*
X55706557Y-25388412D01*
X55772246Y-25186243D01*
X55805500Y-24976287D01*
X55805500Y-24763713D01*
X55772246Y-24553757D01*
X55706557Y-24351588D01*
X55610051Y-24162184D01*
X55610049Y-24162181D01*
X55610048Y-24162179D01*
X55485109Y-23990213D01*
X55371181Y-23876285D01*
X55337696Y-23814962D01*
X55342680Y-23745270D01*
X55384552Y-23689337D01*
X55415529Y-23672422D01*
X55547086Y-23623354D01*
X55547093Y-23623350D01*
X55662187Y-23537190D01*
X55662190Y-23537187D01*
X55748350Y-23422093D01*
X55748354Y-23422086D01*
X55798596Y-23287379D01*
X55798598Y-23287372D01*
X55804999Y-23227844D01*
X55805000Y-23227827D01*
X55805000Y-22580000D01*
X54888012Y-22580000D01*
X54920925Y-22522993D01*
X54955000Y-22395826D01*
X54955000Y-22264174D01*
X54920925Y-22137007D01*
X54888012Y-22080000D01*
X55805000Y-22080000D01*
X55805000Y-21432172D01*
X55804999Y-21432155D01*
X55798598Y-21372627D01*
X55798596Y-21372620D01*
X55748354Y-21237913D01*
X55748350Y-21237906D01*
X55662190Y-21122812D01*
X55662187Y-21122809D01*
X55547093Y-21036649D01*
X55547086Y-21036645D01*
X55412379Y-20986403D01*
X55412372Y-20986401D01*
X55352844Y-20980000D01*
X54705000Y-20980000D01*
X54705000Y-21896988D01*
X54647993Y-21864075D01*
X54520826Y-21830000D01*
X54389174Y-21830000D01*
X54262007Y-21864075D01*
X54205000Y-21896988D01*
X54205000Y-20980000D01*
X53557155Y-20980000D01*
X53497627Y-20986401D01*
X53497620Y-20986403D01*
X53362913Y-21036645D01*
X53362906Y-21036649D01*
X53247812Y-21122809D01*
X53247809Y-21122812D01*
X53161649Y-21237906D01*
X53161645Y-21237913D01*
X53111403Y-21372620D01*
X53111401Y-21372627D01*
X53105000Y-21432155D01*
X53105000Y-22080000D01*
X54021988Y-22080000D01*
X53989075Y-22137007D01*
X53955000Y-22264174D01*
X53955000Y-22395826D01*
X53989075Y-22522993D01*
X54021988Y-22580000D01*
X53105000Y-22580000D01*
X53105000Y-23227844D01*
X53111401Y-23287372D01*
X53111403Y-23287379D01*
X53161645Y-23422086D01*
X53161649Y-23422093D01*
X53247809Y-23537187D01*
X53247812Y-23537190D01*
X53362906Y-23623350D01*
X53362913Y-23623354D01*
X53494470Y-23672422D01*
X53550404Y-23714293D01*
X53574821Y-23779758D01*
X53559969Y-23848031D01*
X53538819Y-23876285D01*
X53424889Y-23990215D01*
X53299951Y-24162179D01*
X53203444Y-24351585D01*
X53137753Y-24553760D01*
X53108821Y-24736433D01*
X53104500Y-24763713D01*
X15955500Y-24763713D01*
X15955500Y-14074500D01*
X15975185Y-14007461D01*
X16027989Y-13961706D01*
X16079500Y-13950500D01*
X105830500Y-13950500D01*
X105897539Y-13970185D01*
G37*
%TD.AperFunction*%
%TD*%
M02*
